<svg xmlns="http://www.w3.org/2000/svg" xmlns:xlink="http://www.w3.org/1999/xlink" viewBox="0 0 288.43 371.48"><defs><style>.cls-1{fill:none;}.cls-2{isolation:isolate;}.cls-3{fill:url(#Безымянный_градиент_2);}.cls-4{fill:#d7e3fd;}.cls-5{fill:#2d426f;}.cls-6{fill:#fff;}.cls-7{fill:#f96266;}.cls-8{fill:#f1f3ff;}.cls-9{clip-path:url(#clip-path);}.cls-10,.cls-12{opacity:0.3;}.cls-11{fill:#f84748;}.cls-12{mix-blend-mode:multiply;}</style><linearGradient id="Безымянный_градиент_2" x1="1773.51" y1="238.68" x2="2061.01" y2="238.68" gradientTransform="matrix(-1, 0, 0, 1, 2061.47, 0)" gradientUnits="userSpaceOnUse"><stop offset="0" stop-color="#2a3b67"/><stop offset="1" stop-color="#4861b0"/></linearGradient><clipPath id="clip-path" transform="translate(0 49.15)"><path class="cls-1" d="M185.54,29.66a71.41,71.41,0,0,1-9.19.59c-12.17,0-25.56-3.11-38.95-9,4.18,53.9,25.29,97.11,55.77,145,26.54-11.73,44.88-29.34,48.61-74.8l.72-8.7C222.15,70.37,202.5,52,185.54,29.66Z"/></clipPath></defs><g class="cls-2"><g id="Слой_2" data-name="Слой 2"><g id="Layer_1" data-name="Layer 1"><path class="cls-3" d="M284.68,206.62l-87.61-49.4a16.4,16.4,0,0,0-16.4,0L3.75,259.37a6.55,6.55,0,0,0,0,11.36l87.61,49.4a16.4,16.4,0,0,0,16.4,0L284.68,218A6.55,6.55,0,0,0,284.68,206.62Z" transform="translate(0 49.15)"/><path class="cls-4" d="M284.68,199.9l-87.61-49.4a16.45,16.45,0,0,0-16.4,0L3.75,252.65l0,0L.47,250.54v7.77A6.47,6.47,0,0,0,3.75,264l87.61,49.4a16.4,16.4,0,0,0,16.4,0L284.68,211.27a6.51,6.51,0,0,0,3.28-5.51v-7.87l-3.14,2.1Z" transform="translate(0 49.15)"/><path class="cls-5" d="M288.18,197.48a.48.48,0,0,0-.48,0l-2.89,1.94L197.3,150.1a16.94,16.94,0,0,0-16.87,0l-176.7,102-3-2a.44.44,0,0,0-.48,0,.45.45,0,0,0-.24.41v7.77a7,7,0,0,0,3.51,6.11l87.62,49.39a16.87,16.87,0,0,0,16.87,0L284.92,211.67a7,7,0,0,0,3.51-5.91v-7.87A.47.47,0,0,0,288.18,197.48ZM3.47,252.28h0Zm284-46.53a6.06,6.06,0,0,1-3.05,5.11L107.53,313a16,16,0,0,1-15.94,0L4,263.61a6,6,0,0,1-3-5.3V251.4l2.52,1.66a.53.53,0,0,0,.53,0L180.9,150.91a16,16,0,0,1,15.94,0l87.64,49.42.1.06a.45.45,0,0,0,.5,0l2.42-1.62Z" transform="translate(0 49.15)"/><path class="cls-6" d="M284.68,192.52l-87.61-49.4a16.4,16.4,0,0,0-16.4,0L3.75,245.27a6.55,6.55,0,0,0,0,11.36L91.36,306a16.4,16.4,0,0,0,16.4,0L284.68,203.89A6.56,6.56,0,0,0,284.68,192.52Z" transform="translate(0 49.15)"/><path class="cls-5" d="M274.22,196,193,150.23a8.19,8.19,0,0,0-8.2,0L28.16,240.49a2.61,2.61,0,0,0,0,4.52l81.24,45.72a8.19,8.19,0,0,0,8.2,0l156.62-90.27A2.61,2.61,0,0,0,274.22,196Z" transform="translate(0 49.15)"/><path class="cls-5" d="M274.45,195.55,193.2,149.82a8.79,8.79,0,0,0-8.66,0L27.93,240.09a3.07,3.07,0,0,0,0,5.32l81.24,45.72a8.68,8.68,0,0,0,8.67,0l80.46-46.3-.47-.81-80.46,46.31a7.9,7.9,0,0,1-7.74,0L28.39,244.61a2.14,2.14,0,0,1-1.07-1.86,2.11,2.11,0,0,1,1.07-1.85L185,150.63a7.85,7.85,0,0,1,7.74,0L274,196.35a2.12,2.12,0,0,1,1.07,1.85,2.1,2.1,0,0,1-1.07,1.85L245.5,216.5l.47.8,28.48-16.44a3.06,3.06,0,0,0,0-5.31Z" transform="translate(0 49.15)"/><path class="cls-5" d="M284.92,192.12l-87.62-49.4a16.94,16.94,0,0,0-16.87,0L3.51,244.87a7,7,0,0,0,0,12.17l87.62,49.39a16.87,16.87,0,0,0,16.87,0L284.92,204.29a7,7,0,0,0,0-12.17Zm-.47,11.36L107.53,305.63a16,16,0,0,1-15.94,0L4,256.23a6.1,6.1,0,0,1,0-10.56L180.9,143.53a16,16,0,0,1,15.94,0l87.61,49.39a6.1,6.1,0,0,1,0,10.56Z" transform="translate(0 49.15)"/><path class="cls-5" d="M83.46,279.07,43.88,257.41c-2.2-1.27-5.89-1.13-8.41.33l-1.66.95a3.73,3.73,0,0,0-2.18,3,2.84,2.84,0,0,0,1.61,2.4l39.58,21.66a7.52,7.52,0,0,0,3.7.86,9.68,9.68,0,0,0,4.72-1.19l1.65-1a3.7,3.7,0,0,0,2.18-3A2.82,2.82,0,0,0,83.46,279.07Zm-1,4.59-1.66,1c-2.22,1.28-5.58,1.42-7.48.32L33.71,263.28a1.91,1.91,0,0,1-1.15-1.59,2.85,2.85,0,0,1,1.72-2.19l1.65-1c2.22-1.28,5.58-1.43,7.49-.33L83,279.87a2,2,0,0,1,1.14,1.6A2.86,2.86,0,0,1,82.43,283.66Z" transform="translate(0 49.15)"/><polygon class="cls-4" points="176.63 252.19 165.67 245.98 163.37 247.24 174.33 253.45 176.63 252.19"/><polygon class="cls-4" points="163.44 244.72 157.96 241.61 155.66 242.87 161.14 245.98 163.44 244.72"/><polygon class="cls-4" points="162.71 238.29 158.04 235.64 155.74 236.9 160.41 239.55 162.71 238.29"/><polygon class="cls-4" points="170.53 242.72 165.05 239.61 162.75 240.88 168.24 243.98 170.53 242.72"/><polygon class="cls-4" points="184.96 244.88 163.43 232.68 161.13 233.94 182.67 246.15 184.96 244.88"/><polygon class="cls-4" points="173.48 232.37 168.81 229.72 166.52 230.98 171.19 233.63 173.48 232.37"/><polygon class="cls-4" points="181.31 236.8 175.82 233.69 173.53 234.96 179.01 238.06 181.31 236.8"/><polygon class="cls-4" points="186.04 233.47 174.2 226.76 171.9 228.02 183.74 234.73 186.04 233.47"/><polygon class="cls-4" points="193.97 237.96 188.49 234.85 186.19 236.12 191.67 239.22 193.97 237.96"/><polygon class="cls-4" points="201.93 242.48 196.45 239.37 194.16 240.63 199.64 243.74 201.93 242.48"/><polygon class="cls-4" points="214.79 249.76 204.42 243.88 202.12 245.15 212.49 251.03 214.79 249.76"/><polygon class="cls-4" points="219.35 240.32 213.87 237.21 211.57 238.48 217.05 241.58 219.35 240.32"/><polygon class="cls-4" points="232.21 247.61 221.84 241.73 219.54 242.99 229.91 248.87 232.21 247.61"/><polygon class="cls-5" points="190.45 223.94 184.97 220.84 182.68 222.1 188.16 225.21 190.45 223.94"/><polygon class="cls-4" points="198.42 228.46 192.94 225.35 190.64 226.62 196.12 229.72 198.42 228.46"/><polygon class="cls-4" points="211.28 235.75 200.91 229.87 198.61 231.13 208.98 237.01 211.28 235.75"/><polygon class="cls-4" points="221.74 247.69 216.26 244.59 213.97 245.85 219.45 248.95 221.74 247.69"/><polygon class="cls-4" points="229.71 252.21 224.23 249.1 221.93 250.36 227.41 253.47 229.71 252.21"/><polygon class="cls-4" points="194.48 243.88 184.11 238 181.81 239.26 192.18 245.14 194.48 243.88"/><polygon class="cls-4" points="201.23 218.02 195.75 214.91 193.45 216.18 198.93 219.28 201.23 218.02"/><polygon class="cls-4" points="214.09 225.31 203.71 219.43 201.42 220.69 211.79 226.57 214.09 225.31"/><polygon class="cls-4" points="201.35 254.17 195.87 251.07 193.57 252.33 199.05 255.44 201.35 254.17"/><polygon class="cls-4" points="193.06 249.47 187.58 246.37 185.28 247.63 190.76 250.74 193.06 249.47"/><polygon class="cls-5" points="214.21 261.46 203.83 255.58 201.54 256.84 211.91 262.72 214.21 261.46"/><polygon class="cls-4" points="184.53 226.6 179.59 223.79 177.29 225.06 182.23 227.86 184.53 226.6"/><polygon class="cls-4" points="199.19 234.91 187.18 228.1 184.88 229.36 196.9 236.17 199.19 234.91"/><polygon class="cls-4" points="213.86 243.22 201.84 236.41 199.54 237.67 211.56 244.49 213.86 243.22"/><polygon class="cls-4" points="221.82 265.78 216.88 262.98 214.58 264.24 219.52 267.04 221.82 265.78"/><polygon class="cls-4" points="190.94 260.26 178.93 253.45 176.63 254.72 188.65 261.53 190.94 260.26"/><polygon class="cls-4" points="130.35 275.03 119.39 268.81 117.09 270.08 128.05 276.29 130.35 275.03"/><polygon class="cls-4" points="117.16 267.55 111.68 264.45 109.39 265.71 114.87 268.81 117.16 267.55"/><polygon class="cls-4" points="116.43 261.12 111.76 258.48 109.46 259.74 114.13 262.39 116.43 261.12"/><polygon class="cls-4" points="124.25 265.56 118.77 262.45 116.48 263.71 121.96 266.82 124.25 265.56"/><polygon class="cls-4" points="138.69 267.72 117.15 255.51 114.85 256.78 136.39 268.99 138.69 267.72"/><polygon class="cls-4" points="159.96 285.29 154.48 282.18 152.18 283.44 157.66 286.55 159.96 285.29"/><polygon class="cls-4" points="137.1 273 126.73 267.13 124.43 268.39 134.8 274.26 137.1 273"/><polygon class="cls-4" points="144.67 283.1 132.65 276.29 130.35 277.55 142.37 284.37 144.67 283.1"/><polygon class="cls-7" points="202.49 224.75 190.47 217.94 188.17 219.2 200.19 226.01 202.49 224.75"/><path class="cls-5" d="M200.19,177.15l-12.53-7.1,2.81-1.55.12.07,12.41,7Zm-11.51-7.1,11.51,6.53,1.78-1-11.5-6.53Z" transform="translate(0 49.15)"/><polygon class="cls-4" points="208.82 228.34 205.13 226.25 202.83 227.51 206.52 229.6 208.82 228.34"/><polygon class="cls-4" points="215.17 231.94 211.48 229.84 209.18 231.11 212.88 233.2 215.17 231.94"/><polygon class="cls-4" points="226.91 238.59 217.83 233.44 215.53 234.71 224.61 239.85 226.91 238.59"/><polygon class="cls-4" points="220.92 253.24 217.23 251.15 214.93 252.41 218.62 254.5 220.92 253.24"/><polygon class="cls-4" points="232.66 259.89 223.58 254.75 221.28 256.01 230.36 261.16 232.66 259.89"/><polygon class="cls-4" points="225.4 231.68 216.32 226.53 214.03 227.79 223.11 232.94 225.4 231.68"/><polygon class="cls-4" points="105.5 311.12 83.97 298.92 81.67 300.18 103.21 312.39 105.5 311.12"/><polygon class="cls-4" points="90.74 290.37 85.26 287.26 82.96 288.52 88.44 291.63 90.74 290.37"/><polygon class="cls-4" points="99.32 295.23 93.84 292.12 91.54 293.38 97.02 296.49 99.32 295.23"/><polygon class="cls-4" points="112.17 302.52 101.8 296.64 99.51 297.9 109.88 303.78 112.17 302.52"/><polygon class="cls-4" points="111.67 296.22 106.19 293.11 103.89 294.37 109.37 297.48 111.67 296.22"/><polygon class="cls-4" points="124.53 303.5 114.16 297.63 111.86 298.89 122.23 304.77 124.53 303.5"/><polygon class="cls-4" points="102.94 285.26 91.11 278.55 88.81 279.81 100.65 286.52 102.94 285.26"/><polygon class="cls-4" points="110.87 289.75 105.39 286.64 103.09 287.91 108.57 291.01 110.87 289.75"/><polygon class="cls-4" points="118.84 294.27 113.36 291.16 111.06 292.42 116.54 295.53 118.84 294.27"/><polygon class="cls-4" points="131.69 301.55 121.32 295.68 119.03 296.94 129.4 302.82 131.69 301.55"/><polygon class="cls-4" points="139.92 306.21 134.44 303.11 132.14 304.37 137.62 307.48 139.92 306.21"/><polygon class="cls-5" points="80.58 296.48 70.21 290.6 67.92 291.87 78.29 297.75 80.58 296.48"/><polygon class="cls-4" points="126.1 286.36 120.62 283.25 118.32 284.51 123.8 287.62 126.1 286.36"/><polygon class="cls-4" points="138.96 293.64 128.59 287.76 126.29 289.03 136.66 294.9 138.96 293.64"/><polygon class="cls-4" points="97.48 270.13 92 267.02 89.7 268.29 95.18 271.39 97.48 270.13"/><polygon class="cls-4" points="105.44 274.64 99.96 271.54 97.66 272.8 103.14 275.91 105.44 274.64"/><polygon class="cls-7" points="118.3 281.93 107.93 276.05 105.63 277.32 116 283.19 118.3 281.93"/><path class="cls-5" d="M116,234.33l-10.88-6.16,2.81-1.55,10.88,6.17Zm-9.86-6.16,9.86,5.59,1.79-1-9.86-5.59Z" transform="translate(0 49.15)"/><polygon class="cls-4" points="101.44 278.39 96.49 275.59 94.19 276.85 99.14 279.65 101.44 278.39"/><polygon class="cls-4" points="116.1 286.7 104.08 279.89 101.78 281.15 113.8 287.96 116.1 286.7"/><polygon class="cls-4" points="130.76 295.01 118.74 288.2 116.45 289.46 128.47 296.27 130.76 295.01"/><polygon class="cls-4" points="120.02 319.2 108 312.39 105.7 313.65 117.72 320.46 120.02 319.2"/><polygon class="cls-4" points="106.15 269.03 102.46 266.94 100.16 268.2 103.85 270.29 106.15 269.03"/><polygon class="cls-4" points="112.5 272.63 108.81 270.54 106.51 271.8 110.2 273.89 112.5 272.63"/><polygon class="cls-4" points="124.24 279.29 115.16 274.14 112.86 275.4 121.94 280.55 124.24 279.29"/><polygon class="cls-4" points="138.66 287.74 129.58 282.59 127.28 283.86 136.36 289 138.66 287.74"/><polygon class="cls-4" points="79.69 278.09 76 276 73.7 277.26 77.4 279.36 79.69 278.09"/><polygon class="cls-4" points="91.43 284.75 82.35 279.6 80.05 280.86 89.14 286.01 91.43 284.75"/><polygon class="cls-7" points="103.43 291.55 94.34 286.4 92.05 287.66 101.13 292.81 103.43 291.55"/><path class="cls-5" d="M101.13,243.94l-9.6-5.43L94.35,237l9.59,5.44Zm-8.57-5.43,8.57,4.86,1.78-1-8.57-4.86Z" transform="translate(0 49.15)"/><polygon class="cls-4" points="90.22 295.93 84.74 292.82 82.44 294.09 87.92 297.19 90.22 295.93"/><polygon class="cls-4" points="103.08 303.22 92.71 297.34 90.41 298.6 100.78 304.48 103.08 303.22"/><polygon class="cls-5" points="142.17 301.48 133.09 296.33 130.79 297.59 139.88 302.74 142.17 301.48"/><polygon class="cls-4" points="81.97 291.26 72.89 286.11 70.6 287.37 79.68 292.52 81.97 291.26"/><polygon class="cls-4" points="167.28 277.34 145.74 265.13 143.44 266.39 164.98 278.6 167.28 277.34"/><polygon class="cls-4" points="152.52 256.58 147.04 253.48 144.74 254.74 150.22 257.85 152.52 256.58"/><polygon class="cls-7" points="161.09 261.44 155.61 258.34 153.31 259.6 158.79 262.71 161.09 261.44"/><path class="cls-5" d="M158.79,213.84l-6-3.39,2.81-1.55,6,3.4Zm-5-3.39,5,2.82,1.78-1-5-2.82Z" transform="translate(0 49.15)"/><polygon class="cls-4" points="173.95 268.73 163.58 262.85 161.28 264.12 171.65 269.99 173.95 268.73"/><polygon class="cls-4" points="173.44 262.43 167.96 259.33 165.67 260.59 171.15 263.69 173.44 262.43"/><polygon class="cls-4" points="164.72 251.47 152.88 244.76 150.58 246.02 162.42 252.74 164.72 251.47"/><polygon class="cls-4" points="172.65 255.97 167.16 252.86 164.87 254.12 170.35 257.23 172.65 255.97"/><polygon class="cls-4" points="142.36 262.7 131.99 256.82 129.69 258.08 140.06 263.96 142.36 262.7"/><polygon class="cls-4" points="181.79 285.41 169.77 278.6 167.48 279.87 179.5 286.68 181.79 285.41"/><polygon class="cls-4" points="141.47 244.31 137.78 242.21 135.48 243.48 139.17 245.57 141.47 244.31"/><polygon class="cls-7" points="153.21 250.96 144.13 245.81 141.83 247.08 150.91 252.22 153.21 250.96"/><path class="cls-5" d="M150.91,203.36l-9.59-5.44,2.81-1.54,9.59,5.44Zm-8.57-5.43,8.57,4.86,1.78-1L144.12,197Z" transform="translate(0 49.15)"/><polygon class="cls-4" points="165.2 257.76 156.12 252.61 153.82 253.88 162.9 259.02 165.2 257.76"/><polygon class="cls-4" points="151.99 262.14 146.51 259.04 144.21 260.3 149.69 263.41 151.99 262.14"/><polygon class="cls-4" points="164.85 269.43 154.48 263.55 152.18 264.82 162.55 270.69 164.85 269.43"/><polygon class="cls-4" points="143.75 257.47 134.67 252.32 132.37 253.59 141.45 258.74 143.75 257.47"/><polygon class="cls-4" points="195.41 208.71 191.71 206.62 189.42 207.88 193.11 209.97 195.41 208.71"/><polygon class="cls-4" points="207.15 215.36 198.06 210.21 195.77 211.48 204.85 216.62 207.15 215.36"/><polygon class="cls-7" points="219.14 222.16 210.06 217.01 207.76 218.27 216.84 223.42 219.14 222.16"/><path class="cls-5" d="M216.84,174.56l-9.59-5.44,2.81-1.54,9.59,5.43Zm-8.57-5.43,8.57,4.86,1.79-1-8.57-4.86Z" transform="translate(0 49.15)"/><path class="cls-4" d="M198.87,14.72l-.25-.14C180.56,18.64,159,13.87,137,.92l-.85-.5-9,5.29,13.36,8.8c4.19,55.79,26,101.59,61,155.82l.85.49c6.3-2.47-3.24,3.23,2.17.17l12.93-7c24.31-13.95,39.32-35.35,42.72-76.75l1.19-14.5-.85-.48C238.48,59.75,216.93,39.63,198.87,14.72Z" transform="translate(0 49.15)"/><path class="cls-5" d="M202.73,172.3c-.12,0-.17-.07-.24-.18-.2-.31,0-.47.55-.89l.65-.5c-.29.09-.67.22-1.2.43l-.16.06-1.13-.69c-33.48-51.82-56.68-98.15-61-155.81l-13.71-9L136.12,0l1,.6c22.09,13,43.31,17.68,61.39,13.62l.14,0,.48.31c18.14,25,39.42,44.89,61.54,57.44l1.05.59-1.21,14.73c-3.16,38.56-16,61.6-42.9,77l-7.37,4-5.56,3A7.42,7.42,0,0,1,202.73,172.3Zm-1-2.25.62.37c1.93-.75,2.32-.72,2.52-.37a.37.37,0,0,1,.06.28l4.95-2.68c3.39-1.83,7.22-3.91,7.35-4,26.68-15.3,39.4-38.17,42.54-76.46L261,72.93l-.64-.36C238.15,60,216.81,40.07,198.62,15l-.06,0C180.33,19,159,14.27,136.78,1.23l-.65-.38-8.3,4.88,13,8.57v.18C145.19,72.05,168.33,118.31,201.77,170.05Z" transform="translate(0 49.15)"/><path class="cls-8" d="M198.87,14.72l-.25-.14-.36.07L156.59,38.93l90.82,41.66,14-7.86-.85-.48C238.48,59.75,216.93,39.63,198.87,14.72Z" transform="translate(0 49.15)"/><path class="cls-5" d="M247.42,81l-.17-.07L155.79,39l42.4-24.68.49-.1.48.31c18.14,25,39.42,44.89,61.54,57.44l1.41.79Zm-90-42.1,90,41.28,13.23-7.45-.28-.16C238.15,60,216.81,40.07,198.62,15l-.06,0-.16,0Z" transform="translate(0 49.15)"/><path class="cls-6" d="M189.69,19.73l-.25-.14c-18.06,4.07-39.61-.7-61.65-13.65l-.85-.5,1.19,15.87c4.19,55.79,26,101.59,61,155.82l.85.49c35-13.76,56.82-34.41,61-85.37l1.19-14.5-.85-.48C229.3,64.77,207.75,44.65,189.69,19.73Z" transform="translate(0 49.15)"/><path class="cls-5" d="M190,178l-1.13-.7c-33.52-51.87-56.73-98.24-61.06-156L126.53,4.77l1.44.85c22.09,13,43.31,17.68,61.39,13.62l.14,0,.48.32c18.14,25,39.42,44.89,61.54,57.43l1,.6-1.21,14.73C247,145.14,223.74,164.77,190.13,178Zm-.56-1.17.62.36c33.28-13.1,56.31-32.6,60.61-85L251.8,78l-.64-.36C229,65,207.63,45.09,189.44,20l-.06,0C171.15,24,149.79,19.29,127.6,6.25l-.24-.14,1.14,15.18C132.82,78.85,156,125.12,189.4,176.86Z" transform="translate(0 49.15)"/><path class="cls-7" d="M185.54,29.66a71.41,71.41,0,0,1-9.19.59c-12.17,0-25.56-3.11-38.95-9,4.18,53.9,25.29,97.11,55.77,145,26.54-11.73,44.88-29.34,48.61-74.8l.72-8.7C222.15,70.37,202.5,52,185.54,29.66Z" transform="translate(0 49.15)"/><path class="cls-5" d="M193,166.75l-.17-.26C162.4,118.58,141.24,75.55,137,21.28l0-.61.56.25c13.33,5.86,26.74,9,38.8,9a72.46,72.46,0,0,0,9.14-.58l.21,0,.13.17c16.92,22.32,36.58,40.66,56.86,53l.19.12-.73,8.92c-3.78,46.08-22.26,63.35-48.83,75.11ZM137.81,21.83c4.3,53.74,25.3,96.47,55.5,144,26.18-11.64,44.37-28.81,48.11-74.37l.69-8.48c-20.24-12.39-39.85-30.69-56.73-52.93a72.85,72.85,0,0,1-9,.56C164.36,30.61,151.05,27.58,137.81,21.83Z" transform="translate(0 49.15)"/><g class="cls-9"><g class="cls-10"><path class="cls-6" d="M153.78,30.47,175.32,42l-.58-25-1.87-3.92-1.64-.88L169.67,9l-5-2.67-.11-4.65a.42.42,0,0,0,.12-.35.92.92,0,0,0-.35-.73c-.19-.1-.34.06-.33.37a1,1,0,0,0,.14.49l.13,5.32,5.25,2.81,1.13,2.36-6-3.2L162.88,5l-.39-16.57-.41-.09L162.47,5l2,4.25,8.21,4.4,1.62,3.38.18,7.89-1.61,1.82.09,3.79c-.47-.1-.82.39-.8,1.22A2.84,2.84,0,0,0,173.28,34c.58.3,1-.21,1-1.15a3,3,0,0,0-.87-2.11l-.08-3.5,1.2-1.37.36,15.16L153.76,29.79a.66.66,0,0,0-.26-.35c-.19-.11-.34.06-.33.37a1,1,0,0,0,.35.73A.18.18,0,0,0,153.78,30.47Zm19.23.79,0,1.1.42.22,0-1.09a1.92,1.92,0,0,1,.45,1.18c0,.56-.26.87-.61.69a1.7,1.7,0,0,1-.65-1.36C172.6,31.56,172.77,31.28,173,31.26Z" transform="translate(0 49.15)"/><path class="cls-6" d="M182.05,56.86c.18.1.33-.07.32-.37a1,1,0,0,0-.14-.5l-.79-34c.47.1.82-.4.8-1.22a2.87,2.87,0,0,0-1.09-2.26c-.58-.3-1,.21-1,1.14a3.09,3.09,0,0,0,.88,2.12l.8,34-.06.06L160.58,44.51l1.61-1.66,3.82,2a2.72,2.72,0,0,0,1.05,1.89c.58.31,1-.2,1-1.14A2.82,2.82,0,0,0,167,43.38c-.5-.27-.91.09-1,.83l-4-2.12L160,44.18l-11.05-5.9,1.46-1.57,4.16,2.22a2.57,2.57,0,0,0,1,1.72c.58.31,1-.2,1-1.14a2.82,2.82,0,0,0-1.09-2.26c-.54-.29-1,.15-1,1l-4.28-2.29-1.88,2-4.65-2.49a33,33,0,0,0,5.08-13.35L157,26.51l3-3.45,9.79,5.24a.76.76,0,0,0,.27.35c.19.1.33-.07.33-.37a.93.93,0,0,0-.36-.74.18.18,0,0,0-.25.08l-10-5.33-3,3.44-7.92-4.23c.09-.56.18-1.14.25-1.72l6.12,3.27,3.21-3.63,8,4.29a.7.7,0,0,0,.27.36c.19.1.33-.07.33-.37a.93.93,0,0,0-.36-.74.18.18,0,0,0-.25.07l-8.22-4.39L155,22.28l-5.86-3.13c.07-.58.12-1.17.18-1.77l2.9,1.56a2.62,2.62,0,0,0,1,1.75c.58.31,1-.2,1-1.14a2.82,2.82,0,0,0-1.09-2.26c-.53-.29-1,.14-1,.95l-2.81-1.5c.12-1.5.18-3,.19-4.64l13.19,7.06a.71.71,0,0,0,.27.35c.19.1.33-.06.33-.37a.93.93,0,0,0-.36-.74.18.18,0,0,0-.25.08l-13.19-7c0-.39,0-.78,0-1.18l0-.85,9.9,5.28a.8.8,0,0,0,.26.36c.19.1.34-.07.33-.37a.92.92,0,0,0-.35-.74.18.18,0,0,0-.26.07l-9.9-5.29c-.08-1.62-.2-3.26-.38-4.9l7.29,3.89L158,2.56,157.91,0l1.62-1.35-.13-5.61a.44.44,0,0,0,.12-.35.93.93,0,0,0-.36-.74c-.18-.1-.33.07-.32.37a1.07,1.07,0,0,0,.14.5l.12,5.28-1.21,1-.28-11.82-.42-.09.36,15-1.41,4.61L149.06,3.1c-.08-.73-.17-1.45-.27-2.17l6,3.23,1.62-5.07-.18-7.69a.43.43,0,0,0,.12-.35.92.92,0,0,0-.36-.73c-.18-.1-.33.06-.32.37a1,1,0,0,0,.14.49L156-1.21l-1.47,4.55L148.68.2a91.18,91.18,0,0,0-3.84-15.67l-.44-.09A85.67,85.67,0,0,1,149.15,10c.25,10.65-1.92,19.6-6.11,25.22l-.29.41,39,20.85A.71.71,0,0,0,182.05,56.86Zm-29.42-38.4c.05-.44.29-.66.6-.49a1.69,1.69,0,0,1,.65,1.35c0,.57-.26.88-.6.69a1.47,1.47,0,0,1-.57-.83l.55.29v-.68Zm2.26,20c0-.45.29-.69.6-.52a1.7,1.7,0,0,1,.65,1.36c0,.56-.26.87-.6.68a1.38,1.38,0,0,1-.56-.8l.54.29v-.68Zm11.53,6c.08-.36.31-.53.58-.38a1.68,1.68,0,0,1,.65,1.35c0,.57-.25.87-.6.69a1.53,1.53,0,0,1-.6-1l.79.43v-.68Zm15-23.11v-.54a.45.45,0,0,0,.12-.36,1,1,0,0,0-.35-.73c-.19-.1-.34.07-.33.38a1,1,0,0,0,.14.49v.53a2,2,0,0,1-.44-1.18c0-.56.26-.87.61-.68a1.72,1.72,0,0,1,.65,1.35C181.83,21,181.66,21.32,181.42,21.33Z" transform="translate(0 49.15)"/><path class="cls-6" d="M127.54,48.7l-5.43-11C108.22,29.13,96.72,4.54,96.19-18.26c-.51-21.69,9.08-34.3,21.93-30.08l.33.79C105.67-52,96.1-39.54,96.6-18c.55,23.16,12.59,48.2,26.84,55.81s25.41-5,24.87-28.19a83.31,83.31,0,0,0-4.8-25.34l.43.1A84.41,84.41,0,0,1,148.73,9.8c.55,23.54-10.79,36.39-25.27,28.65-.25-.13-.49-.28-.73-.42l5,10.07,24.67,13.19L152,44.79,175.22,57.2a.17.17,0,0,1,.25-.07.92.92,0,0,1,.36.73c0,.31-.14.47-.33.37a.67.67,0,0,1-.27-.35L152.41,45.69l.39,16.5Z" transform="translate(0 49.15)"/><path class="cls-6" d="M150.23,34.16a.94.94,0,0,1-.35-.74c0-.3.14-.47.32-.37a.66.66,0,0,1,.27.35l28,15-.62-26.44a1.11,1.11,0,0,1-.14-.5c0-.3.14-.47.33-.37a.92.92,0,0,1,.35.74.39.39,0,0,1-.12.35l.64,27.12L150.49,34.08A.19.19,0,0,1,150.23,34.16Z" transform="translate(0 49.15)"/><path class="cls-6" d="M152.07,32.24l25.1,13.41-.69-29.11c.48.1.82-.4.8-1.22a2.83,2.83,0,0,0-1.08-2.26c-.58-.31-1,.2-1,1.14a3.11,3.11,0,0,0,.88,2.12l.66,28.42L152.05,31.56a.67.67,0,0,0-.27-.35c-.18-.11-.33.06-.33.37a.92.92,0,0,0,.36.73A.19.19,0,0,0,152.07,32.24Zm24.4-16.41V15.3a.46.46,0,0,0,.12-.35.93.93,0,0,0-.36-.74c-.19-.1-.33.06-.32.37a1.07,1.07,0,0,0,.14.5v.53a1.93,1.93,0,0,1-.44-1.18c0-.56.26-.87.6-.69a1.7,1.7,0,0,1,.65,1.36C176.88,15.54,176.71,15.82,176.47,15.83Z" transform="translate(0 49.15)"/><path class="cls-6" d="M214.7,5.54c.58.31,1-.2,1-1.14a3.09,3.09,0,0,0-.88-2.11l-.06-2.44-.41-.09,0,2.3c-.47-.09-.81.4-.79,1.22A2.81,2.81,0,0,0,214.7,5.54Zm0-.68A1.66,1.66,0,0,1,214,3.51c0-.45.15-.73.39-.74V3.3a.48.48,0,0,0-.12.36.91.91,0,0,0,.36.73c.18.1.33-.06.32-.37a1,1,0,0,0-.14-.49V3a1.92,1.92,0,0,1,.44,1.19C215.3,4.74,215,5.05,214.69,4.86Z" transform="translate(0 49.15)"/><path class="cls-6" d="M192.92,65.1l28.77,15.37L220,9.25,216.54,2l0-1.79-.42-.09,0,1.93,3.47,7.24.06,2.2-1.6,2.42,0,.92c-.47-.1-.82.4-.8,1.22a2.82,2.82,0,0,0,1.09,2.26c.58.31,1-.2,1-1.14a3.09,3.09,0,0,0-.88-2.11l0-.68,1.2-1.82.17,7.33-1.61,1.82,0,1.2c-.47-.1-.82.4-.8,1.22a2.82,2.82,0,0,0,1.09,2.26c.58.3,1-.21,1-1.14a3.06,3.06,0,0,0-.87-2.12l0-.91,1.21-1.37.4,17.33-2.8-6.33-10.19-5.44-.14-6.15c.47.1.82-.4.8-1.22a2.85,2.85,0,0,0-1.09-2.26c-.58-.31-1,.2-1,1.14a3.09,3.09,0,0,0,.88,2.11l.16,6.84,10.42,5.56,3,6.77.1,4.5-3-6.27-13.55-7.24-1.69-3.52,3.32-8.86-.12-5.1a.4.4,0,0,0,.12-.36.89.89,0,0,0-.35-.73c-.19-.11-.33.06-.33.37a1.16,1.16,0,0,0,.14.49l.12,4.93-3,8-.1-4.06,1.58-4.7-.15-6.32c.47.1.82-.39.8-1.21a2.87,2.87,0,0,0-1.09-2.27c-.58-.3-1,.21-1,1.15a3.09,3.09,0,0,0,.88,2.11l.15,6.16L202,19.79,201.52,1.7c.47.08.81-.41.79-1.22a2.84,2.84,0,0,0-1.09-2.27c-.58-.3-1,.21-1,1.15a3.09,3.09,0,0,0,.88,2.12l.59,25.16,2,4.16L217.24,38l3.19,6.63.16,6.81-2.8-6.23-2-1.08-1.41-2.94v-.06a.89.89,0,0,0-.35-.73c-.19-.1-.33.06-.33.37a.92.92,0,0,0,.36.73l0,0,1.11,2.3-4.45-2.38-1.44-3a.13.13,0,0,1,0-.06.92.92,0,0,0-.36-.73c-.19-.1-.33.06-.33.37a.92.92,0,0,0,.36.73h0l1.14,2.36-4.48-2.4-1.44-3a1.12,1.12,0,0,0,0-.2.92.92,0,0,0-.36-.73c-.19-.1-.33.07-.32.37a1,1,0,0,0,.27.67l1.24,2.57-2.58-1.37-3.7-6.86L198-2.84l-.52-1.09L197-4l.6,1.25.78,33.1,4,7.36,15.27,8.16,3,6.66.18,7.72-3-6.32-20.1-10.74-1-44-1.79-3.71-.5-.1,1.88,3.87,1,44.36L217.6,54.47l3.22,6.7.43,18.4-28.17-15-3.32-6.9-.14-6c.47.09.82-.4.8-1.23a2.8,2.8,0,0,0-1.09-2.25c-.58-.31-1,.2-1,1.14a3,3,0,0,0,.87,2.11l.15,6.31ZM189.6,50.88v-.53a.41.41,0,0,0,.12-.35.9.9,0,0,0-.35-.74c-.19-.1-.34.07-.33.37a1.16,1.16,0,0,0,.14.5v.53a2,2,0,0,1-.44-1.18c0-.56.26-.87.61-.68a1.72,1.72,0,0,1,.65,1.35C190,50.59,189.84,50.88,189.6,50.88ZM201.5,1l0-.95-.42-.22,0,1a1.87,1.87,0,0,1-.46-1.19c0-.56.26-.87.61-.69a1.73,1.73,0,0,1,.65,1.36C201.9.69,201.74,1,201.5,1Zm1.89,8.62V9.07a.46.46,0,0,0,.12-.36.9.9,0,0,0-.35-.73c-.19-.1-.34.06-.33.36a1,1,0,0,0,.14.5v.53a2,2,0,0,1-.44-1.18c0-.56.26-.87.61-.68a1.72,1.72,0,0,1,.65,1.35C203.8,9.31,203.63,9.59,203.39,9.6Zm3.74,10V19a.47.47,0,0,0,.12-.36,1,1,0,0,0-.35-.73c-.19-.1-.34.06-.33.37a1,1,0,0,0,.14.49v.54a2,2,0,0,1-.44-1.18c0-.57.26-.87.61-.69a1.73,1.73,0,0,1,.65,1.36C207.54,19.28,207.37,19.56,207.13,19.57Zm11.16,4.07v.53a.43.43,0,0,0-.12.36.92.92,0,0,0,.35.73c.19.1.33-.06.33-.37a1.2,1.2,0,0,0-.14-.5l0-.53a1.92,1.92,0,0,1,.45,1.18c0,.56-.26.87-.61.69a1.7,1.7,0,0,1-.65-1.36C217.88,23.93,218.05,23.65,218.29,23.64Zm-.19-8.08v.53a.4.4,0,0,0-.12.36.92.92,0,0,0,.35.73c.19.1.34-.06.33-.37a1.16,1.16,0,0,0-.14-.49l0-.54A1.92,1.92,0,0,1,219,17c0,.56-.26.87-.61.68a1.71,1.71,0,0,1-.65-1.36C217.69,15.85,217.86,15.57,218.1,15.56Z" transform="translate(0 49.15)"/><path class="cls-6" d="M246,152.22a.13.13,0,0,1,0-.06l-11.83-24.59L229.41,133l-16.92-9-1.74-3.62-35-18.69-1.62,1.83-35.46-19-.14-5.86,1.55-4.55-.76-32.14a1.2,1.2,0,0,1-.14-.5c0-.3.14-.47.33-.37a.93.93,0,0,1,.36.74.42.42,0,0,1-.13.35l.76,32.31L139,79l.12,5L174,102.66l1.61-1.82,35.34,18.88,1.74,3.61,16.57,8.85,4.92-5.57,12.13,25.23h0a1,1,0,0,1,.35.73c0,.31-.14.47-.33.37A.92.92,0,0,1,246,152.22Z" transform="translate(0 49.15)"/><path class="cls-6" d="M237.29,193.25l.42.22-.79-27.42-10.56-22-8.76-4.68a2.72,2.72,0,0,0-1.06-1.91c-.58-.31-1,.21-1,1.14a2.82,2.82,0,0,0,1.09,2.26c.5.27.91-.09,1-.81l8.6,4.59,10.3,21.43Zm-20.11-53.39c-.08.34-.31.51-.58.36a1.7,1.7,0,0,1-.65-1.36c0-.56.26-.86.61-.68a1.55,1.55,0,0,1,.6,1l-.33-.17a.66.66,0,0,0-.26-.35.18.18,0,0,0-.26.07l-.08,0v.68l.09,0a.65.65,0,0,0,.26.35.18.18,0,0,0,.26-.07Z" transform="translate(0 49.15)"/><path class="cls-6" d="M242.17,195.86l.42.22-.76-32.51,3.82-4.33.72,1.48.28-.32-.71-1.49,1.47-1.66-.31-.64-1.47,1.66-11.3-23.49-4.83,5.47-1.65-3.43-16.75-8.94-.17-.09-2.6-1.39a1.37,1.37,0,0,0,.35-1.1,2.84,2.84,0,0,0-1.09-2.26c-.57-.31-1,.21-1,1.15a3.36,3.36,0,0,0,.41,1.5l-1.18-.63a1.4,1.4,0,0,0,.35-1.1,2.84,2.84,0,0,0-1.09-2.26c-.57-.3-1,.21-1,1.15a3.41,3.41,0,0,0,.4,1.49l-1.17-.62a1.42,1.42,0,0,0,.35-1.1,2.82,2.82,0,0,0-1.09-2.26c-.58-.31-1,.2-1,1.14A3.42,3.42,0,0,0,202,123l-11.22-6a1.4,1.4,0,0,0,.35-1.1,2.85,2.85,0,0,0-1.09-2.26c-.58-.31-1,.21-1,1.14a3.29,3.29,0,0,0,.41,1.5l-1.17-.62a1.38,1.38,0,0,0,.34-1.1,2.84,2.84,0,0,0-1.08-2.26c-.58-.31-1,.21-1,1.14a3.29,3.29,0,0,0,.41,1.5l-1.18-.63a1.32,1.32,0,0,0,.35-1.09A2.82,2.82,0,0,0,185,111c-.57-.31-1,.2-1,1.14a3.29,3.29,0,0,0,.41,1.5l-1.18-.63a1.39,1.39,0,0,0,.35-1.09,2.84,2.84,0,0,0-1.09-2.27c-.57-.3-1,.21-1,1.15a3.49,3.49,0,0,0,.4,1.5l-1.17-.63a1.4,1.4,0,0,0,.35-1.1,2.87,2.87,0,0,0-1.09-2.26c-.58-.31-1,.21-1,1.14a3.56,3.56,0,0,0,.41,1.5l-1.17-.62a1.42,1.42,0,0,0,.35-1.1,2.85,2.85,0,0,0-1.09-2.26c-.58-.3-1,.21-1,1.14a3.29,3.29,0,0,0,.41,1.5l-1.09-.58-.78.88-2.48-2.62L135.86,87.69l-1-44.25c.48.1.82-.4.8-1.22A2.84,2.84,0,0,0,134.54,40c-.58-.31-1,.21-1,1.14a3.11,3.11,0,0,0,.87,2.12l1,44.24-1.25-.67-1-40.59a.4.4,0,0,0,.12-.36.91.91,0,0,0-.35-.74c-.19-.1-.33.07-.33.37a1.16,1.16,0,0,0,.14.5l1,41.28,1.68.89,0,2-1.4-.75L129,81.31,106.81,69.49l.36.86,21.67,11.57L134,90.05l1.53.82L150.74,99l5.15,8.12,6.26,3.34-2.7,3.06,0,0a.18.18,0,0,0-.26.07l-6.37-3.4L147.63,102l-15.07-8-5.16-8.12-6.85-3.66-1.46,1.87-3.21-4.37-6.15-3.28.36.86,5.7,3L122.14,89l.43,18,.43,1-.45-19.17-3.07-4.18L120.75,83l6.54,3.5,5.15,8.13,6.26,3.34-2.18,2.47a1.64,1.64,0,0,0-.58-.59c-.58-.31-1,.2-1,1.14a2.82,2.82,0,0,0,1.09,2.26c.57.31,1-.2,1-1.14a3.36,3.36,0,0,0-.2-1l2.46-2.8,6.11,3.27L143.22,104a1.64,1.64,0,0,0-.58-.59c-.58-.31-1,.2-1,1.14a2.82,2.82,0,0,0,1.09,2.26c.57.31,1-.2,1-1.14a3.54,3.54,0,0,0-.19-1l2.46-2.8,1.53.82,5.15,8.12,3.2,1.71.08,3.44c-.47-.1-.81.4-.79,1.22a2.83,2.83,0,0,0,1.08,2.26c.58.31,1-.2,1-1.15a3.09,3.09,0,0,0-.88-2.11l-.08-3.43,2.88,1.53a.7.7,0,0,0,.27.36c.18.1.33-.07.32-.37v-.07l3-3.38,6.11,3.26-2.18,2.47a1.75,1.75,0,0,0-.59-.59c-.57-.31-1,.21-1,1.15a2.82,2.82,0,0,0,1.08,2.25c.58.31,1-.2,1-1.13a3.37,3.37,0,0,0-.2-1l2.47-2.79,6.11,3.26-2.18,2.47a1.66,1.66,0,0,0-.59-.59c-.57-.31-1,.2-1,1.14a2.81,2.81,0,0,0,1.08,2.26c.58.31,1-.2,1-1.14a3.3,3.3,0,0,0-.2-1l2.47-2.79,5,2.66,3.29-.93,18.29,9.77,3.47,7.23,20.1,10.73,8.57,17.81.12,5.22L233.41,175v.08l.49,16.38.42.22-.48-16.3,1.54-4.54-.13-5.67-8.82-18.34-20.1-10.73-3.48-7.23-18.55-9.91-3.29.92-25-13.35-4.51-7.11,10.77,5.75a.67.67,0,0,0,.27.35.18.18,0,0,0,.26-.07l4.5,2.41a.64.64,0,0,0,.27.34.16.16,0,0,0,.25-.07l6.53,3.49.78-.89,2.48,2.63,31.9,17,1.53-1.73,1.08,2.23a1.77,1.77,0,0,0-.05.53,2.81,2.81,0,0,0,1.08,2.26c.51.27.92-.09,1-.81l12,6.38,6.7,13.93s0,0,0,.05a.93.93,0,0,0,.36.74c.18.1.33-.07.32-.37a.92.92,0,0,0-.35-.74h0l-6.39-13.29,2.76,1.48,10.3,21.42L240.5,195l.41.23-.77-32.79-10.33-21.51,4.54-5.15,11,22.86-3.95,4.47ZM172.8,120.18a1.68,1.68,0,0,1,.65,1.36c0,.56-.26.87-.6.68a1.7,1.7,0,0,1-.66-1.35C172.18,120.3,172.45,120,172.8,120.18Zm-6.7-3.58a.91.91,0,0,1,.27.25l-.22.25,0,0c-.19-.1-.33.07-.33.37a.93.93,0,0,0,.36.74c.18.1.33-.07.32-.38a.13.13,0,0,0,0-.06l.23-.25a1.84,1.84,0,0,1,.07.47c0,.56-.26.87-.6.68a1.66,1.66,0,0,1-.65-1.35C165.48,116.73,165.75,116.42,166.1,116.6Zm-10.13,0v.53a.47.47,0,0,0-.12.36.92.92,0,0,0,.36.73c.18.1.33-.07.32-.37a1.11,1.11,0,0,0-.14-.5v-.53a2,2,0,0,1,.44,1.19c0,.56-.26.86-.6.68a1.73,1.73,0,0,1-.66-1.36C155.56,116.92,155.73,116.64,156,116.63Zm-13.32-12.55a1.67,1.67,0,0,1,.65,1.36c0,.56-.25.87-.6.68a1.7,1.7,0,0,1-.65-1.36C142,104.2,142.31,103.89,142.65,104.08ZM136,100.5a1.74,1.74,0,0,1,.65,1.36c0,.56-.26.87-.61.68a1.7,1.7,0,0,1-.65-1.36C135.34,100.62,135.61,100.32,136,100.5Zm-1.15-57.77,0-.53a.42.42,0,0,0,.13-.35.93.93,0,0,0-.36-.74c-.19-.1-.33.06-.33.37a1.12,1.12,0,0,0,.15.5v.53a2,2,0,0,1-.45-1.18c0-.56.26-.87.61-.69A1.7,1.7,0,0,1,135.2,42C135.21,42.44,135,42.72,134.81,42.73Zm42.7,66.94a1.73,1.73,0,0,1-.65-1.36c0-.56.26-.87.61-.69a1.76,1.76,0,0,1,.65,1.36C178.13,109.54,177.86,109.85,177.51,109.67ZM180,111a1.73,1.73,0,0,1-.66-1.36c0-.56.26-.87.61-.68a1.69,1.69,0,0,1,.65,1.35C180.64,110.88,180.37,111.19,180,111Zm2.51,1.34a1.68,1.68,0,0,1-.65-1.36c0-.56.25-.87.6-.69a1.7,1.7,0,0,1,.65,1.36C183.15,112.22,182.88,112.53,182.54,112.35Zm2.51,1.34a1.68,1.68,0,0,1-.65-1.36c0-.56.26-.87.6-.68a1.67,1.67,0,0,1,.65,1.36C185.67,113.57,185.39,113.88,185.05,113.69Zm2.51,1.34a1.66,1.66,0,0,1-.65-1.35c0-.57.26-.87.6-.69a1.73,1.73,0,0,1,.66,1.36C188.18,114.91,187.91,115.22,187.56,115Zm2.51,1.34a1.69,1.69,0,0,1-.65-1.35c0-.57.26-.87.6-.69a1.73,1.73,0,0,1,.66,1.36C190.69,116.25,190.42,116.56,190.07,116.37Zm12.56,6.71a1.73,1.73,0,0,1-.65-1.36c0-.55.26-.86.61-.68a1.73,1.73,0,0,1,.65,1.36C203.25,123,203,123.27,202.63,123.08Zm2.52,1.34a1.7,1.7,0,0,1-.66-1.35c0-.56.26-.87.61-.69a1.7,1.7,0,0,1,.65,1.36C205.76,124.3,205.49,124.61,205.15,124.42Zm2.51,1.35a1.73,1.73,0,0,1-.66-1.36c0-.56.26-.87.61-.68a1.66,1.66,0,0,1,.65,1.35C208.28,125.64,208,126,207.66,125.77Zm-44-22.58-1.09,1.24s0,0,0,0a.18.18,0,0,0-.26.07l-11.4-6.09-14.93-8,0-2Zm5,2.69-1.09,1.23,0,0a.19.19,0,0,0-.26.07L163,104.88l1.2-1.37Zm6,4.36-.52.59L168,107.56l1.21-1.36,3.23,1.72Zm35.85,18-1.2,1.37-31.7-16.93-2.19-2.32.52-.59Zm1.95,3.41.21.43.09,0,.08,0a.7.7,0,0,0,.26.35.18.18,0,0,0,.26-.07l.33.17c-.08.35-.3.51-.58.37A1.7,1.7,0,0,1,212.47,131.65Zm.61-.7a1.49,1.49,0,0,1,.6,1l-.33-.17a.7.7,0,0,0-.26-.35.18.18,0,0,0-.26.06l-.21-.44A.33.33,0,0,1,213.08,131ZM229,140.12l-2.76-1.47-12.12-6.47a2.69,2.69,0,0,0-1.06-1.91.55.55,0,0,0-.75.13l-.78-1.62,16.16,8.63Z" transform="translate(0 49.15)"/><path class="cls-6" d="M168.35,142c.58.3,1-.21,1-1.15a2.79,2.79,0,0,0-1.08-2.25c-.51-.27-.92.08-1,.81l-27.4-14.64-3.41-4.51-10.69-5.71.36.87,10.24,5.47,3.42,4.51,27.49,14.69A2.73,2.73,0,0,0,168.35,142Zm0-.69a1.49,1.49,0,0,1-.6-1l.33.18a.65.65,0,0,0,.26.35c.19.1.34-.07.33-.37a1,1,0,0,0-.35-.74.18.18,0,0,0-.26.07l-.33-.17c.08-.35.3-.51.57-.37a1.73,1.73,0,0,1,.66,1.36C169,141.18,168.68,141.49,168.33,141.3Z" transform="translate(0 49.15)"/><path class="cls-6" d="M235.62,122.84l11.24,23.82.29-.32-6-12.72,3.2-3.63-.78-32.93-3.47-7.23-.53-22.68c.47.1.81-.4.79-1.22a2.84,2.84,0,0,0-1.08-2.26c-.58-.31-1,.2-1,1.14a3.13,3.13,0,0,0,.88,2.12l.53,23,3.48,7.23.36,15.36-.61-1.28a1.86,1.86,0,0,0,.15-.84A2.82,2.82,0,0,0,242,108.1c-.57-.31-1,.2-1,1.14a2.88,2.88,0,0,0,1.09,2.26.58.58,0,0,0,.57,0l.92,1.93.17,7.19-2.35-4.89a1.86,1.86,0,0,0,.15-.84,2.81,2.81,0,0,0-1.09-2.26c-.57-.31-1,.2-1,1.13a2.84,2.84,0,0,0,1.09,2.27.58.58,0,0,0,.57,0l2.66,5.53.18,7.89L240.84,133l-5.06-10.73-3.23-1.72-.24-10.21,1.68.9-.09-3.4-5-2.69,0-2,6.7,3.58-.08-3.4-5-2.68-.05-2,3.35,1.79-.08-3.4L232,96l-.43-18.57,3.22-3.65-1.08-46,10.68,5.7,0-.68-.75-.4-3.22-6.73V25.6a.89.89,0,0,0-.35-.73c-.19-.1-.33.06-.33.37a.91.91,0,0,0,.36.73h0l2.92,6.1-2.76-1.48L237,23.88s0,0,0-.06a.89.89,0,0,0-.35-.73c-.19-.1-.33.06-.33.37a.93.93,0,0,0,.36.74h0l2.93,6.08-2.77-1.48-1.45-3s0,0,0-.06a.92.92,0,0,0-.36-.73c-.18-.1-.33.06-.32.37a.91.91,0,0,0,.35.74s0,0,0,0l1.14,2.38-3-1.62.5,21.32-3.05-6.37-.57-24.37-1.73-3.7,1.61-1.7-.19-7.75a.4.4,0,0,0,.12-.36.92.92,0,0,0-.35-.74c-.19-.1-.34.07-.33.38a1.32,1.32,0,0,0,.14.49l.18,7.47-1.47,1.56L226.65,10l-.05-2.1L228.27,6l-.07-3.19-.42-.09.07,2.78-1.27,1.44-.11-4.51-.41-.09.18,7.71,3.48,7.48.1,4.45-.69-1.44a1.85,1.85,0,0,0,.16-.84,2.85,2.85,0,0,0-1.09-2.26c-.58-.3-1,.21-1,1.14a2.82,2.82,0,0,0,1.09,2.26.58.58,0,0,0,.57,0l1,2.07.44,19,3.48,7.27,0,1.89L229,41l-.22-9.17c.47.07.8-.42.78-1.23a2.8,2.8,0,0,0-1.09-2.25c-.57-.31-1,.2-1,1.14a3.08,3.08,0,0,0,.89,2.13l.23,9.43,5.27,11,.11,4.79-.44-.23a2.69,2.69,0,0,0-1.06-1.91c-.58-.31-1,.2-1,1.14a2.85,2.85,0,0,0,1.09,2.26c.51.27.92-.09,1-.81l.44.23.12,4.76L232,61.11a2.69,2.69,0,0,0-1.06-1.91c-.58-.31-1,.2-1,1.14A2.84,2.84,0,0,0,231,62.6c.51.27.92-.09,1-.81l2.11,1.13.25,10.4L231.11,77l.46,19.52,1.68.9,0,2-3.35-1.79L230,101l5,2.69,0,2-6.7-3.58.08,3.4,5,2.68.05,2-1.68-.9.26,10.88-3.23-1.72-4.83,5.48-8.2-4.38-1.52-3.16,2.39-2.72a1.71,1.71,0,0,0,.6.62c.57.3,1-.21,1-1.14a2.84,2.84,0,0,0-1.08-2.26c-.58-.31-1,.2-1,1.14a3.47,3.47,0,0,0,.19,1l-2.4,2.72-1.65-3.43-15.24-8.15L195.62,106l-2.53-5.26a1.75,1.75,0,0,0,.18-.9,2.81,2.81,0,0,0-1.08-2.25c-.58-.31-1,.2-1,1.14a2.82,2.82,0,0,0,1.09,2.26.61.61,0,0,0,.52,0l2.54,5.29-1.4,1.6-1.51-.8L190.91,104a1.8,1.8,0,0,0,.16-.87,2.81,2.81,0,0,0-1.08-2.26c-.58-.31-1,.2-1,1.14a2.82,2.82,0,0,0,1.09,2.26.57.57,0,0,0,.55,0l1.21,2.53-4.43-2.37-1.5-3.12a1.8,1.8,0,0,0,.18-.88A2.85,2.85,0,0,0,185,98.21c-.58-.31-1,.2-1,1.14a2.82,2.82,0,0,0,1.09,2.26.6.6,0,0,0,.53,0l1.21,2.51-9.46-5.06-.92-1.91a1.9,1.9,0,0,0,.15-.85,2.84,2.84,0,0,0-1.09-2.26c-.5-.27-.91.09-1,.82l-3.73-2a.7.7,0,0,0-.26-.35c-.19-.1-.34.07-.33.37a.09.09,0,0,0,0,0l-1.39,1.57-25.08-13.4-2.43.69a2.13,2.13,0,0,0-.84-1.1c-.58-.31-1,.2-1,1.14a2.85,2.85,0,0,0,1.09,2.26c.58.3,1-.2,1-1.14a3.44,3.44,0,0,0,0-.45l2.34-.67L169,95.31l1.5-1.69s0,0,0,0a.19.19,0,0,0,.26-.08l3.73,2a2.68,2.68,0,0,0,1,1.91.56.56,0,0,0,.57,0l1.05,2.18,16.93,9,3.22-3.65,14.89,8,3.48,7.23,8.55,4.56,4.83-5.48Zm-94.5-40.08c0,.57-.26.87-.61.69a1.76,1.76,0,0,1-.65-1.36c0-.56.26-.87.61-.68A1.69,1.69,0,0,1,141.12,82.76Zm35,13.76-.24-.5V96a.89.89,0,0,0-.35-.73.17.17,0,0,0-.25.07l-.33-.17c.07-.35.3-.51.57-.37a1.68,1.68,0,0,1,.65,1.36A1,1,0,0,1,176.11,96.52Zm-.55.28a1.49,1.49,0,0,1-.61-1l.33.17a.74.74,0,0,0,.27.36h0l.25.51A.44.44,0,0,1,175.56,96.8Zm9.49,4.13a1.7,1.7,0,0,1-.65-1.36c0-.56.26-.87.6-.68a1.7,1.7,0,0,1,.66,1.35C185.67,100.81,185.4,101.12,185.05,100.93Zm5,2.67a1.69,1.69,0,0,1-.65-1.35c0-.57.26-.87.6-.69a1.7,1.7,0,0,1,.66,1.35C190.67,103.48,190.4,103.79,190.05,103.6Zm2.2-3.25A1.76,1.76,0,0,1,191.6,99c0-.56.26-.87.6-.68a1.7,1.7,0,0,1,.66,1.35,1.24,1.24,0,0,1-.08.47l-.23-.47a.68.68,0,0,0,0-.15,1,1,0,0,0-.35-.74c-.19-.1-.34.07-.33.37a1,1,0,0,0,.31.71l.27.54A.36.36,0,0,1,192.25,100.35Zm25.07,13.39a1,1,0,0,1-.29-.27l.4-.45-.31-.63-.39.44a1.74,1.74,0,0,1-.06-.45c0-.56.25-.87.6-.68a1.66,1.66,0,0,1,.65,1.35C217.94,113.62,217.67,113.92,217.32,113.74Zm11.42-82.63v-.55a.41.41,0,0,0,.1-.34.9.9,0,0,0-.35-.74c-.19-.1-.33.07-.33.38a1,1,0,0,0,.17.52v.52a1.86,1.86,0,0,1-.46-1.2c0-.56.25-.87.6-.69a1.7,1.7,0,0,1,.65,1.36C229.13,30.8,229,31.08,228.74,31.11Zm-.48-11a1.69,1.69,0,0,1-.65-1.35c0-.57.26-.87.6-.69a1.72,1.72,0,0,1,.66,1.36,1.56,1.56,0,0,1-.05.4l-.25-.5s0,0,0-.06a1,1,0,0,0-.35-.73c-.19-.1-.34.07-.33.37a.9.9,0,0,0,.35.73h0l.24.5A.38.38,0,0,1,228.26,20.14ZM233.09,57c-.08.36-.3.52-.58.37a1.74,1.74,0,0,1-.65-1.36c0-.56.26-.86.6-.68a1.51,1.51,0,0,1,.61,1l-.33-.17a.7.7,0,0,0-.26-.35c-.19-.1-.34.06-.33.37a1,1,0,0,0,.35.73.18.18,0,0,0,.26-.07ZM231,61.92a1.68,1.68,0,0,1-.65-1.36c0-.56.25-.87.6-.68a1.49,1.49,0,0,1,.6,1l-.33-.17a.68.68,0,0,0-.26-.36c-.19-.1-.33.07-.33.38a.92.92,0,0,0,.36.73.18.18,0,0,0,.25-.07l.33.17C231.46,61.9,231.24,62.06,231,61.92Zm9.52,53.45a1.7,1.7,0,0,1-.65-1.36c0-.56.26-.87.6-.68a1.66,1.66,0,0,1,.65,1.35,1.05,1.05,0,0,1-.05.41l-.24-.51s0,0,0,0a.9.9,0,0,0-.35-.74c-.19-.1-.33.07-.33.38a.92.92,0,0,0,.36.73h0l.25.5A.38.38,0,0,1,240.49,115.37Zm1.55-4.55a1.7,1.7,0,0,1-.66-1.36c0-.56.26-.86.61-.68a1.69,1.69,0,0,1,.65,1.35,1.64,1.64,0,0,1,0,.41l-.24-.5V110a.92.92,0,0,0-.35-.74c-.19-.1-.33.07-.33.38a.92.92,0,0,0,.36.73h0l.24.5A.35.35,0,0,1,242,110.82Zm-2.49-44.38,0-.53a.43.43,0,0,0,.13-.36.92.92,0,0,0-.36-.73c-.18-.1-.33.06-.32.37a1.11,1.11,0,0,0,.14.5v.53a1.93,1.93,0,0,1-.44-1.18c0-.57.26-.87.6-.69a1.7,1.7,0,0,1,.66,1.36C240,66.15,239.79,66.43,239.55,66.44Z" transform="translate(0 49.15)"/><path class="cls-6" d="M143.54,60.22l26.74,14.29L170,63.28l-.42-.22.25,10.54L143.52,59.54a.67.67,0,0,0-.06-.12l-.12-5.15-1.73-3.62L141.52,47c.48.1.82-.4.8-1.22a2.82,2.82,0,0,0-1.09-2.26c-.57-.31-1,.21-1,1.14a3,3,0,0,0,.87,2.11l.09,3.92,1.74,3.62.12,4.87a.41.41,0,0,0-.12.36.88.88,0,0,0,.35.73A.18.18,0,0,0,143.54,60.22Zm-2-13.91,0-.53a.4.4,0,0,0,.12-.36.89.89,0,0,0-.35-.73c-.19-.1-.33.06-.33.37a1.43,1.43,0,0,0,.14.5l0,.53a2,2,0,0,1-.45-1.18c0-.57.26-.88.61-.69a1.68,1.68,0,0,1,.65,1.35C141.91,46,141.74,46.3,141.51,46.31Z" transform="translate(0 49.15)"/><path class="cls-6" d="M232.12,190.49l.42.22-.39-16.46-1.73-3.62-.26-10.88-5.34-11.11-23.45-12.52-3.47-7.24L188.79,124a2.72,2.72,0,0,0-1.06-1.91c-.58-.31-1,.2-1,1.14a2.82,2.82,0,0,0,1.09,2.26c.5.27.91-.09,1-.81l8.94,4.77,3.47,7.23,23.45,12.53,5.09,10.58.25,10.88,1.74,3.62Zm-43.76-66c-.07.35-.3.51-.57.36a1.68,1.68,0,0,1-.65-1.35c0-.57.26-.88.6-.69a1.54,1.54,0,0,1,.61,1l-.33-.18a.66.66,0,0,0-.27-.35c-.18-.1-.33.07-.32.37a.89.89,0,0,0,.35.73.18.18,0,0,0,.26-.07Z" transform="translate(0 49.15)"/><path class="cls-6" d="M198.41,145.75l3.11-3.51,3,1.63.13,5.44,2.09,1.12-.06-2.73,1.25.68.13,5.44,2.09,1.12-.19-8.16,1.26.67.12,5.44,2.1,1.11-.07-2.71,2.94,1.56.17,7.61-3.28.93.25,10.67a.4.4,0,0,0-.12.36.89.89,0,0,0,.35.73c.19.1.33-.06.33-.37a1.16,1.16,0,0,0-.14-.49l-.17-6.92,2.36,4.9a1.81,1.81,0,0,0-.15.84,2.84,2.84,0,0,0,1.08,2.26c.58.31,1-.2,1-1.14A2.82,2.82,0,0,0,217,170a.58.58,0,0,0-.57,0l-2.66-5.53,0-2.37,3.28-.93-.2-8.72-3.77-2,.06,2.72-1.25-.67-.13-5.44-2.09-1.12.19,8.16-1.26-.67-.13-5.44-2.09-1.12.07,2.72-1.26-.67-.13-5.44-3.64-1.95L198,145.25l.64,27.35.42.23ZM217,170.65a1.66,1.66,0,0,1,.65,1.35c0,.57-.26.87-.6.69a1.72,1.72,0,0,1-.66-1.36,1.2,1.2,0,0,1,.06-.4l.24.5s0,0,0,.06a.92.92,0,0,0,.36.73c.18.1.33-.07.32-.37a.88.88,0,0,0-.35-.73h0l-.24-.5A.38.38,0,0,1,217,170.65Z" transform="translate(0 49.15)"/><polygon class="cls-6" points="189.81 198.15 191.35 193.6 191.04 180.08 191.46 180.3 191.78 193.99 190.23 198.53 190.67 217.5 190.25 217.28 189.81 198.15"/><path class="cls-6" d="M200.72,173.72l-.56-24.15,6.28,3.36.06,2.71,7.69,4.12-2.62.74.13,5.51-.85,1a1.58,1.58,0,0,0-.59-.59c-.57-.31-1,.2-1,1.14a2.84,2.84,0,0,0,1.08,2.26c.58.31,1-.21,1-1.14a3.61,3.61,0,0,0-.19-1l.57-.65.16,6.92a.4.4,0,0,0-.12.36.89.89,0,0,0,.35.73c.19.1.33-.07.33-.37a1,1,0,0,0-.15-.5l-.3-13L216,160l-9-4.83-.06-2.72-7.12-3.8.58,24.83Zm9.56-6.65a.87.87,0,0,1,.27.24l-.22.26,0,0c-.19-.1-.33.06-.33.37a.92.92,0,0,0,.36.73c.18.1.33-.06.33-.37a.13.13,0,0,1,0-.06l.22-.25a1.83,1.83,0,0,1,.07.46c0,.57-.26.87-.6.69a1.66,1.66,0,0,1-.65-1.35C209.66,167.19,209.93,166.88,210.28,167.07Z" transform="translate(0 49.15)"/><path class="cls-6" d="M235.88,59.84c.58.31,1-.2,1-1.14a3.09,3.09,0,0,0-.88-2.11l-.53-22.69L237,32.21l7.45,4,0-.68-7.62-4.07-1.73,2,.54,23c-.47-.09-.82.4-.8,1.22A2.85,2.85,0,0,0,235.88,59.84Zm0-.68a1.74,1.74,0,0,1-.65-1.35c0-.45.16-.73.4-.74v.53a.43.43,0,0,0-.12.36.92.92,0,0,0,.35.73c.19.1.34-.06.33-.37a1,1,0,0,0-.14-.49v-.54a2,2,0,0,1,.44,1.19C236.48,59,236.21,59.35,235.86,59.16Z" transform="translate(0 49.15)"/><path class="cls-6" d="M237.43,55.29c.57.31,1-.2,1-1.14a3.08,3.08,0,0,0-.87-2.11l-.34-14.32,6.23,3.33a.7.7,0,0,0,.27.35c.18.1.33-.07.32-.37a.9.9,0,0,0-.35-.74.19.19,0,0,0-.26.08l-6.64-3.55.35,15c-.48-.09-.82.4-.8,1.22A2.81,2.81,0,0,0,237.43,55.29Zm0-.68a1.66,1.66,0,0,1-.65-1.35c0-.44.16-.73.39-.74l0,.54a.4.4,0,0,0-.12.36.92.92,0,0,0,.35.73c.19.09.33-.07.33-.38a1.16,1.16,0,0,0-.14-.49v-.53a2,2,0,0,1,.44,1.18C238,54.49,237.76,54.8,237.41,54.61Z" transform="translate(0 49.15)"/><path class="cls-6" d="M222.38,118.66c.18.1.33-.07.32-.37a1,1,0,0,0-.14-.49L222,93.59l-3.6-7.49-42-22.46L173,67.43l.25,10.88L171.77,80,154.9,71l.2,8.36L152,82.87l-8.33-4.45-3.07.87-.08-.08c-.19-.09-.33.07-.33.38a.92.92,0,0,0,.36.73c.18.1.32-.06.32-.34l2.91-.83,8.41,4.49,3.34-3.78-.18-8L172,80.77l1.73-2-.26-10.88,3.11-3.52,41.69,22.27,3.35,7,.11,4.48-3.17-6.59-6.88-3.67-4.83,5.48L183.37,80.82l-1.73,2L182,96.22c-.47-.1-.81.4-.8,1.22a2.85,2.85,0,0,0,1.09,2.26c.58.31,1-.2,1-1.14a3.09,3.09,0,0,0-.88-2.11l-.31-13.16,1.5-1.69L207,94.12l4.84-5.48,6.52,3.48,3.35,7,.1,4.48-.61-1.28a1.86,1.86,0,0,0,.15-.84,2.84,2.84,0,0,0-1.08-2.26c-.58-.31-1,.2-1,1.14a2.82,2.82,0,0,0,1.09,2.26.59.59,0,0,0,.56,0l.93,1.91.17,7.2-.62-1.28a1.81,1.81,0,0,0,.15-.84,2.84,2.84,0,0,0-1.08-2.26c-.58-.31-1,.21-1,1.14a2.81,2.81,0,0,0,1.09,2.26.56.56,0,0,0,.57,0l.92,1.92.11,4.87a.47.47,0,0,0-.12.36A.92.92,0,0,0,222.38,118.66Zm-1.86-8.59a1.67,1.67,0,0,1-.65-1.36c0-.55.26-.86.6-.68a1.7,1.7,0,0,1,.65,1.36,1,1,0,0,1-.05.4l-.43-.9-.28.32.43.9A.34.34,0,0,1,220.52,110.07Zm-.19-8.16a1.67,1.67,0,0,1-.65-1.36c0-.56.25-.86.6-.68a1.67,1.67,0,0,1,.65,1.36,1,1,0,0,1-.05.4l-.43-.9-.29.32.43.9A.36.36,0,0,1,220.33,101.91ZM182.18,97a1.71,1.71,0,0,1,.65,1.36c0,.56-.26.87-.61.68a1.73,1.73,0,0,1-.65-1.36C181.56,97.1,181.83,96.8,182.18,97Z" transform="translate(0 49.15)"/><path class="cls-6" d="M188.58,167.23l.42.22L188.15,131c.47.1.81-.4.79-1.22a2.86,2.86,0,0,0-1.08-2.26c-.51-.27-.92.09-1,.82l-10.78-5.76L173,126.12l0,0c-.19-.1-.34.07-.33.37a.92.92,0,0,0,.35.74c.19.1.34-.07.33-.37,0,0,0,0,0-.07l3-3.38L186.88,129a3,3,0,0,0,.84,1.77l.08,3.43-1.2-.64a.66.66,0,0,0-.26-.35c-.19-.1-.34.06-.33.37a.89.89,0,0,0,.35.73.18.18,0,0,0,.26-.07l1.2.64.11,4.76-1.2-.64a.71.71,0,0,0-.27-.35c-.19-.1-.33.06-.33.37a.91.91,0,0,0,.36.73.16.16,0,0,0,.25-.07l1.21.65.11,4.75-1.2-.64a.71.71,0,0,0-.27-.35c-.19-.1-.33.06-.33.37a1,1,0,0,0,.35.74.19.19,0,0,0,.26-.08l1.21.64.36,15.65L182,158l-3.35-7-.06-2.43,2.47-2.8a1.64,1.64,0,0,0,.58.59c.58.31,1-.2,1-1.14A2.82,2.82,0,0,0,181.6,143c-.58-.31-1,.2-1,1.14a3.29,3.29,0,0,0,.19,1l-2.18,2.48-.17-7.21,2.47-2.79a1.82,1.82,0,0,0,.58.59c.58.31,1-.21,1-1.14a2.85,2.85,0,0,0-1.09-2.26c-.58-.31-1,.2-1,1.14a3.3,3.3,0,0,0,.2,1l-2.18,2.47-.31-13.12-2-1L172,130.08a1.58,1.58,0,0,0-.59-.59c-.58-.31-1,.2-1,1.14a2.81,2.81,0,0,0,1.08,2.26c.58.31,1-.2,1-1.14a3.3,3.3,0,0,0-.2-1l4.08-4.62,1.38.74.57,24.28,3.6,7.5,6.58,3.51Zm-17.2-37.06a1.68,1.68,0,0,1,.65,1.35c0,.57-.26.88-.6.69a1.71,1.71,0,0,1-.66-1.35C170.76,130.29,171,130,171.38,130.17Zm10.09,7.41a1,1,0,0,1-.27-.25l.23-.25,0,0c.19.1.34-.07.33-.37a.92.92,0,0,0-.35-.73c-.19-.1-.34.06-.33.37,0,0,0,0,0,.06l-.22.25a1.85,1.85,0,0,1-.08-.47c0-.56.26-.87.61-.68a1.69,1.69,0,0,1,.65,1.35C182.09,137.46,181.82,137.76,181.47,137.58Zm.2,8.16a1.66,1.66,0,0,1-.65-1.35c0-.57.25-.87.6-.69a1.7,1.7,0,0,1,.65,1.36C182.28,145.62,182,145.93,181.67,145.74Zm5.64-16.46.33.17a.45.45,0,0,0,.06.12v.53A1.86,1.86,0,0,1,187.31,129.28Zm.82,1,0-.53a.39.39,0,0,0,.12-.35.9.9,0,0,0-.35-.74.18.18,0,0,0-.26.07l-.32-.17c.07-.35.3-.51.57-.37a1.7,1.7,0,0,1,.65,1.36C188.53,130,188.37,130.31,188.13,130.32Z" transform="translate(0 49.15)"/><path class="cls-6" d="M160.59,85.45l16.61,8.87,3.45-1-.45-19.12,1.49-1.69L188.21,76,190,79.64l15.25,8.14,3.22-3.65,9.87,5.28,1.49,3.08s0,0,0,.06a.92.92,0,0,0,.36.73c.18.1.33-.07.32-.37a.9.9,0,0,0-.35-.74h0l-1.61-3.35-10.22-5.46L205,87l-14.9-8-1.74-3.61-6.87-3.67-1.73,2,.07,2.72-.86,1a1.7,1.7,0,0,0-.59-.6c-.57-.3-1,.21-1,1.15a2.84,2.84,0,0,0,1.09,2.26c.57.31,1-.21,1-1.15a3.23,3.23,0,0,0-.19-1l.57-.65.1,4.48-3.1,3.52-8.38-4.47-3.22,3.65-3.07-1.65a2.66,2.66,0,0,0-1.06-1.9c-.58-.31-1,.2-1,1.13a2.87,2.87,0,0,0,1.09,2.27c.5.26.92-.09,1-.82l3.25,1.74,3.22-3.65,8.38,4.47L180,82.85l.24,9.85-3.13.89-16.51-8.82a2.69,2.69,0,0,0-1.06-1.91c-.58-.31-1,.2-1,1.14a2.81,2.81,0,0,0,1.09,2.26C160.11,86.53,160.51,86.17,160.59,85.45Zm.6-1.69a1.76,1.76,0,0,1-.65-1.36c0-.56.26-.87.61-.69a1.73,1.73,0,0,1,.65,1.36C161.81,83.64,161.54,83.94,161.19,83.76Zm17.22-6.25a.76.76,0,0,1,.27.24l-.22.25a.05.05,0,0,0,0,0c-.18-.11-.33.06-.33.36a.93.93,0,0,0,.36.74c.19.1.33-.07.33-.37,0,0,0,0,0-.07l.22-.25a2.57,2.57,0,0,1,.08.47c0,.56-.26.87-.61.69a1.7,1.7,0,0,1-.65-1.36C177.79,77.63,178.06,77.32,178.41,77.51Zm-18.82,8.07a1.67,1.67,0,0,1-.66-1.35c0-.56.26-.87.61-.69a1.71,1.71,0,0,1,.65,1.36C160.2,85.46,159.93,85.77,159.59,85.58Z" transform="translate(0 49.15)"/><path class="cls-6" d="M168.3,69.42c.58.31,1-.21,1-1.15A2.8,2.8,0,0,0,168.22,66c-.5-.28-.91.08-1,.81l-2.12-1.13-.06-2.63-4.25-4.51a1.34,1.34,0,0,0,0-.2,2.81,2.81,0,0,0-1.08-2.26c-.58-.31-1,.21-1,1.14a2.82,2.82,0,0,0,1.09,2.26c.39.21.71,0,.88-.37l4,4.21.05,2.13-8.25-4.4L155,62.76s0,0,0,0a.17.17,0,0,0-.25.07l-7.91-4.22-.08-3.44c.48.1.82-.39.8-1.22a2.82,2.82,0,0,0-1.08-2.25c-.58-.31-1,.2-1,1.14a3.08,3.08,0,0,0,.87,2.11l.1,4.12,8.32,4.44a.71.71,0,0,0,.27.35c.19.11.33-.06.33-.37,0,0,0,0,0-.06l1.37-1.56,10.61,5.67A2.72,2.72,0,0,0,168.3,69.42Zm-21.85-15A1.7,1.7,0,0,1,145.8,53c0-.56.26-.87.6-.69a1.7,1.7,0,0,1,.65,1.36C147.07,54.26,146.8,54.57,146.45,54.39Zm13.33,4.43a1.73,1.73,0,0,1-.65-1.36c0-.55.26-.86.6-.68a1.68,1.68,0,0,1,.66,1.34l-.32-.33a.85.85,0,0,0-.32-.54c-.19-.1-.34.06-.33.37a.89.89,0,0,0,.35.73.17.17,0,0,0,.18,0l.32.34A.34.34,0,0,1,159.78,58.82Zm8.5,9.91a1.68,1.68,0,0,1-.65-1.35c0-.56.26-.87.61-.68a1.69,1.69,0,0,1,.65,1.35C168.9,68.62,168.63,68.92,168.28,68.73Z" transform="translate(0 49.15)"/><polygon class="cls-6" points="119.19 144.6 116.1 140.59 116.11 140.72 115.67 139.68 115.55 134.59 112.3 130.3 111.55 129.9 111.18 129.03 112.38 129.67 115.96 134.4 116.08 139.83 119.6 144.4 119.72 149.3 119.28 148.26 119.19 144.6"/><path class="cls-6" d="M186.85,164l-4.91-2.62-1.73-3.62-8.37-4.47L168.36,146l-28.44-15.19-3.41-4.51-7.45-4-.37-.87,7.9,4.22L140,130.2l28.51,15.23,3.47,7.23,7.78,4.16-3.17-6.59-.06-2.72-1.48-3.09s0,0,0,0a.91.91,0,0,1-.35-.74c0-.3.14-.47.32-.37a.92.92,0,0,1,.36.73s0,0,0,.06l1.18,2.44-.17-7.2-1.48-3.08h0a.89.89,0,0,1-.35-.73c0-.31.13-.47.32-.37a.92.92,0,0,1,.36.73s0,0,0,.06l1.18,2.44-.22-9.24L175,130.37v0c0,.31-.14.47-.33.37a.92.92,0,0,1-.35-.73c0-.31.14-.47.32-.37l.06,0,1.76-2,.53,22.44,5.08,10.58,5.15,2.75.07,3.06-.42-.22Z" transform="translate(0 49.15)"/><polygon class="cls-6" points="178.47 208.63 170.22 204.23 166.75 197 145.15 185.46 141.93 189.11 134.9 185.36 134.53 184.49 141.74 188.34 144.96 184.68 166.9 196.41 170.38 203.64 178.88 208.18 178.95 211.24 178.53 211.01 178.47 208.63"/><path class="cls-6" d="M212.29,111.72c.58.31,1-.2,1-1.14a2.85,2.85,0,0,0-1.09-2.26c-.5-.27-.92.09-1,.81l-10.62-5.66L199,100.11l-.19-8.36-13.42-7.17a2.68,2.68,0,0,0-1.06-1.9c-.58-.31-1,.2-1,1.14a2.83,2.83,0,0,0,1.08,2.26c.51.27.92-.09,1-.81l13,6.94.18,8,1.87,3.88,10.78,5.76A2.72,2.72,0,0,0,212.29,111.72ZM184.38,85.4a1.76,1.76,0,0,1-.65-1.36c0-.56.26-.87.61-.68a1.69,1.69,0,0,1,.65,1.35C185,85.27,184.73,85.58,184.38,85.4ZM212.27,111a1.52,1.52,0,0,1-.6-1l.33.17a.73.73,0,0,0,.26.36c.19.1.34-.07.33-.38a.92.92,0,0,0-.35-.73.18.18,0,0,0-.26.07l-.33-.17c.08-.35.3-.51.58-.37a1.74,1.74,0,0,1,.65,1.36C212.89,110.92,212.62,111.23,212.27,111Z" transform="translate(0 49.15)"/><path class="cls-6" d="M198.92,120.09c0-.3.14-.47.33-.37a1,1,0,0,1,.35.74c0,.3-.14.47-.33.37A.94.94,0,0,1,198.92,120.09Z" transform="translate(0 49.15)"/><path class="cls-6" d="M197.25,119.2c0-.31.13-.47.32-.37a.91.91,0,0,1,.36.73c0,.3-.14.47-.33.37A.89.89,0,0,1,197.25,119.2Z" transform="translate(0 49.15)"/><path class="cls-6" d="M195.57,118.3c0-.3.14-.47.33-.37a.92.92,0,0,1,.35.74c0,.3-.14.47-.33.37A1,1,0,0,1,195.57,118.3Z" transform="translate(0 49.15)"/><path class="cls-6" d="M193.9,117.41c0-.31.13-.47.32-.37a.91.91,0,0,1,.36.73c0,.31-.14.47-.33.37A.89.89,0,0,1,193.9,117.41Z" transform="translate(0 49.15)"/><path class="cls-6" d="M192.3,116.55c0-.3.14-.47.32-.37a.93.93,0,0,1,.36.74c0,.3-.14.47-.33.37A.9.9,0,0,1,192.3,116.55Z" transform="translate(0 49.15)"/><path class="cls-6" d="M215.61,60.77,194,49.25,192.83-2.5l-1.34-2.75.49.11,1.26,2.58,1.2,51.35,21.16,11.3a.17.17,0,0,1,.25-.07.89.89,0,0,1,.36.73c0,.31-.14.47-.33.37A.67.67,0,0,1,215.61,60.77Z" transform="translate(0 49.15)"/><path class="cls-6" d="M219.22,65.55,192.55,51.31l-3.47-7.23L187.91-6l.41.09,1.17,50,3.22,6.69L219.2,64.87a.18.18,0,0,1,.26-.07.92.92,0,0,1,.35.73c0,.31-.14.47-.33.37A.7.7,0,0,1,219.22,65.55Z" transform="translate(0 49.15)"/><polygon class="cls-6" points="218.3 119.88 218.71 120.1 218.76 122.32 218.35 122.09 218.3 119.88"/><polygon class="cls-6" points="215.87 118.59 216.29 118.81 216.34 121.02 215.92 120.8 215.87 118.59"/><polygon class="cls-6" points="213.44 117.29 213.86 117.51 213.91 119.72 213.49 119.5 213.44 117.29"/><polygon class="cls-6" points="211.01 115.99 211.43 116.21 211.48 118.42 211.07 118.2 211.01 115.99"/><polygon class="cls-6" points="208.59 114.69 209 114.92 209.06 117.13 208.64 116.91 208.59 114.69"/><polygon class="cls-6" points="206.16 113.39 206.57 113.62 206.63 115.83 206.21 115.61 206.16 113.39"/><polygon class="cls-6" points="203.73 112.1 204.15 112.32 204.2 114.54 203.78 114.32 203.73 112.1"/><polygon class="cls-6" points="201.3 110.8 201.72 111.03 201.77 113.24 201.36 113.02 201.3 110.8"/><polygon class="cls-6" points="198.88 109.51 199.29 109.73 199.34 111.94 198.93 111.72 198.88 109.51"/><polygon class="cls-6" points="196.45 108.21 196.87 108.43 196.92 110.64 196.5 110.42 196.45 108.21"/><polygon class="cls-6" points="194.02 106.92 194.44 107.14 194.49 109.35 194.07 109.13 194.02 106.92"/><polygon class="cls-6" points="191.59 105.62 192.01 105.84 192.06 108.05 191.65 107.83 191.59 105.62"/><path class="cls-6" d="M164.93,137.35c.58.3,1-.2,1-1.15a2.8,2.8,0,0,0-1.09-2.25c-.53-.29-.95.13-1,.93l-24-12.84-3.42-4.51-10-5.35-1.71-3.41L124.4,97c.52.19.92-.31.9-1.18a2.86,2.86,0,0,0-1.09-2.27c-.57-.3-1,.21-1,1.15a3.21,3.21,0,0,0,.77,2l.28,12.13,2,3.93,10.08,5.39,3.41,4.51,24.17,12.91A2.6,2.6,0,0,0,164.93,137.35Zm-40.55-41,0-1-.42-.23,0,.88a2,2,0,0,1-.33-1c0-.56.25-.87.6-.68a1.66,1.66,0,0,1,.65,1.35C124.89,96.1,124.68,96.4,124.38,96.32Zm40.53,40.35a1.44,1.44,0,0,1-.56-.85l.38.2a.5.5,0,0,0,.17.18c.19.1.34-.07.33-.37a.9.9,0,0,0-.35-.74c-.14-.07-.26,0-.31.18l-.3-.16c0-.43.3-.64.6-.48a1.69,1.69,0,0,1,.65,1.35C165.53,136.55,165.26,136.85,164.91,136.67Z" transform="translate(0 49.15)"/><path class="cls-6" d="M158.3,147.87c0-.3.14-.47.33-.37a.9.9,0,0,1,.35.74c0,.3-.13.46-.32.36A.89.89,0,0,1,158.3,147.87Z" transform="translate(0 49.15)"/><path class="cls-6" d="M156.63,147c0-.31.14-.48.33-.38a1,1,0,0,1,.35.74c0,.31-.14.47-.33.37A1,1,0,0,1,156.63,147Z" transform="translate(0 49.15)"/><path class="cls-6" d="M227,187.73l.42.23-.18-13.67-3.48-7.24-.26-10.88-3.6-7.49L196.11,136l.07,2.71-.44-.23a2.71,2.71,0,0,0-1.06-1.91c-.57-.31-1,.2-1,1.14a2.83,2.83,0,0,0,1.09,2.26c.51.27.92-.09,1-.81l.44.23.12,4.76L194.19,143a2.65,2.65,0,0,0-1.06-1.91c-.57-.31-1,.2-1,1.14a2.84,2.84,0,0,0,1.08,2.26c.51.27.92-.09,1-.81l2.11,1.13.08,3.43c-.47-.1-.81.4-.8,1.22a2.85,2.85,0,0,0,1.09,2.26c.58.31,1-.21,1-1.14a3.09,3.09,0,0,0-.88-2.11l-.27-11.6,23.15,12.36,3.35,7,.18,7.68-2.12-1.13a2.68,2.68,0,0,0-1.05-1.91c-.58-.3-1,.21-1,1.14a2.81,2.81,0,0,0,1.09,2.26c.5.28.91-.09,1-.81l2.11,1.13.06,2.52,3.48,7.23.07,4.94-6.18-3.3a.69.69,0,0,0-.27-.36c-.18-.1-.33.07-.32.37a.9.9,0,0,0,.35.74.18.18,0,0,0,.26-.07l6.16,3.29ZM196.42,149v.53a.47.47,0,0,0-.12.36,1,1,0,0,0,.35.73c.19.1.34-.06.33-.37a1.11,1.11,0,0,0-.14-.5v-.53a1.92,1.92,0,0,1,.44,1.19c0,.56-.26.86-.61.68a1.74,1.74,0,0,1-.65-1.36C196,149.27,196.18,149,196.42,149Zm-3.22-5.14a1.67,1.67,0,0,1-.65-1.36c0-.56.25-.87.6-.68a1.53,1.53,0,0,1,.61,1l-.33-.17a.71.71,0,0,0-.27-.35c-.19-.1-.33.06-.33.37a.91.91,0,0,0,.36.73.17.17,0,0,0,.25-.07l.33.17C193.69,143.82,193.47,144,193.2,143.84Zm1.53-5.23.59.32c-.08.35-.3.51-.58.36a1.74,1.74,0,0,1-.65-1.35c0-.56.26-.87.61-.69a1.54,1.54,0,0,1,.6,1l-.59-.32Zm25.39,25a1.66,1.66,0,0,1-.65-1.35c0-.56.26-.87.6-.69a1.54,1.54,0,0,1,.61,1l-.59-.32v.68l.6.32C220.62,163.58,220.39,163.74,220.12,163.59Z" transform="translate(0 49.15)"/><path class="cls-6" d="M238.12,164.28l-3.22-6.7h0a1,1,0,0,1-.35-.74c0-.31.14-.47.33-.37a.92.92,0,0,1,.35.73v.06l3.35,7,.7,30.07-.42-.22Z" transform="translate(0 49.15)"/><path class="cls-6" d="M245.27,186.84l-1.81-6.33L243.22,170a1.17,1.17,0,0,1-.15-.5c0-.3.15-.47.33-.36a.89.89,0,0,1,.36.73.44.44,0,0,1-.12.35l.24,10.38,1.8,6.34.26,11-.42-.22Z" transform="translate(0 49.15)"/><path class="cls-6" d="M228.07,75.93l4.29-4.86a1.75,1.75,0,0,0,.63.66c.58.31,1-.2,1-1.14a2.85,2.85,0,0,0-1.09-2.26c-.58-.31-1,.2-1,1.14a3.32,3.32,0,0,0,.17.94l-4.19,4.75-1.3-.7-.84-35.67-1.82-1-.39-16.77c.47.1.82-.39.8-1.21a2.83,2.83,0,0,0-1.08-2.26c-.58-.32-1,.2-1,1.14a3.08,3.08,0,0,0,.87,2.11l.41,17.44,1.82,1,.83,35.68Zm-4.56-55.58v-.54a.38.38,0,0,0,.12-.35.86.86,0,0,0-.35-.73c-.19-.11-.33.06-.33.37a1.16,1.16,0,0,0,.14.49l0,.53a1.89,1.89,0,0,1-.44-1.18c0-.56.25-.87.6-.69a1.7,1.7,0,0,1,.65,1.36C223.92,20.05,223.76,20.34,223.51,20.35ZM233,71.05a.91.91,0,0,1-.31-.31l.21-.24s.06.07.09.08c.19.1.34-.07.33-.37a1,1,0,0,0-.35-.73c-.18-.1-.32,0-.33.32l-.24.27a1.58,1.58,0,0,1-.05-.38c0-.56.26-.87.6-.68a1.7,1.7,0,0,1,.66,1.36C233.59,70.93,233.32,71.24,233,71.05Z" transform="translate(0 49.15)"/><path class="cls-6" d="M221.5,11.86c.58.31,1-.2,1-1.14a3.41,3.41,0,0,0-.19-1l1-1.13-.16-6.9-.41-.1.15,6.5-.87,1a1.75,1.75,0,0,0-.6-.61c-.57-.31-1,.2-1,1.14A2.84,2.84,0,0,0,221.5,11.86Zm0-.68a1.72,1.72,0,0,1-.66-1.36c0-.56.26-.87.61-.68a.89.89,0,0,1,.28.27l-.22.25a.12.12,0,0,0-.05-.05c-.19-.1-.34.06-.33.37a.91.91,0,0,0,.36.73c.18.1.33-.06.32-.37v0l.23-.26a2.32,2.32,0,0,1,.06.45C222.11,11.06,221.83,11.37,221.49,11.18Z" transform="translate(0 49.15)"/><path class="cls-6" d="M223.45,102.91l2.1,1.12-1.49-63.26-1.67-.9-.56-24,3.22-3.65-.24-10.16L224.39,2l.23,9.75-3.22,3.65.59,25,1.67.89,1.45,61.9-1.25-.67-.45-19-32.1-17.13-4.92,0-10.11-5.39L174,63.56l-2.52-5.23L144.81,44.11a.66.66,0,0,0-.26-.35c-.19-.1-.34.07-.33.37a.92.92,0,0,0,.35.73.18.18,0,0,0,.26-.07l26.45,14.13,2.39,5-1,1.19-2.52-5.24L149.78,49a.65.65,0,0,0-.26-.35c-.19-.1-.34.06-.33.37a1,1,0,0,0,.35.73.18.18,0,0,0,.26-.07l20.14,10.76,2.39,5-1,1.13.25,10.69L143.24,62.07l-1,1.11a1.64,1.64,0,0,0-.58-.59c-.58-.31-1,.2-1,1.14A2.84,2.84,0,0,0,141.76,66c.58.3,1-.21,1-1.14a3.25,3.25,0,0,0-.2-1l.85-1L172,78.12,171.76,67l4.71-5.35,10,5.34,4.93,0L223,83.86ZM141.7,63.27a1.17,1.17,0,0,1,.27.24l-.23.26,0,0c-.19-.1-.34.07-.33.38a.92.92,0,0,0,.35.73c.19.1.34-.07.33-.37,0,0,0,0,0-.07l.22-.25a1.55,1.55,0,0,1,.08.47c0,.56-.26.87-.61.69a1.76,1.76,0,0,1-.65-1.36C141.08,63.39,141.35,63.08,141.7,63.27Z" transform="translate(0 49.15)"/><polygon class="cls-6" points="154.35 121.84 154.4 122.19 153.76 122.06 153.71 121.71 154.35 121.84"/><polygon class="cls-6" points="154.07 119.87 154.12 120.2 153.48 120.07 153.44 119.73 154.07 119.87"/><polygon class="cls-6" points="153.43 114.17 154.07 114.73 154.04 115.02 153.4 114.47 153.43 114.17"/><polygon class="cls-6" points="153.61 112.44 154.26 112.99 154.23 113.29 153.58 112.74 153.61 112.44"/></g></g><path class="cls-5" d="M197.11,94.46c1.25-.51,2-1.77,2-3.67,0-3.76-3-8.57-6.81-10.75s-6.82-.88-6.82,2.88a12.35,12.35,0,0,0,2.67,6.94,1,1,0,0,1,.19.77l-2.65,16a1.05,1.05,0,0,0,.5,1.07l11,6.51a1.05,1.05,0,0,0,1.58-1l-2.42-17.5A1.13,1.13,0,0,1,197.11,94.46Z" transform="translate(0 49.15)"/><path class="cls-11" d="M190.86,108.58a1,1,0,0,1-.51-1.07l2.66-16a1.06,1.06,0,0,0-.19-.77,12.35,12.35,0,0,1-2.67-6.94c0-2,.89-3.29,2.28-3.73l-.11-.08c-3.77-2.17-6.82-.88-6.82,2.88a12.35,12.35,0,0,0,2.67,6.94,1,1,0,0,1,.19.77l-2.65,16a1.05,1.05,0,0,0,.5,1.07l11,6.51a1,1,0,0,0,1.55-.91Z" transform="translate(0 49.15)"/><path class="cls-5" d="M197.69,114.67a1.32,1.32,0,0,1-.71-.2L186,108a1.41,1.41,0,0,1-.67-1.45l2.65-16a.63.63,0,0,0-.12-.49,12.64,12.64,0,0,1-2.74-7.16A4.13,4.13,0,0,1,187,79.11c1.41-.82,3.43-.59,5.52.62l.08,0,.6.42-.64.26c-1.31.42-2,1.63-2,3.39a11.92,11.92,0,0,0,2.6,6.72,1.37,1.37,0,0,1,.26,1.05l-2.65,15.95a.68.68,0,0,0,.32.7l8.05,4.78v.2a1.42,1.42,0,0,1-.72,1.24A1.36,1.36,0,0,1,197.69,114.67Zm-8.78-35.32a3,3,0,0,0-1.56.39,3.44,3.44,0,0,0-1.48,3.18,11.9,11.9,0,0,0,2.59,6.72,1.38,1.38,0,0,1,.26,1l-2.65,16a.67.67,0,0,0,.33.7l10.95,6.5a.65.65,0,0,0,.66,0,.69.69,0,0,0,.32-.41l-7.66-4.55a1.42,1.42,0,0,1-.68-1.45l2.66-16a.64.64,0,0,0-.13-.49,12.64,12.64,0,0,1-2.74-7.16,4.13,4.13,0,0,1,1.83-3.77A6.23,6.23,0,0,0,188.91,79.35Z" transform="translate(0 49.15)"/><g class="cls-12"><path class="cls-5" d="M151.22,171.92l.26-.15a13.22,13.22,0,0,1,12.83,0l77.29,43.45a4.13,4.13,0,0,1,0,7.27h0a13.21,13.21,0,0,1-12.8,0L151.21,179.2A4.13,4.13,0,0,1,151.22,171.92Z" transform="translate(0 49.15)"/></g></g></g></g></svg>