<?xml version="1.0" encoding="utf-8"?>
<!-- Generator: Adobe Illustrator 25.4.1, SVG Export Plug-In . SVG Version: 6.00 Build 0)  -->
<svg version="1.1" xmlns="http://www.w3.org/2000/svg" xmlns:xlink="http://www.w3.org/1999/xlink" x="0px" y="0px"
	 viewBox="0 0 5000 5000" style="enable-background:new 0 0 5000 5000;" xml:space="preserve">
<style type="text/css">
	.st0{fill:#FFFFFF;}
	.st1{fill:#D0C9E0;}
	.st2{fill:#7F7693;}
	.st3{fill:#6464FF;}
	.st4{fill:#2D3963;}
	.st5{opacity:0.67;fill:#8383FF;}
	.st6{opacity:0.67;fill:#B5B5FF;}
	.st7{opacity:0.25;fill:#162138;}
	.st8{fill:#B2ADBE;}
	.st9{fill:#A2A2FF;}
	.st10{fill:#C1C1FF;}
	.st11{fill:#E3DFEC;}
	.st12{fill:#FD3D6C;}
	.st13{fill:#BE2E51;}
	.st14{opacity:0.39;fill:#51DBFF;}
	.st15{opacity:0.46;fill:#FFFFFF;}
	.st16{fill:#615878;}
	.st17{fill:#8175A0;}
	.st18{fill:#F6F4F9;}
	.st19{fill:#B3ACC6;}
</style>
<g id="bg">
	<rect class="st0" width="5000" height="5000"/>
</g>
<g id="main">
	<g>
		<path class="st1" d="M3879.92,2647.51c-12.58-48.72-27.33-95.66-43.57-139.24c-67.54-180.73-87.74-281.74-109.13-388.69
			c-10.99-54.76-22.28-111.51-40.6-180.73c-34.07-128.74-76.15-217.47-165.97-261.44c-0.69-0.3-1.39-0.69-1.98-0.99
			c-42.58-20.4-95.76-30.9-163.7-30.9c-5.74,0-11.39,0-16.84,0.1h-0.89c-222.12,0.69-242.43,16.14-305.61,64.47
			c-19.11,14.56-42.78,32.68-76.25,53.97c-0.3,0.1-0.5,0.2-0.69,0.4c-1.19,0.69-63.58,39.02-128.05,177.66
			c-66.45,142.8-159.34,157.46-252.73,157.46c-12.08,0-24.06-0.3-36.15-0.5c-12.48-0.3-25.05-0.49-37.73-0.49
			c-12.77,0-25.35,0.2-37.83,0.49c-11.98,0.2-24.06,0.5-36.05,0.5c-93.48,0-186.38-14.66-252.82-157.46
			c-63.97-137.65-125.77-176.37-127.85-177.66c-0.3-0.1-0.59-0.3-0.79-0.4c-33.47-21.29-57.24-39.41-76.35-53.97c0,0-0.1,0-0.2-0.1
			c-60.8-46.54-82.1-62.59-283.03-64.27c0,0-0.2,0-0.59,0c-12.48-0.1-25.55-0.2-39.41-0.2c-67.94,0-121.11,10.5-163.7,30.9
			c-0.69,0.3-1.29,0.69-1.98,0.99c-89.82,43.97-131.91,132.7-165.97,261.44c-18.32,69.22-29.71,125.87-40.6,180.73
			c-21.39,106.95-41.59,207.96-109.13,388.69c-16.34,43.67-31,90.61-43.67,139.34c-6.44,31.69-60.8,317.59,54.76,459.6
			c44.27,54.37,109.43,81.5,193.8,80.12c206.78-2.87,311.25-86.16,412.26-166.67c86.95-69.32,176.87-140.82,326.9-158.05
			c40.01-27.53,82.79-51.59,129.14-71.1l67.04-130.23c18.32-35.65,54.07-58.13,93.88-59.42h0.49c1.09-0.1,2.18-0.1,3.27-0.1h196.87
			c41.3,0,78.63,22.78,97.55,59.52l67.14,130.32c46.25,19.41,89.03,43.47,129.04,71.01c150.13,17.23,240.05,88.73,326.9,158.05
			c20.99,16.74,42.19,33.67,64.47,49.91c0.1,0,0.1,0.1,0.2,0.1c84.47,61.79,184,114.38,347.7,116.66
			c84.27,1.39,149.54-25.75,193.7-80.12C3940.92,2965.1,3886.26,2678.7,3879.92,2647.51z M2050.03,2252.97
			c0,67.24-54.66,121.81-121.81,121.81c-67.14,0-121.81-54.57-121.81-121.81c0-67.14,54.66-121.81,121.81-121.81
			C1995.37,2131.16,2050.03,2185.83,2050.03,2252.97z M1402.67,2252.97c0-61.7,46.25-112.89,105.86-120.72
			c5.25-0.69,10.5-1.09,15.94-1.09c67.24,0,121.81,54.66,121.81,121.81c0,67.24-54.57,121.81-121.81,121.81
			c-20.5,0-39.81-5.05-56.74-14.16C1429.11,2340.32,1402.67,2299.71,1402.67,2252.97z M1726.4,2333.09
			c67.14,0,121.81,54.57,121.81,121.81c0,67.14-54.66,121.81-121.81,121.81c-67.24,0-121.81-54.67-121.81-121.81
			C1604.6,2387.65,1659.16,2333.09,1726.4,2333.09z M1726.4,1929.34c67.14,0,121.81,54.66,121.81,121.81
			c0,67.14-54.66,121.81-121.81,121.81c-67.24,0-121.81-54.67-121.81-121.81C1604.6,1984,1659.16,1929.34,1726.4,1929.34z
			 M3280.68,1929.34c67.14,0,121.81,54.66,121.81,121.81c0,67.14-54.66,121.81-121.81,121.81c-67.24,0-121.81-54.67-121.81-121.81
			C3158.88,1984,3213.44,1929.34,3280.68,1929.34z M2957.05,2252.97c0-67.14,54.57-121.81,121.71-121.81
			c67.24,0,121.81,54.66,121.81,121.81c0,67.24-54.57,121.81-121.81,121.81C3011.62,2374.78,2957.05,2320.21,2957.05,2252.97z
			 M3280.68,2576.7c-67.24,0-121.81-54.67-121.81-121.81c0-67.24,54.57-121.81,121.81-121.81c67.14,0,121.81,54.57,121.81,121.81
			C3402.49,2522.04,3347.83,2576.7,3280.68,2576.7z M3482.51,2374.78c-67.14,0-121.81-54.57-121.81-121.81
			c0-67.14,54.66-121.81,121.81-121.81c67.14,0,121.81,54.66,121.81,121.81C3604.32,2320.21,3549.65,2374.78,3482.51,2374.78z"/>
		<path class="st2" d="M3925.27,2974.11c1.58,136.66-21.98,265.6-82.79,359.68c-53.28,82.39-130.42,127.35-229.16,133.79
			c-161.02,10.6-275.3-128.74-407.91-290.06c-73.18-88.93-150.53-183.01-242.92-261.04c95.86,26.84,162.41,79.72,231.93,135.18
			c106.26,84.67,216.08,172.21,436.43,175.28c1.98,0,3.96,0.1,5.94,0.1c94.28,0,167.96-31.89,219.15-94.87
			C3892.2,3087.7,3913.49,3031.94,3925.27,2974.11z"/>
		<path class="st2" d="M2037.46,2916.47c-92.3,78.04-169.74,172.11-242.82,261.04c-132.7,161.32-246.98,300.56-407.91,290.06
			c-98.83-6.44-175.88-51.4-229.16-133.79c-60.8-94.08-84.47-223.02-82.89-359.68c11.88,57.83,33.18,113.59,69.32,158.05
			c51.2,62.98,124.98,94.87,219.15,94.87c1.98,0,3.96-0.1,5.94-0.1c220.34-3.07,330.27-90.61,436.43-175.28
			C1875.15,2996.19,1941.7,2943.31,2037.46,2916.47z"/>
		<path class="st3" d="M3508.16,1595.41v34.07c-42.29-15.45-92.59-23.57-153.2-23.57c-117.85,0-185.29,3.66-232.33,13.86v-25.25
			c0-22.48,15.65-42.38,37.24-47.24c123-28.03,246.68-11.69,309.47,0.59C3491.82,1552.23,3508.16,1572.24,3508.16,1595.41z"/>
		<path class="st3" d="M2854.16,1814.17c-19.81,27.93-41.59,64.27-63.38,111.21c-1.88,3.96-3.76,7.92-5.64,11.69v0.1
			c-63.38,125.97-144.68,124.38-246.59,122.3c-12.68-0.3-25.55-0.49-38.52-0.49s-25.85,0.2-38.62,0.49
			c-104.97,2.08-187.96,3.76-252.13-134.09c-21.79-46.94-43.57-83.28-63.38-111.21c48.82,18.82,99.13,31.79,145.87,40.8
			c109.63,21.09,200.04,20,208.26,19.81C2512.21,1875.07,2690.96,1877.05,2854.16,1814.17z"/>
		<path class="st3" d="M1877.33,1594.52v25.25c-46.94-10.2-114.48-13.86-232.23-13.86c-60.61,0-110.91,8.12-153.2,23.57v-34.07
			c0-23.17,16.34-43.18,38.82-47.53c62.79-12.28,186.47-28.62,309.47-0.59C1861.68,1552.13,1877.33,1572.04,1877.33,1594.52z"/>
		<path class="st3" d="M2708.09,2771.2c-62.78-19.9-131.61-31.39-208.06-31.39c-45.36,0-88.14,4.06-128.44,11.49
			c-27.73,5.05-54.17,11.78-79.72,19.9l47.34-91.8c12.08-23.47,35.95-38.03,62.39-38.03h196.87c26.34,0,50.31,14.56,62.39,38.03
			l3.17,6.24l0.1,0.1L2708.09,2771.2z"/>
		<g>
			<path class="st4" d="M3919.13,2641.47c-0.59-2.77-0.99-4.75-1.19-5.45c-0.2-1.19-0.59-2.18-0.99-3.17
				c-12.67-48.43-27.33-95.07-43.47-138.44c-66.45-177.76-86.35-277.28-107.45-382.65c-10.99-55.36-22.48-112.6-41.1-183.11
				c-34.76-131.31-81.5-229.65-177.16-281.54v-51.69c0-42.09-29.81-78.43-70.91-86.45c-65.85-12.87-195.68-30.01-325.81-0.3
				c-39.41,8.91-68.03,45.06-68.03,85.86v37.24c-27.13,10.99-48.33,26.14-75.46,46.84c-19.41,14.85-41.39,31.59-73.28,51.89
				c-0.3,0.1-0.5,0.3-0.69,0.4c-171.12,108.14-430.58,104.38-433.16,104.38c-0.2-0.1-0.3,0-0.5,0h-0.3
				c-2.67,0-261.84,3.96-433.16-104.38c-0.3-0.1-0.5-0.3-0.69-0.4c-31.99-20.3-53.97-37.04-73.38-51.89
				c-27.04-20.7-48.23-35.85-75.46-46.84v-37.24c0-40.8-28.62-76.95-67.93-85.86c-130.13-29.71-260.05-12.58-325.91,0.3
				c-41,8.02-70.81,44.37-70.81,86.45v51.69c-95.66,51.89-142.41,150.23-177.17,281.54c-18.62,70.51-30.11,127.75-41.2,183.11
				c-20.99,105.37-40.9,204.89-107.35,382.65c-16.24,43.37-30.8,89.92-43.47,138.34c-0.4,0.99-0.79,2.08-1.09,3.27
				c-0.1,0.79-0.59,2.67-1.19,5.55c-62.19,244.7-71.4,536.15,43.47,713.71c60.41,93.48,147.85,144.58,259.86,151.91
				c6.54,0.4,13.07,0.59,19.51,0.59c170.63,0,292.63-148.35,421.57-305.11c163.1-198.36,347.99-423.26,674.79-423.26
				s511.69,224.9,674.79,423.26c128.94,156.77,250.94,305.11,421.57,305.11c6.44,0,12.87-0.2,19.51-0.59
				c111.9-7.33,199.35-58.43,259.86-151.91C3990.63,3177.62,3981.32,2886.17,3919.13,2641.47z M3122.63,1594.52
				c0-22.48,15.65-42.38,37.24-47.24c123-28.03,246.68-11.69,309.47,0.59c22.48,4.36,38.82,24.36,38.82,47.53v34.07
				c-42.29-15.45-92.59-23.57-153.2-23.57c-117.85,0-185.29,3.66-232.33,13.86V1594.52z M2500.03,1874.77
				c12.18,0.3,190.93,2.28,354.13-60.61c-19.81,27.93-41.59,64.27-63.38,111.21c-64.17,137.85-147.26,136.27-252.23,134.09
				c-12.68-0.3-25.55-0.49-38.52-0.49s-25.85,0.2-38.62,0.49c-104.97,2.08-187.96,3.76-252.13-134.09
				c-21.79-46.94-43.57-83.28-63.38-111.21C2309.3,1877.15,2488.34,1875.07,2500.03,1874.77z M1491.9,1595.41
				c0-23.17,16.34-43.18,38.82-47.53c62.79-12.28,186.47-28.62,309.47-0.59c21.49,4.85,37.14,24.76,37.14,47.24v25.25
				c-46.94-10.2-114.48-13.86-232.23-13.86c-60.61,0-110.91,8.12-153.2,23.57V1595.41z M1794.64,3177.52
				c-132.7,161.32-246.98,300.56-407.91,290.06c-98.83-6.44-175.88-51.4-229.16-133.79c-60.8-94.08-84.47-223.02-82.89-359.68
				c11.88,57.83,33.18,113.59,69.32,158.05c51.2,62.98,124.98,94.87,219.15,94.87c1.98,0,3.96-0.1,5.94-0.1
				c220.34-3.07,330.27-90.61,436.43-175.28c69.62-55.46,136.17-108.34,231.93-135.18
				C1945.16,2994.51,1867.72,3088.59,1794.64,3177.52z M2500.03,2739.8c-76.45,0-145.38,11.49-208.16,31.39l47.34-91.8
				c12.08-23.47,35.95-38.03,62.39-38.03h196.87c26.34,0,50.31,14.56,62.39,38.03l47.24,91.8
				C2645.31,2751.29,2576.48,2739.8,2500.03,2739.8z M2763.15,2791.6l-67.14-130.32c-18.92-36.74-56.25-59.52-97.55-59.52h-196.87
				c-41.3,0-78.73,22.78-97.64,59.52l-67.04,130.23c-46.35,19.51-89.13,43.57-129.14,71.1c-150.03,17.23-239.95,88.73-326.9,158.05
				c-101.01,80.51-205.49,163.8-412.26,166.67c-84.37,1.39-149.54-25.75-193.8-80.12c-115.57-142.01-61.2-427.91-54.76-459.6
				c12.68-48.72,27.33-95.66,43.67-139.34c67.54-180.73,87.74-281.74,109.13-388.69c10.89-54.86,22.28-111.51,40.6-180.73
				c34.07-128.74,76.15-217.47,165.97-261.44c0.69-0.3,1.29-0.69,1.98-0.99c42.58-20.4,95.76-30.9,163.7-30.9
				c238.76,0,258.37,14.95,323.23,64.57c19.11,14.56,42.88,32.68,76.35,53.97c0.2,0.1,0.49,0.3,0.79,0.4
				c2.08,1.29,63.87,40.01,127.85,177.66c66.45,142.8,159.34,157.46,252.82,157.46c11.98,0,24.06-0.3,36.05-0.5
				c12.48-0.3,25.05-0.49,37.83-0.49c12.68,0,25.25,0.2,37.73,0.49c12.08,0.2,24.06,0.5,36.15,0.5
				c93.39,0,186.28-14.66,252.73-157.46c64.47-138.64,126.86-176.97,128.05-177.66c0.2-0.2,0.4-0.3,0.69-0.4
				c33.47-21.29,57.14-39.41,76.25-53.97c64.86-49.61,84.47-64.57,323.33-64.57c67.93,0,121.11,10.5,163.7,30.9
				c0.59,0.3,1.29,0.69,1.98,0.99c89.82,43.97,131.91,132.7,165.97,261.44c18.32,69.22,29.61,125.97,40.6,180.73
				c21.39,106.95,41.59,207.96,109.13,388.69c16.24,43.57,31,90.51,43.57,139.24c6.34,31.19,61,317.59-54.76,459.7
				c-44.17,54.37-109.43,81.5-193.7,80.12c-206.87-2.87-311.25-86.16-412.36-166.67c-86.85-69.32-176.77-140.82-326.9-158.05
				C2852.18,2835.07,2809.4,2811.01,2763.15,2791.6z M3842.48,3333.79c-53.28,82.39-130.42,127.35-229.16,133.79
				c-161.02,10.6-275.3-128.74-407.91-290.06c-73.18-88.93-150.53-183.01-242.92-261.04c95.86,26.84,162.41,79.72,231.93,135.18
				c106.26,84.67,216.08,172.21,436.43,175.28c1.98,0,3.96,0.1,5.94,0.1c94.28,0,167.96-31.89,219.15-94.87
				c36.24-44.46,57.54-100.22,69.32-158.05C3926.86,3110.77,3903.29,3239.71,3842.48,3333.79z"/>
			<path class="st4" d="M3280.68,1929.34c-67.24,0-121.81,54.66-121.81,121.81c0,67.14,54.57,121.81,121.81,121.81
				c67.14,0,121.81-54.67,121.81-121.81C3402.49,1984,3347.83,1929.34,3280.68,1929.34z M3280.68,2133.34
				c-45.36,0-82.2-36.84-82.2-82.2c0-45.26,36.84-82.2,82.2-82.2c45.26,0,82.19,36.94,82.19,82.2
				C3362.88,2096.5,3325.94,2133.34,3280.68,2133.34z"/>
			<path class="st4" d="M3280.68,2333.09c-67.24,0-121.81,54.57-121.81,121.81c0,67.14,54.57,121.81,121.81,121.81
				c67.14,0,121.81-54.67,121.81-121.81C3402.49,2387.65,3347.83,2333.09,3280.68,2333.09z M3280.68,2537.09
				c-45.36,0-82.2-36.94-82.2-82.2c0-45.36,36.84-82.2,82.2-82.2c45.26,0,82.19,36.84,82.19,82.2
				C3362.88,2500.15,3325.94,2537.09,3280.68,2537.09z"/>
			<path class="st4" d="M3482.51,2131.16c-67.14,0-121.81,54.66-121.81,121.81c0,67.24,54.66,121.81,121.81,121.81
				c67.14,0,121.81-54.57,121.81-121.81C3604.32,2185.83,3549.65,2131.16,3482.51,2131.16z M3482.51,2335.17
				c-45.36,0-82.2-36.84-82.2-82.2c0-45.26,36.84-82.2,82.2-82.2s82.2,36.94,82.2,82.2
				C3564.7,2298.33,3527.86,2335.17,3482.51,2335.17z"/>
			<path class="st4" d="M3078.76,2131.16c-67.14,0-121.71,54.66-121.71,121.81c0,67.24,54.57,121.81,121.71,121.81
				c67.24,0,121.81-54.57,121.81-121.81C3200.57,2185.83,3146,2131.16,3078.76,2131.16z M3078.76,2335.17
				c-45.26,0-82.1-36.84-82.1-82.2c0-45.26,36.84-82.2,82.1-82.2c45.36,0,82.2,36.94,82.2,82.2
				C3160.96,2298.33,3124.12,2335.17,3078.76,2335.17z"/>
			<path class="st4" d="M1726.4,1929.34c-67.24,0-121.81,54.66-121.81,121.81c0,67.14,54.57,121.81,121.81,121.81
				c67.14,0,121.81-54.67,121.81-121.81C1848.21,1984,1793.55,1929.34,1726.4,1929.34z M1726.4,2133.34
				c-45.36,0-82.2-36.84-82.2-82.2c0-45.26,36.84-82.2,82.2-82.2c45.26,0,82.2,36.94,82.2,82.2
				C1808.6,2096.5,1771.66,2133.34,1726.4,2133.34z"/>
			<path class="st4" d="M1726.4,2333.09c-67.24,0-121.81,54.57-121.81,121.81c0,67.14,54.57,121.81,121.81,121.81
				c67.14,0,121.81-54.67,121.81-121.81C1848.21,2387.65,1793.55,2333.09,1726.4,2333.09z M1726.4,2537.09
				c-45.36,0-82.2-36.94-82.2-82.2c0-45.36,36.84-82.2,82.2-82.2c45.26,0,82.2,36.84,82.2,82.2
				C1808.6,2500.15,1771.66,2537.09,1726.4,2537.09z"/>
			<path class="st4" d="M1928.23,2131.16c-67.14,0-121.81,54.66-121.81,121.81c0,67.24,54.66,121.81,121.81,121.81
				c67.14,0,121.81-54.57,121.81-121.81C2050.03,2185.83,1995.37,2131.16,1928.23,2131.16z M1928.23,2335.17
				c-45.36,0-82.2-36.84-82.2-82.2c0-45.26,36.84-82.2,82.2-82.2c45.36,0,82.2,36.94,82.2,82.2
				C2010.42,2298.33,1973.58,2335.17,1928.23,2335.17z"/>
			<path class="st4" d="M1524.48,2131.16c-67.14,0-121.81,54.66-121.81,121.81c0,67.24,54.66,121.81,121.81,121.81
				c67.24,0,121.81-54.57,121.81-121.81C1646.29,2185.83,1591.72,2131.16,1524.48,2131.16z M1524.48,2335.17
				c-45.26,0-82.2-36.84-82.2-82.2c0-45.26,36.94-82.2,82.2-82.2c45.36,0,82.19,36.94,82.19,82.2
				C1606.68,2298.33,1569.84,2335.17,1524.48,2335.17z"/>
		</g>
		<g>
			<path class="st3" d="M1808.6,2051.15c0,45.36-36.94,82.2-82.2,82.2c-8.62,0-17.03-1.39-24.86-3.76
				c-5.74-1.88-11.29-4.36-16.44-7.33c-3.86-2.28-7.63-4.85-11.09-7.72c-10.89-9.11-19.51-20.99-24.56-34.56
				c-3.37-9.01-5.25-18.72-5.25-28.82c0-45.26,36.84-82.2,82.2-82.2c4.85,0,9.61,0.4,14.16,1.29c14.46,2.48,27.63,8.81,38.42,17.92
				c3.47,2.77,6.64,5.94,9.61,9.41c3.86,4.46,7.33,9.51,10.3,14.76C1805.03,2023.91,1808.6,2037.18,1808.6,2051.15z"/>
			<path class="st5" d="M1778.99,1988.16l-104.97,126.36c-10.89-9.11-19.51-20.99-24.56-34.56l91.11-109.73
				C1755.02,1972.71,1768.19,1979.05,1778.99,1988.16z"/>
			<path class="st5" d="M1798.89,2012.33l-97.35,117.25c-5.74-1.88-11.29-4.36-16.44-7.33l103.49-124.68
				C1792.46,2002.03,1795.92,2007.08,1798.89,2012.33z"/>
		</g>
		<g>
			<path class="st3" d="M2010.42,2252.97c0,45.36-36.94,82.2-82.2,82.2c-8.62,0-17.03-1.39-24.86-3.76
				c-5.74-1.88-11.29-4.36-16.44-7.33c-3.86-2.28-7.63-4.85-11.09-7.72c-10.89-9.11-19.51-20.99-24.56-34.56
				c-3.37-9.01-5.25-18.72-5.25-28.82c0-45.26,36.84-82.2,82.2-82.2c4.85,0,9.61,0.4,14.16,1.29c14.46,2.48,27.63,8.81,38.42,17.92
				c3.47,2.77,6.64,5.94,9.61,9.41c3.86,4.46,7.33,9.51,10.3,14.76C2006.86,2225.74,2010.42,2239.01,2010.42,2252.97z"/>
			<path class="st5" d="M1980.81,2189.99l-104.97,126.36c-10.89-9.11-19.51-20.99-24.56-34.56l91.11-109.73
				C1956.85,2174.54,1970.02,2180.88,1980.81,2189.99z"/>
			<path class="st5" d="M2000.72,2214.15l-97.35,117.25c-5.74-1.88-11.29-4.36-16.44-7.33l103.49-124.68
				C1994.28,2203.85,1997.75,2208.9,2000.72,2214.15z"/>
		</g>
		<g>
			<path class="st3" d="M1808.6,2454.89c0,45.36-36.94,82.2-82.2,82.2c-8.62,0-17.03-1.39-24.86-3.76
				c-5.74-1.88-11.29-4.36-16.44-7.33c-3.86-2.28-7.63-4.85-11.09-7.72c-10.89-9.11-19.51-20.99-24.56-34.56
				c-3.37-9.01-5.25-18.72-5.25-28.82c0-45.26,36.84-82.2,82.2-82.2c4.85,0,9.61,0.4,14.16,1.29c14.46,2.48,27.63,8.81,38.42,17.92
				c3.47,2.77,6.64,5.94,9.61,9.41c3.86,4.46,7.33,9.51,10.3,14.76C1805.03,2427.66,1808.6,2440.93,1808.6,2454.89z"/>
			<path class="st5" d="M1778.99,2391.91l-104.97,126.36c-10.89-9.11-19.51-20.99-24.56-34.56l91.11-109.73
				C1755.02,2376.46,1768.19,2382.8,1778.99,2391.91z"/>
			<path class="st5" d="M1798.89,2416.07l-97.35,117.25c-5.74-1.88-11.29-4.36-16.44-7.33l103.49-124.68
				C1792.46,2405.77,1795.92,2410.82,1798.89,2416.07z"/>
		</g>
		<g>
			<path class="st3" d="M1606.68,2252.97c0,45.36-36.94,82.2-82.2,82.2c-8.62,0-17.03-1.39-24.86-3.76
				c-5.74-1.88-11.29-4.36-16.44-7.33c-3.86-2.28-7.63-4.85-11.09-7.72c-10.89-9.11-19.51-20.99-24.56-34.56
				c-3.37-9.01-5.25-18.72-5.25-28.82c0-45.26,36.84-82.2,82.2-82.2c4.85,0,9.61,0.4,14.16,1.29c14.46,2.48,27.63,8.81,38.42,17.92
				c3.47,2.77,6.64,5.94,9.61,9.41c3.86,4.46,7.33,9.51,10.3,14.76C1603.11,2225.74,1606.68,2239.01,1606.68,2252.97z"/>
			<path class="st5" d="M1577.07,2189.99l-104.97,126.36c-10.89-9.11-19.51-20.99-24.56-34.56l91.11-109.73
				C1553.1,2174.54,1566.27,2180.88,1577.07,2189.99z"/>
			<path class="st5" d="M1596.97,2214.15l-97.35,117.25c-5.74-1.88-11.29-4.36-16.44-7.33l103.49-124.68
				C1590.53,2203.85,1594,2208.9,1596.97,2214.15z"/>
		</g>
		<g>
			<path class="st3" d="M3362.88,2051.15c0,45.36-36.94,82.2-82.2,82.2c-8.62,0-17.03-1.39-24.86-3.76
				c-5.74-1.88-11.29-4.36-16.44-7.33c-3.86-2.28-7.63-4.85-11.09-7.72c-10.89-9.11-19.51-20.99-24.56-34.56
				c-3.37-9.01-5.25-18.72-5.25-28.82c0-45.26,36.84-82.2,82.2-82.2c4.85,0,9.61,0.4,14.16,1.29c14.46,2.48,27.63,8.81,38.42,17.92
				c3.47,2.77,6.64,5.94,9.61,9.41c3.86,4.46,7.33,9.51,10.3,14.76C3359.31,2023.91,3362.88,2037.18,3362.88,2051.15z"/>
			<path class="st5" d="M3333.27,1988.16l-104.97,126.36c-10.89-9.11-19.51-20.99-24.56-34.56l91.11-109.73
				C3309.3,1972.71,3322.48,1979.05,3333.27,1988.16z"/>
			<path class="st5" d="M3353.17,2012.33l-97.35,117.25c-5.74-1.88-11.29-4.36-16.44-7.33l103.49-124.68
				C3346.74,2002.03,3350.2,2007.08,3353.17,2012.33z"/>
			<path class="st6" d="M3362.88,2051.15c0,45.36-36.94,82.2-82.19,82.2c-8.62,0-17.03-1.39-24.86-3.76
				c-4.16-1.39-8.32-3.07-12.18-4.95c2.38,0.99,4.85,1.98,7.33,2.77c7.63,2.28,15.85,3.66,24.16,3.66
				c44.07,0,80.02-35.85,80.02-79.92c0-13.57-3.47-26.44-9.51-37.73c-2.87-5.15-6.24-10-10-14.36c-2.87-3.37-5.94-6.44-9.31-9.11
				c-10.5-8.91-23.27-15.05-37.33-17.43c-4.46-0.89-9.11-1.29-13.86-1.29c-10.99,0-21.39,2.28-31,6.24
				c10.99-5.45,23.47-8.52,36.54-8.52c4.85,0,9.61,0.4,14.16,1.29c14.46,2.48,27.63,8.81,38.42,17.92c3.47,2.77,6.63,5.94,9.61,9.41
				c3.86,4.46,7.33,9.51,10.3,14.76C3359.31,2023.91,3362.88,2037.18,3362.88,2051.15z"/>
		</g>
		<g>
			<path class="st3" d="M3362.88,2454.89c0,45.36-36.94,82.2-82.2,82.2c-8.62,0-17.03-1.39-24.86-3.76
				c-5.74-1.88-11.29-4.36-16.44-7.33c-3.86-2.28-7.63-4.85-11.09-7.72c-10.89-9.11-19.51-20.99-24.56-34.56
				c-3.37-9.01-5.25-18.72-5.25-28.82c0-45.26,36.84-82.2,82.2-82.2c4.85,0,9.61,0.4,14.16,1.29c14.46,2.48,27.63,8.81,38.42,17.92
				c3.47,2.77,6.64,5.94,9.61,9.41c3.86,4.46,7.33,9.51,10.3,14.76C3359.31,2427.66,3362.88,2440.93,3362.88,2454.89z"/>
			<path class="st5" d="M3333.27,2391.91l-104.97,126.36c-10.89-9.11-19.51-20.99-24.56-34.56l91.11-109.73
				C3309.3,2376.46,3322.48,2382.8,3333.27,2391.91z"/>
			<path class="st5" d="M3353.17,2416.07l-97.35,117.25c-5.74-1.88-11.29-4.36-16.44-7.33l103.49-124.68
				C3346.74,2405.77,3350.2,2410.82,3353.17,2416.07z"/>
			<path class="st6" d="M3362.88,2454.89c0,45.36-36.94,82.2-82.2,82.2c-8.62,0-17.03-1.39-24.86-3.76
				c-4.16-1.39-8.32-3.07-12.18-4.95c2.38,0.99,4.85,1.98,7.33,2.77c7.63,2.28,15.85,3.66,24.16,3.66
				c44.07,0,80.02-35.85,80.02-79.92c0-13.57-3.47-26.44-9.51-37.73c-2.87-5.15-6.24-10-10-14.36c-2.87-3.37-5.94-6.44-9.31-9.11
				c-10.5-8.91-23.27-15.05-37.33-17.43c-4.46-0.89-9.11-1.29-13.86-1.29c-10.99,0-21.39,2.28-31,6.24
				c10.99-5.45,23.47-8.52,36.54-8.52c4.85,0,9.61,0.4,14.16,1.29c14.46,2.48,27.63,8.81,38.42,17.92c3.47,2.77,6.64,5.94,9.61,9.41
				c3.86,4.46,7.33,9.51,10.3,14.76C3359.31,2427.66,3362.88,2440.93,3362.88,2454.89z"/>
		</g>
		<g>
			<path class="st3" d="M3564.7,2252.97c0,45.36-36.94,82.2-82.2,82.2c-8.62,0-17.03-1.39-24.86-3.76
				c-5.74-1.88-11.29-4.36-16.44-7.33c-3.86-2.28-7.63-4.85-11.09-7.72c-10.89-9.11-19.51-20.99-24.56-34.56
				c-3.37-9.01-5.25-18.72-5.25-28.82c0-45.26,36.84-82.2,82.2-82.2c4.85,0,9.61,0.4,14.16,1.29c14.46,2.48,27.63,8.81,38.42,17.92
				c3.47,2.77,6.64,5.94,9.61,9.41c3.86,4.46,7.33,9.51,10.3,14.76C3561.14,2225.74,3564.7,2239.01,3564.7,2252.97z"/>
			<path class="st5" d="M3535.09,2189.99l-104.97,126.36c-10.89-9.11-19.51-20.99-24.56-34.56l91.11-109.73
				C3511.13,2174.54,3524.3,2180.88,3535.09,2189.99z"/>
			<path class="st5" d="M3555,2214.15l-97.35,117.25c-5.74-1.88-11.29-4.36-16.44-7.33l103.49-124.68
				C3548.56,2203.85,3552.03,2208.9,3555,2214.15z"/>
			<path class="st6" d="M3564.7,2252.97c0,45.36-36.94,82.2-82.2,82.2c-8.62,0-17.03-1.39-24.86-3.76
				c-4.16-1.39-8.32-3.07-12.18-4.95c2.38,0.99,4.85,1.98,7.33,2.77c7.63,2.28,15.85,3.66,24.16,3.66
				c44.07,0,80.02-35.85,80.02-79.92c0-13.57-3.47-26.44-9.51-37.73c-2.87-5.15-6.24-10-10-14.36c-2.87-3.37-5.94-6.44-9.31-9.11
				c-10.5-8.91-23.27-15.05-37.33-17.43c-4.46-0.89-9.11-1.29-13.86-1.29c-10.99,0-21.39,2.28-31,6.24
				c10.99-5.45,23.47-8.52,36.54-8.52c4.85,0,9.61,0.4,14.16,1.29c14.46,2.48,27.63,8.81,38.42,17.92c3.47,2.77,6.63,5.94,9.61,9.41
				c3.86,4.46,7.33,9.51,10.3,14.76C3561.14,2225.74,3564.7,2239.01,3564.7,2252.97z"/>
		</g>
		<g>
			<path class="st3" d="M3161.01,2252.97c0,45.36-36.94,82.2-82.2,82.2c-8.62,0-17.03-1.39-24.86-3.76
				c-5.74-1.88-11.29-4.36-16.44-7.33c-3.86-2.28-7.63-4.85-11.09-7.72c-10.89-9.11-19.51-20.99-24.56-34.56
				c-3.37-9.01-5.25-18.72-5.25-28.82c0-45.26,36.84-82.2,82.2-82.2c4.85,0,9.61,0.4,14.16,1.29c14.46,2.48,27.63,8.81,38.42,17.92
				c3.47,2.77,6.64,5.94,9.61,9.41c3.86,4.46,7.33,9.51,10.3,14.76C3157.44,2225.74,3161.01,2239.01,3161.01,2252.97z"/>
			<path class="st5" d="M3131.4,2189.99l-104.97,126.36c-10.89-9.11-19.51-20.99-24.56-34.56l91.11-109.73
				C3107.43,2174.54,3120.6,2180.88,3131.4,2189.99z"/>
			<path class="st5" d="M3151.3,2214.15l-97.35,117.25c-5.74-1.88-11.29-4.36-16.44-7.33L3141,2199.39
				C3144.86,2203.85,3148.33,2208.9,3151.3,2214.15z"/>
			<path class="st6" d="M3160.96,2252.97c0,45.36-36.94,82.2-82.19,82.2c-8.62,0-17.03-1.39-24.86-3.76
				c-4.16-1.39-8.32-3.07-12.18-4.95c2.38,0.99,4.85,1.98,7.33,2.77c7.63,2.28,15.85,3.66,24.16,3.66
				c44.07,0,80.02-35.85,80.02-79.92c0-13.57-3.47-26.44-9.51-37.73c-2.87-5.15-6.24-10-10-14.36c-2.87-3.37-5.94-6.44-9.31-9.11
				c-10.5-8.91-23.27-15.05-37.33-17.43c-4.46-0.89-9.11-1.29-13.86-1.29c-10.99,0-21.39,2.28-31,6.24
				c10.99-5.45,23.47-8.52,36.54-8.52c4.85,0,9.61,0.4,14.16,1.29c14.46,2.48,27.63,8.81,38.42,17.92c3.47,2.77,6.63,5.94,9.61,9.41
				c3.86,4.46,7.33,9.51,10.3,14.76C3157.39,2225.74,3160.96,2239.01,3160.96,2252.97z"/>
		</g>
		<path class="st0" d="M3825.15,3107.21c-44.17,54.37-109.43,81.5-193.7,80.12c-163.7-2.28-263.22-54.86-347.7-116.66
			c95.86,46.25,225.59,104.08,380.67,85.46c155.18-18.62,195.78-154.39,202.22-342.94c6.44-188.55-72.39-324.23-135.67-517.93
			c-63.28-193.8-48.82-372.95-131.41-508.03c-77.44-126.56-241.34-140.33-261.44-141.61c5.45-0.1,11.09-0.1,16.84-0.1
			c67.93,0,121.11,10.5,163.7,30.9c0.59,0.3,1.29,0.69,1.98,0.99c89.82,43.97,131.91,132.7,165.97,261.44
			c18.32,69.22,29.61,125.97,40.6,180.73c21.39,106.95,41.59,207.96,109.13,388.69c16.24,43.57,31,90.51,43.57,139.24
			C3886.26,2678.7,3940.92,2965.1,3825.15,3107.21z"/>
		<path class="st7" d="M2107.77,2862.6c-150.03,17.23-239.95,88.73-326.9,158.05c-101.01,80.51-205.49,163.8-412.26,166.67
			c-84.37,1.39-149.54-25.75-193.8-80.12c-115.57-142.01-61.2-427.91-54.76-459.6c12.68-48.72,27.33-95.66,43.67-139.34
			c67.54-180.73,87.74-281.74,109.13-388.69c10.89-54.86,22.28-111.51,40.6-180.73c34.07-128.74,76.15-217.47,165.97-261.44
			c0.69-0.3,1.29-0.69,1.98-0.99c42.58-20.4,95.76-30.9,163.7-30.9c13.86,0,26.94,0.1,39.41,0.2c-9.41,0-168.46-0.13-261.78,283.62
			c-56.19,170.84-41.34,298.03-131.75,537.98c-90.41,240.05-122.71,534.42,176.96,537.09
			C1767.6,3006.99,1807.21,2826.75,2107.77,2862.6z"/>
		<path class="st7" d="M2785.14,1937.16c-63.38,125.97-144.68,124.38-246.59,122.3c-12.68-0.3-25.55-0.49-38.52-0.49
			s-25.85,0.2-38.62,0.49c-104.97,2.08-187.96,3.76-252.13-134.09c-21.79-46.94-43.57-83.28-63.38-111.21
			c48.82,18.82,99.13,31.79,145.87,40.8c5.84,8.52,11.49,17.83,17.03,28.22c42.68,80.12,54.27,118.94,173.11,114.38
			C2600.74,1993.02,2718.79,2028.47,2785.14,1937.16z"/>
		<path class="st7" d="M2664.02,2685.63c-26.74-37.53-180.53-7.13-228.96-9.01c-48.43-1.98-63.48,74.67-63.48,74.67
			c-27.73,5.05-54.17,11.78-79.72,19.9l47.34-91.8c12.08-23.47,35.95-38.03,62.39-38.03h196.87c26.34,0,50.31,14.56,62.39,38.03
			L2664.02,2685.63z"/>
	</g>
</g>
</svg>
