<svg xmlns="http://www.w3.org/2000/svg" id="Layer_1" x="0" y="0" version="1.1" viewBox="0 0 48 48" xml:space="preserve"><path fill="#ffe082" d="M30.3,37c1.6,0,3.1-1.2,3.2-2.8c0.1-1.7-1.3-3.2-3-3.2h-4.4c-5.8,0-5.9-1-9.3-1c-5.2,0-8.7,5.5-9.9,7.6	c-0.3,0.5-0.2,1.1,0.1,1.6l5,6.8c0.6,0.8,1.8,0.8,2.5,0c0.8-1,2-2,4-2c4.1,0,8.1,1,12,1c2.8,0,5.3-2.8,16.2-11.9l-0.1,0.1	c1.2-1.2,1.2-3.1,0-4.2c-1.2-1.2-2.7-1.1-4.2,0c-1.5,1.1-10.1,7.5-10.1,7.5"/><path fill="none" stroke="#18193f" stroke-linecap="round" stroke-linejoin="round" stroke-width="3" d="M38,32.5c1.4-1.2,2.9-2.5,4.7-4l-0.1,0.1c1.2-1.2,1.2-3.1,0-4.2c-1.2-1.2-2.7-1.1-4.2,0	c-1.5,1.1-10.1,7.5-10.1,7.5"/><path fill="none" stroke="#18193f" stroke-linecap="round" stroke-linejoin="round" stroke-width="3" d="M3.1,34.8l5,6.8c0.6,0.8,1.8,0.8,2.5,0c0.8-1,2-2,4-2c4.1,0,8.1,1,12,1c1.9,0,3.6-1.2,7.7-4.7"/><path fill="none" stroke="#18193f" stroke-linecap="round" stroke-linejoin="round" stroke-width="3" d="M19.5,32.5l6.8,0c1.6,0,3.1-1.2,3.2-2.8c0.1-1.7-1.3-3.2-3-3.2h-4.4c-5.8,0-5.9-1-9.3-1c-2.1,0-3.9,0.9-5.3,2"/><circle cx="23" cy="15" r="2" fill="#18193f"/><path fill="none" stroke="#18193f" stroke-linecap="round" stroke-linejoin="round" stroke-width="3" d="M13.5,12.6v5.9c0,1.1,0.9,2,2,2h15c1.1,0,2-0.9,2-2v-14c0-0.6-0.4-1-1-1h-17c-0.6,0-1,0.4-1,1v3.3"/><path fill="none" stroke="#18193f" stroke-linecap="round" stroke-linejoin="round" stroke-width="3" d="M27.4,4.5c0.1,0.3,0.1,0.7,0.1,1c0,2.2-2,4-4.5,4s-4.5-1.8-4.5-4c0-0.3,0-0.5,0.1-0.8"/></svg>