<?xml version="1.0" encoding="utf-8"?>
<!-- Generator: Adobe Illustrator 25.4.1, SVG Export Plug-In . SVG Version: 6.00 Build 0)  -->
<!DOCTYPE svg PUBLIC "-//W3C//DTD SVG 1.1//EN" "http://www.w3.org/Graphics/SVG/1.1/DTD/svg11.dtd" [
	<!ENTITY ns_extend "http://ns.adobe.com/Extensibility/1.0/">
	<!ENTITY ns_ai "http://ns.adobe.com/AdobeIllustrator/10.0/">
	<!ENTITY ns_graphs "http://ns.adobe.com/Graphs/1.0/">
	<!ENTITY ns_vars "http://ns.adobe.com/Variables/1.0/">
	<!ENTITY ns_imrep "http://ns.adobe.com/ImageReplacement/1.0/">
	<!ENTITY ns_sfw "http://ns.adobe.com/SaveForWeb/1.0/">
	<!ENTITY ns_custom "http://ns.adobe.com/GenericCustomNamespace/1.0/">
	<!ENTITY ns_adobe_xpath "http://ns.adobe.com/XPath/1.0/">
]>
<svg version="1.1" xmlns:x="&ns_extend;" xmlns:i="&ns_ai;" xmlns:graph="&ns_graphs;"
	 xmlns="http://www.w3.org/2000/svg" xmlns:xlink="http://www.w3.org/1999/xlink" x="0px" y="0px" viewBox="0 0 2340 1560"
	 style="enable-background:new 0 0 2340 1560;" xml:space="preserve">
<style type="text/css">
	.st0{fill:#B5B5B6;}
	.st1{fill:#FFFFFF;}
	.st2{fill:#312E55;}
	.st3{fill:#322E55;}
	.st4{fill:#F47B6A;}
	.st5{fill:#A4D3DD;}
	.st6{fill:#F497BF;}
	.st7{fill:#FBE458;}
	.st8{fill:#485CA8;}
	.st9{fill:#82BDE6;}
	.st10{fill:#FCE370;}
	.st11{fill:#B8E1F0;}
	.st12{fill:#F69990;}
	.st13{fill:#FFF6D4;}
	.st14{fill:#4A5DA9;}
	.st15{fill:#EF9CC0;}
	.st16{fill:#343955;}
	.st17{fill:#D32D27;}
	.st18{fill:#FDDA70;}
	.st19{fill:#485DA9;}
	.st20{fill:#AA536C;}
	.st21{fill:#80A1D4;}
	.st22{clip-path:url(#SVGID_00000065792035368563646870000013249704889314781086_);}
</style>
<metadata>
	<sfw  xmlns="&ns_sfw;">
		<slices></slices>
		<sliceSourceBounds  bottomLeftOrigin="true" height="3033.9" width="6825.9" x="68.9" y="-3088"></sliceSourceBounds>
	</sfw>
</metadata>
<g id="Layer_5">
</g>
<g id="Layer_4">
</g>
<g id="Layer_3">
</g>
<g id="Layer_2">
	<g>
		<g>
			<g>
				<path class="st3" d="M377.7,252.5c-0.2,0-0.4,0-0.7-0.1c-2.7-0.8-5.5-1.5-8.2-2.3c-1.3-0.4-2.1-1.8-1.7-3.1
					c0.4-1.3,1.7-2.1,3.1-1.7c2.7,0.8,5.5,1.5,8.2,2.3c1.3,0.4,2.1,1.7,1.7,3.1C379.8,251.7,378.8,252.5,377.7,252.5z"/>
			</g>
			<g>
				<path class="st3" d="M2013.3,1083.8c-0.6,0-1.2-0.2-1.7-0.7c-1-1-1-2.5-0.1-3.5l11.8-12.3c1-1,2.5-1,3.5-0.1c1,1,1,2.5,0.1,3.5
					l-11.8,12.3C2014.6,1083.6,2013.9,1083.8,2013.3,1083.8z M2037,1059.1c-0.6,0-1.2-0.2-1.7-0.7c-1-1-1-2.5-0.1-3.5
					c3.9-4.1,7.8-8.2,11.8-12.4c0.9-1,2.5-1,3.5-0.1c1,0.9,1,2.5,0.1,3.5c-4,4.2-7.9,8.3-11.8,12.4
					C2038.3,1058.9,2037.6,1059.1,2037,1059.1z M2060.4,1034.3c-0.6,0-1.2-0.2-1.7-0.7c-1-0.9-1.1-2.5-0.1-3.5
					c4-4.3,7.9-8.5,11.6-12.5c0.9-1,2.5-1.1,3.5-0.2c1,0.9,1.1,2.5,0.2,3.5c-3.7,4-7.6,8.3-11.6,12.6
					C2061.8,1034,2061.1,1034.3,2060.4,1034.3z M2083.5,1009.1c-0.6,0-1.2-0.2-1.7-0.6c-1-0.9-1.1-2.5-0.2-3.5
					c3.9-4.3,7.7-8.6,11.3-12.8c0.9-1,2.5-1.1,3.5-0.2c1,0.9,1.1,2.5,0.2,3.5c-3.6,4.2-7.5,8.5-11.3,12.8
					C2084.9,1008.8,2084.2,1009.1,2083.5,1009.1z M2106,983.3c-0.6,0-1.1-0.2-1.6-0.6c-1.1-0.9-1.2-2.5-0.3-3.5
					c3.7-4.4,7.4-8.8,10.9-13.1c0.9-1.1,2.4-1.2,3.5-0.4c1.1,0.9,1.2,2.4,0.4,3.5c-3.5,4.3-7.2,8.8-11,13.2
					C2107.4,983,2106.7,983.3,2106,983.3z M2127.7,956.7c-0.5,0-1.1-0.2-1.5-0.5c-1.1-0.9-1.3-2.4-0.4-3.5c3.6-4.5,7-9.1,10.4-13.5
					c0.8-1.1,2.4-1.3,3.5-0.5c1.1,0.8,1.3,2.4,0.5,3.5c-3.4,4.5-6.9,9-10.4,13.6C2129.2,956.4,2128.4,956.7,2127.7,956.7z
					 M2148.2,929.4c-0.5,0-1-0.2-1.5-0.5c-1.1-0.8-1.4-2.4-0.6-3.5c3.3-4.7,6.6-9.4,9.7-14c0.8-1.1,2.3-1.4,3.5-0.7
					c1.1,0.8,1.4,2.3,0.7,3.5c-3.1,4.6-6.4,9.4-9.8,14.1C2149.7,929,2149,929.4,2148.2,929.4z M2167.3,901.1c-0.5,0-0.9-0.1-1.3-0.4
					c-1.2-0.7-1.5-2.3-0.8-3.4c3.1-4.9,6-9.7,8.8-14.5c0.7-1.2,2.2-1.6,3.4-0.9c1.2,0.7,1.6,2.2,0.9,3.4c-2.8,4.8-5.8,9.8-8.9,14.7
					C2168.9,900.7,2168.1,901.1,2167.3,901.1z M2184.5,871.6c-0.4,0-0.8-0.1-1.2-0.3c-1.2-0.7-1.7-2.2-1-3.4
					c2.7-5.1,5.3-10.2,7.7-15.1c0.6-1.2,2.1-1.8,3.3-1.2c1.2,0.6,1.8,2.1,1.2,3.3c-2.4,5-5.1,10.2-7.8,15.3
					C2186.3,871.1,2185.4,871.6,2184.5,871.6z M2199.4,840.8c-0.3,0-0.7-0.1-1-0.2c-1.3-0.5-1.9-2-1.3-3.3
					c2.2-5.3,4.4-10.6,6.3-15.8c0.5-1.3,1.9-2,3.2-1.5c1.3,0.5,2,1.9,1.5,3.2c-1.9,5.3-4.1,10.7-6.4,16
					C2201.2,840.2,2200.3,840.8,2199.4,840.8z M2211.1,808.7c-0.2,0-0.5,0-0.7-0.1c-1.3-0.4-2.1-1.8-1.7-3.1
					c1.7-5.5,3.2-11,4.4-16.3c0.3-1.3,1.7-2.2,3-1.9c1.3,0.3,2.2,1.7,1.9,3c-1.3,5.5-2.8,11.1-4.5,16.6
					C2213.2,808,2212.2,808.7,2211.1,808.7z M2219,775.5c-0.1,0-0.3,0-0.4,0c-1.4-0.2-2.3-1.5-2.1-2.9c0.9-5.6,1.7-11.2,2.2-16.7
					c0.1-1.4,1.3-2.4,2.7-2.3c1.4,0.1,2.4,1.3,2.3,2.7c-0.5,5.6-1.3,11.4-2.2,17.1C2221.3,774.6,2220.2,775.5,2219,775.5z
					 M2222.2,741.5C2222.2,741.5,2222.1,741.5,2222.2,741.5c-1.4,0-2.5-1.2-2.5-2.5c0-1.1,0-2.2,0-3.3c0-4.5-0.1-9.1-0.4-13.6
					c-0.1-1.4,1-2.6,2.3-2.7c1.4-0.1,2.6,1,2.7,2.3c0.3,4.6,0.5,9.3,0.5,13.9c0,1.1,0,2.3,0,3.4
					C2224.6,740.4,2223.5,741.5,2222.2,741.5z M2219.9,707.5c-1.2,0-2.3-0.9-2.5-2.1c-0.3-1.8-0.6-3.6-0.9-5.4
					c-0.7-3.7-1.5-7.5-2.4-11.2c-0.3-1.3,0.5-2.7,1.8-3c1.3-0.3,2.7,0.5,3,1.8c0.9,3.8,1.8,7.7,2.4,11.5c0.3,1.8,0.6,3.7,0.9,5.5
					c0.2,1.4-0.7,2.6-2.1,2.8C2220.2,707.4,2220,707.5,2219.9,707.5z M2211.7,674.4c-1,0-2-0.6-2.4-1.7c-1.8-5.2-4-10.5-6.3-15.6
					c-0.6-1.3,0-2.7,1.2-3.3c1.3-0.6,2.7,0,3.3,1.2c2.4,5.3,4.6,10.7,6.5,16c0.5,1.3-0.2,2.7-1.5,3.2
					C2212.3,674.3,2212,674.4,2211.7,674.4z M2197.6,643.4c-0.9,0-1.7-0.5-2.2-1.3c-2.7-4.8-5.7-9.6-8.8-14.4
					c-0.8-1.2-0.4-2.7,0.7-3.5c1.1-0.8,2.7-0.4,3.5,0.7c3.2,4.9,6.2,9.8,9,14.7c0.7,1.2,0.2,2.7-1,3.4
					C2198.4,643.2,2198,643.4,2197.6,643.4z M2178.8,614.9c-0.8,0-1.5-0.3-2-1c-3.3-4.4-6.9-8.8-10.6-13.2c-0.9-1-0.8-2.6,0.3-3.5
					c1-0.9,2.6-0.8,3.5,0.3c3.8,4.4,7.4,9,10.8,13.4c0.8,1.1,0.6,2.7-0.5,3.5C2179.8,614.7,2179.3,614.9,2178.8,614.9z
					 M2156.6,588.9c-0.7,0-1.3-0.3-1.8-0.8c-3.8-4-7.8-8.1-11.9-12.1c-1-1-1-2.5-0.1-3.5c1-1,2.5-1,3.5-0.1
					c4.2,4.1,8.3,8.2,12.1,12.2c0.9,1,0.9,2.6-0.1,3.5C2157.9,588.6,2157.2,588.9,2156.6,588.9z M2132.1,565.1
					c-0.6,0-1.2-0.2-1.7-0.6c-4.1-3.7-8.4-7.4-12.9-11.1c-1.1-0.9-1.2-2.5-0.3-3.5c0.9-1.1,2.5-1.2,3.5-0.3c4.5,3.7,8.8,7.5,13,11.3
					c1,0.9,1.1,2.5,0.2,3.5C2133.5,564.8,2132.8,565.1,2132.1,565.1z M2105.9,543.1c-0.5,0-1.1-0.2-1.5-0.5
					c-4.3-3.4-8.9-6.9-13.5-10.4c-1.1-0.8-1.3-2.4-0.5-3.5c0.8-1.1,2.4-1.3,3.5-0.5c4.7,3.5,9.2,7,13.6,10.5
					c1.1,0.9,1.3,2.4,0.4,3.5C2107.4,542.7,2106.6,543.1,2105.9,543.1z M2078.6,522.5c-0.5,0-1-0.2-1.5-0.5c-4.5-3.2-9.2-6.5-14-9.8
					c-1.1-0.8-1.4-2.3-0.6-3.5c0.8-1.1,2.3-1.4,3.5-0.6c4.8,3.3,9.5,6.7,14,9.9c1.1,0.8,1.4,2.4,0.6,3.5
					C2080.1,522.1,2079.3,522.5,2078.6,522.5z M2050.4,503c-0.5,0-1-0.1-1.4-0.4c-4.5-3-9.3-6.2-14.2-9.4c-1.2-0.8-1.5-2.3-0.7-3.5
					c0.8-1.2,2.3-1.5,3.5-0.7c4.9,3.2,9.7,6.4,14.3,9.4c1.1,0.8,1.5,2.3,0.7,3.5C2052,502.7,2051.2,503,2050.4,503z M2021.8,484.4
					c-0.5,0-0.9-0.1-1.3-0.4c-4.8-3.1-9.7-6.1-14.4-9.1c-1.2-0.7-1.5-2.3-0.8-3.4c0.7-1.2,2.3-1.5,3.4-0.8c4.8,3,9.6,6.1,14.5,9.2
					c1.2,0.7,1.5,2.3,0.8,3.5C2023.4,484,2022.6,484.4,2021.8,484.4z M1992.8,466.2c-0.5,0-0.9-0.1-1.3-0.4l-14.5-9
					c-1.2-0.7-1.5-2.3-0.8-3.4c0.7-1.2,2.3-1.5,3.4-0.8l14.5,9c1.2,0.7,1.5,2.3,0.8,3.4C1994.5,465.7,1993.7,466.2,1992.8,466.2z
					 M1963.8,448.1c-0.5,0-0.9-0.1-1.3-0.4c-5.4-3.4-10.1-6.4-14.5-9.2c-1.2-0.7-1.5-2.3-0.8-3.5c0.7-1.2,2.3-1.5,3.5-0.8
					c4.3,2.8,9.1,5.8,14.4,9.1c1.2,0.7,1.5,2.3,0.8,3.4C1965.5,447.6,1964.7,448.1,1963.8,448.1z M1935,429.6
					c-0.5,0-0.9-0.1-1.4-0.4c-5.1-3.4-9.8-6.5-14.2-9.6c-1.1-0.8-1.4-2.3-0.6-3.5c0.8-1.1,2.3-1.4,3.5-0.6c4.4,3,9,6.1,14.2,9.5
					c1.2,0.8,1.5,2.3,0.7,3.5C1936.6,429.2,1935.8,429.6,1935,429.6z M1906.7,410.3c-0.5,0-1-0.1-1.4-0.4c-4.7-3.2-9.3-6.5-14-9.8
					c-1.1-0.8-1.4-2.3-0.6-3.5c0.8-1.1,2.3-1.4,3.5-0.6c4.7,3.3,9.4,6.5,14,9.8c1.1,0.8,1.4,2.3,0.6,3.5
					C1908.3,410,1907.5,410.3,1906.7,410.3z M1878.7,390.8c-0.5,0-1-0.1-1.4-0.5l-14-9.8c-1.1-0.8-1.4-2.3-0.6-3.5
					c0.8-1.1,2.3-1.4,3.5-0.6l14,9.8c1.1,0.8,1.4,2.3,0.6,3.5C1880.3,390.4,1879.5,390.8,1878.7,390.8z M1850.6,371.2
					c-0.5,0-1-0.1-1.4-0.4c-4.7-3.3-9.4-6.5-14.1-9.7c-1.1-0.8-1.4-2.3-0.6-3.5c0.8-1.1,2.3-1.4,3.5-0.6c4.7,3.2,9.4,6.5,14.1,9.8
					c1.1,0.8,1.4,2.3,0.6,3.5C1852.2,370.8,1851.4,371.2,1850.6,371.2z M1822.4,351.8c-0.5,0-1-0.1-1.4-0.4
					c-4.7-3.2-9.4-6.4-14.1-9.6c-1.1-0.8-1.4-2.3-0.7-3.5c0.8-1.1,2.3-1.4,3.5-0.7c4.7,3.2,9.5,6.4,14.2,9.6
					c1.1,0.8,1.4,2.3,0.7,3.5C1824,351.4,1823.2,351.8,1822.4,351.8z M1794.1,332.6c-0.5,0-1-0.1-1.4-0.4c-4.8-3.2-9.6-6.4-14.3-9.4
					c-1.2-0.8-1.5-2.3-0.7-3.5c0.8-1.2,2.3-1.5,3.5-0.7c4.6,3,9.4,6.2,14.3,9.4c1.1,0.8,1.5,2.3,0.7,3.5
					C1795.7,332.2,1794.9,332.6,1794.1,332.6z M747.3,315.3C747.3,315.3,747.3,315.3,747.3,315.3c-5.7,0-11.4-0.1-17.1-0.3
					c-1.4,0-2.5-1.2-2.4-2.6c0-1.4,1.2-2.4,2.6-2.4c5.7,0.2,11.4,0.2,17,0.3c1.4,0,2.5,1.1,2.5,2.5
					C749.8,314.2,748.6,315.3,747.3,315.3z M764.4,315.2c-1.4,0-2.5-1.1-2.5-2.5c0-1.4,1.1-2.5,2.5-2.5c5.7-0.1,11.4-0.2,17-0.4
					c1.4,0,2.5,1,2.6,2.4c0,1.4-1,2.5-2.4,2.6C775.9,315,770.1,315.2,764.4,315.2C764.4,315.2,764.4,315.2,764.4,315.2z
					 M713.1,314.4c0,0-0.1,0-0.1,0c-5.7-0.3-11.4-0.6-17.1-0.9c-1.4-0.1-2.4-1.3-2.3-2.7c0.1-1.4,1.3-2.4,2.7-2.3
					c5.7,0.4,11.4,0.7,17,0.9c1.4,0.1,2.4,1.2,2.4,2.6C715.6,313.3,714.5,314.4,713.1,314.4z M798.5,314.1c-1.3,0-2.4-1-2.5-2.4
					c-0.1-1.4,1-2.6,2.4-2.6c5.7-0.3,11.4-0.7,17-1.1c1.4-0.1,2.6,0.9,2.7,2.3c0.1,1.4-0.9,2.6-2.3,2.7c-5.6,0.4-11.4,0.8-17.1,1.1
					C798.6,314.1,798.6,314.1,798.5,314.1z M1765.4,313.9c-0.5,0-0.9-0.1-1.3-0.4c-4.9-3.1-9.7-6.2-14.4-9.1
					c-1.2-0.7-1.5-2.3-0.8-3.4c0.7-1.2,2.3-1.5,3.4-0.8c4.7,2.9,9.6,6,14.5,9.2c1.2,0.7,1.5,2.3,0.8,3.5
					C1767.1,313.5,1766.3,313.9,1765.4,313.9z M679,312.2c-0.1,0-0.1,0-0.2,0c-5.6-0.5-11.4-1-17.1-1.5c-1.4-0.1-2.4-1.4-2.2-2.7
					c0.1-1.4,1.4-2.4,2.7-2.2c5.7,0.6,11.4,1.1,17,1.5c1.4,0.1,2.4,1.3,2.3,2.7C681.4,311.2,680.3,312.2,679,312.2z M832.6,311.6
					c-1.3,0-2.4-1-2.5-2.3c-0.1-1.4,0.9-2.6,2.2-2.7c4.3-0.4,8.6-0.9,12.9-1.4c1.3-0.2,2.7-0.3,4-0.5c1.4-0.2,2.6,0.8,2.8,2.2
					s-0.8,2.6-2.2,2.8c-1.3,0.2-2.7,0.3-4,0.5c-4.3,0.5-8.7,0.9-13,1.4C832.8,311.6,832.7,311.6,832.6,311.6z M645,308.9
					c-0.1,0-0.2,0-0.3,0c-5.6-0.6-11.3-1.3-17-2.1c-1.4-0.2-2.3-1.4-2.2-2.8c0.2-1.4,1.4-2.3,2.8-2.2c5.7,0.7,11.4,1.4,16.9,2.1
					c1.4,0.2,2.4,1.4,2.2,2.8C647.4,307.9,646.3,308.9,645,308.9z M866.5,307.5c-1.2,0-2.3-0.9-2.5-2.1c-0.2-1.4,0.8-2.6,2.1-2.8
					c5.5-0.8,11.2-1.6,16.8-2.6c1.4-0.2,2.6,0.7,2.9,2.1c0.2,1.4-0.7,2.6-2.1,2.9c-5.7,0.9-11.4,1.8-16.9,2.6
					C866.8,307.5,866.7,307.5,866.5,307.5z M611.1,304.5c-0.1,0-0.2,0-0.4,0c-5.6-0.8-11.3-1.7-16.9-2.6c-1.4-0.2-2.3-1.5-2.1-2.9
					c0.2-1.4,1.5-2.3,2.9-2.1c5.6,0.9,11.3,1.8,16.9,2.6c1.4,0.2,2.3,1.5,2.1,2.8C613.4,303.6,612.3,304.5,611.1,304.5z M900.3,302
					c-1.2,0-2.2-0.8-2.5-2.1c-0.2-1.4,0.7-2.7,2-2.9c5.5-1,11.1-2.1,16.7-3.2c1.4-0.3,2.7,0.6,2.9,2s-0.6,2.7-2,2.9
					c-5.7,1.1-11.3,2.2-16.8,3.2C900.6,302,900.4,302,900.3,302z M577.4,299.1c-0.1,0-0.3,0-0.4,0c-5.5-1-11.2-2-16.9-3
					c-1.4-0.3-2.3-1.6-2-2.9c0.3-1.4,1.6-2.3,2.9-2c5.6,1,11.3,2.1,16.8,3c1.4,0.2,2.3,1.5,2,2.9
					C579.6,298.2,578.6,299.1,577.4,299.1z M1736.5,295.8c-0.4,0-0.9-0.1-1.3-0.4c-4.9-3-9.8-5.9-14.6-8.8c-1.2-0.7-1.6-2.2-0.9-3.4
					c0.7-1.2,2.2-1.6,3.4-0.9c4.8,2.8,9.7,5.8,14.7,8.8c1.2,0.7,1.6,2.3,0.8,3.4C1738.1,295.4,1737.3,295.8,1736.5,295.8z
					 M933.8,295.3c-1.2,0-2.2-0.8-2.4-2c-0.3-1.3,0.6-2.7,1.9-3c5.4-1.2,11-2.4,16.6-3.7c1.3-0.3,2.7,0.5,3,1.9
					c0.3,1.3-0.5,2.7-1.9,3c-5.6,1.3-11.3,2.6-16.7,3.8C934.1,295.3,933.9,295.3,933.8,295.3z M543.7,292.9c-0.2,0-0.3,0-0.5,0
					c-5.5-1.1-11.1-2.2-16.8-3.4c-1.4-0.3-2.2-1.6-1.9-3c0.3-1.4,1.6-2.2,3-1.9c5.6,1.2,11.3,2.3,16.7,3.4c1.4,0.3,2.2,1.6,2,2.9
					C546,292.1,544.9,292.9,543.7,292.9z M967,287.6c-1.1,0-2.1-0.8-2.4-1.9c-0.3-1.3,0.5-2.7,1.8-3c5.4-1.3,10.9-2.7,16.5-4.2
					c1.3-0.3,2.7,0.5,3,1.8c0.3,1.3-0.5,2.7-1.8,3c-5.6,1.4-11.2,2.9-16.6,4.2C967.4,287.6,967.2,287.6,967,287.6z M510.3,285.9
					c-0.2,0-0.4,0-0.5-0.1c-5.5-1.2-11.1-2.5-16.7-3.7c-1.3-0.3-2.2-1.6-1.9-3c0.3-1.3,1.7-2.2,3-1.9c5.6,1.3,11.2,2.5,16.7,3.7
					c1.3,0.3,2.2,1.6,1.9,3C512.5,285.1,511.4,285.9,510.3,285.9z M1000.1,279.1c-1.1,0-2.1-0.7-2.4-1.9c-0.4-1.3,0.4-2.7,1.8-3.1
					c5.3-1.4,10.8-2.9,16.5-4.5c1.3-0.4,2.7,0.4,3.1,1.7c0.4,1.3-0.4,2.7-1.7,3.1c-5.6,1.6-11.2,3.1-16.5,4.5
					C1000.5,279,1000.3,279.1,1000.1,279.1z M1707,278.4c-0.4,0-0.8-0.1-1.2-0.3c-5-2.8-10-5.6-14.9-8.3c-1.2-0.7-1.7-2.2-1-3.4
					c0.7-1.2,2.2-1.7,3.4-1c4.9,2.7,9.9,5.5,14.9,8.4c1.2,0.7,1.6,2.2,0.9,3.4C1708.7,278,1707.9,278.4,1707,278.4z M477,278.3
					c-0.2,0-0.4,0-0.6-0.1c-5.5-1.3-11.1-2.7-16.6-4c-1.3-0.3-2.2-1.7-1.8-3c0.3-1.3,1.7-2.2,3-1.8c5.6,1.4,11.2,2.7,16.6,4
					c1.3,0.3,2.2,1.7,1.9,3C479.1,277.5,478.1,278.3,477,278.3z M443.8,270.1c-0.2,0-0.4,0-0.6-0.1c-5.5-1.4-11-2.8-16.6-4.3
					c-1.3-0.3-2.1-1.7-1.8-3.1s1.7-2.1,3.1-1.8c5.5,1.4,11,2.9,16.5,4.3c1.3,0.3,2.1,1.7,1.8,3C445.9,269.3,444.9,270.1,443.8,270.1
					z M1033,270c-1.1,0-2.1-0.7-2.4-1.8c-0.4-1.3,0.4-2.7,1.7-3.1c5.5-1.6,10.9-3.1,16.4-4.7c1.3-0.4,2.7,0.4,3.1,1.7
					c0.4,1.3-0.4,2.7-1.7,3.1c-5.5,1.6-11,3.2-16.4,4.7C1033.5,269.9,1033.3,270,1033,270z M1677.1,262c-0.4,0-0.8-0.1-1.2-0.3
					c-5.1-2.7-10.1-5.3-15.1-7.8c-1.2-0.6-1.7-2.1-1.1-3.4c0.6-1.2,2.1-1.7,3.4-1.1c5,2.5,10.1,5.1,15.2,7.8c1.2,0.6,1.7,2.2,1,3.4
					C1678.8,261.5,1678,262,1677.1,262z M410.7,261.5c-0.2,0-0.4,0-0.6-0.1c-5.5-1.5-11-3-16.5-4.5c-1.3-0.4-2.1-1.7-1.8-3.1
					c0.4-1.3,1.7-2.1,3.1-1.8c5.5,1.5,11,3,16.5,4.5c1.3,0.4,2.1,1.7,1.8,3.1C412.8,260.7,411.8,261.5,410.7,261.5z M1065.9,260.5
					c-1.1,0-2.1-0.7-2.4-1.8c-0.4-1.3,0.4-2.7,1.7-3.1c5.5-1.6,10.9-3.2,16.4-4.8c1.3-0.4,2.7,0.4,3.1,1.7c0.4,1.3-0.4,2.7-1.7,3.1
					c-5.5,1.6-10.9,3.2-16.4,4.8C1066.3,260.4,1066.1,260.5,1065.9,260.5z M1098.7,250.8c-1.1,0-2.1-0.7-2.4-1.8
					c-0.4-1.3,0.4-2.7,1.7-3.1c5.5-1.6,10.9-3.2,16.4-4.8c1.3-0.4,2.7,0.4,3.1,1.7c0.4,1.3-0.4,2.7-1.7,3.1
					c-5.5,1.6-10.9,3.2-16.4,4.8C1099.1,250.8,1098.9,250.8,1098.7,250.8z M1646.6,246.7c-0.4,0-0.7-0.1-1.1-0.2
					c-5.2-2.5-10.4-4.9-15.4-7.1c-1.3-0.6-1.8-2-1.3-3.3c0.6-1.3,2-1.8,3.3-1.3c5.1,2.3,10.4,4.7,15.5,7.2c1.2,0.6,1.8,2.1,1.2,3.3
					C1648.4,246.2,1647.5,246.7,1646.6,246.7z M1131.5,241.1c-1.1,0-2.1-0.7-2.4-1.8c-0.4-1.3,0.4-2.7,1.7-3.1
					c5.5-1.6,11-3.2,16.4-4.8c1.3-0.4,2.7,0.4,3.1,1.7c0.4,1.3-0.4,2.7-1.7,3.1c-5.5,1.6-10.9,3.2-16.4,4.8
					C1131.9,241.1,1131.7,241.1,1131.5,241.1z M1615.4,232.8c-0.3,0-0.7-0.1-1-0.2c-5.3-2.2-10.6-4.4-15.8-6.4
					c-1.3-0.5-1.9-2-1.4-3.2c0.5-1.3,2-1.9,3.2-1.4c5.2,2,10.6,4.2,15.9,6.4c1.3,0.5,1.9,2,1.3,3.3
					C1617.3,232.2,1616.4,232.8,1615.4,232.8z M1164.3,231.7c-1.1,0-2.1-0.7-2.4-1.8c-0.4-1.3,0.4-2.7,1.7-3.1
					c5.5-1.5,11-3.1,16.5-4.6c1.3-0.4,2.7,0.4,3.1,1.8c0.4,1.3-0.4,2.7-1.8,3.1c-5.5,1.5-11,3-16.5,4.6
					C1164.8,231.7,1164.6,231.7,1164.3,231.7z M1197.3,222.7c-1.1,0-2.1-0.7-2.4-1.9c-0.4-1.3,0.4-2.7,1.8-3.1
					c5.6-1.5,11.2-2.9,16.6-4.3c1.3-0.3,2.7,0.5,3,1.8c0.3,1.3-0.5,2.7-1.8,3c-5.3,1.4-10.9,2.8-16.5,4.3
					C1197.8,222.7,1197.5,222.7,1197.3,222.7z M1583.6,220.4c-0.3,0-0.6,0-0.8-0.1c-5.4-1.9-10.8-3.8-16.1-5.5
					c-1.3-0.4-2-1.8-1.6-3.2c0.4-1.3,1.8-2,3.2-1.6c5.4,1.8,10.8,3.6,16.2,5.6c1.3,0.5,2,1.9,1.5,3.2
					C1585.6,219.7,1584.6,220.4,1583.6,220.4z M1230.5,214.3c-1.1,0-2.2-0.8-2.4-1.9c-0.3-1.3,0.5-2.7,1.8-3
					c5.6-1.4,11.2-2.7,16.7-3.9c1.3-0.3,2.7,0.5,3,1.9s-0.5,2.7-1.9,3c-5.4,1.2-11,2.5-16.6,3.9
					C1230.9,214.3,1230.7,214.3,1230.5,214.3z M1551.1,209.8c-0.2,0-0.5,0-0.7-0.1c-5.4-1.6-11-3.1-16.4-4.5c-1.3-0.3-2.1-1.7-1.8-3
					c0.3-1.3,1.7-2.1,3-1.8c5.5,1.4,11,3,16.5,4.6c1.3,0.4,2.1,1.8,1.7,3.1C1553.2,209,1552.2,209.8,1551.1,209.8z M1263.9,206.8
					c-1.2,0-2.2-0.8-2.4-2c-0.3-1.4,0.6-2.7,1.9-3c5.6-1.2,11.3-2.3,16.8-3.4c1.4-0.3,2.7,0.6,2.9,2c0.3,1.4-0.6,2.7-2,2.9
					c-5.5,1.1-11.1,2.2-16.7,3.4C1264.2,206.8,1264,206.8,1263.9,206.8z M1518.1,201.2c-0.2,0-0.4,0-0.6-0.1
					c-5.5-1.2-11.1-2.4-16.7-3.5c-1.4-0.3-2.2-1.6-2-2.9c0.3-1.4,1.6-2.2,2.9-2c5.6,1.1,11.2,2.2,16.8,3.5c1.3,0.3,2.2,1.6,1.9,3
					C1520.2,200.4,1519.2,201.2,1518.1,201.2z M1297.4,200.4c-1.2,0-2.2-0.9-2.5-2.1c-0.2-1.4,0.7-2.7,2-2.9
					c5.7-1,11.4-1.9,16.9-2.8c1.4-0.2,2.6,0.7,2.8,2.1c0.2,1.4-0.7,2.6-2.1,2.8c-5.5,0.8-11.2,1.8-16.8,2.7
					C1297.7,200.4,1297.6,200.4,1297.4,200.4z M1331.2,195.2c-1.2,0-2.3-0.9-2.5-2.2c-0.2-1.4,0.8-2.6,2.2-2.8
					c5.7-0.7,11.4-1.4,17-2c1.4-0.1,2.6,0.8,2.8,2.2s-0.8,2.6-2.2,2.8c-5.5,0.6-11.2,1.3-16.9,2
					C1331.5,195.2,1331.3,195.2,1331.2,195.2z M1484.5,194.8c-0.1,0-0.3,0-0.4,0c-5.6-0.9-11.3-1.6-16.9-2.3
					c-1.4-0.2-2.4-1.4-2.2-2.8s1.4-2.4,2.8-2.2c5.7,0.7,11.4,1.4,17.1,2.3c1.4,0.2,2.3,1.5,2.1,2.8
					C1486.7,193.9,1485.7,194.8,1484.5,194.8z M1365.2,191.6c-1.3,0-2.4-1-2.5-2.3c-0.1-1.4,0.9-2.6,2.3-2.7
					c5.7-0.5,11.5-0.9,17.1-1.2c1.4-0.1,2.6,1,2.6,2.4c0.1,1.4-1,2.6-2.4,2.6c-5.6,0.3-11.3,0.7-17,1.2
					C1365.3,191.6,1365.3,191.6,1365.2,191.6z M1450.5,190.9c-0.1,0-0.1,0-0.2,0c-5.6-0.4-11.3-0.8-17-1c-1.4-0.1-2.5-1.2-2.4-2.6
					s1.2-2.5,2.6-2.4c5.7,0.2,11.5,0.6,17.1,1c1.4,0.1,2.4,1.3,2.3,2.7C1452.9,189.9,1451.8,190.9,1450.5,190.9z M1399.3,189.7
					c-1.3,0-2.5-1.1-2.5-2.4c0-1.4,1-2.5,2.4-2.6c5.4-0.1,10.8-0.2,16.2-0.2l1,0c1.4,0,2.5,1.1,2.5,2.5c0,1.4-1.1,2.5-2.5,2.5
					c0,0,0,0,0,0l-1,0C1410.1,189.5,1404.7,189.6,1399.3,189.7C1399.3,189.7,1399.3,189.7,1399.3,189.7z"/>
			</g>
			<g>
				<path class="st3" d="M1995.7,1102.3c-0.6,0-1.2-0.2-1.7-0.7c-1-0.9-1-2.5-0.1-3.5c1.9-2,3.9-4.1,5.9-6.2c1-1,2.5-1,3.5-0.1
					c1,1,1,2.5,0.1,3.5c-2,2.1-3.9,4.1-5.8,6.2C1997,1102,1996.3,1102.3,1995.7,1102.3z"/>
			</g>
		</g>
		<g>
			<g>
				<path class="st3" d="M281.5,375c-0.8,0-1.6-0.4-2.1-1.1c-0.8-1.1-0.5-2.7,0.7-3.5c2.3-1.6,4.7-3.2,7-4.8
					c1.1-0.8,2.7-0.5,3.5,0.6c0.8,1.1,0.5,2.7-0.6,3.5c-2.3,1.6-4.7,3.2-7,4.8C282.4,374.9,282,375,281.5,375z"/>
			</g>
			<g>
				<path class="st3" d="M548.9,1413.7c-1.4,0-2.5-1.1-2.5-2.5c0-1.4,1.1-2.5,2.5-2.5c5.5-0.1,11.3-0.3,17-0.6
					c1.4-0.1,2.6,1,2.6,2.4c0.1,1.4-1,2.6-2.4,2.6C560.3,1413.4,554.5,1413.6,548.9,1413.7C548.9,1413.7,548.9,1413.7,548.9,1413.7z
					 M531.8,1413.6C531.8,1413.6,531.8,1413.6,531.8,1413.6c-5.8-0.1-11.6-0.4-17.2-0.7c-1.4-0.1-2.4-1.3-2.3-2.6
					c0.1-1.4,1.3-2.4,2.6-2.3c5.5,0.3,11.2,0.6,17,0.7c1.4,0,2.5,1.2,2.4,2.6C534.3,1412.5,533.2,1413.6,531.8,1413.6z M583,1411.9
					c-1.3,0-2.4-1-2.5-2.3c-0.1-1.4,0.9-2.6,2.3-2.7c5.5-0.5,11.2-1,16.9-1.6c1.4-0.1,2.6,0.8,2.8,2.2c0.1,1.4-0.8,2.6-2.2,2.8
					c-5.8,0.6-11.5,1.2-17.1,1.6C583.1,1411.9,583,1411.9,583,1411.9z M497.7,1411.5c-0.1,0-0.2,0-0.3,0c-5.8-0.6-11.5-1.4-17-2.2
					c-1.4-0.2-2.3-1.5-2.1-2.9c0.2-1.4,1.5-2.3,2.9-2.1c5.5,0.9,11.1,1.6,16.8,2.2c1.4,0.1,2.4,1.4,2.2,2.8
					C500.1,1410.6,499,1411.5,497.7,1411.5z M616.9,1408.2c-1.2,0-2.3-0.9-2.5-2.2c-0.2-1.4,0.8-2.6,2.1-2.8
					c5.5-0.7,11.1-1.6,16.8-2.5c1.4-0.2,2.6,0.7,2.9,2.1c0.2,1.4-0.7,2.6-2.1,2.9c-5.7,0.9-11.5,1.7-17,2.5
					C617.1,1408.2,617,1408.2,616.9,1408.2z M464,1406.2c-0.2,0-0.3,0-0.5-0.1c-5.2-1.1-10.5-2.4-15.6-3.7l-1.2-0.3
					c-1.3-0.4-2.1-1.7-1.7-3.1c0.4-1.3,1.7-2.1,3.1-1.7l1.2,0.3c5,1.3,10.1,2.6,15.3,3.7c1.4,0.3,2.2,1.6,1.9,3
					C466.2,1405.4,465.2,1406.2,464,1406.2z M650.7,1403c-1.2,0-2.2-0.9-2.5-2.1c-0.2-1.4,0.7-2.7,2-2.9c5.4-1,11.1-2,16.8-3.1
					c1.4-0.3,2.7,0.6,2.9,2c0.3,1.4-0.6,2.7-2,2.9c-5.7,1.1-11.4,2.1-16.8,3.1C650.9,1403,650.8,1403,650.7,1403z M431.2,1396.9
					c-0.3,0-0.6-0.1-0.9-0.2c-5.4-2-10.8-4.3-15.9-6.9c-1.2-0.6-1.7-2.1-1.1-3.3c0.6-1.2,2.1-1.7,3.3-1.1c4.9,2.4,10.1,4.7,15.4,6.7
					c1.3,0.5,1.9,1.9,1.5,3.2C433.1,1396.3,432.2,1396.9,431.2,1396.9z M684.2,1396.5c-1.2,0-2.2-0.8-2.4-2c-0.3-1.4,0.6-2.7,1.9-3
					c5.3-1.1,11-2.3,16.7-3.6c1.3-0.3,2.7,0.6,3,1.9s-0.6,2.7-1.9,3c-5.7,1.3-11.4,2.5-16.7,3.6
					C684.5,1396.5,684.4,1396.5,684.2,1396.5z M717.6,1389.2c-1.1,0-2.2-0.8-2.4-1.9c-0.3-1.3,0.5-2.7,1.9-3
					c5.6-1.3,11.1-2.6,16.6-3.9c1.3-0.3,2.7,0.5,3,1.9c0.3,1.3-0.5,2.7-1.9,3c-5.5,1.3-11.1,2.6-16.7,3.9
					C717.9,1389.2,717.8,1389.2,717.6,1389.2z M400.6,1381.8c-0.5,0-0.9-0.1-1.3-0.4c-4.9-3.1-9.6-6.4-14.1-10
					c-1.1-0.9-1.3-2.4-0.4-3.5c0.9-1.1,2.4-1.3,3.5-0.4c4.4,3.5,9,6.7,13.7,9.7c1.2,0.7,1.5,2.3,0.8,3.4
					C402.3,1381.4,401.4,1381.8,400.6,1381.8z M750.8,1381.3c-1.1,0-2.2-0.8-2.4-1.9c-0.3-1.3,0.5-2.7,1.8-3
					c5.6-1.3,11.1-2.7,16.6-4c1.3-0.3,2.7,0.5,3,1.8c0.3,1.3-0.5,2.7-1.8,3c-5.5,1.3-11,2.7-16.6,4
					C751.2,1381.3,751,1381.3,750.8,1381.3z M784,1373.2c-1.1,0-2.1-0.8-2.4-1.9c-0.3-1.3,0.5-2.7,1.8-3c5.6-1.4,11.1-2.7,16.6-4
					c1.3-0.3,2.7,0.5,3,1.8c0.3,1.3-0.5,2.7-1.8,3c-5.5,1.3-11,2.7-16.6,4C784.4,1373.2,784.2,1373.2,784,1373.2z M373.9,1360.7
					c-0.6,0-1.3-0.2-1.8-0.7c-4-4-8-8.3-11.7-12.8c-0.9-1.1-0.7-2.6,0.3-3.5c1.1-0.9,2.6-0.7,3.5,0.3c3.6,4.3,7.4,8.5,11.4,12.4
					c1,1,1,2.6,0,3.5C375.2,1360.4,374.6,1360.7,373.9,1360.7z M352.1,1334.5c-0.8,0-1.6-0.4-2.1-1.1c-3.2-4.6-6.3-9.6-9.1-14.7
					c-0.7-1.2-0.3-2.7,0.9-3.4c1.2-0.7,2.7-0.3,3.4,0.9c2.8,5,5.8,9.8,8.9,14.3c0.8,1.1,0.5,2.7-0.7,3.5
					C353.1,1334.3,352.6,1334.5,352.1,1334.5z M335.2,1304.9c-0.9,0-1.8-0.5-2.3-1.4c-2.4-5-4.7-10.3-6.9-15.8
					c-0.5-1.3,0.1-2.7,1.4-3.3c1.3-0.5,2.7,0.1,3.3,1.4c2.1,5.3,4.4,10.6,6.8,15.5c0.6,1.2,0.1,2.7-1.2,3.3
					C335.9,1304.8,335.6,1304.9,335.2,1304.9z M322.4,1273.2c-1,0-2-0.7-2.4-1.7c-1.8-5.2-3.5-10.8-5.2-16.4
					c-0.4-1.3,0.4-2.7,1.7-3.1c1.3-0.4,2.7,0.4,3.1,1.7c1.6,5.6,3.3,11,5.1,16.2c0.4,1.3-0.3,2.7-1.6,3.2
					C323,1273.2,322.7,1273.2,322.4,1273.2z M312.8,1240.4c-1.1,0-2.1-0.8-2.4-1.9c-1.3-5.3-2.7-11-3.9-16.7c-0.3-1.3,0.6-2.7,1.9-3
					c1.3-0.3,2.7,0.6,3,1.9c1.2,5.7,2.5,11.3,3.9,16.6c0.3,1.3-0.5,2.7-1.8,3C313.2,1240.4,313,1240.4,312.8,1240.4z M305.5,1207.1
					c-1.2,0-2.2-0.8-2.4-2c-0.9-4.5-1.8-9.2-2.8-14.1l-0.5-2.7c-0.3-1.4,0.6-2.7,2-2.9c1.4-0.3,2.7,0.6,2.9,2l0.5,2.7
					c0.9,4.8,1.9,9.6,2.8,14.1c0.3,1.4-0.6,2.7-2,2.9C305.8,1207,305.6,1207.1,305.5,1207.1z M298.9,1173.5c-1.2,0-2.2-0.8-2.4-2
					c-1.2-6.1-2.3-11.6-3.4-16.7c-0.3-1.4,0.6-2.7,1.9-3c1.4-0.3,2.7,0.6,3,1.9c1.1,5.2,2.2,10.6,3.4,16.8c0.3,1.4-0.6,2.7-2,2.9
					C299.2,1173.5,299.1,1173.5,298.9,1173.5z M291.8,1140c-1.1,0-2.2-0.8-2.4-1.9c-1.3-5.7-2.7-11.3-4-16.6c-0.3-1.3,0.5-2.7,1.8-3
					c1.3-0.3,2.7,0.5,3,1.8c1.3,5.3,2.7,10.9,4,16.7c0.3,1.3-0.5,2.7-1.9,3C292.1,1140,292,1140,291.8,1140z M283.3,1106.9
					c-1.1,0-2.1-0.7-2.4-1.8c-1.6-5.6-3.3-11.1-4.9-16.3c-0.4-1.3,0.3-2.7,1.6-3.1c1.3-0.4,2.7,0.3,3.1,1.6c1.7,5.2,3.4,10.8,5,16.4
					c0.4,1.3-0.4,2.7-1.7,3.1C283.8,1106.9,283.5,1106.9,283.3,1106.9z M272.8,1074.4c-1,0-2-0.6-2.3-1.6c-2-5.5-4.2-10.8-6.3-15.7
					c-0.6-1.3,0-2.7,1.3-3.3c1.3-0.6,2.7,0,3.3,1.3c2.2,5.1,4.4,10.4,6.4,16c0.5,1.3-0.2,2.7-1.5,3.2
					C273.3,1074.3,273,1074.4,272.8,1074.4z M119.2,1069.1c-1.3,0-2.4-1-2.5-2.4c-0.1-1.4,1-2.6,2.4-2.6c5.2-0.3,10.7-1.1,16.4-2.4
					c1.3-0.3,2.7,0.5,3,1.9c0.3,1.3-0.5,2.7-1.9,3c-6,1.4-11.8,2.3-17.3,2.6C119.3,1069.1,119.3,1069.1,119.2,1069.1z M102.2,1067.9
					c-0.2,0-0.3,0-0.5-0.1c-6.3-1.3-11.8-3.7-16.6-6.9c-1.1-0.8-1.4-2.3-0.6-3.5c0.8-1.1,2.3-1.4,3.5-0.6c4.2,2.9,9.1,5,14.7,6.2
					c1.4,0.3,2.2,1.6,1.9,3C104.4,1067.1,103.4,1067.9,102.2,1067.9z M152.4,1061.5c-1,0-1.9-0.6-2.3-1.6c-0.5-1.3,0.1-2.7,1.4-3.2
					c5.3-2.1,10.4-4.4,15.2-7.1c1.2-0.7,2.7-0.2,3.4,1c0.7,1.2,0.2,2.7-1,3.4c-5,2.7-10.3,5.2-15.8,7.3
					C153,1061.4,152.7,1061.5,152.4,1061.5z M75.3,1048.8c-0.9,0-1.7-0.5-2.2-1.3c-2.8-5-4.2-10.1-4.2-15.4c0-0.8,0-1.6,0.1-2.5
					c0.1-1.4,1.3-2.4,2.7-2.3c1.4,0.1,2.4,1.3,2.3,2.7c-0.1,0.7-0.1,1.4-0.1,2c0,4.3,1.2,8.7,3.6,12.9c0.7,1.2,0.2,2.7-1,3.4
					C76.1,1048.7,75.7,1048.8,75.3,1048.8z M182,1044.8c-0.7,0-1.4-0.3-1.9-0.9c-0.9-1.1-0.7-2.6,0.3-3.5c4.4-3.6,8.4-7.5,11.9-11.6
					c0.9-1,2.5-1.1,3.5-0.2c1,0.9,1.1,2.5,0.2,3.5c-3.7,4.3-8,8.4-12.5,12.2C183.2,1044.6,182.6,1044.8,182,1044.8z M259.1,1043.1
					c-0.9,0-1.8-0.5-2.2-1.3c-2.7-5.2-5.5-10.1-8.4-14.6c-0.7-1.2-0.4-2.7,0.8-3.4c1.2-0.7,2.7-0.4,3.4,0.8c2.9,4.7,5.8,9.7,8.6,15
					c0.6,1.2,0.2,2.7-1.1,3.4C259.8,1043,259.4,1043.1,259.1,1043.1z M204.3,1019.1c-0.4,0-0.9-0.1-1.3-0.4
					c-1.2-0.7-1.6-2.3-0.8-3.4c2.8-4.7,5.3-9.7,7.3-14.9c0.5-1.3,2-1.9,3.2-1.4c1.3,0.5,1.9,2,1.4,3.2c-2.1,5.5-4.7,10.8-7.7,15.7
					C206,1018.7,205.2,1019.1,204.3,1019.1z M77.4,1016.6c-0.5,0-1-0.1-1.4-0.4c-1.2-0.8-1.5-2.3-0.7-3.5c3-4.5,7-8.9,11.9-13.2
					c1-0.9,2.6-0.8,3.5,0.3c0.9,1,0.8,2.6-0.3,3.5c-4.6,3.9-8.2,8-11,12.1C79,1016.2,78.2,1016.6,77.4,1016.6z M240.7,1014.4
					c-0.7,0-1.5-0.3-2-0.9c-3.6-4.5-7.4-8.7-11.3-12.3c-1-1-1-2.5-0.1-3.5c1-1,2.5-1,3.5-0.1c4,3.8,8,8.2,11.7,12.8
					c0.9,1.1,0.7,2.7-0.4,3.5C241.8,1014.2,241.2,1014.4,240.7,1014.4z M102.7,994c-0.8,0-1.7-0.4-2.1-1.2c-0.7-1.2-0.3-2.7,0.9-3.4
					c5-3,10.4-5.7,15.6-7.8c1.3-0.5,2.7,0.1,3.3,1.4s-0.1,2.7-1.4,3.3c-5,2-10.1,4.6-14.9,7.5C103.5,993.9,103.1,994,102.7,994z
					 M215.9,991.1c-0.5,0-1-0.1-1.4-0.4c-4.6-3.1-9.5-5.8-14.5-7.8c-1.3-0.5-1.9-2-1.3-3.3c0.5-1.3,2-1.9,3.3-1.3
					c4.2,1.8,8.4,3.9,12.3,6.3c0,0,0-0.1,0-0.1c1.2-5.3,2-10.8,2.5-16.6c0.1-1.4,1.3-2.4,2.7-2.3c1.4,0.1,2.4,1.3,2.3,2.7
					c-0.5,5.9-1.4,11.7-2.6,17.2c-0.2,0.7-0.6,1.3-1.2,1.6c0.6,0.8,0.6,1.9,0,2.8C217.5,990.7,216.8,991.1,215.9,991.1z
					 M134.1,980.9c-1.1,0-2.1-0.7-2.4-1.8c-0.4-1.3,0.4-2.7,1.8-3.1c5.8-1.6,11.5-2.8,17-3.6c1.4-0.2,2.6,0.8,2.8,2.1
					c0.2,1.4-0.8,2.6-2.1,2.8c-5.3,0.8-10.8,1.9-16.4,3.4C134.6,980.9,134.3,980.9,134.1,980.9z M184.7,978.1c-0.2,0-0.3,0-0.5,0
					c-5.3-1.1-10.8-1.6-16.4-1.7c-1.4,0-2.5-1.2-2.5-2.5c0-1.4,1.2-2.5,2.5-2.5c5.9,0.1,11.8,0.7,17.4,1.8c1.4,0.3,2.2,1.6,2,2.9
					C187,977.2,185.9,978.1,184.7,978.1z M219.8,953.5c-1.4,0-2.5-1.1-2.5-2.4c-0.1-5.4-0.5-11-1.2-16.8c-0.2-1.4,0.8-2.6,2.2-2.8
					c1.4-0.2,2.6,0.8,2.8,2.2c0.7,5.9,1.1,11.7,1.2,17.2C222.3,952.3,221.2,953.5,219.8,953.5C219.8,953.5,219.8,953.5,219.8,953.5z
					 M216.1,919.6c-1.2,0-2.2-0.8-2.5-2c-1-5.3-2.2-10.9-3.5-16.6c-0.3-1.3,0.5-2.7,1.8-3c1.3-0.3,2.7,0.5,3,1.8
					c1.4,5.7,2.6,11.4,3.6,16.8c0.2,1.4-0.7,2.7-2,2.9C216.4,919.6,216.2,919.6,216.1,919.6z M208.1,886.4c-1.1,0-2.1-0.7-2.4-1.8
					c-1.5-5.2-3.3-10.7-5.1-16.2c-0.4-1.3,0.3-2.7,1.6-3.2c1.3-0.4,2.7,0.3,3.2,1.6c1.9,5.6,3.6,11.1,5.2,16.4
					c0.4,1.3-0.4,2.7-1.7,3.1C208.5,886.4,208.3,886.4,208.1,886.4z M197.2,854c-1,0-2-0.6-2.3-1.6c-1.9-5.1-4-10.5-6.1-15.9
					c-0.5-1.3,0.1-2.7,1.4-3.3c1.3-0.5,2.7,0.1,3.3,1.4c2.2,5.4,4.3,10.8,6.2,16c0.5,1.3-0.2,2.7-1.5,3.2
					C197.8,853.9,197.5,854,197.2,854z M184.5,822.3c-1,0-1.9-0.6-2.3-1.5c-2.1-5-4.4-10.3-6.8-15.6c-0.6-1.3,0-2.7,1.3-3.3
					c1.3-0.6,2.7,0,3.3,1.3c2.4,5.4,4.7,10.7,6.9,15.7c0.5,1.3,0,2.7-1.3,3.3C185.2,822.2,184.9,822.3,184.5,822.3z M170.6,791.1
					c-0.9,0-1.8-0.5-2.3-1.4c-2.3-4.9-4.7-10-7.3-15.4c-0.6-1.2-0.1-2.7,1.2-3.3c1.2-0.6,2.7-0.1,3.3,1.2c2.6,5.5,5,10.6,7.3,15.5
					c0.6,1.3,0,2.7-1.2,3.3C171.3,791,170.9,791.1,170.6,791.1z M155.9,760.2c-0.9,0-1.8-0.5-2.3-1.4c-2.5-5.2-5-10.3-7.5-15.4
					c-0.6-1.2-0.1-2.7,1.1-3.3c1.2-0.6,2.7-0.1,3.3,1.1c2.5,5.1,5,10.2,7.5,15.4c0.6,1.2,0.1,2.7-1.2,3.3
					C156.6,760.1,156.3,760.2,155.9,760.2z M140.9,729.4c-0.9,0-1.8-0.5-2.2-1.4c-2.5-5.2-5-10.4-7.4-15.4c-0.6-1.2-0.1-2.7,1.2-3.3
					c1.2-0.6,2.7-0.1,3.3,1.2c2.4,5,4.9,10.2,7.4,15.4c0.6,1.2,0.1,2.7-1.2,3.3C141.7,729.4,141.3,729.4,140.9,729.4z M126.2,698.6
					c-0.9,0-1.8-0.5-2.3-1.5c-2.6-5.7-4.9-10.8-7-15.7c-0.5-1.3,0-2.7,1.3-3.3c1.3-0.5,2.7,0,3.3,1.3c2.1,4.8,4.4,9.9,7,15.5
					c0.6,1.3,0,2.7-1.2,3.3C126.9,698.5,126.6,698.6,126.2,698.6z M112.7,667.2c-1,0-2-0.6-2.3-1.6c-1.6-4.3-3.1-8.3-4.3-12.1
					c-0.5-1.4-0.9-2.8-1.3-4.2c-0.4-1.3,0.3-2.7,1.6-3.1c1.3-0.4,2.7,0.3,3.1,1.7c0.4,1.4,0.9,2.8,1.3,4.2c1.2,3.6,2.6,7.6,4.2,11.8
					c0.5,1.3-0.1,2.7-1.4,3.2C113.3,667.1,113,667.2,112.7,667.2z M102.6,634.6c-1.1,0-2.2-0.8-2.4-1.9c-1.4-5.7-2.5-11.4-3.4-16.9
					c-0.2-1.4,0.7-2.6,2.1-2.9c1.4-0.2,2.6,0.7,2.9,2.1c0.8,5.4,2,11,3.3,16.6c0.3,1.3-0.5,2.7-1.9,3
					C103,634.5,102.8,634.6,102.6,634.6z M97.4,600.9c-1.3,0-2.4-1-2.5-2.3c-0.3-3.9-0.4-7.8-0.4-11.5c0-1.9,0-3.9,0.1-5.8
					c0-1.4,1.2-2.5,2.6-2.4c1.4,0,2.5,1.2,2.4,2.6c-0.1,1.9-0.1,3.7-0.1,5.6c0,3.7,0.1,7.4,0.4,11.2c0.1,1.4-1,2.6-2.3,2.7
					C97.5,600.9,97.4,600.9,97.4,600.9z M98.7,566.8c-0.1,0-0.2,0-0.4,0c-1.4-0.2-2.3-1.5-2.1-2.8c0.9-5.7,2.1-11.4,3.6-17
					c0.4-1.3,1.7-2.1,3.1-1.8c1.3,0.4,2.1,1.7,1.8,3.1c-1.5,5.3-2.6,10.9-3.4,16.4C100.9,565.9,99.9,566.8,98.7,566.8z M107.6,534
					c-0.3,0-0.6-0.1-0.9-0.2c-1.3-0.5-1.9-2-1.4-3.3c2.1-5.3,4.6-10.5,7.4-15.7c0.7-1.2,2.2-1.7,3.4-1c1.2,0.7,1.7,2.2,1,3.4
					c-2.7,5-5.1,10.1-7.2,15.2C109.5,533.4,108.6,534,107.6,534z M123.8,504c-0.5,0-1-0.1-1.4-0.4c-1.1-0.8-1.4-2.3-0.7-3.5
					c3.1-4.6,6.6-9.3,10.4-13.8c0.9-1.1,2.4-1.2,3.5-0.4c1.1,0.9,1.2,2.4,0.4,3.5c-3.6,4.5-7,9-10.1,13.5
					C125.4,503.6,124.6,504,123.8,504z M145.4,477.6c-0.6,0-1.2-0.2-1.7-0.7c-1-0.9-1-2.5-0.1-3.5c3.8-4,7.9-8.1,12.2-12.1
					c1-0.9,2.6-0.9,3.5,0.1c0.9,1,0.9,2.6-0.1,3.5c-4.2,4-8.3,8-12,11.9C146.7,477.3,146,477.6,145.4,477.6z M170.2,454.2
					c-0.7,0-1.4-0.3-1.9-0.9c-0.9-1.1-0.8-2.6,0.3-3.5c4.2-3.5,8.6-7.2,13.3-10.9c1.1-0.9,2.7-0.7,3.5,0.4c0.9,1.1,0.7,2.7-0.4,3.5
					c-4.6,3.6-9,7.3-13.1,10.8C171.4,454,170.8,454.2,170.2,454.2z M197,433c-0.8,0-1.5-0.3-2-1c-0.8-1.1-0.6-2.7,0.5-3.5
					c4.4-3.3,8.9-6.5,13.9-10.1c1.1-0.8,2.7-0.5,3.5,0.6c0.8,1.1,0.5,2.7-0.6,3.5c-4.9,3.5-9.4,6.8-13.8,10
					C198.1,432.9,197.5,433,197,433z M224.8,413.2c-0.8,0-1.6-0.4-2.1-1.1c-0.8-1.1-0.5-2.7,0.6-3.5c4.2-2.9,8.9-6.1,14.1-9.6
					c1.1-0.8,2.7-0.5,3.5,0.7c0.8,1.1,0.5,2.7-0.7,3.5c-5.3,3.5-9.9,6.7-14.1,9.6C225.8,413.1,225.3,413.2,224.8,413.2z
					 M253.1,394.1c-0.8,0-1.6-0.4-2.1-1.1c-0.8-1.1-0.5-2.7,0.7-3.5l3.5-2.4c3.5-2.4,7.1-4.7,10.7-7.1c1.1-0.8,2.7-0.5,3.5,0.7
					s0.5,2.7-0.7,3.5c-3.6,2.4-7.1,4.8-10.7,7.1l-3.5,2.4C254.1,393.9,253.6,394.1,253.1,394.1z"/>
			</g>
			<g>
				<path class="st3" d="M817.3,1365.2c-1.1,0-2.2-0.8-2.4-1.9c-0.3-1.3,0.5-2.7,1.9-3c2.8-0.7,5.5-1.3,8.3-1.9
					c1.3-0.3,2.7,0.5,3,1.9c0.3,1.3-0.5,2.7-1.9,3c-2.7,0.6-5.5,1.3-8.3,1.9C817.7,1365.2,817.5,1365.2,817.3,1365.2z"/>
			</g>
		</g>
		<g>
			<g>
				<path class="st3" d="M886.4,635.2L756.9,642l-66.8-31.4l-39.5-9.5l-24.5-24.5l1.4-13.6c0,0-28.6-55.9-23.2-80.4
					c1.4-1.4,222.2-237.2,278.1-257.6c55.9-20.4,90-20.4,137.7,16.4c47.7,36.8,189.5,109,47.7,169c-30,12.3-58.6,94.1-58.6,94.1
					l25.9,96.8c0,0-40.9,61.3-45,61.3C985.9,662.5,886.4,635.2,886.4,635.2z"/>
			</g>
			<g>
				<path class="st10" d="M920.5,366.7c0,0-20.4-47.7-54.5-12.3c-25.9,27.3-10.9,62.7,8.2,76.3C872.8,425.3,912.3,368.1,920.5,366.7
					z"/>
			</g>
			<g>
				<path class="st11" d="M1070.4,662.5c0,0,0-75,21.8-83.1c0,1.4,85.9,34.1,85.9,34.1s-9.5-45,12.3-54.5c0,1.4,94.1,39.5,94.1,39.5
					s4.1-50.4,21.8-58.6c-2.7,1.4,106.3,35.4,106.3,35.4s2.7-30,13.6-32.7c-2.7-2.7,147.2,51.8,147.2,51.8s6.8-31.4,17.7-32.7
					l287.6,92.7l-6.8,15l103.6,39.5l-19.1,58.6l-8.2,55.9l-27.3,35.4l-32.7,9.5l-456.6,49.1L1246.3,852l-162.2-156.8L1070.4,662.5z"
					/>
			</g>
			<g>
				<path class="st3" d="M1152.2,759.1c-2.8,0-5.6-0.9-8-2.7c-6-4.4-7.2-12.9-2.8-18.9l89.5-120.3c4.4-6,12.9-7.2,18.9-2.8
					c6,4.4,7.2,12.9,2.8,18.9l-89.5,120.3C1160.4,757.3,1156.3,759.1,1152.2,759.1z"/>
			</g>
			<g>
				<polygon class="st4" points="1071.6,661.5 1358.8,817.8 2093.1,814.1 2096.7,1399.4 1366,1399.4 958.9,1094 1013.4,672.4 				
					"/>
			</g>
			<g>
				
					<rect x="1877.7" y="947" transform="matrix(0.1483 -0.9889 0.9889 0.1483 676.5826 2704.6917)" class="st12" width="61.8" height="25"/>
			</g>
			<g>
				
					<rect x="1869.7" y="1013.3" transform="matrix(0.3511 -0.9363 0.9363 0.3511 246.3062 2438.0693)" class="st12" width="25" height="56.1"/>
			</g>
			<g>
				
					<rect x="1869.7" y="1093.3" transform="matrix(0.3511 -0.9363 0.9363 0.3511 171.4265 2489.9607)" class="st12" width="25" height="56.1"/>
			</g>
			<g>
				
					<rect x="1499" y="1242.3" transform="matrix(0.3511 -0.9363 0.9363 0.3511 -208.7089 2239.4983)" class="st12" width="25" height="56.1"/>
			</g>
			<g>
				
					<rect x="1966.4" y="1027.9" transform="matrix(0.2941 -0.9558 0.9558 0.2941 411.2653 2637.6675)" class="st12" width="49.7" height="25"/>
			</g>
			<g>
				
					<rect x="1691.6" y="993.5" transform="matrix(0.9578 -0.2873 0.2873 0.9578 -222.6527 532.8981)" class="st12" width="25" height="63"/>
			</g>
			<g>
				<rect x="1638.9" y="1117.9" class="st12" width="25" height="48.6"/>
			</g>
			<g>
				
					<rect x="1581.7" y="1188.2" transform="matrix(0.9191 -0.3939 0.3939 0.9191 -346.8083 725.5903)" class="st12" width="25" height="38.8"/>
			</g>
			<g>
				
					<rect x="1580.4" y="1286.9" transform="matrix(0.924 -0.3823 0.3823 0.924 -373.6273 718.6642)" class="st12" width="82" height="25"/>
			</g>
			<g>
				
					<rect x="1769.8" y="1241.5" transform="matrix(0.8824 -0.4706 0.4706 0.8824 -387.6989 988.0652)" class="st12" width="25" height="55.9"/>
			</g>
			<g>
				
					<rect x="1895.2" y="1241.5" transform="matrix(0.8824 -0.4706 0.4706 0.8824 -372.9446 1047.0819)" class="st12" width="25" height="55.9"/>
			</g>
			<g>
				
					<rect x="1991.5" y="1178.3" transform="matrix(0.8779 -0.4789 0.4789 0.8779 -330.9677 1106.4399)" class="st12" width="25" height="47.8"/>
			</g>
			<g>
				
					<rect x="1924.3" y="1154.5" transform="matrix(0.5145 -0.8575 0.8575 0.5145 -69.512 2232.5071)" class="st12" width="25" height="46.2"/>
			</g>
			<g>
				
					<rect x="2036.8" y="1092.4" transform="matrix(0.1644 -0.9864 0.9864 0.1644 631.7733 2955.6389)" class="st12" width="47.1" height="25"/>
			</g>
			<g>
				
					<rect x="2030.6" y="847" transform="matrix(0.9971 -7.670493e-02 7.670493e-02 0.9971 -60.8202 159.2817)" class="st12" width="25" height="48.7"/>
			</g>
			<g>
				
					<rect x="1851.4" y="847.1" transform="matrix(0.4472 -0.8944 0.8944 0.4472 267.1046 2151.333)" class="st12" width="45.3" height="25"/>
			</g>
			<g>
				
					<rect x="1776.1" y="865.1" transform="matrix(0.3714 -0.9285 0.9285 0.3714 295.8724 2221.5879)" class="st12" width="25" height="54.4"/>
			</g>
			<g>
				
					<rect x="1794" y="948.9" transform="matrix(0.1843 -0.9829 0.9829 0.1843 540.7592 2574.2979)" class="st12" width="54.6" height="25"/>
			</g>
			<g>
				
					<rect x="1467.1" y="925.2" transform="matrix(0.9959 -9.052793e-02 9.052793e-02 0.9959 -79.7196 137.8407)" class="st12" width="25" height="45.1"/>
			</g>
			<g>
				
					<rect x="1407.2" y="948.1" transform="matrix(0.6727 -0.7399 0.7399 0.6727 -256.0624 1369.3057)" class="st12" width="25" height="52"/>
			</g>
			<g>
				<rect x="1609.8" y="892.5" transform="matrix(0.6 -0.8 0.8 0.6 -73.2603 1663.4966)" class="st12" width="34.1" height="25"/>
			</g>
			<g>
				
					<rect x="1191.8" y="860.6" transform="matrix(0.9285 -0.3714 0.3714 0.9285 -243.5669 510.7656)" class="st12" width="25" height="54.4"/>
			</g>
			<g>
				
					<rect x="1212.7" y="817.7" transform="matrix(0.9701 -0.2425 0.2425 0.9701 -167.4781 322.2501)" class="st12" width="25" height="47.5"/>
			</g>
			<g>
				
					<rect x="1062.7" y="894.3" transform="matrix(0.3846 -0.9231 0.9231 0.3846 -186.2942 1557.8354)" class="st12" width="25" height="48.6"/>
			</g>
			<g>
				
					<rect x="1225" y="978.8" transform="matrix(0.4657 -0.8849 0.8849 0.4657 -205.6973 1641.9762)" class="st12" width="64" height="25"/>
			</g>
			<g>
				
					<rect x="1334.5" y="886.7" transform="matrix(0.6097 -0.7926 0.7926 0.6097 -198.8257 1424.4078)" class="st12" width="25" height="54.8"/>
			</g>
			<g>
				<rect x="1091.8" y="718" class="st12" width="25" height="52.3"/>
			</g>
			<g>
				
					<rect x="1026.4" y="734.1" transform="matrix(0.9615 -0.2747 0.2747 0.9615 -166.9511 314.3646)" class="st12" width="25" height="38.2"/>
			</g>
			<g>
				
					<rect x="1155" y="757.1" transform="matrix(0.3162 -0.9487 0.9487 0.3162 74.0876 1641.9956)" class="st12" width="42.2" height="25"/>
			</g>
			<g>
				
					<rect x="1109.1" y="1066.9" transform="matrix(0.1104 -0.9939 0.9939 0.1104 -83.3032 2082.269)" class="st12" width="25" height="41.5"/>
			</g>
			<g>
				
					<rect x="1252.7" y="1075.7" transform="matrix(0.9648 -0.2631 0.2631 0.9648 -244.4787 371.6081)" class="st12" width="25" height="45.7"/>
			</g>
			<g>
				<rect x="1275.4" y="1212.4" transform="matrix(0.8 -0.6 0.6 0.8 -482.8115 1019.5422)" class="st12" width="25" height="43.2"/>
			</g>
			<g>
				
					<rect x="1392.3" y="1268.7" transform="matrix(0.2095 -0.9778 0.9778 0.2095 -132.0291 2399.1587)" class="st12" width="51" height="25"/>
			</g>
			<g>
				
					<rect x="1406.2" y="1331.4" transform="matrix(0.9989 -4.757814e-02 4.757814e-02 0.9989 -62.314 69.9319)" class="st12" width="63.2" height="25"/>
			</g>
			<g>
				<rect x="1482.6" y="1063.4" class="st12" width="25" height="46.8"/>
			</g>
			<g>
				
					<rect x="1551.7" y="1061.4" transform="matrix(0.9839 -0.1789 0.1789 0.9839 -168.7011 297.3197)" class="st12" width="25" height="45.3"/>
			</g>
			<g>
				
					<rect x="1767.2" y="1146.1" transform="matrix(0.5767 -0.817 0.817 0.5767 -185.11 1959.8645)" class="st12" width="62.8" height="25"/>
			</g>
			<g>
				
					<rect x="1763.6" y="1342.3" transform="matrix(0.5767 -0.817 0.817 0.5767 -347.0153 2039.99)" class="st12" width="62.8" height="25"/>
			</g>
			<g>
				
					<rect x="1684.3" y="1325" transform="matrix(0.9912 -0.1322 0.1322 0.9912 -163.702 236.123)" class="st12" width="25" height="52.5"/>
			</g>
			<g>
				
					<rect x="1873.4" y="1335.3" transform="matrix(0.9285 -0.3714 0.3714 0.9285 -369.2972 797.4498)" class="st12" width="25" height="44.6"/>
			</g>
			<g>
				
					<rect x="2007.9" y="1315.9" transform="matrix(0.9923 -0.124 0.124 0.9923 -150.9887 260.9808)" class="st12" width="25" height="54.3"/>
			</g>
			<g>
				
					<rect x="1682.5" y="854.2" transform="matrix(0.9931 -0.1169 0.1169 0.9931 -91.4848 204.11)" class="st12" width="25" height="56.1"/>
			</g>
			<g>
				
					<rect x="1321.7" y="1061.5" transform="matrix(0.8437 -0.5369 0.5369 0.8437 -374.374 886.0792)" class="st12" width="25" height="48.7"/>
			</g>
			<g>
				
					<rect x="1130" y="1147.9" transform="matrix(0.8944 -0.4472 0.4472 0.8944 -401.973 634.2974)" class="st12" width="25" height="41.3"/>
			</g>
			<g>
				
					<rect x="998.1" y="1044.3" transform="matrix(0.7328 -0.6805 0.6805 0.7328 -444.3971 981.8708)" class="st12" width="59.7" height="25"/>
			</g>
			<g>
				
					<rect x="1139.6" y="982.5" transform="matrix(0.848 -0.53 0.53 0.848 -350.9182 766.4256)" class="st12" width="42.1" height="25"/>
			</g>
			<g>
				<rect x="1079.1" y="816.2" class="st12" width="25" height="28.6"/>
			</g>
			<g>
				
					<rect x="994.6" y="912.4" transform="matrix(0.9487 -0.3162 0.3162 0.9487 -241.6732 366.0327)" class="st12" width="25" height="30.7"/>
			</g>
			<g>
				
					<rect x="1493.5" y="838.5" transform="matrix(0.7809 -0.6247 0.6247 0.7809 -205.254 1128.5557)" class="st12" width="25" height="36.6"/>
			</g>
			<g>
				<rect x="1409.9" y="838" class="st12" width="25" height="34.1"/>
			</g>
			<g>
				<rect x="1400.8" y="1105.2" class="st12" width="25" height="48.6"/>
			</g>
			<g>
				
					<rect x="1316.1" y="1298.7" transform="matrix(0.1789 -0.9839 0.9839 0.1789 -190.8031 2393.8284)" class="st12" width="45.3" height="25"/>
			</g>
			<g>
				
					<rect x="2020.6" y="930.5" transform="matrix(0.1644 -0.9864 0.9864 0.1644 757.7858 2802.6816)" class="st12" width="25" height="47.1"/>
			</g>
			<g>
				
					<rect x="1544.4" y="958.8" transform="matrix(0.124 -0.9923 0.9923 0.124 392.7339 2402.1152)" class="st12" width="25" height="39.7"/>
			</g>
			<g>
				
					<rect x="1289.9" y="811.3" transform="matrix(0.7071 -0.7071 0.7071 0.7071 -208.3481 1165.2365)" class="st12" width="25" height="45.6"/>
			</g>
			<g>
				<path class="st10" d="M1068.9,323.4c0,0,29.1,19.1,18.2,50c-11.8,26.4-16.4,36.4-16.4,36.4s1.8,97.2-30.9,81.8
					c0,1.8-45.4,83.6-122.7,33.6c0,1.8-28.2,22.7-26.4,58.2c1.8,35.4-9.1,31.8-9.1,31.8l-6.4-50.9c0,0,3.6-109.1,97.2-227.2
					C973.5,336.1,1039.8,339.8,1068.9,323.4z"/>
			</g>
			<g>
				<path class="st10" d="M1257.2,739.7c1.6-0.6,10.1-23.6-2-40.1c-0.9-1.8,0-48.2-16.4-54.5c-6.4-6.4-16.4,7.3-16.4,7.3l-6.4-3.6
					c0,0-2.7-7.3-19.1,5.5c-16.4,12.7-110.9,93.6-91.8,148.1c-0.9,0.7-58.2,80-58.2,80s-5.5,45.4-2.7,49.1
					c2.7,3.6,21.8,21.8,26.4,24.5c4.5,2.7,17.3,5.5,17.3,5.5l21.8-10l7.3-6.4C1117,945,1298.2,756.6,1257.2,739.7z M1182.5,736.9
					c0-0.9,0-6.4,0-6.4s38.2-53.6,38.2-60.9C1220.6,669.6,1254.3,726.9,1182.5,736.9z"/>
			</g>
			<g>
				<path class="st3" d="M1033.5,409.2c-7.6,9.8-10.3,20.4-6.1,23.7c4.2,3.2,13.8-2.1,21.4-11.9c7.6-9.8,10.3-20.4,6.1-23.7
					C1050.7,394.1,1041.1,399.4,1033.5,409.2z"/>
			</g>
			<g>
				<path class="st3" d="M892.9,499.7c0,0,9.8,18.6,26,27.9c0,0.7-11.1,13.3-11.1,13.3S891.6,519,892.9,499.7z"/>
			</g>
			<g>
				<path class="st3" d="M1955.1,764.7c0,0-13.6,36.8-12.3,49.1c-1.4,0,150.3,0.3,150.3,0.3L1955.1,764.7z"/>
			</g>
			<g>
				<path class="st13" d="M1933.7,1019.9c0,6-4.9,10.9-10.9,10.9h-463.4c-6,0-10.9-4.9-10.9-10.9v-87.2c0-6,4.9-10.9,10.9-10.9
					h463.4c6,0,10.9,4.9,10.9,10.9V1019.9z"/>
			</g>
			<g>
				<path class="st13" d="M1764.7,1178c0,6-3.2,10.9-7.1,10.9h-302c-3.9,0-7.1-4.9-7.1-10.9v-87.2c0-6,3.2-10.9,7.1-10.9h302
					c3.9,0,7.1,4.9,7.1,10.9V1178z"/>
			</g>
			<g>
				<path class="st3" d="M1307.4,659c-26.8,0-52-7.6-73.5-22.5c-32.8-22.8-52.6-59.7-55.8-104c-3.1-43.2,10-88.4,37-127.2
					c27-38.8,64.8-66.9,106.4-79c42.6-12.4,84.1-6.7,116.9,16.1c32.8,22.8,52.6,59.7,55.8,104c3.1,43.2-10,88.4-37,127.2
					c0,0,0,0,0,0c-27,38.8-64.8,66.9-106.4,79C1336.2,656.8,1321.6,659,1307.4,659z M1364.9,346.8c-45.4,0-94.7,26.7-127.5,73.8
					c-23.5,33.8-35,72.8-32.3,109.9c2.6,36,18.3,65.7,44.3,83.8c54.5,37.9,137.8,12.7,185.7-56.1c23.5-33.8,35-72.8,32.3-109.9
					c-2.6-36-18.3-65.7-44.3-83.8C1405.9,352.5,1385.8,346.8,1364.9,346.8z M1446.2,565.8L1446.2,565.8L1446.2,565.8z"/>
			</g>
			<g>
				<polygon class="st14" points="864.4,1144.9 878.2,1141.5 871.7,1130.4 				"/>
				<path class="st14" d="M1173.4,1163.1c-10.9-76.3-236.3-36.4-236.3-36.4l-58.9,14.7l77.1,130.7l189,14.5
					C1144.3,1286.7,1184.3,1239.4,1173.4,1163.1z"/>
			</g>
			<g>
				<path class="st14" d="M362.8,1128.6c0,0-163.6,236.3,36.4,350.8c-1.8-1.8,887,0,887,0s18.2-145.4-14.5-247.2
					c-16.4-50.9-60-107.2-330.8-69.1c-154.5,1.8-150.9-47.3-150.9-47.3l-40-20L362.8,1128.6z"/>
			</g>
			<g>
				<path class="st15" d="M876.2,563.3c0,0,358.1-72.7,123.6,356.2c1.8,0-17.3,35.4-17.3,35.4l62.7-84.5l63.6,78.2l7.3-3.6l6.4,10
					c0,0-173.6,222.6-229,246.3c-25.4,4.5-98.1-10.9-118.1-48.2c-1.8-8.2-2.7-13.6-2.7-13.6s-265.4,61.8-409.9-10.9
					c-2.7-1.8-12.7-13.6-6.4-31.8c0.9,0.9-40.9-13.6-33.6-72.7c7.3-58.2,248.1-405.3,267.2-427.1c-1.8-0.9,30.9-36.4,38.2-33.6
					c1.8,0,10,18.2,16.4,18.2c6.4,0,75.4-1.8,79.1-0.9c3.6,0.9,34.5,29.1,54.5,25.4c20-3.6,40.9-0.9,40.9-0.9l1.8,3.6
					c0,0,18.2,12.7,50-3.6C869.9,603.3,873.5,565.1,876.2,563.3z"/>
			</g>
			<g>
				<path class="st3" d="M820.8,610.3c-1.4,0-2.5-1.1-2.5-2.5c-0.5-69.1,27.4-132.6,50.9-173.7c25.4-44.5,51.3-73.1,51.6-73.4
					c0.9-1,2.5-1.1,3.5-0.2c1,0.9,1.1,2.5,0.2,3.5c-0.3,0.3-25.8,28.6-51,72.6c-23.1,40.5-50.6,103.1-50.2,171.1
					C823.3,609.2,822.2,610.3,820.8,610.3C820.8,610.3,820.8,610.3,820.8,610.3z"/>
			</g>
			<g>
				<path class="st3" d="M998,488.6c-0.5,0-1-0.1-1.4-0.4l-23.6-16.4c-1.1-0.8-1.4-2.3-0.6-3.5c0.8-1.1,2.3-1.4,3.5-0.6l23.6,16.4
					c1.1,0.8,1.4,2.3,0.6,3.5C999.6,488.2,998.8,488.6,998,488.6z"/>
			</g>
			<g>
				<path class="st3" d="M793.5,1176.5c-0.4,0-0.7-0.1-1.1-0.2c-34.1-16.4-30.1-93.7,11.8-229.5c30.9-100.3,72-197.2,72.4-198.1
					c0.5-1.3,2-1.9,3.3-1.3c1.3,0.5,1.9,2,1.3,3.3c-0.4,1-41.4,97.6-72.3,197.7c-40.5,131.2-45.4,208.5-14.4,223.5
					c1.2,0.6,1.8,2.1,1.2,3.3C795.3,1176,794.5,1176.5,793.5,1176.5z"/>
			</g>
			<g>
				<path class="st3" d="M361.9,1131.1c-0.6,0-1.2-0.2-1.7-0.7c-11.7-11.1-9.2-38.3,7.7-83.4c13.1-34.8,34.8-80.1,64.5-134.4
					C482.9,820.1,540,731.9,540.6,731c0.8-1.2,2.3-1.5,3.5-0.7c1.2,0.8,1.5,2.3,0.7,3.5c-0.6,0.9-57.6,88.9-108.1,181.3
					c-29.6,54.2-51.2,99.2-64.2,133.8c-19.8,52.8-15.8,71.5-8.9,78c1,0.9,1.1,2.5,0.1,3.5C363.2,1130.8,362.5,1131.1,361.9,1131.1z"
					/>
			</g>
			<g>
				<path class="st3" d="M1286.1,1481.9c-0.1,0-0.2,0-0.3,0c-1.4-0.2-2.3-1.4-2.2-2.8c0.1-0.6,7.7-59.9,5.2-125.9
					c-2.3-60.5-13.7-139-55.1-169.9c-0.1,0-0.1-0.1-0.2-0.1c-54.8-48.7-285.6-18.8-287.9-18.5c-1.4,0.2-2.6-0.8-2.8-2.2
					s0.8-2.6,2.2-2.8c0.6-0.1,59.3-7.8,124.1-9.2c87.4-2,143.8,7.7,167.7,28.8c19.1,14.2,33.6,39,43.3,73.5
					c7.7,27.4,12.3,61.1,13.8,100.2c2.5,66.3-5.2,126-5.2,126.6C1288.4,1480.9,1287.3,1481.9,1286.1,1481.9z"/>
			</g>
			<g>
				<path class="st3" d="M927.1,1480c-1.3,0-2.4-1-2.5-2.3c-0.1-1.4,0.9-2.6,2.3-2.7c120.9-9.9,271.3-69.2,272.8-69.8
					c1.3-0.5,2.7,0.1,3.2,1.4c0.5,1.3-0.1,2.7-1.4,3.2c-1.5,0.6-152.6,60.2-274.3,70.1C927.2,1480,927.2,1480,927.1,1480z"/>
			</g>
			<g>
				<path class="st3" d="M1486.2,1481C1486.2,1481,1486.2,1481,1486.2,1481l-1225.4-0.9c-1.4,0-2.5-1.1-2.5-2.5
					c0-1.4,1.1-2.5,2.5-2.5c0,0,0,0,0,0l1225.4,0.9c1.4,0,2.5,1.1,2.5,2.5C1488.7,1479.9,1487.6,1481,1486.2,1481z"/>
			</g>
			<g>
				<path class="st3" d="M1225.2,756.7c-0.6,0-1.2-0.2-1.7-0.6c-1-0.9-1.1-2.5-0.2-3.5c22.4-25.3,32.1-51.8,27.9-76.5
					c-3.2-18.7-13.2-30-13.3-30.1c-0.9-1-0.8-2.6,0.2-3.5s2.6-0.8,3.5,0.2c0.4,0.5,11,12.4,14.5,32.4c3.2,18.4,0.8,47.3-29,80.9
					C1226.6,756.4,1225.9,756.7,1225.2,756.7z"/>
			</g>
			<g>
				<path class="st3" d="M1228.8,777.6c-0.7,0-1.4-0.3-1.9-0.8c-0.9-1-0.8-2.6,0.2-3.5c29-25.7,26.6-35.3,26.6-35.4
					c0,0.1,0.1,0.2,0.1,0.2l4.6-2.1c0.9,2,3.7,13.1-27.9,41.1C1230,777.3,1229.4,777.6,1228.8,777.6z"/>
			</g>
			<g>
				<path class="st3" d="M1181.6,733.9c-0.5,0-1.1-0.2-1.5-0.5c-1.1-0.8-1.3-2.4-0.5-3.5c40.1-52.7,41-70.2,39.4-75.3
					c-0.6-2.1-1.8-2.5-1.8-2.6c0.1,0,0.1,0,0.1,0l1.2-4.9c0.4,0.1,3.6,1,5.1,5.4c4.4,12.4-9.5,40.2-40.1,80.3
					C1183.1,733.6,1182.3,733.9,1181.6,733.9z"/>
			</g>
			<g>
				<path class="st3" d="M934.4,1054.7c-0.4,0-0.8-0.1-1.1-0.3c-1.2-0.6-1.7-2.1-1.1-3.4l65.4-131.8c0.6-1.2,2.1-1.7,3.4-1.1
					c1.2,0.6,1.7,2.1,1.1,3.4l-65.4,131.8C936.2,1054.2,935.3,1054.7,934.4,1054.7z"/>
			</g>
			<g>
				<path class="st3" d="M1408.8,813C1408.7,813,1408.7,813,1408.8,813c-1.4,0-2.5-1.2-2.5-2.6c0.8-35.5,17.5-76.5,21.9-86.8
					l-337.5-142.6c-1.3-0.5-1.9-2-1.3-3.3c0.5-1.3,2-1.9,3.3-1.3L1432.5,720c0.6,0.3,1.1,0.8,1.4,1.4c0.2,0.6,0.2,1.3-0.1,1.9
					c-0.2,0.5-21.6,48.2-22.5,87.2C1411.2,811.9,1410.1,813,1408.8,813z"/>
			</g>
			<g>
				<path class="st3" d="M1519.6,814.8c-1.4,0-2.5-1.1-2.5-2.5c0-42,18.6-94.4,22.9-105.9l-350.4-146.3c-1.3-0.5-1.9-2-1.3-3.3
					c0.5-1.3,2-1.9,3.3-1.3l352.6,147.2c1.3,0.5,1.9,2,1.4,3.2c-0.2,0.6-23.5,60.1-23.5,106.3C1522.1,813.7,1521,814.8,1519.6,814.8
					z"/>
			</g>
			<g>
				<path class="st3" d="M1686.8,816.6c-0.1,0-0.2,0-0.3,0c-1.4-0.2-2.3-1.4-2.2-2.8c5.8-44.4,47.9-107.9,57.6-122L1304.4,542
					c-1.3-0.4-2-1.9-1.6-3.2c0.4-1.3,1.9-2,3.2-1.6l440.8,150.9c0.7,0.3,1.3,0.8,1.6,1.6c0.2,0.7,0.1,1.6-0.3,2.2
					c-0.5,0.7-52.4,74.6-58.6,122.5C1689.2,815.7,1688.1,816.6,1686.8,816.6z"/>
			</g>
			<g>
				<path class="st3" d="M1753.2,814.8c-0.2,0-0.4,0-0.6-0.1c-1.3-0.3-2.2-1.7-1.8-3c5.1-20.2,47-116.2,54.5-133.3L1427,543.9
					c-1.3-0.5-2-1.9-1.5-3.2c0.5-1.3,1.9-2,3.2-1.5l380.8,135.4c0.7,0.2,1.2,0.7,1.5,1.4c0.3,0.6,0.3,1.4,0,2
					c-0.5,1.1-50,113.6-55.3,135C1755.3,814.1,1754.3,814.8,1753.2,814.8z"/>
			</g>
			<g>
				<path class="st3" d="M1815,817.5c-0.2,0-0.4,0-0.5-0.1c-1.4-0.3-2.2-1.6-1.9-3c9.2-42.8,55.2-141.2,63.5-158.8L1592.5,563
					c-1.3-0.4-2-1.8-1.6-3.2c0.4-1.3,1.8-2,3.2-1.6l286.3,93.6c0.7,0.2,1.2,0.7,1.5,1.4c0.3,0.7,0.3,1.4,0,2.1
					c-0.5,1.1-54.5,114.8-64.3,160.3C1817.2,816.7,1816.1,817.5,1815,817.5z"/>
			</g>
			<g>
				<path class="st3" d="M1889.5,814.8c-0.1,0-0.3,0-0.4,0c-1.4-0.2-2.3-1.5-2-2.9c5.6-32.6,24.5-78.8,29.1-89.9l-55.7-20
					c-1.3-0.5-2-1.9-1.5-3.2c0.5-1.3,1.9-2,3.2-1.5l58.2,20.9c0.6,0.2,1.2,0.7,1.4,1.4c0.3,0.6,0.3,1.4,0,2
					c-0.2,0.5-23.6,54.7-29.8,91.2C1891.8,814,1890.7,814.8,1889.5,814.8z"/>
			</g>
			<g>
				<path class="st3" d="M1942.2,815.7c-0.1,0-0.3,0-0.4,0c-1.4-0.2-2.3-1.5-2.1-2.9c5.6-33.9,27.9-91.1,32.8-103.5l-100.2-35.5
					c-1.3-0.5-2-1.9-1.5-3.2c0.5-1.3,1.9-2,3.2-1.5l102.7,36.4c0.6,0.2,1.2,0.7,1.4,1.3c0.3,0.6,0.3,1.3,0,2
					c-0.3,0.7-27.2,67.4-33.5,104.9C1944.5,814.9,1943.4,815.7,1942.2,815.7z"/>
			</g>
			<g>
				<path class="st3" d="M1364.2,1400.1c-1.4,0-2.5-1.1-2.5-2.5V815.9c0-1.4,1.1-2.5,2.5-2.5s2.5,1.1,2.5,2.5v581.6
					C1366.7,1398.9,1365.6,1400.1,1364.2,1400.1z"/>
			</g>
			<g>
				<path class="st3" d="M895.3,397.7c0,0-0.1,0-0.1,0c-1.4-0.1-2.4-1.2-2.4-2.6c0.4-7.8-2.5-18-7.3-20.6c-2.4-1.3-5.3-0.7-8.8,1.8
					c-1.1,0.8-2.7,0.6-3.5-0.6c-0.8-1.1-0.5-2.7,0.6-3.5c6.4-4.6,11.2-3.7,14.1-2.2c7.8,4.2,10.2,17.7,9.9,25.2
					C897.7,396.6,896.6,397.7,895.3,397.7z"/>
			</g>
			<g>
				<path class="st3" d="M890.8,400.4c-0.8,0-1.6-0.4-2-1.1c-2.1-3-4.5-4.9-6.3-5.1c-0.6-0.1-1.5,0-2.7,1c-1,0.9-2.6,0.8-3.5-0.2
					c-0.9-1-0.8-2.6,0.2-3.5c2-1.7,4.2-2.5,6.6-2.2c4.3,0.5,7.7,4.2,9.8,7.2c0.8,1.1,0.5,2.7-0.6,3.5
					C891.8,400.3,891.3,400.4,890.8,400.4z"/>
			</g>
			<g>
				<path class="st3" d="M993.3,339.2c-14,0-28.5-1.5-43.1-5.2c-1.2-0.3-2-1.5-1.9-2.8c0.1-0.6,0.3-2.3,1.9-2.9c1-0.4,2.1-0.1,3,0.8
					c0,0,0,0,0,0c0.4,0.1,0.8,0.4,1.1,0.7c47.8,11.1,94-1.3,129.1-13.4c1.3-0.5,2.7,0.2,3.2,1.5c0.5,1.3-0.2,2.7-1.5,3.2
					C1059.3,330.1,1027.5,339.2,993.3,339.2z"/>
			</g>
			<g>
				<path class="st1" d="M1300.8,626.9c-6.7,0-12.4-4.9-13.4-11.7c-1-7.4,4.2-14.2,11.6-15.2c19.6-2.6,33.1-9.2,45.2-21.8
					c5.1-5.4,13.7-5.6,19.1-0.5c5.4,5.1,5.6,13.7,0.5,19.1c-16.2,17-35.6,26.5-61.1,30C1302,626.9,1301.4,626.9,1300.8,626.9z"/>
			</g>
		</g>
		<g>
			<g>
				<path class="st1" d="M2071.2,1264.1c0,0-11.4-68.4-116.8-68.4c-85.5,0-108.2,82.6-122.5,102.5c-2.8,0-94,2.8-94,82.6
					c0,71.2,42.7,76.9,62.7,82.6c19.9,5.7,321.9,2.8,321.9,2.8s99.7-31.3,88.3-105.4C2196.5,1298.3,2142.4,1255.5,2071.2,1264.1z"/>
				<path class="st2" d="M1969.6,1469.5c-78.4,0-159.4-0.7-169.7-3.7c-1.4-0.4-3-0.8-4.6-1.3c-20.9-5.5-59.9-15.8-59.9-83.8
					c0-33.8,16.4-59.2,47.4-73.5c21.2-9.8,42.3-11.3,47.8-11.6c2.3-3.5,5-8.8,8-14.8c15.5-30.7,44.3-87.8,115.8-87.8
					c55.3,0,84.8,19,99.7,35c13.1,13.9,17.6,27.8,19,33.2c34-3.6,65.3,4.1,90.7,22.4c24.7,17.8,42.2,45,49.4,76.6l0,0.2
					c4.8,31.3-9.3,59.9-40.9,82.9c-23.6,17.1-48.1,25-49.1,25.3l-0.4,0.1l-0.4,0C2116.5,1468.9,2044.3,1469.5,1969.6,1469.5z
					 M1831.9,1300.8c-0.9,0-91.5,2.2-91.5,80.1c0,64.1,35.1,73.4,56.1,78.9c1.7,0.4,3.3,0.9,4.7,1.3c15.5,4.4,216.4,3.7,320.8,2.8
					c3.1-1,26-8.9,47.5-24.5c30.3-22.1,43.3-48.3,38.8-77.9c-14.8-64.8-69.7-102.9-136.8-94.8l-2.4,0.3l-0.4-2.4
					c-0.1-0.3-3.1-16.9-18.4-33.1c-20.5-21.7-53.7-33.2-95.9-33.2c-68.4,0-95.3,53.2-111.4,85c-3.6,7.1-6.4,12.7-9.1,16.5l-0.7,1
					H1831.9z"/>
			</g>
			<g>
				<path class="st3" d="M2034.5,1356.7c3.5,0,4.5-2.2,2.3-4.9l-63.1-75.4c-2.3-2.7-5.9-2.7-8.2,0l-63.1,75.4
					c-2.3,2.7-1.2,4.9,2.3,4.9h28.5c3.5,0,6.4,2.9,6.4,6.4v54c0,3.5,2.9,6.4,6.4,6.4h47.3c3.5,0,6.4-2.9,6.4-6.4v-54
					c0-3.5,2.9-6.4,6.4-6.4H2034.5z"/>
			</g>
		</g>
		<g>
			<g>
				<polygon class="st1" points="315.7,127.8 205.3,175.3 86.5,454.1 383.6,580.7 536.5,221.9 				"/>
				<polygon class="st2" points="384.9,584 83.2,455.4 203,174.3 207.6,176.3 89.8,452.7 382.3,577.4 533.2,223.3 314.8,130.1 
					316.7,125.5 539.8,220.6 				"/>
			</g>
			<g>
				
					<rect x="200.6" y="222.8" transform="matrix(0.3921 -0.9199 0.9199 0.3921 -85.7824 399.7262)" class="st14" width="118" height="84"/>
			</g>
			<g>
				<path class="st3" d="M463.2,263.8c-0.3,0-0.7-0.1-1-0.2l-86.5-36.9c-1.3-0.5-1.9-2-1.3-3.3c0.5-1.3,2-1.9,3.3-1.3l86.5,36.9
					c1.3,0.5,1.9,2,1.3,3.3C465.1,263.3,464.2,263.8,463.2,263.8z"/>
			</g>
			<g>
				<path class="st3" d="M423.6,275.2c-0.3,0-0.7-0.1-1-0.2l-35-14.9c-1.3-0.5-1.9-2-1.3-3.3c0.5-1.3,2-1.9,3.3-1.3l35,14.9
					c1.3,0.5,1.9,2,1.3,3.3C425.5,274.6,424.5,275.2,423.6,275.2z"/>
			</g>
			<g>
				<path class="st3" d="M352.1,499.1c-0.3,0-0.7-0.1-1-0.2l-35-14.9c-1.3-0.5-1.9-2-1.3-3.3c0.5-1.3,2-1.9,3.3-1.3l35,14.9
					c1.3,0.5,1.9,2,1.3,3.3C354,498.5,353,499.1,352.1,499.1z"/>
			</g>
			<g>
				<path class="st3" d="M439.4,329.8c-0.3,0-0.7-0.1-1-0.2l-119.6-51c-1.3-0.5-1.9-2-1.3-3.3c0.5-1.3,2-1.9,3.3-1.3l119.6,51
					c1.3,0.5,1.9,2,1.3,3.3C441.3,329.2,440.4,329.8,439.4,329.8z"/>
			</g>
			<g>
				<path class="st3" d="M429.2,353.7c-0.3,0-0.7-0.1-1-0.2l-119.6-51c-1.3-0.5-1.9-2-1.3-3.3c0.5-1.3,2-1.9,3.3-1.3l119.6,51
					c1.3,0.5,1.9,2,1.3,3.3C431.1,353.2,430.2,353.7,429.2,353.7z"/>
			</g>
			<g>
				<path class="st3" d="M417.5,381.3c-0.3,0-0.7-0.1-1-0.2l-119.6-51c-1.3-0.5-1.9-2-1.3-3.3c0.5-1.3,2-1.9,3.3-1.3l119.6,51
					c1.3,0.5,1.9,2,1.3,3.3C419.4,380.8,418.5,381.3,417.5,381.3z"/>
			</g>
			<g>
				<path class="st3" d="M407.3,405.2c-0.3,0-0.7-0.1-1-0.2l-119.6-51c-1.3-0.5-1.9-2-1.3-3.3c0.5-1.3,2-1.9,3.3-1.3l119.6,51
					c1.3,0.5,1.9,2,1.3,3.3C409.2,404.7,408.3,405.2,407.3,405.2z"/>
			</g>
			<g>
				<path class="st3" d="M394.7,434.7c-0.3,0-0.7-0.1-1-0.2l-211.6-90.2c-1.3-0.5-1.9-2-1.3-3.3c0.5-1.3,2-1.9,3.3-1.3l211.6,90.2
					c1.3,0.5,1.9,2,1.3,3.3C396.6,434.1,395.7,434.7,394.7,434.7z"/>
			</g>
			<g>
				<path class="st3" d="M384.5,458.6c-0.3,0-0.7-0.1-1-0.2L172,368.2c-1.3-0.5-1.9-2-1.3-3.3c0.5-1.3,2-1.9,3.3-1.3l211.6,90.2
					c1.3,0.5,1.9,2,1.3,3.3C386.4,458,385.5,458.6,384.5,458.6z"/>
			</g>
			<g>
				<path class="st3" d="M307,184.4c0,0-0.1,0-0.1,0l-102.7-4.2c-1.2,0-2.1-0.9-2.4-2c-0.2-1.1,0.4-2.3,1.5-2.8l112.2-49.1
					c0.8-0.4,1.8-0.2,2.5,0.3c0.7,0.6,1.1,1.5,0.9,2.4l-9.5,53.3C309.3,183.5,308.2,184.4,307,184.4z M215.2,175.6l89.7,3.7
					l8.3-46.6L215.2,175.6z"/>
			</g>
		</g>
		<g>
			<g>
				<polygon class="st1" points="1840.8,361.4 1928.6,533.4 2012.6,475.3 2041,513.1 2037.7,448.7 2112,403.5 				"/>
				<path class="st16" d="M1928.6,533.9c0,0-0.1,0-0.1,0c-0.1,0-0.3-0.1-0.3-0.3l-87.9-172c-0.1-0.2-0.1-0.4,0-0.5
					c0.1-0.2,0.3-0.2,0.5-0.2l271.2,42.2c0.2,0,0.4,0.2,0.4,0.4c0,0.2-0.1,0.4-0.2,0.5l-74,45l3.3,64.1c0,0.2-0.1,0.4-0.3,0.5
					c-0.2,0.1-0.4,0-0.6-0.2l-28.1-37.4l-83.6,57.8C1928.8,533.9,1928.7,533.9,1928.6,533.9z M1841.7,362l87.2,170.6l83.5-57.7
					c0.2-0.2,0.5-0.1,0.7,0.1l27.4,36.5l-3.2-62.8c0-0.2,0.1-0.4,0.2-0.5l73.1-44.4L1841.7,362z"/>
			</g>
			<g>
				<path class="st3" d="M2041,515.6c-0.8,0-1.5-0.4-2-1l-28.1-37.4l-171.5-113.7c-1.1-0.7-1.4-2.1-0.8-3.3c0.6-1.1,2-1.6,3.2-1.1
					l196.9,87.3c0.9,0.4,1.4,1.2,1.5,2.2l3.3,64.4c0.1,1.1-0.6,2.1-1.6,2.5C2041.6,515.6,2041.3,515.6,2041,515.6z M1866.9,375.7
					l147.1,97.5c0.2,0.2,0.4,0.4,0.6,0.6l23.5,31.2l-2.8-54.7L1866.9,375.7z"/>
			</g>
			<g>
				<path class="st3" d="M1928.6,535.9c-0.2,0-0.4,0-0.6-0.1c-0.7-0.2-1.3-0.6-1.6-1.3l-87.9-172c-0.1-0.1-0.1-0.2-0.1-0.3
					c-0.1-0.2-0.1-0.3-0.1-0.5c0,0,0,0,0,0c-0.1-0.5,0-0.9,0.2-1.4c0-0.1,0.1-0.2,0.1-0.3c0.3-0.5,0.7-0.8,1.2-1c0,0,0,0,0,0
					c0,0,0,0,0,0c0.1,0,0.2-0.1,0.3-0.1c0,0,0,0,0,0c0.3-0.1,0.7-0.1,1,0l271.2,42.2c1,0.2,1.9,1,2.1,2s-0.3,2.1-1.2,2.6l-74.3,45.2
					c-0.7,0.4-1.6,0.5-2.3,0.1l-169.8-75.3l147.1,97.5c0.7,0.5,1.1,1.2,1.1,2.1c0,0.8-0.4,1.6-1.1,2.1l-84,58.1
					C1929.6,535.7,1929.1,535.9,1928.6,535.9z M1847.3,368.7l82.2,161l78.6-54.3L1847.3,368.7z M1859,366.8l178.4,79.1l67.3-40.9
					L1859,366.8z"/>
			</g>
		</g>
	</g>
</g>
</svg>
