<?xml version="1.0" encoding="utf-8"?>
<!-- Generator: Adobe Illustrator 29.1.0, SVG Export Plug-In . SVG Version: 9.03 Build 55587)  -->
<svg version="1.1" id="Layer_1" xmlns="http://www.w3.org/2000/svg" xmlns:xlink="http://www.w3.org/1999/xlink" x="0px" y="0px"
	 width="1866.7px" height="2000px" viewBox="0 0 1866.7 2000" style="enable-background:new 0 0 1866.7 2000;" xml:space="preserve"
	>
<style type="text/css">
	.st0{fill:#E9F0F7;}
	.st1{fill:#AEC7E6;}
	.st2{fill:#F2A29B;}
	.st3{fill:#FFC5B3;}
	.st4{fill:#98ADD4;}
	.st5{fill:#D0E1F2;}
	.st6{fill:#7893C4;}
	.st7{fill:#071F3B;}
	.st8{fill:#0C3461;}
	.st9{fill:#114077;}
	.st10{fill:#FF8666;}
	.st11{fill:#ED4944;}
	.st12{fill:#6A0000;}
	.st13{fill:#D63636;}
	.st14{fill:#F09292;}
	.st15{fill:#FBBBAB;}
</style>
<g>
	<path class="st0" d="M1866.7,1035.2c0.3-6.3-3.7-12.7-12.1-17.6l-260.2-150.2c-16.1-9.3-42.1-9.3-58.1,0l-63.4,36.8
		c-1.2-150.2,13.9-203.5,20.2-243.2c3-3.9,4.8-8,5.2-12c13.8-139.9-5-219.9-22.5-262.7c-3.4-16.2-11.2-29.6-21.2-39.2
		c-1.6-2.2-3.4-4.4-5.6-6.7c-35.4-36.9-74.2-57.6-97.7-67.9c-9.3-11.3-21.6-17-21.6-17c-1.4-3.4-3-7.8-4.4-11.7
		c26.1-20.3,50.4-61,53.6-86.1c3.8-30.3,3.8-67.7-12.1-81.4c0.8-17-35.8-76.3-124.2-76.3c-48.1,0-77.4,43.5-77.4,43.5
		s-16.7-3-34.5,14.8c-8,8-19.9,38.9,8.6,63.1c-0.2,3.5-0.1,6.4,0.2,8.8c0,0-0.7,10.7-0.3,30.9c-1.3-0.4-2.7-0.8-4-1
		c-2.7-0.5-3.9,1.8-2.9,4.4c0.7,1.9,2.2,3.5,3.7,4.4c0.5,0.3,1.1,0.5,1.6,0.6c0.6,0.1,1.2,0.2,1.8,0.4c0.2,7.7,0.6,16.5,1.2,26.3
		c0,0.5,0,1.1,0,1.6c0,2.1,0.2,4.2,0.5,6.3c1.9,28.1,8.8,71.5,33.8,87.4c-1.7,5.6-2.9,11.8-3.8,18.5c-4.3,34.7-28.1,112.5-171,126.1
		c-5.2,0.5-9.1,3.1-11.8,7.2c-9.8-0.9-18.9,0.1-25.6,1.3c-7.5,0.8-20,3.2-46.2,10.2c-7.6,2-11.6,9.3-11.9,16.8
		c-7.3,5.8-14.6,12.9-21.2,21.4c-5.6,7.3-3.7,16.3,1.6,22.4c-5.3,5.3-10.3,11.4-14.6,18.3c-0.5,0.7-0.8,1.5-1.2,2.2L707,630.4
		c3.2-9.8-3.6-20-11.2-19.3c-11.4,1.1-24.4,3.3-41.2,8.4c-0.9-2.3-2.2-4.3-3.9-5.7l-0.8-1.5c0.2-3.7,0.6-7.8,1.1-12.3
		c23.1,2.5,39.9-1.5,48.4-4c40.4-12,48.6-119.3,50.2-162.8c5.9-4,11.5-9.5,16-17c3.6-6,5.3-12.6,5.4-19.1c0.3-15.7-9-31.1-24.5-37.4
		c-2.7-1.1-5.1-2.2-7.1-3.2c-3-1.5-5.6-3.4-8-5.8c-8.4-8.4-36.2-31.3-88.5-30.4c-86.6,1.5-100.7,35.3-100.7,35.3
		c-23.6,25.6-36.6,50.4-42.1,73.7c-15.1,65.1,29.4,118.5,68.5,144c-0.5,2.6-1.2,5.5-2.2,8.6c0,0-1.9,1.6-4.4,4.5
		c-26.9-8.9-60.7-0.9-80.8,18.9c-24,23.6-43.8,58.8-50.9,116.5c-14.4,117.3-14.2,188.7-20,210.2c-1.6,6-1.6,11.9-0.3,17.7
		c-27.4,77.7-2,126.4,20.3,226.2c32.8,146.7,12.1,238.4,7.9,318.6c-0.1,1.9,0.1,3.7,0.4,5.4c-0.4,1.7-0.8,3.5-1.2,5.3
		c0,0.1-0.1,0.2-0.1,0.4l-138.1,80.3L12.1,1753.2c-8,4.6-11.9,10.7-11.9,16.8c0,0,0,0,0-0.1l-0.2,56c0,6.1,4,12.3,12.1,16.9
		L272.3,1993c4.5,2.6,9.6,4.4,14.7,5.5c14.5,3,30.4,1.8,43.4-5.5c0,0,287.5-167.1,287.5-167.1v0l316.4-183.9l0.2-56l-56.1-32.4
		c11.7-2.6,22.9-6.8,33-13.3c14.9-9,21.4-23.8,21.1-32.3c0,0,0.2-56,0.2-56c0-12.5-8.1-25-24.4-34.6c-0.1-0.1-0.2-0.1-0.3-0.2
		c-0.2-0.1-0.3-0.2-0.5-0.3c-13.8-7.9-31.4-12.6-49.6-13.8c-18.7-1.5-37.9,0.6-54.8,6.9c-0.1,0-0.2,0.1-0.4,0.1
		c-0.1,0.1-0.3,0.1-0.4,0.2c-4.4,1.6-8.7,3.5-12.6,5.7c-0.6,0.3-1.2,0.7-1.8,1c-6,3.5-10.9,7.4-14.7,11.5c0,0-0.1,0.1-0.1,0.1
		c-0.5,0.5-0.9,1.1-1.4,1.6c-0.1,0.1-0.2,0.2-0.2,0.3c-0.6,0.7-1.1,1.4-1.6,2.1c-0.1,0.1-0.2,0.3-0.3,0.4c-0.4,0.6-0.8,1.2-1.2,1.9
		c-0.2,0.3-0.4,0.7-0.6,1c-0.3,0.4-0.5,0.9-0.7,1.3c-0.2,0.5-0.5,0.9-0.7,1.4c-0.2,0.3-0.3,0.7-0.5,1c-0.2,0.5-0.4,1-0.6,1.6
		c-0.1,0.4-0.3,0.7-0.4,1.1c-0.2,0.5-0.3,1-0.4,1.4c-0.1,0.4-0.2,0.8-0.3,1.3c-0.1,0.4-0.2,0.7-0.2,1.1c-0.1,0.5-0.2,1-0.3,1.6
		c0,0.3-0.1,0.6-0.1,1c0,0,0,0,0,0c0,0.6-0.1,1.2-0.1,1.8c0,0.2,0,0.4,0,0.7c0,0.1,0,0.2,0,0.3c0,0,0,3.3,0,8.4
		c-0.8,2.3-2.7,4.3-5.6,6c-1.2,0.7-2.6,1.3-4.1,1.8c-3.9,1.3-8.2,1.9-12.5,1.8c0.9-62.5,0.8-137.5-2.9-199.4
		c-6-97.6-40.5-196.2-60.1-245.4c1.8-5.7,2.3-12.1,1.3-19.3c-5.1-34.3-21.9-52.1,1.4-123c0.1-0.3,0.2-0.7,0.3-1
		c54.9,62,146,99.1,239.6,64.7c2.8-1,5-3,6.8-5.6c10.8,1.4,26.6,1.7,45.3-3.2c0.9-0.2,1.5-0.4,1.9-0.5c0,0,0,0,0,0s0,0,0,0
		c0.2-0.1,0.4-0.1,0.4-0.1c12.1-6,24.9-12.8,34.7-19.1c12.2-2.9,23.8-6.2,30.3-9c12.4-5.3,9.4-25.3-3.6-30.1c3.2-1.6,6-3.1,8.2-4.8
		c6.4-4.8,7.6-11.8,5.2-17.7l154.5-89.8c-3.5,69.5-2,163,9.9,288.3l-281.8,163.8l-0.2,56l110.2,63.6c2.6,1.5,5.4,2.4,8.4,3.1
		c9.7,1.7,23.6,1,28.7-8.8c0.3-0.8,0.5-1.7,0.5-2.6c0,0.2,0-4,0-10.2c7.2-42.6,95.5-58.4,144.7-29.7c3.5,2.1,6.6,4.3,9.3,6.6h0
		c-2.8,2.3-5.9,4.5-9.4,6.5c-18.5,10.7-43.4,15.4-67.6,14.2c-6.3-0.3-12.3,1-16.6,3.5c-1.2,0.7-2.3,1.5-3.1,2.4
		c-2.1,2.1-3.1,4.5-3,6.8c0-0.1,0-0.2,0-0.3l-0.2,56c0,3.4,2.3,6.8,6.6,9.3l110.2,63.6l316.4-183.9l0-0.1c0,0.1,0,0.1,0,0.1
		l287.5-167.1c5.2-3.1,10.2-7.6,11.6-13.7c0.2-1,0.3-2,0.4-3C1866.5,1091.3,1866.8,1033,1866.7,1035.2z M1029.7,537.1
		c15-4.1,37.2-7.6,62.5-13.9c-0.9,0.9-1.8,1.8-2.7,2.7c0,0-0.1,0.1-0.1,0.1l0,0c-7.8,8.5-11,18.1-9.4,27.5c0.6,3.6-1.6,7.2-6,9.7
		c-1.2,0.7-2.6,1.3-4.1,1.8c-8.8,3-20.1,2.2-27.3-2l-29.7-17.2c2.6-2.5,5.2-5.3,7.5-8.5C1023.4,538,1026.5,537.9,1029.7,537.1z
		 M1199.2,649.9c-0.3,1-0.4,2.1-0.5,3.3l-3.9-2.2C1196.3,650.6,1197.8,650.2,1199.2,649.9z M1323.8,990.9
		c-6.4-92.9-2.5-157.4,5.9-204.6c2.1,52.1,7.1,115,15.4,192.2L1323.8,990.9z M1228.4,450.2c-3.3,19.4-7.6,39.8-12.9,59.9
		c-12.2-5.4-26.5-8.6-41.2-9.6c-5.1-0.4-10.3-0.6-15.4-0.4C1183.2,488.4,1207.3,472.6,1228.4,450.2z M616,1402.2l-63.7,37
		c4.4-61.8,10.4-162,5.2-247.4c-0.6-10.4-1.3-20.5-2-30.3c21.2,36.8,41,74.1,50.6,110.5c9.9,37.7,14.7,85.9,16.8,134.1L616,1402.2z
		 M765.5,777.4c4.8-12.1,16.2-20.7,28.7-26.6c34.6-15.3,76.8-14.5,110.8,2.1c4.4,2.3,8.9,5.3,12.4,8.2l0,0c-2.8,2.3-5.9,4.5-9.4,6.5
		c-18.5,10.7-43.4,15.4-67.6,14.2c-6.3-0.3-12.3,1-16.6,3.5c-1.2,0.7-2.3,1.5-3.1,2.4c-2.1,2.1-3.1,4.5-3,6.8c0-0.1,0-0.2,0-0.3
		l-0.1,39.4C798.4,820.7,780,801.7,765.5,777.4z"/>
	<g id="Merger_and_Acquisition_00000129893383577129750600000000193647580093577137_">
		<path class="st1" d="M1029.7,537.1c-38.1,10.3-65.8-97.5-29.5-100.9c142.9-13.6,166.7-91.4,171-126.1
			c12.8-103.5,132-75.2,119.2,4.4C1258.3,513.3,1088.6,521.1,1029.7,537.1z"/>
		<g>
			<g>
				<path class="st2" d="M661.4,678.4c18.5-3.4,40.7-7.8,51.2-14.1c14.7-8.8,6.5-30.3-11.5-29.8c-16.7,0.5-29.2,3.5-48,6
					c-6.5,0.9-15.4,7.3-13.1,19.8C643.4,679.9,661.3,678.4,661.4,678.4z"/>
				<path class="st2" d="M660.6,728.7c18.7,1.6,35.8,2,47.9,0.1c15.3-2.3,21.6-28.9,3.8-32.4c-13.6-2.6-28.5-4.9-53.8-6
					c-6.5-0.3-12.8,6.8-14,19.5C642.8,729.8,660.5,728.7,660.6,728.7z"/>
				<path class="st2" d="M667.3,704c18.7-1.3,39.3-3.6,51-7.3c14.7-4.6,11.2-30.5-6.7-31.9c-16.6-1.3-26.6-0.2-45.6,0.2
					c-6.5,0.1-18.9,5.9-18.1,18.6C649.3,703.5,667.3,704,667.3,704z"/>
				<path class="st2" d="M646.4,662c12.6-6.3,46.5-16.2,54.7-23c13.2-11.1,4.7-28.8-5.3-27.9c-16.6,1.6-36.4,5.5-66.5,17.3
					C616.2,633.5,632.2,669.1,646.4,662z"/>
				<path class="st2" d="M630.4,628c0,0-1.9,7.6,4.8,20.5c1.3,2.5,6,6.7,9.5,9.5c2.6,2.1,4.6,4.9,6,8c1,2.4,2,4.9,3.1,7.7
					c11.7,29.7,11.6,52.5,7.8,55.1c-27.3,18.4-58.6,13.7-61.2,13.6c-2.7-0.1-21.6,5.3-37.5-20c-12.7-20.1-2.1-44.7,10.8-57.2
					C585.7,653.4,596.8,646.1,630.4,628z"/>
			</g>
			<path class="st2" d="M640.8,612.4c-47.3,14.6-63.3,36.9-78.7,68.9c-3.5,7.3-4.3,19.4,24.7,16.2c30.4-3.3,33-34.1,33-34.1
				s23-16.9,29.4-21.6C660.5,633.5,656.9,607.4,640.8,612.4z"/>
		</g>
		<g>
			<g>
				<path class="st2" d="M943.2,535.6c0,0-16,15.6-30.6,41.7c-9.5,16.9,15.4,30.9,27.7,13.4c11.9-16.9,19.8-23,33.4-29.8
					C984.4,555.7,960.7,519.1,943.2,535.6z"/>
				<path class="st3" d="M952,447.3c0,0,22.5-7.8,46.2-2.4c23.7,5.4,36.9,31.9,35.3,57.2c-1.6,25.3-19.1,46.8-33.2,52.1
					c-14.1,5.3-18.9,2.8-27,7c-8.1,4.3-32.9-10.2-33.1-45.1C940,481.3,933.3,454.1,952,447.3z"/>
				<path class="st2" d="M973.3,561.2c0.6-0.3,52.1-25.2,37-48.2c-30.2,7.4-32.5-31.3-34.8-32c-1.6-0.5-16.1-11.6-36.6,0.9
					c0.3,10,1.2,21.7,1.2,34.3C940.3,551,965.2,565.5,973.3,561.2z"/>
				<path class="st2" d="M940.6,504.1c0,0-38,17.2-57.5,57.8c-8.4,17.5,18.1,35.3,30.3,17.9c11.9-16.9,39.6-39.3,50.3-45.5
					C975.6,527.6,954.5,497.2,940.6,504.1z"/>
				<path class="st2" d="M942.3,481.5c0,0-47.3,12.9-71.8,52.2c-10.5,16.9,14.5,38.2,29.1,21.7c14-15.9,50.5-36.7,62.3-41.4
					C974.4,509.1,964.4,473.4,942.3,481.5z"/>
				<path class="st2" d="M953.6,446.9c0,0-41.9,9.4-70.1,46.2c-12.1,15.9,10.8,39.4,26.8,24.4c15.5-14.5,38.8-27.8,51.3-30.3
					C976.9,484.2,971.6,441.9,953.6,446.9z"/>
				<path class="st2" d="M961.7,487.2c-12.5,2.5-35.8,15.7-51.3,30.3c-11,10.3-25.2,2.5-29.2-8.6c2.9,2.4,6.4,3.9,10.2,4
					c5.5,0.2,10.8-2.1,15.7-4.7c14.7-7.7,18.4-15.9,37.7-22.9c4.3-1.6,4.6-7.4,0.6-9.5c-7.7-4-16.5-10.1-19.2-18.1
					c15.4-8.1,27.4-10.8,27.4-10.8C971.6,441.9,976.9,484.2,961.7,487.2z"/>
			</g>
			<path class="st3" d="M973.4,444.5c-7.6-0.3-13.7-1.1-56.7,10.4c-17.7,4.7-15.7,37.5,5.5,37.4c20.5-0.1,44.2-3.4,55.2-7.1
				C998.3,478.2,987.6,445,973.4,444.5z"/>
		</g>
		<g>
			<g>
				<path class="st4" d="M1866.7,1035.3c-0.3,5.8-4.3,10.7-8.9,14c-6.1,4-285,165.7-290.5,169c0,0-0.2,56-0.2,56l287.5-167.1
					c5.2-3.1,10.2-7.6,11.6-13.7c0.2-1,0.3-2,0.4-3C1866.5,1091.3,1866.9,1031.7,1866.7,1035.3z"/>
				<g>
					<path class="st5" d="M1854.6,1017.6c16.1,9.3,16.2,24.4,0.2,33.7l-287.5,167.1l-110.2-63.6c-7.3-4.2-8.7-10.7-3.6-15.8
						c0.9-0.9,1.9-1.7,3.1-2.4c4.3-2.5,10.4-3.8,16.6-3.5c24.2,1.3,49.1-3.5,67.6-14.2c32.8-19.1,32.8-49.9,0.2-69.1
						c-33.1-19-85.7-19.5-118.7-1.4c-0.6,0.3-1.2,0.7-1.8,1c-18.5,10.7-26.6,25.2-24.3,39.2c0.6,3.6-1.6,7.2-6,9.7
						c-1.2,0.7-2.6,1.3-4.1,1.8c-8.8,3-20.1,2.2-27.3-2l-110.2-63.6l287.5-167.1c16-9.3,42-9.3,58.1,0L1854.6,1017.6z"/>
				</g>
			</g>
			<g>
				<path class="st6" d="M1224.7,1233.7c-39-21.3-102.4-21.2-135.3,11.3c-5.1,5.5-8.9,12.5-9.6,20.1c-0.1,0.9-0.2,1.8-0.2,2.8
					c0,0-0.2,56-0.2,56c1.7-45.9,94.3-63.7,145.1-34.1c3.5,2.1,6.6,4.3,9.3,6.6c-1.9,1.6-3.9,3-5.9,4.4c-13.1,8.5-28.4,13-43.7,15.2
					c-7.6,1-15.4,1.4-23.1,1.3c-9.5-0.6-23.4-0.1-26.9,10.7c-0.1,0.5-0.2,1-0.2,1.6c0.3-1.4-0.6,61.2,0,54.7
					c2.5-9.3,14.3-11.3,22.7-11.1c31.6,1,71.8-5.6,88.9-35.3c2.5-4.9,3.4-10.3,3.2-15.8c0.1,0.8,0.1,1.6,0.1,2.4l0.2-56
					C1249.2,1255.8,1241,1243.3,1224.7,1233.7z"/>
				<g>
					<path class="st0" d="M1540.3,1049.3c33.4,19.7,33.3,50.5,0.6,69.5c-18.5,10.7-43.4,15.4-67.6,14.2c-6.3-0.3-12.3,1-16.6,3.5
						c-1.2,0.7-2.3,1.5-3.1,2.4c-5.2,5.1-3.7,11.6,3.6,15.8l110.2,63.6l-316.4,183.9l-110.2-63.6c-7.3-4.2-8.7-10.7-3.6-15.8
						c0.9-0.9,1.9-1.7,3.1-2.4c4.3-2.5,10.4-3.8,16.6-3.5c24.2,1.3,49.1-3.5,67.6-14.2c32.8-19.1,32.8-49.9,0.2-69.1
						c-33.1-19-85.7-19.5-118.7-1.4c-0.6,0.3-1.2,0.7-1.8,1c-18.5,10.7-26.6,25.2-24.3,39.2c0.6,3.6-1.6,7.2-6,9.7
						c-1.2,0.7-2.6,1.3-4.1,1.8c-8.8,3-20.1,2.2-27.3-2l-110.2-63.6l316.4-183.9L1359,1098c7.3,4.2,18.5,5,27.3,2
						c1.5-0.5,2.9-1.1,4.1-1.8c4.3-2.5,6.5-6,6-9.7c-2.3-14,5.8-28.5,24.3-39.2c0.6-0.3,1.2-0.7,1.8-1
						C1455.5,1030.3,1508.1,1030.8,1540.3,1049.3z"/>
				</g>
				<path class="st4" d="M1080,1274.3c-3.2,12.7-23.1,13-33.3,9.5c-1.4-0.5-2.8-1.1-4.1-1.9c0,0-110.2-63.6-110.2-63.6l-0.2,56
					l110.2,63.6c2.6,1.5,5.4,2.4,8.4,3.1c9.7,1.7,23.6,1,28.7-8.8c0.3-0.8,0.5-1.7,0.5-2.6C1079.7,1330.3,1080.2,1270.9,1080,1274.3
					z"/>
				<g>
					<polygon class="st1" points="1567.3,1218.3 1567.2,1274.3 1250.7,1458.2 1250.9,1402.2 					"/>
				</g>
				<path class="st4" d="M1140.8,1338.6c-4.4-2.5-6.7-5.9-6.7-9.3l-0.2,56c0,3.4,2.3,6.8,6.7,9.3l110.2,63.6l0.2-56L1140.8,1338.6z"
					/>
			</g>
			<g>
				<path class="st4" d="M908.3,1417.6c-39-21.3-102.4-21.2-135.3,11.3c-5.1,5.5-8.9,12.5-9.6,20.1c-0.1,0.9-0.2,1.8-0.2,2.8
					c0,0-0.2,56-0.2,56c-0.1,2,0.3,3.9,0.5,5.9c-2.7-21.4,12.9-35.4,30.8-43.8c34.6-15.3,76.8-14.5,110.8,2.1
					c4.4,2.3,8.9,5.3,12.4,8.2c-1.5,1.2-3,2.4-4.6,3.5c-10.8,7.4-23.3,11.9-36,14.6c-13.6,3.1-27.6,2.9-41.5,2.8
					c-6.6,0.7-14.6,3-17.3,9.6c-0.3,0.9-0.5,1.7-0.5,2.6c0,0-0.2,56-0.2,56c3.7-17.4,27.8-10.8,40.6-12.5c18.6-1.4,37.5-6,53.3-16.2
					c14.9-9,21.4-23.8,21.1-32.3c0,0,0.2-56,0.2-56C932.7,1439.7,924.6,1427.2,908.3,1417.6z"/>
				<g>
					<polygon class="st4" points="934.5,1586.1 934.3,1642.1 617.9,1826 618.1,1770 					"/>
				</g>
				<g>
					<path class="st5" d="M907.5,1417.1c33.4,19.7,33.3,50.5,0.6,69.5c-18.5,10.7-43.4,15.4-67.6,14.2c-6.3-0.3-12.3,1-16.6,3.5
						c-1.2,0.7-2.3,1.5-3.1,2.4c-5.2,5.1-3.7,11.6,3.6,15.8l110.2,63.6L618.1,1770l-110.2-63.6c-7.3-4.2-8.7-10.7-3.6-15.8
						c0.9-0.9,1.9-1.7,3.1-2.4c4.3-2.5,10.4-3.8,16.6-3.5c24.2,1.3,49.1-3.5,67.6-14.2c32.8-19.1,32.8-49.9,0.2-69.1
						c-33.1-19-85.7-19.5-118.7-1.4c-0.6,0.3-1.2,0.7-1.8,1c-18.5,10.7-26.6,25.2-24.3,39.2c0.6,3.6-1.6,7.2-6,9.7
						c-1.2,0.7-2.6,1.3-4.1,1.8c-8.8,3-20.1,2.2-27.3-2l-110.2-63.6L616,1402.2l110.2,63.6c7.3,4.2,18.5,5,27.3,2
						c1.5-0.5,2.9-1.1,4.1-1.8c4.3-2.5,6.5-6,6-9.7c-2.3-14,5.8-28.5,24.3-39.2c0.6-0.3,1.2-0.7,1.8-1
						C822.6,1398.1,875.2,1398.6,907.5,1417.1z"/>
				</g>
			</g>
			<g>
				<g>
					<path class="st0" d="M591.1,1601c33.4,19.7,33.3,50.5,0.6,69.5c-18.4,10.7-43.4,15.4-67.6,14.2c-6.3-0.3-12.3,1-16.6,3.5
						c-1.2,0.7-2.3,1.5-3.1,2.4c-5.2,5.1-3.7,11.6,3.6,15.8l110.2,63.6L330.6,1937c-16,9.3-42,9.3-58.1,0L12.3,1786.8
						c-16.1-9.3-16.2-24.4-0.2-33.7l287.5-167.1l110.2,63.6c7.3,4.2,18.5,5,27.3,2c1.5-0.5,2.9-1.1,4.1-1.8c4.3-2.5,6.5-6,6-9.7
						c-2.3-14,5.8-28.5,24.3-39.2c0.6-0.3,1.2-0.7,1.8-1C506.2,1582,558.8,1582.5,591.1,1601z"/>
				</g>
				<path class="st1" d="M330.6,1937c-16.7,9.1-38.2,9.2-55.4,1.4c-3.4-1.6-259.6-149.9-262.9-151.6c-8.1-4.7-12.1-10.8-12.1-16.9
					c0,0-0.2,56-0.2,56c0,6.1,4,12.3,12.1,16.9L272.3,1993c4.5,2.6,9.6,4.4,14.7,5.5c14.5,3,30.4,1.8,43.4-5.5
					c0,0,287.5-167.1,287.5-167.1s0.2-56,0.2-56S330.6,1937,330.6,1937z"/>
			</g>
		</g>
		<g>
			<g>
				<g>
					<g>
						<g>
							<path class="st7" d="M1144.8,1191.9c20.4,13.1,55.7,19.7,86.3-1.2c30.6-20.9,34.4-27.7,59.1-38.5
								c25.9-11.4,47.3-26.8,43.9-50.9c-3.4-24.1-6.1-24.5-9.9-42.8c-3.7-18.1-18.5-31.1-44.2-32c-25.7-0.9-44.7,15.1-47.7,26.9
								c-12.1,47.3-76.2,66.1-92.9,80.1C1122.5,1147.5,1122.2,1177.4,1144.8,1191.9z"/>
							<g>
								<path class="st8" d="M1384.8,599c15.1,93.7-96.7,74.8-54.8,462.6c5.2,47.8-111.2,39.5-114.3,8.6
									c-35-350.4,9.4-459,24.1-490.9C1274.4,489.9,1372.1,520.2,1384.8,599z"/>
							</g>
						</g>
						<g>
							<path class="st7" d="M1296.1,1279.9c20.4,13.1,55.7,19.7,86.3-1.2c30.6-20.9,34.4-27.7,59.1-38.5
								c25.9-11.4,47.3-26.8,43.9-50.9c-3.4-24.1-6.1-24.5-9.9-42.8c-3.7-18.1-18.5-31.1-44.2-32c-25.7-0.9-44.7,15.1-47.7,26.9
								c-12.1,47.3-76.2,66.1-92.9,80.1C1273.8,1235.5,1273.5,1265.4,1296.1,1279.9z"/>
							<g>
								<path class="st9" d="M1495.8,631.5c0,64.1-43.3,106.1-10.8,519.5c1.3,33.6-116.1,43.2-119.7-4.2
									c-39.5-301.9-44.6-442.9-27.7-531.6C1354.5,526.4,1495.8,551.7,1495.8,631.5z"/>
							</g>
						</g>
					</g>
					<g>
						<g>
							<g>
								<path class="st0" d="M1395.1,685.5c-47.6-12.6-169.1-74.6-165.8-87.9c4-16.1,13.6-85.5,6.7-129.6
									c-6.8-44.2-44.5-92-52.9-122.9c-14.6-53.6-4.3-77,32.8-91.4c16.9-6.6,43.2-8.7,113.5,10.6c0,0,63.9,18.2,119.6,76.1
									c2.3,2.4,4.2,4.7,5.8,7c11.5,16.5,64.2,91.6,43.5,301.6C1495.9,673.2,1442.7,698.1,1395.1,685.5z"/>
							</g>
							<path class="st1" d="M1395.1,685.5c47.5,12.6,100.8-12.3,103.2-36.6c14.5-146.8-6.9-227.7-25.1-268.7
								c-32.2,4.1-63.9,23.3-85.9,47.2c7.1,21-0.4,58-21.2,70.5c-26.5,16-95.5,18.5-132.3-40.8c0,0-0.1-0.1-0.2-0.1
								c0.9,3.7,1.7,7.3,2.3,10.9c6.8,44.2-2.7,113.6-6.7,129.6C1226,610.9,1347.6,672.9,1395.1,685.5z"/>
						</g>
						<g>
							<path class="st10" d="M1259.6,407.8c2.4,125.2-29.2,219.9-29.2,219.9l-46.9,3.1L1177,603c35.3-52.9,51.3-141.5,58.3-200.9
								c4.2-36.1,5.2-61.4,5.2-61.4l-3.2-23.2l35.5,11.5l-17.2,17.4C1257.9,367.4,1259.2,388,1259.6,407.8z"/>
							<path class="st11" d="M1230.4,627.7l-46.9,3.1L1177,603c35.3-52.9,51.3-141.5,58.3-200.9c0,0,1.8,3.3,7,4.4
								c10.6,2.4,17.3,1.3,17.3,1.3C1262,532.9,1230.4,627.7,1230.4,627.7z"/>
						</g>
						<path class="st2" d="M1321.7,233.3c0,0,4.7,13.9,8.1,22.2c2.9,7,5.4,13.6,7.2,18.9c3.9,11.7-8.2,67.5-84.3,48
							c0,0-4.6-11.9-14.1-52.8C1227.2,220.3,1305,182.1,1321.7,233.3z"/>
						<path class="st1" d="M1329.8,255.6c0,0,14.3,35.5-14.9,55.6c-31.3,21.5-62.1,11.3-62.1,11.3l9.7,45.5c0,0,74.5,12.6,96.7-54.6
							C1371.7,274.9,1329.8,255.6,1329.8,255.6z"/>
						<path class="st1" d="M1252.7,322.4l-24.3,25.8c0,0-11.4-27.3,12.1-71.7C1240.5,276.5,1251.3,314.1,1252.7,322.4z"/>
					</g>
				</g>
				<g>
					<path class="st3" d="M1139.6,130.2c0,0-1.6,25.8,1.4,73.1c2,30.1,9.6,78.7,39.7,91.3c43.3,18.2,117.8-24.3,149.7-59.4
						s43-69.5,43-113.5c0-49-53.1-112.1-128.9-112.1C1161,9.6,1136,104.3,1139.6,130.2z"/>
					<path class="st9" d="M1378.9,157.7c-3.7,29.1-35.9,79.6-66.4,94.2c0,0,8-25.2-13.8-25.2c-4.7,0-16.3,2.9-16.3-5.3l-0.1-41.2
						c1-11.4-0.1-24.7-18.7-24.7c-18.2,0-40.6,2.3-94.7-17.8c-64.1-23.8-48.1-69.5-38.1-79.5c17.8-17.8,34.5-14.8,34.5-14.8
						S1194.6,0,1242.7,0c88.3,0,125,59.3,124.2,76.3C1382.7,90,1382.8,127.5,1378.9,157.7z"/>
					<path class="st8" d="M1124.9,67.7c-7.3,17.5-7.7,50.9,44,70.1c54.1,20,76.5,17.8,94.7,17.8c18.6,0,19.7,13.3,18.7,24.7
						l0.1,41.2c0,8.2,11.6,5.3,16.3,5.3c21.8,0,13.8,25.2,13.8,25.2c30.5-14.7,62.7-65.1,66.4-94.2c2.3-18,3.2-38.6,0.2-55.2
						c-0.7,4.1-1.7,8.1-3.1,12c-6.2,16.8-23,31.1-40.6,28.3c-14.1-2.2-24.5-14.2-37.4-20.4c-22.1-10.7-48.2-3.5-72.8-3.4
						C1186.2,119.3,1148,99,1124.9,67.7z"/>
					<path class="st3" d="M1296.5,204.5l-0.6,39.9c-0.2,4.9,4,7.3,8,5.7c11.7-4.7,29.8-22.1,32.7-35.4c4.8-22.4-3.3-34.7-23.9-32.6
						C1298.6,183.6,1296.8,193.9,1296.5,204.5z"/>
				</g>
			</g>
			<g>
				<g>
					<path class="st12" d="M1157.3,238.1c-1.5-0.9-2.8-0.2-2.8,1.6l0,1.6c0,13.1,9.2,29,20.5,35.5s20.6,1.3,20.7-11.8l0-1.6
						c0-1.8-1.2-4-2.8-4.9L1157.3,238.1z"/>
				</g>
				<g>
					<path class="st12" d="M1208,200c-3.7-2.2-7.5-3.6-11.1-4.2c-2.7-0.5-3.9,1.8-2.9,4.4c0.7,1.9,2.2,3.6,3.7,4.4
						c0.5,0.3,1.1,0.5,1.6,0.6c2.8,0.5,5.7,1.6,8.6,3.3c2.9,1.7,5.8,3.9,8.6,6.6c0.5,0.5,1.1,0.9,1.6,1.2c1.5,0.9,3,0.9,3.7-0.2
						c1-1.5-0.2-5.1-2.8-7.7C1215.5,205,1211.8,202.2,1208,200z"/>
				</g>
				<g>
					<path class="st12" d="M1207.3,221.9c-3.5-2-6.4,2.9-6.4,10.9c0,8.1,2.8,16.2,6.3,18.3c3.5,2,6.4-2.9,6.4-10.9
						C1213.6,232.1,1210.8,223.9,1207.3,221.9z"/>
				</g>
				<g>
					<path class="st12" d="M1146.3,164.4c-3.7-2.2-7.5-3.6-11.1-4.2c-2.7-0.5-3.9,1.8-2.9,4.4c0.7,1.9,2.2,3.5,3.7,4.4
						c0.5,0.3,1.1,0.5,1.6,0.6c2.8,0.5,5.7,1.6,8.6,3.3c2.9,1.7,5.8,3.9,8.6,6.6c0.5,0.5,1.1,0.9,1.6,1.2c1.5,0.9,3,0.9,3.7-0.1
						c1-1.5-0.2-5.1-2.8-7.7C1153.8,169.4,1150,166.5,1146.3,164.4z"/>
				</g>
				<g>
					<path class="st12" d="M1146.9,187c-3.5-2-6.4,2.9-6.4,10.9c0,8.1,2.8,16.2,6.3,18.3c3.5,2,6.4-2.9,6.4-10.9
						C1153.3,197.2,1150.4,189.1,1146.9,187z"/>
				</g>
			</g>
		</g>
		<g>
			<path class="st13" d="M908.3,698.6c-39-21.3-102.4-21.2-135.3,11.3c-5.1,5.5-8.9,12.5-9.6,20.1c-0.1,0.9-0.2,1.8-0.2,2.8
				c0,0-0.2,56-0.2,56c-0.1,2,0.3,3.9,0.5,5.9c-2.7-21.4,12.9-35.4,30.8-43.8c34.6-15.3,76.8-14.5,110.8,2.1
				c4.4,2.3,8.9,5.3,12.4,8.2c-1,0.9-2.1,1.7-3.2,2.5c-10.4,7.5-22.5,12.2-35,15c-14,3.4-28.4,3.6-42.7,3.3
				c-6.9,0.5-15.5,2.7-18.5,9.7c-0.3,0.9-0.5,1.7-0.5,2.6c0,0-0.2,56-0.2,56c3.7-17.4,27.8-10.8,40.6-12.5
				c18.6-1.4,37.5-6,53.3-16.2c14.9-9,21.4-23.8,21.1-32.3c0,0,0.2-56,0.2-56C932.7,720.7,924.6,708.2,908.3,698.6z"/>
			<g>
				<path class="st11" d="M763.6,739.3c-3.2,12.7-23.1,13-33.3,9.5c-1.4-0.5-2.8-1.1-4.1-1.9c0,0-110.2-63.6-110.2-63.6
					s-0.2,56-0.2,56S726,802.8,726,802.8c2.7,1.5,5.7,2.6,8.8,3.1c9.6,1.6,23.3,0.8,28.2-8.9c0.3-0.8,0.5-1.7,0.5-2.6
					C763.3,795.2,763.8,735.9,763.6,739.3z"/>
				<path class="st11" d="M824.3,803.6c-4.4-2.5-6.7-5.9-6.6-9.3l-0.2,56c0,3.4,2.3,6.8,6.7,9.3l110.2,63.6l0.2-56L824.3,803.6z"/>
				<g>
					<polygon class="st11" points="1250.9,683.3 1250.7,739.2 934.3,923.1 934.5,867.2 					"/>
				</g>
			</g>
			<path class="st13" d="M1224.7,514.7c-39-21.3-102.4-21.2-135.3,11.3c-5.1,5.5-8.9,12.5-9.6,20.1c-0.1,0.9-0.2,1.8-0.2,2.8
				c0,0-0.2,56-0.2,56c-0.1,2,0.3,3.9,0.5,5.9c-2.7-21.4,12.9-35.4,30.8-43.8c34.6-15.3,76.8-14.5,110.8,2.1
				c4.4,2.3,8.9,5.3,12.4,8.2c-1.5,1.2-3,2.4-4.6,3.5c-10.8,7.4-23.3,11.9-36,14.6c-13.6,3.1-27.6,2.9-41.5,2.8
				c-6.6,0.7-14.6,3-17.3,9.6c-0.3,0.9-0.5,1.7-0.5,2.6c0,0-0.2,56-0.2,56c3.7-17.4,27.8-10.8,40.6-12.5c18.6-1.4,37.5-6,53.3-16.2
				c14.9-9,21.4-23.8,21.1-32.3c0,0,0.2-56,0.2-56C1249.2,536.8,1241,524.3,1224.7,514.7z"/>
			<g>
				<path class="st10" d="M1223.9,514.3c33.4,19.7,33.3,50.5,0.6,69.5c-18.5,10.7-43.4,15.4-67.6,14.2c-6.3-0.3-12.3,1-16.6,3.5
					c-1.2,0.7-2.3,1.5-3.1,2.4c-5.2,5.1-3.7,11.6,3.6,15.8l110.2,63.6L934.5,867.2l-110.2-63.6c-7.3-4.2-8.7-10.7-3.6-15.8
					c0.9-0.9,1.9-1.7,3.1-2.4c4.3-2.5,10.4-3.8,16.6-3.5c24.2,1.3,49.1-3.5,67.6-14.2c32.8-19.1,32.8-49.9,0.2-69.1
					c-33.1-19-85.7-19.5-118.7-1.4c-0.6,0.3-1.2,0.7-1.8,1c-18.5,10.7-26.6,25.2-24.3,39.2c0.6,3.6-1.6,7.2-6,9.7
					c-1.2,0.7-2.6,1.3-4.1,1.8c-8.8,3-20.1,2.2-27.3-2L616,683.3l316.4-183.9l110.2,63.6c7.3,4.2,18.5,5,27.3,2
					c1.5-0.5,2.9-1.1,4.1-1.8c4.3-2.5,6.5-6,6-9.7c-2.3-14,5.8-28.5,24.3-39.2c0.6-0.3,1.2-0.7,1.8-1
					C1139,495.3,1191.7,495.8,1223.9,514.3z"/>
			</g>
		</g>
		<g>
			<g>
				<path class="st7" d="M623.8,1526.9c-30,21.5-54.3,24.8-77.8,40.4c-23.5,15.6-57.2,40.2-96.8,16.1c-36.2-22-16.3-54.4-11.5-78
					c5.1-25.2,15.6-37.9,39.4-42.3c26.2-4.8,40.1,1.7,61-4.2c20.9-5.9,41.8-35.9,81.2-15.4C664.3,1467,645.4,1511.4,623.8,1526.9z"
					/>
				<g>
					<path class="st9" d="M430.6,1176.2c32.8,146.7,12.1,238.4,7.9,318.6c-1.3,25.5,39.7,35.7,72,30.4c20.7-3.4,37.9-13.3,37.9-29.6
						c0-19.3,16.7-177.7,9-303.7c-8.4-137.8-24.5-226.9-24.5-226.9c-1.9-6.6-3.9-12.8-6-18.6c-28.3-75.5-81-81.3-110.2-12.7
						C379.4,1021.2,406.8,1069.6,430.6,1176.2z"/>
					<path class="st8" d="M510.6,1525.1c20.7-3.4,37.9-13.3,37.9-29.6c0-19.3,16.7-177.7,9-303.7c-8.4-137.8-24.5-226.9-24.5-226.9
						c-1.9-6.6-3.9-12.8-6-18.6c-11.7,3.5-36.9,17.4-42.5,71.4c0,0,3.7,45.2,28.7,108.8C533.4,1178.1,517.3,1431.3,510.6,1525.1z"/>
				</g>
			</g>
			<g>
				<path class="st7" d="M810.3,1635.2c-30,21.5-54.3,24.8-77.8,40.4c-23.5,15.6-57.2,40.2-96.8,16.1c-36.2-22-16.3-54.4-11.5-78
					c5.1-25.2,15.6-37.9,39.4-42.3c26.2-4.8,40.1,1.7,61-4.2c20.9-5.9,41.8-35.9,81.2-15.4C850.7,1575.2,831.9,1619.7,810.3,1635.2z
					"/>
				<path class="st9" d="M664.3,992.7c0,0,65.3,139.7,73.7,277.5c7.7,126,0,306.1,0,325.4c0,53.2-116.5,38.3-116.5,11.5
					c0-41.9,12.3-229.4-15.5-335.1s-142.6-219.6-123.6-305.6C499.6,888.1,623.8,881.7,664.3,992.7z"/>
			</g>
			<g>
				<path class="st0" d="M590.7,1055c7.3,1.3,13.4,2,18,2c45.6-0.1,75.6-17.1,70.5-51.4c-5.1-34.3-21.9-52.1,1.4-123
					c10-30.4,29.4-66.6,42.9-101.1c17.9-45.8,25.3-88.7-13.6-111.2L574,591.8c-28.1-16.2-69.3-9-92.5,13.7
					c-24,23.6-43.8,58.8-50.9,116.5c-14.4,117.3-14.2,188.7-20,210.2C394.8,990.5,531.1,1044,590.7,1055z"/>
				<path class="st1" d="M590.7,1055c7.3,1.3,13.4,2,18,2c45.6-0.1,75.6-17.1,70.5-51.4c-5.1-34.3-21.9-52.1,1.4-123
					c10-30.4,29.4-66.6,42.9-101.1l-1.8-52.1c0,0-61.6-21.4-80.4,32.8c0,0-19.5,89.1-7.3,210C637.7,1008.8,643.8,1036.2,590.7,1055z
					"/>
			</g>
			<g>
				<path class="st1" d="M663.1,643.3c-9.9,5.6-62.4,30-103.8-5.8c-3.9-3.4-23.9-21.9,2.4-50.4c0.1,0.1,0.9-0.3,2.2-1.1L663.1,643.3
					z"/>
				<g>
					<path class="st3" d="M589.3,644.8c22.8,7.1,51,4.6,60.6-9.2c0,0-2.4-18.6,4.1-55.8c5.1-29.2-73.4-49.6-83.7-22.5
						c0,0,1.4,17.3-9,38.1C548.6,620.6,566.2,637.6,589.3,644.8z"/>
					<path class="st2" d="M616.2,642c-7.2,1.6-16.1,2.7-26.9,2.8c22.8,7.1,51,4.6,60.6-9.2c0,0-2.4-18.6,4.1-55.8
						c5.1-29.2-73.4-49.6-83.7-22.5c0,0,9.9,18.7,47.7,35.3C636.6,600.9,629.6,639,616.2,642z"/>
				</g>
				<g>
					<path class="st3" d="M750.1,415.2c0,0,0.2,165.8-50.7,180.9c-18.1,5.4-73.8,17.3-148.2-40.7c-74.4-57.9-55.7-218.4,73.9-224.8
						S752.2,399.4,750.1,415.2z"/>
					<path class="st10" d="M771,397.2c-0.1,6.5-1.8,13.1-5.4,19.1c-6.4,10.7-15.3,17.4-23.7,21.5c-15.1,7.4-24.9,23.8-24.8,41.9
						l-4.2,31.7c0,11.4-12.5,14-12.5,4.8c0-13.3-6-37.5-23.2-24.3c-14.5,11.1-15.8,25-9.2,40.5c0,0.1,0.1,0.2,0.1,0.3
						c5.3,12.3,4.7,26.4-2,38c-5.1,8.8-11.9,17-20.1,18.8c-23.4,5-41.2,6.4-74.3-14.2c-39.8-24.7-86.8-79.1-71.4-145.8
						c5.4-23.3,18.4-48.1,42.1-73.7c0,0,14.1-33.8,100.7-35.3c52.3-0.9,80,22,88.5,30.4c2.4,2.3,5,4.3,8,5.8c2,1,4.4,2.1,7.1,3.2
						C762.1,366.1,771.3,381.5,771,397.2z"/>
					<path class="st11" d="M771,397.2c-0.1,6.5-1.8,13.1-5.4,19.1c-6.4,10.7-15.3,17.4-23.7,21.5c-15.1,7.4-24.9,23.8-24.8,41.9
						l-4.2,31.7c0,11.4-12.5,14-12.5,4.8c0-13.3-6-37.5-23.2-24.3c-14.5,11.1-15.8,25-9.2,40.5c0,0.1,0.1,0.2,0.1,0.3
						c5.3,12.3,4.7,26.4-2,38c-5.1,8.8-11.9,17-20.1,18.8c-23.4,5-41.2,6.4-74.3-14.2c-39.8-24.7-86.8-79.1-71.4-145.8
						c1.8-7.7,4.4-15.5,7.9-23.5c-0.6,33.7,20.4,47,34.3,51.5c16.2,5.1,35,3.8,51.8,6.2c11,1.6,23.3,1.8,34.4,0.8
						c9-0.8,20.3-3,28.5-7c15.5-7.7,21-24.3,33.7-35.2c19.5-16.7,43.5-10.7,66.3-18.5C761.9,402.2,766.7,400,771,397.2z"/>
				</g>
				<path class="st0" d="M566.6,582.1c0,0-4.7,15.7,17.1,26.7c35.8,18,66.2,3.5,66.2,3.5l14,27.9c0,0-51.4,32.3-97.9-3.8
					C533.2,610.9,566.6,582.1,566.6,582.1z"/>
			</g>
		</g>
		<g>
			<g>
				<path class="st2" d="M971.4,794.3c-45,20.6-68.1,54.2-77.9,73.4c-3.7,7.2,7,25,35.5,18c29.7-7.3,28.3-38.1,28.3-38.1
					s20.6-19.8,26.4-25.3C993.7,812.7,986.7,787.3,971.4,794.3z"/>
				<path class="st14" d="M974.9,936.7c16.8-8.3,35-18.3,44.4-26.1c11.9-9.9-1.2-32.5-18.3-27c-15.9,5.1-24.7,9.9-42.1,17.5
					c-6,2.6-15.2,12.6-9.6,24.1C958,943.1,974.9,936.8,974.9,936.7z"/>
				<path class="st14" d="M983.6,923c18.5-3.1,45-9.5,56.3-14.3c14.2-6.1,8.2-31.4-9.8-31.1c-16.7,0.3-26.5,2.4-45.4,4.7
					c-6.5,0.8-21.3,11.3-19.2,23.9C968.8,925.8,983.5,923,983.6,923z"/>
				<path class="st2" d="M995,892.8c18-5.2,39.7-11.8,49.5-19.1c13.8-10.2,3.5-30.8-14.4-28.5c-16.5,2.1-28.7,6.3-47.2,10.6
					c-6.3,1.5-14.6,8.7-11.1,21C977.2,896.1,994.9,892.9,995,892.8z"/>
				<path class="st15" d="M977.9,832.9c0,0,5.6,15.6,9.5,51.5c3.4,31.7-8.4,51.2-12.9,52.5c-34.6,9.6-59.8,1.5-62.2,0.3
					c-2.4-1.2-25.5-3.6-30-33.2c-3.6-23.5,15.1-48.7,31.8-55C930.1,843,977.9,832.9,977.9,832.9z"/>
				<path class="st15" d="M986.3,871.4c17.7-6.2,45.1-17.1,54.5-24.9c13.2-11-2.4-27.4-15-26c-16.6,1.9-30,7.1-48.3,12.5
					c-6.3,1.8-13.3,8.7-9.2,20.7C974.8,872.7,986.2,871.5,986.3,871.4z"/>
			</g>
			<path class="st0" d="M920.5,946.2c27.6-10.2,3.6-109.4-24.8-97.6c-49.3,20.5-132.8-34.4-155.1-134
				c-19.4-86.9-118.9-15.2-111.2,56.5C641.7,885.7,778.3,998.6,920.5,946.2z"/>
		</g>
		<path class="st0" d="M1349.9,726.4c-27.5,25.5-80.3-63.9-53.4-88.5c98.6-90.4,72.9-205.8,72.5-240.7
			c-1.2-104.2,106.8-75.7,108.6,4.9C1482.5,626.5,1391.6,687.7,1349.9,726.4z"/>
		<g>
			<path class="st2" d="M1208.9,641.1c48.2-7.2,79.3,7.9,96.2,14.7c7.4,3-0.7,22.9-18.6,32.1c-17.9,9.2-36.9-9.1-36.9-9.1
				s-30.7-5-38.4-6.4C1197.7,669.8,1192.5,643.6,1208.9,641.1z"/>
			<g>
				<path class="st14" d="M1291.5,761.7c-16.1,9.2-34.2,18.6-45.7,21.9c-14.6,4.2-22.1-13.7-8.2-24.7c12.9-10.2,21.7-14.7,37.5-24.8
					c5.4-3.5,16.9-6.5,23.2,4.4C1308,755.5,1291.5,761.6,1291.5,761.7z"/>
				<path class="st2" d="M1269.5,752.3c-16.5,8.4-35,16.9-46.8,19.7c-14.8,3.5-25.9-21.6-10.5-30.4c14.2-8.1,23.5-10.8,39.8-20.1
					c5.6-3.2,18.7-5.6,24.4,5.6C1285.4,744.6,1269.6,752.2,1269.5,752.3z"/>
				<path class="st2" d="M1254.1,726.2c-17.3,6.5-38.3,14-50.4,14c-16.9,0-20-19.4-4.5-28.1c14.3-8,26.6-12.4,43.8-19.9
					c5.9-2.6,17.4-1.5,21.9,10.3C1271.9,720.9,1254.2,726.2,1254.1,726.2z"/>
				<path class="st15" d="M1249.6,702.5c-17.8,5-37.9,10.2-49.8,11.5c-16.9,1.9-20.4-24.2-7.5-30.1c14.9-6.9,31.7-12.3,49.4-18.3
					c6.1-2.1,15.7-0.6,19.1,11.5C1266.2,696.1,1249.7,702.5,1249.6,702.5z"/>
				<path class="st15" d="M1255.7,730.2c-25.7-44.9-21.8-63-11.8-65.1c31.7-6.6,59.9-9.7,62.5-9.1c18.9,4.4,31.3,29,28.1,56.8
					c-2.6,23.2-25.3,41.5-48.6,51.9C1279.3,767.6,1268.5,752.6,1255.7,730.2z"/>
			</g>
		</g>
	</g>
</g>
</svg>
