<?xml version="1.0" encoding="utf-8"?>
<!-- Generator: Adobe Illustrator 26.2.1, SVG Export Plug-In . SVG Version: 6.00 Build 0)  -->
<svg version="1.1" id="Outline" xmlns="http://www.w3.org/2000/svg" xmlns:xlink="http://www.w3.org/1999/xlink" x="0px" y="0px"
	 viewBox="0 0 48 48" style="enable-background:new 0 0 48 48;" xml:space="preserve">
<style type="text/css">
	.st0{fill:#FF3F75;}
	.st1{fill:url(#SVGID_1_);}
	.st2{fill:url(#SVGID_00000136413245939709875700000002182228965926639034_);}
	.st3{fill:url(#SVGID_00000031202488644682967530000017016183762372317077_);}
	.st4{fill:url(#SVGID_00000126316727868657183250000010095660323597802680_);}
</style>
<g>
	<path class="st0" d="M20.62,20.62c-0.55,0-1-0.45-1-1c0-0.41-0.34-0.75-0.75-0.75s-0.75,0.34-0.75,0.75c0,1.38,1.12,2.5,2.5,2.5
		s2.5-1.12,2.5-2.5c0-0.68-0.27-1.3-0.72-1.75c0.44-0.45,0.72-1.07,0.72-1.75c0-1.38-1.12-2.5-2.5-2.5s-2.5,1.12-2.5,2.5
		c0,0.41,0.34,0.75,0.75,0.75s0.75-0.34,0.75-0.75c0-0.55,0.45-1,1-1s1,0.45,1,1s-0.45,1-1,1c-0.41,0-0.75,0.34-0.75,0.75
		s0.34,0.75,0.75,0.75c0.55,0,1,0.45,1,1S21.18,20.62,20.62,20.62z"/>
	<path class="st0" d="M27.12,22.12c1.52,0,2.75-1.23,2.75-2.75v-3c0-1.52-1.23-2.75-2.75-2.75s-2.75,1.23-2.75,2.75v3
		C24.38,20.89,25.61,22.12,27.12,22.12z M25.88,16.38c0-0.69,0.56-1.25,1.25-1.25s1.25,0.56,1.25,1.25v3c0,0.69-0.56,1.25-1.25,1.25
		s-1.25-0.56-1.25-1.25V16.38z"/>
	<path class="st0" d="M15,33.5h18c0.41,0,0.75-0.34,0.75-0.75S33.41,32,33,32H15c-0.41,0-0.75,0.34-0.75,0.75S14.59,33.5,15,33.5z"
		/>
	<linearGradient id="SVGID_1_" gradientUnits="userSpaceOnUse" x1="12.8196" y1="7.6677" x2="35.0802" y2="7.6677">
		<stop  offset="0" style="stop-color:#CCE0F4"/>
		<stop  offset="0.0641" style="stop-color:#C3DCF2"/>
		<stop  offset="0.1706" style="stop-color:#A9D2EE"/>
		<stop  offset="0.3066" style="stop-color:#80C2E7"/>
		<stop  offset="0.4649" style="stop-color:#47ACDE"/>
		<stop  offset="0.5674" style="stop-color:#1E9CD7"/>
		<stop  offset="0.8652" style="stop-color:#0075BE"/>
		<stop  offset="0.9944" style="stop-color:#005B97"/>
	</linearGradient>
	<path class="st1" d="M14.01,9.95c3.02-2.16,6.56-3.29,10.29-3.2c3.45,0.06,6.77,1.15,9.6,3.13c0.34,0.24,0.81,0.16,1.04-0.18
		c0.24-0.34,0.16-0.81-0.18-1.04c-3.08-2.16-6.69-3.34-10.44-3.41c-0.11,0-0.23,0-0.34,0c-3.92,0-7.66,1.2-10.85,3.48
		c-0.34,0.24-0.41,0.71-0.17,1.05C13.2,10.11,13.67,10.19,14.01,9.95z"/>
	
		<linearGradient id="SVGID_00000094581812061983576490000018042785834136698504_" gradientUnits="userSpaceOnUse" x1="5.2476" y1="25.0524" x2="12.2345" y2="25.0524">
		<stop  offset="0" style="stop-color:#CCE0F4"/>
		<stop  offset="0.0641" style="stop-color:#C3DCF2"/>
		<stop  offset="0.1706" style="stop-color:#A9D2EE"/>
		<stop  offset="0.3066" style="stop-color:#80C2E7"/>
		<stop  offset="0.4649" style="stop-color:#47ACDE"/>
		<stop  offset="0.5674" style="stop-color:#1E9CD7"/>
		<stop  offset="0.8652" style="stop-color:#0075BE"/>
		<stop  offset="0.9944" style="stop-color:#005B97"/>
	</linearGradient>
	<path style="fill:url(#SVGID_00000094581812061983576490000018042785834136698504_);" d="M11.58,31.58
		c-0.4-0.05-0.79,0.24-0.84,0.65c0,0-0.18,1.37-0.32,2.39C8,31.51,6.69,27.65,6.75,23.7c0.06-3.5,1.17-6.85,3.2-9.7
		c0.24-0.34,0.16-0.81-0.17-1.05c-0.13-0.09-0.28-0.14-0.44-0.14c-0.23,0-0.46,0.11-0.61,0.31c-2.21,3.09-3.41,6.74-3.48,10.54
		c-0.07,4.3,1.36,8.5,4.01,11.88l-2.43-0.32c-0.42-0.06-0.79,0.23-0.84,0.65c-0.05,0.41,0.23,0.79,0.65,0.84
		c0,0,4.19,0.56,4.21,0.56c0.4,0.05,0.79-0.24,0.84-0.65l0.56-4.21C12.28,32.02,11.99,31.64,11.58,31.58z"/>
	
		<linearGradient id="SVGID_00000162338793466526972110000009987932911180065199_" gradientUnits="userSpaceOnUse" x1="10.522" y1="11.2722" x2="12.022" y2="11.2722">
		<stop  offset="0" style="stop-color:#CCE0F4"/>
		<stop  offset="0.0641" style="stop-color:#C3DCF2"/>
		<stop  offset="0.1706" style="stop-color:#A9D2EE"/>
		<stop  offset="0.3066" style="stop-color:#80C2E7"/>
		<stop  offset="0.4649" style="stop-color:#47ACDE"/>
		<stop  offset="0.5674" style="stop-color:#1E9CD7"/>
		<stop  offset="0.8652" style="stop-color:#0075BE"/>
		<stop  offset="0.9944" style="stop-color:#005B97"/>
	</linearGradient>
	<circle style="fill:url(#SVGID_00000162338793466526972110000009987932911180065199_);" cx="11.27" cy="11.27" r="0.75"/>
	<path class="st0" d="M17.5,27.25v-1c0-1.52-1.23-2.75-2.75-2.75h-1c-0.41,0-0.75,0.34-0.75,0.75v5c0,0.41,0.34,0.75,0.75,0.75h1
		C16.27,30,17.5,28.77,17.5,27.25z M14.5,25h0.25c0.69,0,1.25,0.56,1.25,1.25v1c0,0.69-0.56,1.25-1.25,1.25H14.5V25z"/>
	<path class="st0" d="M20.55,23.97l-2,5c-0.15,0.38,0.03,0.82,0.42,0.97c0.38,0.15,0.82-0.03,0.97-0.42l0.23-0.57h2.15
		c0,0,0.23,0.57,0.23,0.57c0.15,0.39,0.59,0.57,0.97,0.42c0.38-0.15,0.57-0.59,0.42-0.97l-2-5C21.72,23.4,20.78,23.4,20.55,23.97z
		 M20.77,27.46l0.48-1.19l0.48,1.19H20.77z"/>
	<path class="st0" d="M24.16,24.72L26,27.01v2.24c0,0.41,0.34,0.75,0.75,0.75s0.75-0.34,0.75-0.75v-2.24l1.84-2.29
		c0.26-0.32,0.21-0.8-0.12-1.05c-0.32-0.26-0.79-0.21-1.05,0.12l-1.41,1.77l-1.41-1.77c-0.26-0.32-0.73-0.38-1.05-0.12
		C23.96,23.92,23.91,24.4,24.16,24.72z"/>
	<path class="st0" d="M32.41,25h1.84c0.41,0,0.75-0.34,0.75-0.75s-0.34-0.75-0.75-0.75h-1.84c-1.05,0-1.91,0.86-1.91,1.91
		c0,0.82,0.53,1.55,1.31,1.81l1.41,0.47c0.17,0.06,0.28,0.21,0.28,0.39c0,0.23-0.18,0.41-0.41,0.41h-1.84
		c-0.41,0-0.75,0.34-0.75,0.75S30.84,30,31.25,30h1.84c1.05,0,1.91-0.86,1.91-1.91c0-0.82-0.53-1.55-1.31-1.81l-1.41-0.47
		C32.11,25.75,32,25.59,32,25.41C32,25.18,32.18,25,32.41,25z"/>
	
		<linearGradient id="SVGID_00000134214608405573376610000016117665008653168047_" gradientUnits="userSpaceOnUse" x1="12.9198" y1="26.7344" x2="42.7523" y2="26.7344">
		<stop  offset="0" style="stop-color:#CCE0F4"/>
		<stop  offset="0.0641" style="stop-color:#C3DCF2"/>
		<stop  offset="0.1706" style="stop-color:#A9D2EE"/>
		<stop  offset="0.3066" style="stop-color:#80C2E7"/>
		<stop  offset="0.4649" style="stop-color:#47ACDE"/>
		<stop  offset="0.5674" style="stop-color:#1E9CD7"/>
		<stop  offset="0.8652" style="stop-color:#0075BE"/>
		<stop  offset="0.9944" style="stop-color:#005B97"/>
	</linearGradient>
	<path style="fill:url(#SVGID_00000134214608405573376610000016117665008653168047_);" d="M38.74,12.44l2.43,0.32
		c0.4,0.05,0.79-0.23,0.84-0.64c0.05-0.41-0.23-0.79-0.64-0.84l-4.21-0.56c-0.41-0.05-0.79,0.23-0.84,0.64l-0.56,4.21
		c-0.05,0.41,0.23,0.79,0.64,0.84c0.4,0.05,0.79-0.24,0.84-0.65l0.32-2.39c2.43,3.1,3.74,6.96,3.67,10.91
		c-0.17,9.51-8.04,17.12-17.55,16.95c-3.45-0.06-6.77-1.15-9.6-3.13c-0.34-0.24-0.81-0.16-1.04,0.18c-0.24,0.34-0.16,0.81,0.18,1.04
		c3.08,2.16,6.69,3.33,10.44,3.41c0.11,0,0.22,0,0.33,0c10.18,0,18.56-8.2,18.75-18.43C42.82,20.02,41.39,15.82,38.74,12.44z"/>
</g>
</svg>
