<svg xmlns="http://www.w3.org/2000/svg" id="Layer_1" x="0" y="0" version="1.1" viewBox="0 0 48 48" xml:space="preserve"><circle cx="28" cy="28" r="19" fill="#a5d6a7"/><polyline fill="none" stroke="#18193f" stroke-linecap="round" stroke-linejoin="round" stroke-width="3" points="12.5,15.5 6.5,15.5 6.5,9.5"/><path fill="none" stroke="#18193f" stroke-linecap="round" stroke-width="3" d="M18.6,30c0.4,1.7,2,3,3.9,3h2.3c2.6,0,4.8-2.1,4.8-4.8l0,0c0-2.6-2.1-4.8-4.8-4.8h-2c-2.3,0-4.3-1.9-4.3-4.3	l0,0c0-2.3,1.9-4.3,4.3-4.3h1.8c1.8,0,3.4,1.3,3.9,3"/><line x1="23.5" x2="23.5" y1="12.5" y2="15" fill="none" stroke="#18193f" stroke-linecap="round" stroke-width="3"/><line x1="23.5" x2="23.5" y1="35.5" y2="33.3" fill="none" stroke="#18193f" stroke-linecap="round" stroke-width="3"/><path fill="none" stroke="#18193f" stroke-linecap="round" stroke-linejoin="round" stroke-width="3" d="M34.8,39c-2.9,2.1-6.4,3.4-10.3,3.5"/><path fill="none" stroke="#18193f" stroke-linecap="round" stroke-linejoin="round" stroke-width="3" d="M7.6,15.4c3.1-5.9,9.3-9.9,16.4-9.9c10.2,0,18.5,8.3,18.5,18.5c0,3.9-1.2,7.4-3.2,10.4"/><path fill="#18193f" d="M18.1,43.1c-0.8-0.3-1.2-1.1-1-1.9l0,0c0.3-0.8,1.1-1.2,1.9-1l0,0c0.8,0.2,1.2,1.1,1,1.9l0,0	c-0.2,0.7-0.8,1.1-1.4,1.1l0,0C18.4,43.2,18.3,43.2,18.1,43.1z M12.3,40.2C12.3,40.2,12.3,40.2,12.3,40.2L12.3,40.2	c-0.7-0.5-0.8-1.4-0.3-2.1l0,0c0.5-0.7,1.4-0.8,2.1-0.3l0,0c0.7,0.5,0.8,1.4,0.3,2.1l0,0c-0.3,0.4-0.8,0.6-1.2,0.6l0,0	C12.9,40.5,12.6,40.4,12.3,40.2z M7.8,35.7L7.8,35.7L7.8,35.7c-0.5-0.7-0.3-1.6,0.3-2.1l0,0c0.7-0.5,1.6-0.3,2.1,0.3l0,0	c0.5,0.7,0.3,1.6-0.3,2.1l0,0c-0.3,0.2-0.6,0.3-0.9,0.3l0,0C8.5,36.3,8.1,36.1,7.8,35.7z M4.9,29.9L4.9,29.9L4.9,29.9	c-0.2-0.8,0.2-1.6,1-1.9l0,0c0.8-0.3,1.6,0.2,1.9,1l0,0c0.2,0.8-0.2,1.6-1,1.9l0,0c-0.2,0-0.3,0.1-0.4,0.1l0,0	C5.7,31,5.1,30.5,4.9,29.9z M5.5,25C4.6,25,4,24.3,4,23.5l0,0C4,22.7,4.7,22,5.5,22l0,0c0.8,0,1.5,0.7,1.5,1.5l0,0	C7,24.4,6.3,25,5.5,25L5.5,25C5.5,25,5.5,25,5.5,25z"/></svg>