<?xml version="1.0" encoding="utf-8"?>
<!-- Generator: Adobe Illustrator 26.2.1, SVG Export Plug-In . SVG Version: 6.00 Build 0)  -->
<svg version="1.1" id="Layer_1" xmlns="http://www.w3.org/2000/svg" xmlns:xlink="http://www.w3.org/1999/xlink" x="0px" y="0px"
	 viewBox="0 0 717.7 430.7" style="enable-background:new 0 0 717.7 430.7;" xml:space="preserve">
<style type="text/css">
	.st0{fill:#F2F2F2;}
	.st1{fill:#FFFFFF;}
	.st2{fill:#41BFED;}
	.st3{fill:#CCCCCC;}
</style>
<path class="st0" d="M120.4,410c-1.5,0.1-2.9-1.1-2.9-2.7c0-0.8,0.3-1.6,0.9-2.2l0.2-0.8c0-0.1-0.1-0.1-0.1-0.2
	c-1.6-3.8-6-5.6-9.9-4c-1.8,0.8-3.3,2.2-4,4.1c-2.3,5.5-5.2,11-5.9,16.8c-0.3,2.6-0.2,5.2,0.4,7.7C93.8,417,91,404.4,91,391.5
	c0-3.2,0.2-6.4,0.5-9.6c0.3-2.6,0.7-5.2,1.2-7.8c2.9-14,9-27.2,17.9-38.3c4.3-2.4,7.8-6,10-10.4c0.8-1.6,1.4-3.3,1.7-5
	c-0.5,0.1-1.8-7.4-1.5-7.8c-0.7-1-1.9-1.5-2.6-2.5c-3.7-5-8.8-4.1-11.4,2.7c-5.7,2.9-5.7,7.6-2.2,12.2c2.2,2.9,2.5,6.8,4.5,9.9
	c-0.2,0.3-0.4,0.5-0.6,0.8c-3.7,4.7-6.8,9.7-9.5,15.1c0.6-6-0.1-12-2.3-17.6c-2.2-5.2-6.2-9.6-9.8-14.1c-4.3-5.4-13.1-3.1-13.8,3.8
	c0,0.1,0,0.1,0,0.2c0.5,0.3,1,0.6,1.6,1c1.7,1.2,2.2,3.5,1.1,5.3c-0.6,0.9-1.5,1.5-2.6,1.6l-0.1,0c0.2,1.9,0.5,3.8,1,5.7
	c-4.6,17.7,5.3,24.2,19.4,24.5c0.3,0.2,0.6,0.3,0.9,0.5c-2.7,7.6-4.4,15.5-5,23.5c-0.4,4.7-0.3,9.5,0.1,14.2l0-0.2
	c-1-5.3-3.8-10-8-13.4c-6.1-5-14.8-6.9-21.4-10.9c-2-1.3-4.7-0.7-6,1.3c-0.6,0.9-0.8,1.9-0.7,2.9c0,0.1,0,0.1,0,0.2
	c1,0.4,1.9,0.9,2.9,1.4c0.5,0.3,1,0.6,1.6,1c1.7,1.2,2.2,3.5,1.1,5.3c-0.6,0.9-1.5,1.5-2.6,1.6l-0.1,0c-0.1,0-0.1,0-0.2,0
	c1.7,4,4,7.7,7,10.9c2.9,15.5,15.2,16.9,28.3,12.4h0c1.4,6.3,3.5,12.4,6.2,18.2h22.3c0.1-0.2,0.2-0.5,0.2-0.8
	c-2.1,0.1-4.1,0-6.2-0.4c1.7-2,3.3-4.1,5-6.1c0,0,0.1-0.1,0.1-0.1c0.8-1,1.7-2.1,2.5-3.1l0,0C121.6,416.3,121.2,413.1,120.4,410
	L120.4,410z"/>
<path class="st0" d="M586.1,410c1.5,0.1,2.9-1.1,2.9-2.7c0-0.8-0.3-1.6-0.9-2.2l-0.2-0.8c0-0.1,0.1-0.1,0.1-0.2c1.6-3.8,6-5.6,9.9-4
	c1.8,0.8,3.3,2.2,4,4.1c2.3,5.5,5.2,11,5.9,16.8c0.3,2.6,0.2,5.2-0.4,7.7c5.3-11.7,8.1-24.3,8.1-37.1c0-3.2-0.2-6.4-0.5-9.6
	c-0.3-2.6-0.7-5.2-1.2-7.8c-2.9-14-9-27.2-17.9-38.3c-4.3-2.4-7.8-6-10-10.4c-0.8-1.6-1.4-3.3-1.7-5c0.5,0.1,1.8-7.4,1.5-7.8
	c0.7-1,1.9-1.5,2.6-2.5c3.7-5,8.8-4.1,11.4,2.7c5.7,2.9,5.7,7.6,2.2,12.2c-2.2,2.9-2.5,6.8-4.5,9.9c0.2,0.3,0.4,0.5,0.6,0.8
	c3.7,4.7,6.8,9.7,9.5,15.1c-0.6-6,0.1-12,2.3-17.6c2.2-5.2,6.2-9.6,9.8-14.1c4.3-5.4,13.1-3.1,13.8,3.8c0,0.1,0,0.1,0,0.2
	c-0.5,0.3-1,0.6-1.6,1c-1.7,1.2-2.2,3.5-1.1,5.3c0.6,0.9,1.5,1.5,2.6,1.6l0.1,0c-0.2,1.9-0.5,3.8-1,5.7c4.6,17.7-5.3,24.2-19.4,24.5
	c-0.3,0.2-0.6,0.3-0.9,0.5c2.7,7.6,4.4,15.5,5,23.5c0.4,4.7,0.3,9.5-0.1,14.2l0-0.2c1-5.3,3.8-10,8-13.4c6.1-5,14.8-6.9,21.4-10.9
	c2-1.3,4.7-0.7,6,1.3c0.6,0.9,0.8,1.9,0.7,2.9c0,0.1,0,0.1,0,0.2c-1,0.4-1.9,0.9-2.9,1.4c-0.5,0.3-1,0.6-1.6,1
	c-1.7,1.2-2.2,3.5-1.1,5.3c0.6,0.9,1.5,1.5,2.6,1.6l0.1,0c0.1,0,0.1,0,0.2,0c-1.7,4-4,7.7-7,10.9c-2.9,15.5-15.2,16.9-28.3,12.4h0
	c-1.4,6.3-3.5,12.4-6.2,18.2h-22.3c-0.1-0.2-0.2-0.5-0.2-0.8c2.1,0.1,4.1,0,6.2-0.4c-1.7-2-3.3-4.1-5-6.1c0,0-0.1-0.1-0.1-0.1
	c-0.8-1-1.7-2.1-2.5-3.1l0,0C584.9,416.3,585.3,413.1,586.1,410L586.1,410z"/>
<path class="st0" d="M146.1,429.4h36c6.2-20.7,0-69.7,8.1-89.7c15.6-38.4,35.4-78.9,72.5-97.6c15.8-8,33.1-11.1,50.7-11
	c24.4,0.2,49.4,6.8,72.4,15.4c9.4,3.5,18.7,7.4,27.9,11.4c34.9,15,69.4,31.3,106.9,35.7c47.5,5.6,103.3-15.7,116.3-61.4
	c9.9-35-7.9-71.4-26.6-102.7c-18.7-31.3-39.6-64.8-36.2-101c0-0.1,0-0.3,0-0.4c1.3-13,9.1-22.4,19.9-28.4h-47.2
	c-0.6,33.8,18.9,63.6,36.5,93.1c18.7,31.3,36.5,67.6,26.6,102.7c-13,45.7-120.3-7.9-167.8-13.5c-13.4-1.6,7.9,4-4.9,0
	c-20-6.3-22.3,51.4-41.8,42.9c-12.1-5.3-24.3-10.5-36.6-15.2c-5.1-1.9-10.3-3.7-15.6-5.4c0,0,0,0,0,0
	c-35.4-11.2-74.1-15.6-106.8,0.6c-0.2,0.1-0.5,0.2-0.7,0.3c-37.1,18.7-57,59.2-72.5,97.6C150.4,334.8,152.4,396,146.1,429.4z"/>
<circle class="st1" cx="346.2" cy="263.1" r="165.2"/>
<path class="st2" d="M345.7,429.4c-163.5,3.8-167.1-73.9-167.1-166.3c0-92.4,75.2-167.5,167.5-167.5s167.5,75.2,167.5,167.5
	C513.7,355.5,438.1,429.4,345.7,429.4z M346.2,100.2c-89.8,0-161.4,73.1-162.9,162.9c-1.4,83.5,87.3,187.8,162.9,162.9
	c40.5-44.6,155.1-92.7,162.9-162.9C519.1,173.9,436,100.2,346.2,100.2L346.2,100.2z"/>
<path class="st0" d="M323.7,349.1c-5.8,0-11.2-2.7-14.7-7.4l-45.1-60.1c-6.1-8.1-4.4-19.6,3.7-25.7c8.1-6.1,19.6-4.4,25.7,3.7
	l29.5,39.3l75.7-113.6c5.6-8.4,17-10.7,25.5-5.1c8.4,5.6,10.7,17,5.1,25.5L339,340.9c-3.3,5-8.8,8-14.8,8.2
	C324,349.1,323.8,349.1,323.7,349.1z"/>
<path class="st3" d="M0,429.6c0,0.7,0.5,1.2,1.2,1.2c0,0,0,0,0,0h715.3c0.7,0,1.2-0.5,1.2-1.2s-0.5-1.2-1.2-1.2H1.2
	C0.5,428.4,0,428.9,0,429.6C0,429.5,0,429.6,0,429.6z"/>
<path class="st2" d="M376.2,329.4c-5.8,0-11.2-2.7-14.7-7.4l-45.1-60.1c-6.1-8.1-4.4-19.6,3.7-25.7s19.6-4.4,25.7,3.7l0,0l29.5,39.3
	L451,165.6c5.6-8.4,17-10.7,25.5-5.1s10.7,17,5.1,25.5l-90.2,135.2c-3.3,5-8.8,8-14.8,8.2C376.5,329.4,376.3,329.4,376.2,329.4z"/>
</svg>
