<?xml version="1.0" encoding="utf-8"?>
<!-- Generator: Adobe Illustrator 24.2.3, SVG Export Plug-In . SVG Version: 6.00 Build 0)  -->
<svg version="1.1" id="Layer_1" xmlns="http://www.w3.org/2000/svg" xmlns:xlink="http://www.w3.org/1999/xlink" x="0px" y="0px"
	 viewBox="0 0 512 512" style="enable-background:new 0 0 512 512;" xml:space="preserve">
<style type="text/css">
	.st0{fill:#3F3D56;}
	.st1{fill:#F50057;}
	.st2{fill:#FFFFFF;}
</style>
<path class="st0" d="M430.22,450.77l-328.2,0.11c-16.49,0.01-31.26-8.51-39.51-22.79c-4.12-7.14-6.19-14.97-6.19-22.8
	c0-7.83,2.06-15.67,6.17-22.81l164-298.55c8.24-14.28,23-22.81,39.49-22.82s31.26,8.51,39.51,22.79l164.22,298.47
	c4.11,7.12,6.17,14.94,6.17,22.77c0,7.83-2.06,15.66-6.18,22.8C461.47,442.23,446.7,450.76,430.22,450.77L430.22,450.77
	L430.22,450.77z M60.44,405.28c0,7.13,36.22-8.23,39.97-1.74c7.5,12.99-13.4,43.23,1.6,43.22c0,0,356.63-7.88,364.13-20.87
	c3.75-6.5,5.62-13.62,5.62-20.75c0-7.13-1.88-14.25-5.63-20.74L301.9,85.93c-7.48-12.95-20.92-20.7-35.92-20.7
	C250.99,65.24,60.44,398.15,60.44,405.28L60.44,405.28L60.44,405.28z"/>
<g>
	<circle class="st1" cx="361.75" cy="234.68" r="150.25"/>
	<g>
		<circle class="st2" cx="361.78" cy="312.99" r="13.8"/>
		<path class="st2" d="M361.72,142.57c-1.27,8.42,1,10.18,1.02,46.49c0.01,36.3,7.55,84.98-0.97,84.98
			c-8.52,0-11.63-100.45-41.2-109.34C285.8,154.24,365.82,115.31,361.72,142.57L361.72,142.57z"/>
	</g>
</g>
<path class="st0" d="M160.09,311.39l-13.57,28.68c16.41-11.77,42.04-21.91,62.44-27.35c-19.01-9.18-42.26-23.98-56.16-38.64
	l7.81,30.31C69.07,285.75,3.33,215.53,3.31,135.09L0,133.95C0.03,217.97,64.85,292.35,160.09,311.39z"/>
</svg>
