<?xml version="1.0" encoding="utf-8"?>
<!-- Generator: Adobe Illustrator 26.3.1, SVG Export Plug-In . SVG Version: 6.00 Build 0)  -->
<svg version="1.1" id="Layer_1" xmlns="http://www.w3.org/2000/svg" xmlns:xlink="http://www.w3.org/1999/xlink" x="0px" y="0px"
	 viewBox="0 0 2999 2307" style="enable-background:new 0 0 2999 2307;" xml:space="preserve">
<style type="text/css">
	.st0{fill:#4A2E54;}
	.st1{fill:#996699;}
	.st2{fill:#1B1B1B;}
	.st3{fill:#1A1A1A;}
	.st4{fill:#FFFFFF;}
	.st5{fill:#E2E3E4;}
	.st6{fill:#FECE2F;}
	.st7{fill:#FCB32A;}
	.st8{fill:#F8AB6E;}
</style>
<g transform="translate(318.46153846153845 419.99999999999994) rotate(0.0 1184.9999999999998 710.7692307692307)  scale(2.3063246818585665 2.306176071800945)">
	<path class="st0" d="M0.9,322.3C14.6,161.9,188.4,16.7,497.8,1.5c270.5-13.3,456.5,65,512.9,189s-24.7,323.8-297.2,396.9
		S-23.1,603.3,0.9,322.3L0.9,322.3z"/>
</g>
<g transform="translate(1479.230769230769 484.6153846153846) rotate(0.0 651.9230769230769 616.1538461538461)  scale(2.3140446674786075 2.310795004355459)">
	<path class="st1" d="M2.6,408.6c-2.7,26.1-1.6,61.1,19.7,76.5c53.6,28.1,127.8,45.5,188.6,46.7c4.8-0.7,13.5,0.4,26.6-8.6
		c0,0,0,0,0,0c0,0,0,0,0,0c7.9-4.2,70.3-62.6,72.3-64.7c92.1-89.1,191.6-205.2,229.1-263.4c19.7-30.5,30.8-72.9,16.8-106.4
		C516-6.5,248.2-23.2,193.9,37.4C103.1,139,13.7,299.2,2.6,408.6 M235.9,523.9c0.1,0,0.1,0,0.2-0.1
		C236,523.9,235.9,523.9,235.9,523.9z M234.3,524.4c0.1,0,0.2,0,0.2-0.1C234.5,524.4,234.4,524.4,234.3,524.4z"/>
	<path class="st2" d="M113.7,509.2c40.9,3,60.8,18.4,83.7,22.1c-23-1.3-48.1-4.7-74-10.5c-38.8-8.7-73.7-21.3-101.1-35.6
		c-3.6-2.6-6.7-5.9-9.4-9.7C9.6,470.7,7,465,5.2,458.5c-2.1-15.3,14.3-21.3,26.5,2.2C44.5,485.4,56.7,505.1,113.7,509.2L113.7,509.2
		z"/>
	<path class="st2" d="M197.4,532.8C197.3,532.8,197.3,532.8,197.4,532.8c-23.9-1.3-48.9-4.9-74.4-10.6
		c-37.8-8.5-72.9-20.8-101.4-35.8c-0.1,0-0.1-0.1-0.2-0.1c-3.7-2.7-7-6.1-9.7-10.1c-3.3-4.8-6-10.7-7.9-17.4c0-0.1,0-0.1,0-0.2
		c-1-7.2,1.9-13.1,7.1-14.8c5.7-1.8,14.6,1.4,22.2,16.1c11.6,22.4,22.5,43.5,80.8,47.7c25.3,1.8,42.4,8.3,57.5,14
		c9.4,3.6,17.6,6.7,26.3,8.1c0.8,0.1,1.3,0.8,1.3,1.6C198.8,532.2,198.1,532.8,197.4,532.8z M23.1,483.8
		c28.3,14.8,63.1,27.1,100.6,35.5c19.6,4.4,38.9,7.5,57.5,9.3c-3.6-1.2-7.2-2.6-10.9-4c-14.9-5.6-31.8-12-56.7-13.8
		c-55.8-4-69.2-22.1-83.3-49.3c-6.8-13-14.3-16-18.6-14.6c-3.8,1.2-5.8,5.7-5.1,11.4c1.8,6.3,4.3,11.9,7.5,16.4
		C16.7,478.3,19.7,481.4,23.1,483.8L23.1,483.8z"/>
	<path class="st3" d="M210.9,533.3c-27.4-0.5-57.8-4.3-87.9-11.1c-37.8-8.5-72.9-20.8-101.4-35.8c-0.1,0-0.1-0.1-0.2-0.1
		C4.2,473.9-2.9,447,1.1,408.5c0.1-0.8,0.8-1.4,1.6-1.3c0.8,0.1,1.4,0.8,1.3,1.6c-3.8,37.3,2.8,63.3,19,75.1
		c28.3,14.8,63.1,27.1,100.6,35.5c29.9,6.7,60.1,10.5,87.2,11c5-0.1,9.6-0.8,13.9-2.3c9.8-3.3,17.4-10,26.2-17.7
		c1.9-1.6,3.8-3.3,5.8-5.1c0.6-0.5,1.6-0.5,2.1,0.2s0.5,1.6-0.2,2.1c-2,1.7-3.9,3.4-5.8,5c-9,7.9-16.8,14.8-27.2,18.2
		C221.1,532.4,216.2,533.2,210.9,533.3L210.9,533.3z"/>
	<path class="st4" d="M226.7,412.6c-6.5,19-10.9,36.7-13.1,52.4c-52.2-0.1-113.1-12.6-162.4-32.2c9-10.8,39.2,13.6,73.6,4
		c32.9-9.2,39.7,20.9,72.7,11.5C210,444.7,220.6,425.9,226.7,412.6z"/>
	<path class="st2" d="M474.9,68l-1.2-1.6c1.6-1.4,3.3-2.7,4.9-4.1l1.4,1.5C478.5,65.2,476.8,66.6,474.9,68z"/>
	<path class="st4" d="M508.2,41c-9.5,6.7-19.1,14.1-29,22.1c19.4-19.9-21.4-44.9-72.5-27.1c-61.9,21.6-66.2-39.6-131.4-13.1
		s-84.7,12-61.5,0.1c34-17.3,95.8-26.6,164.7-18.6C431.1,10.5,477.1,23.7,508.2,41z"/>
	<path class="st3" d="M213.6,466.5C213.6,466.5,213.6,466.5,213.6,466.5c-28.8,0-61.1-3.9-93.4-11.1c-45.9-10.3-88-26.4-118.5-45.5
		c-0.5-0.3-0.8-0.9-0.7-1.4c7-69.1,47.8-167.3,108.9-262.6c26.8-41.8,51.6-74.5,82.7-109.4C218.2,8,298.2-6.4,378.8,2.9
		c52.1,6,98.3,19.1,130.1,36.7c0.7,0.4,1,1.3,0.6,2c-0.4,0.7-1.3,1-2,0.6c-31.5-17.5-77.3-30.4-129-36.4
		C287.6-4.6,216.1,14.8,195,38.4c-31.1,34.8-55.7,67.4-82.4,109C51.9,242,11.4,339.2,4.1,407.8c30.1,18.7,71.6,34.5,116.7,44.6
		c32.1,7.2,64.2,11,92.8,11c0.8,0,1.5,0.7,1.5,1.5C215.1,465.8,214.5,466.5,213.6,466.5L213.6,466.5z"/>
	<path class="st3" d="M230.7,526.4c-1.4,0-2.8-0.2-4.2-0.5c-5.1-1.3-9.2-4.9-11.1-9.9c-10.5-27.1-3.5-73.3,19.8-130
		c23.5-57.2,62.4-122.5,109.8-183.9c49.2-63.8,104.3-119.6,155.2-157.1c2.9-2.1,5.1-3.7,7.2-5.2c0.5-0.3,1.1-0.4,1.6-0.1
		c12.4,6.9,28.1,16.9,39.6,33.1c13.8,19.5,18,43.6,12.6,71.5c-3.5,18.1-10.6,35.5-21.1,51.7c-25.9,40.1-80.3,106.7-142,173.8
		c-12.9,14-25.9,27.8-38.5,40.9c-38.5,39.9-75.5,75.3-107.1,102.3c0,0,0,0-0.1,0c0,0,0,0,0,0c-3.9,3.3-7.7,6.5-11.4,9.6
		C238.1,525.1,234.4,526.4,230.7,526.4L230.7,526.4z M508.3,42.7c-1.9,1.3-3.9,2.8-6.4,4.6c-50.7,37.3-105.6,92.9-154.6,156.5
		c-96.2,124.9-150.5,255.7-129.1,311c1.6,4,4.9,7,9.1,8.1c4.2,1.1,8.6,0.1,11.9-2.6c3.7-3.1,7.5-6.3,11.4-9.6c0,0,0,0,0.1,0
		c0,0,0,0,0,0c31.5-27,68.4-62.3,106.9-102.1c12.6-13.1,25.6-26.8,38.5-40.8c61.6-67,115.9-133.4,141.7-173.4
		c10.3-15.9,17.2-32.9,20.6-50.7C569.6,85,535.5,58,508.3,42.7L508.3,42.7z M251.5,511.8L251.5,511.8L251.5,511.8z"/>
	<path class="st5" d="M400.1,86.8c-42.8,40.8-86,93-112.4,131.1c-3.2,4.4-8.5,6.8-13.9,6.1c-24.3-3-132.9-16.5-159-19.7
		c-6.2-0.8-8.6-5.8-5.5-11.1C148,127,193.4,70.7,198.4,65.7c3.1-3.6,7.7-5.5,12.3-5.1c51.3,3.7,121.6,8.9,184.8,13.5
		C404.6,74.7,406.7,80.5,400.1,86.8L400.1,86.8z"/>
	<path class="st4" d="M337.4,153.7c-4.8,5.7-9.6,11.5-14.3,17.3c-12.6-35.3-27.2-70.8-43-105.4l21.4,1.6
		C314.4,95.6,326.5,124.7,337.4,153.7z"/>
	<path class="st4" d="M296.1,206.2c-2.8,3.8-5.5,7.5-8.2,11.3c-0.1,0.1-0.2,0.3-0.3,0.4c-3.2,4.4-8.5,6.8-13.9,6.1l-11-1.4l-3.8-0.5
		c-15.9-51.9-37-105.3-60.6-156.5c0.9-1.1,2-2,3.1-2.7c2.7-1.8,5.9-2.6,9.2-2.4l29.4,2.1C261.6,109.7,280.9,158.5,296.1,206.2
		L296.1,206.2z"/>
	<path class="st2" d="M295,99.5c-20.1,15.5-40.7,32.7-58,48.2c1.2-14.8,2.7-29.1,4.4-42.6c0.3-2.1-1.3-4-3.4-4.2l-29.1-2.5
		c-2-0.2-3.7,1.3-4,3.2c-3.7,28.3-5.5,52.1-7.2,80c-0.1,2,1.3,3.7,3.3,3.9l33.3,3.8v0l4.1,0.5c1.1,0.1,2.2-0.3,3-1
		c29.3-28.7,63.6-58.8,96-83.8c1.6-1.2,0.8-3.8-1.2-4l-36-3C298.3,97.9,296.5,98.4,295,99.5z"/>
	<path class="st2" d="M402.9,83.2c-1.3-0.6-2.9-1-4.9-1.1L213.3,68.7c-4.8-0.3-9.5,1.6-12.5,5.3c-31.9,38.4-62.4,82-88.9,127.3
		c-0.4,0.6-0.6,1.2-0.8,1.8c-3.2-2-4.1-5.8-1.7-9.9c26.5-45.3,57-88.9,88.9-127.3c3.1-3.7,7.7-5.7,12.5-5.3l184.8,13.5
		C402.8,74.6,405.6,78.4,402.9,83.2L402.9,83.2z"/>
	<path class="st3" d="M275.6,225.6c-0.7,0-1.3,0-2-0.1l-7.6-0.9c-0.3,0-0.6-0.1-0.8-0.1c-0.1,0-0.1,0-0.2,0l0,0c0,0,0,0,0,0l0,0
		c-63.2-7.9-99.8-12.4-121.6-15c-31.2-3.8-31.2-3.8-32.8-4.9l-0.2-0.1c-4.1-2.5-5-7.2-2.2-11.9c26.4-45.1,57.2-89.1,89.1-127.5
		c3.4-4.1,8.5-6.3,13.8-5.9l184.8,13.5c4.6,0.3,7.8,1.9,9.2,4.5c0.8,1.4,1.3,3.8-0.5,6.9c-0.9,1.6-3.9,4.6-10.6,11.3
		c-18.7,18.6-57.7,57.4-104.8,123.5C285.8,223.1,280.8,225.6,275.6,225.6L275.6,225.6z M265.3,221.5c0.6,0.1,6.6,0.8,8.6,1.1
		c4.9,0.6,9.7-1.5,12.5-5.5c47.2-66.3,86.3-105.2,105.1-123.9c5.5-5.4,9.4-9.3,10.1-10.6c0,0,0,0,0,0c0.6-1.1,1.2-2.7,0.5-4.1
		c-0.9-1.6-3.3-2.6-6.8-2.9L210.6,62.1c-4.3-0.3-8.5,1.5-11.3,4.8c-31.8,38.2-62.5,82.2-88.8,127.1c-1.9,3.2-1.4,6.2,1.2,7.8
		l0.3,0.2c1.1,0.7,2.8,0.9,31.6,4.4C165.5,209.1,202.1,213.5,265.3,221.5C265.3,221.5,265.3,221.5,265.3,221.5L265.3,221.5z"/>
	<g>
		<path class="st2" d="M149.8,399.2c-1.8,6.4-3.4,12.5-4.8,18.5c-0.9,4.2,2,8.4,6.3,9c9.1,1.2,18,2.1,26.9,2.7
			c6.9,0.5,13.2-3.9,15.2-10.6c1.5-5.1,3.2-10.2,5-15.5c1.5-4.3-1.2-8.9-5.7-9.8c-7.4-1.4-17.8-3.3-26.1-4.8
			C159.2,387.3,151.9,391.9,149.8,399.2L149.8,399.2z"/>
		<path class="st2" d="M179.3,430.9c-0.4,0-0.8,0-1.2,0c-8.9-0.6-17.9-1.5-27-2.7c-2.5-0.3-4.7-1.7-6.2-3.7c-1.4-2-1.9-4.6-1.4-7
			c1.3-6,2.9-12.2,4.8-18.6c2.4-8.1,10.4-13.1,18.7-11.6l26.1,4.8c2.6,0.5,4.8,2,6.1,4.3c1.3,2.3,1.6,5,0.7,7.4
			c-1.8,5.2-3.5,10.5-5,15.5C192.8,426.2,186.5,430.9,179.3,430.9L179.3,430.9z M151.2,399.6c-1.8,6.3-3.4,12.5-4.8,18.4
			c-0.4,1.6,0,3.3,0.9,4.7c1,1.4,2.4,2.3,4.1,2.5c9,1.2,18,2.1,26.8,2.7c6.2,0.4,11.9-3.5,13.7-9.5c1.5-5.1,3.2-10.3,5.1-15.6
			c0.6-1.6,0.4-3.5-0.5-5c-0.9-1.5-2.3-2.5-4.1-2.8l-26.1-4.8C159.7,388.9,153.1,393,151.2,399.6L151.2,399.6z"/>
		<path class="st2" d="M87.3,388.5c-1.4,6.1-2.6,12-3.6,17.7c-0.6,3.8,1.7,7.4,5.4,8.4c7.8,2.1,16,4,24.2,5.7
			c7.9,1.7,15.7-3.3,17.6-11.2c1.3-5.7,2.9-11.7,4.6-17.7c1.2-4.2-1.5-8.6-5.8-9.4c-7.3-1.3-17.9-3.3-25.3-4.6
			C96.7,375.9,89.1,380.8,87.3,388.5L87.3,388.5z"/>
		<path class="st2" d="M116.4,422.1c-1.1,0-2.2-0.1-3.3-0.3c-8.2-1.7-16.4-3.7-24.3-5.7c-4.5-1.2-7.3-5.5-6.5-10.1
			c0.9-5.7,2.1-11.7,3.6-17.8c2-8.5,10.3-13.9,18.9-12.3l25.3,4.6c2.5,0.5,4.7,1.9,6,4.1c1.3,2.2,1.7,4.8,1,7.2
			c-1.8,6-3.3,12-4.6,17.7C130.7,416.9,123.9,422.1,116.4,422.1z M101.8,378.6c-6.1,0-11.5,4.2-13,10.3c-1.4,6-2.6,12-3.5,17.6
			c-0.5,3,1.4,5.9,4.3,6.7c7.8,2.1,15.9,4,24.1,5.7c7.1,1.5,14.2-3,15.8-10c1.3-5.7,2.9-11.7,4.7-17.8c0.5-1.6,0.2-3.4-0.6-4.8
			c-0.9-1.4-2.3-2.4-4-2.7l-25.3-4.6C103.4,378.6,102.6,378.6,101.8,378.6L101.8,378.6z M87.3,388.5L87.3,388.5L87.3,388.5z"/>
		<path class="st2" d="M73.2,379.6c-1.4,5.5-2.5,10.8-3.5,16c-1.3,6.7-8.3,10.7-14.7,8.4c-8.7-3.1-17.4-6.6-25.7-10.3
			c-3.2-1.4-4.9-4.9-4.2-8.3c0.6-2.6,1.2-5.3,1.8-7.9c1.8-7.7,9.4-12.5,17.1-11.1c33.9,6.2,8.8,1.6,23.3,4.3
			C71.5,371.3,74.2,375.4,73.2,379.6L73.2,379.6z"/>
		<path class="st2" d="M58.7,406.1c-1.4,0-2.9-0.2-4.3-0.7c-9.1-3.2-17.7-6.7-25.8-10.4c-3.8-1.7-5.9-5.9-5-10
			c0.6-2.6,1.2-5.3,1.8-8c2-8.4,10.3-13.8,18.9-12.3l18.3,3.3c0.1,0,0.2,0,0.2,0c0,0,0,0,0.1,0c0,0,0.1,0,0.1,0l0.3,0v0
			c0.7,0.1,2,0.4,4.3,0.8c2.4,0.4,4.5,1.8,5.9,3.9c1.4,2.1,1.8,4.6,1.2,7c-1.3,5.4-2.5,10.8-3.5,15.9c-0.7,3.6-2.9,6.8-6.1,8.6
			C63.1,405.6,60.9,406.1,58.7,406.1L58.7,406.1z M41.4,367.5c-6.1,0-11.5,4.1-13,10.2c-0.6,2.7-1.2,5.3-1.8,7.9
			c-0.6,2.7,0.8,5.5,3.3,6.6c8,3.6,16.6,7.1,25.6,10.3c2.7,1,5.6,0.7,8.1-0.7c2.4-1.4,4.1-3.8,4.7-6.6c1-5.2,2.2-10.6,3.5-16
			c0.4-1.6,0.1-3.3-0.8-4.6c-0.9-1.4-2.3-2.3-3.9-2.6l-4-0.7c-0.1,0-0.2,0-0.4-0.1c0,0-0.1,0-0.1,0c0,0,0,0-0.1,0l-0.4-0.1v0
			c-1.5-0.3-6.1-1.1-18.3-3.3C43,367.6,42.2,367.5,41.4,367.5L41.4,367.5z M73.2,379.6L73.2,379.6L73.2,379.6z"/>
		<path class="st2" d="M173.6,336c-2.8,6.1-5.4,12.1-7.8,18c-1.9,4.7,0.6,9.3,5.6,10.2c8.2,1.4,19.6,3.4,28.1,4.9
			c6.7,1.2,13.3-2.4,16.1-8.5c2.6-5.8,5.4-11.7,8.4-17.7c2.4-5,0-9.7-5.5-10.6c-8.5-1.4-20.2-3.3-29-4.7
			C182.9,326.5,176.4,329.9,173.6,336L173.6,336z"/>
		<path class="st2" d="M202.1,370.8c-0.9,0-1.9-0.1-2.8-0.2l-28.1-4.9c-2.9-0.5-5.2-2.1-6.5-4.4s-1.4-5.1-0.3-7.8
			c2.4-5.9,5.1-12,7.8-18c3-6.7,10.2-10.5,17.5-9.4l29,4.7c3.1,0.5,5.5,2.1,6.8,4.6c1.3,2.4,1.2,5.4-0.2,8.2
			c-2.9,5.9-5.7,11.9-8.4,17.7C214.3,367.1,208.4,370.8,202.1,370.8L202.1,370.8z M175,336.6c-2.7,6-5.4,12.1-7.8,17.9
			c-0.8,1.9-0.7,3.7,0.1,5.2s2.4,2.5,4.4,2.9l28.1,4.9c6,1,12-2.1,14.5-7.7c2.6-5.8,5.5-11.8,8.4-17.7c1-2,1-3.9,0.2-5.5
			s-2.5-2.6-4.6-3l-29-4.7C183.4,328,177.5,331.2,175,336.6L175,336.6z"/>
		<path class="st2" d="M92.5,321c-2.2,5.4-4.2,10.7-6.1,15.9c-2.5,6.8-9.4,10.7-16.5,9.5l-24-4.2c-4.7-0.8-7.3-5.2-5.7-9.8
			c1.8-5.3,3.8-10.7,5.8-16.1c2.5-6.6,9.3-10.5,16.3-9.4c7.7,1.2,17.5,2.8,24.6,4C91.8,311.7,94.4,316.3,92.5,321L92.5,321z"/>
		<path class="st2" d="M72.5,348.2c-0.9,0-1.9-0.1-2.8-0.2l-24-4.2c-2.7-0.5-5-2-6.3-4.2c-1.3-2.2-1.5-4.9-0.6-7.5
			c1.8-5.3,3.8-10.7,5.8-16.2c2.7-7.2,10.3-11.6,17.9-10.4l24.6,4c2.9,0.5,5.2,2,6.5,4.3c1.3,2.3,1.4,5.1,0.3,7.8
			c-2.1,5.3-4.2,10.7-6.1,15.8C85.4,344,79.2,348.2,72.5,348.2L72.5,348.2z M59.8,308.3c-5.5,0-10.5,3.4-12.5,8.6
			c-2,5.4-4,10.8-5.8,16.1c-0.6,1.8-0.5,3.6,0.4,5c0.9,1.5,2.4,2.4,4.2,2.8l24,4.2c6.4,1.1,12.6-2.5,14.8-8.5
			c1.9-5.2,4-10.6,6.1-15.9c0.8-1.9,0.7-3.7-0.2-5.2c-0.9-1.5-2.4-2.5-4.4-2.8l-24.6-4C61.3,308.3,60.6,308.3,59.8,308.3L59.8,308.3
			z M92.5,321L92.5,321L92.5,321z"/>
		<path class="st2" d="M107.8,326c-2.4,5.8-4.6,11.5-6.6,17.1c-1.7,4.6,0.9,9,5.7,9.9c29.3,5.1-22.1-3.9,27.4,4.8
			c6.9,1.2,13.7-2.5,16.3-9c2.3-5.5,4.7-11.1,7.2-16.8c2.2-4.8-0.4-9.5-5.6-10.4c-8.1-1.3-19.7-3.2-28.3-4.6
			C117.1,315.8,110.5,319.6,107.8,326L107.8,326z"/>
		<path class="st2" d="M136.9,359.4c-0.9,0-1.9-0.1-2.8-0.2l-17.7-3.1l-0.4-0.1c0,0,0,0,0,0l-9.2-1.6c-2.8-0.5-5-2-6.3-4.3
			c-1.3-2.3-1.5-5-0.5-7.6c2.1-5.6,4.3-11.4,6.6-17.1c2.9-7.1,10.2-11.2,17.7-9.9l28.3,4.6c3,0.5,5.4,2.1,6.7,4.4
			c1.3,2.4,1.3,5.2,0.1,8c-2.5,5.6-4.9,11.3-7.2,16.8C149.5,355.4,143.4,359.4,136.9,359.4L136.9,359.4z M111.9,352.2l22.7,4
			c6.2,1.1,12.3-2.3,14.7-8.1c2.3-5.5,4.7-11.2,7.2-16.9c0.9-1.9,0.9-3.8,0-5.4c-0.8-1.5-2.4-2.6-4.5-2.9l-28.3-4.6
			c-6.2-1-12.1,2.3-14.5,8.1c-2.3,5.7-4.6,11.4-6.6,17c-0.7,1.8-0.6,3.6,0.3,5.1c0.9,1.5,2.4,2.5,4.3,2.8
			C109.1,351.7,110.6,352,111.9,352.2C111.9,352.2,111.9,352.2,111.9,352.2L111.9,352.2z"/>
		<path class="st2" d="M136,265.9c-3.1,5.8-6,11.6-8.8,17.3c-2.5,5,0,9.8,5.5,10.7c19.9,3,27,4.1,29.8,4.6c6.2,1,12.4-2.1,15.4-7.7
			c3-5.7,6.2-11.5,9.5-17.3c2.9-5.2,0.5-10.2-5.5-11c-9.2-1.3-21.6-3-30.7-4.3C145,257.2,138.9,260.3,136,265.9z"/>
		<path class="st2" d="M164.8,300.1c-0.8,0-1.7-0.1-2.5-0.2l-29.8-4.6c-3.2-0.5-5.6-2.1-6.9-4.5c-1.3-2.5-1.2-5.4,0.2-8.3
			c2.8-5.7,5.8-11.5,8.8-17.3c3.2-6.1,10-9.6,16.8-8.6l30.7,4.3c3.4,0.5,5.9,2.1,7.2,4.7c1.3,2.5,1,5.6-0.6,8.5
			c-3.3,5.8-6.4,11.6-9.4,17.3C176.4,296.8,170.8,300.1,164.8,300.1L164.8,300.1z M149.2,259.4c-4.9,0-9.5,2.7-11.9,7.2
			c-3,5.8-6,11.6-8.8,17.2c-1,2-1.1,4-0.2,5.5c0.8,1.6,2.5,2.6,4.7,3l29.8,4.6c5.6,0.9,11.2-1.9,13.8-6.9c3-5.7,6.2-11.6,9.5-17.4
			c1.2-2.1,1.4-4.1,0.6-5.7c-0.8-1.6-2.5-2.7-4.9-3l-30.7-4.3C150.4,259.5,149.8,259.4,149.2,259.4L149.2,259.4z M136,265.9
			L136,265.9L136,265.9z"/>
		<path class="st2" d="M119,263.5c-2.8,5.5-5.6,11-8.2,16.4c-2.8,5.9-9.2,9.2-15.6,8.2c-13.4-2.1-21.2-3.2-25.8-4
			c-5.3-0.8-7.9-5.5-5.6-10.4c2.4-5.4,5-10.9,7.6-16.4c2.8-5.8,9.1-9.2,15.5-8.3c8,1.1,18.7,2.6,26.7,3.7
			C119.1,253.6,121.6,258.4,119,263.5L119,263.5z"/>
		<path class="st2" d="M97.5,289.8c-0.8,0-1.7-0.1-2.5-0.2l-25.8-4c-3.1-0.5-5.4-2-6.7-4.4c-1.3-2.4-1.3-5.3,0-8.1
			c2.5-5.4,5-10.9,7.6-16.4c3.1-6.5,10-10.2,17-9.2l26.7,3.7c3.2,0.5,5.7,2.1,7,4.6c1.3,2.5,1.2,5.4-0.3,8.4
			c-2.8,5.4-5.6,10.9-8.2,16.4C109.4,286.3,103.7,289.8,97.5,289.8z M84.7,250.4c-5.1,0-9.8,2.9-12,7.6c-2.6,5.4-5.2,10.9-7.6,16.3
			c-0.9,1.9-0.9,3.9-0.1,5.4c0.8,1.5,2.5,2.6,4.6,2.9l25.8,4c5.8,0.9,11.5-2.1,14.1-7.4c2.6-5.4,5.4-10.9,8.2-16.4
			c1-2,1.2-4,0.3-5.6c-0.8-1.6-2.5-2.7-4.8-3l-26.7-3.7C85.9,250.4,85.3,250.4,84.7,250.4z"/>
		<path class="st2" d="M205.1,275c-3.5,6.1-6.9,12.2-10.2,18.3c-2.8,5.1-0.3,10,5.4,10.9l30.5,4.7c6.1,0.9,12.1-2,15.2-7.3
			c3.4-6,7-12.1,10.7-18.2c3.2-5.3,0.8-10.3-5.3-11.2l-31.4-4.4C214,266.9,208.1,269.8,205.1,275L205.1,275z"/>
		<path class="st2" d="M233.1,310.6c-0.8,0-1.7-0.1-2.5-0.2l-30.5-4.7c-3.3-0.5-5.8-2.2-7-4.7c-1.2-2.5-1.1-5.5,0.5-8.4
			c3.3-6,6.7-12.2,10.2-18.3c3.3-5.8,9.8-9,16.4-8l31.4,4.4c3.5,0.5,6.1,2.2,7.3,4.8c1.2,2.6,0.9,5.7-0.9,8.7
			c-3.7,6-7.3,12.2-10.7,18.2C244.3,307.5,239,310.6,233.1,310.6L233.1,310.6z M206.4,275.8c-3.5,6.1-6.9,12.2-10.2,18.2
			c-1.1,2-1.3,4.1-0.5,5.7c0.8,1.6,2.5,2.7,4.8,3l30.5,4.7c5.5,0.8,10.9-1.7,13.6-6.6c3.5-6,7.1-12.2,10.7-18.2
			c1.3-2.1,1.6-4.2,0.8-5.8c-0.8-1.7-2.6-2.8-5-3.1l-31.4-4.4C214.4,268.5,209.1,271,206.4,275.8L206.4,275.8z"/>
	</g>
	<path class="st6" d="M196.8,398.8c-0.7,1.9-1.3,3.9-2,5.8c-1.1,3.3-2.1,6.6-3.1,9.8c-2,6.7-8.3,11.1-15.2,10.6
		c-8.9-0.6-17.9-1.5-26.9-2.7c-4.3-0.6-7.2-4.7-6.3-9c1.2-5.2,2.5-10.5,4.1-16c0.2-0.8,0.5-1.7,0.7-2.5c2.1-7.3,9.4-11.9,17-10.5
		c8.2,1.5,18.6,3.4,26,4.8C195.6,389.9,198.3,394.5,196.8,398.8z"/>
	<path class="st4" d="M194.9,404.6c-1.1,3.3-2.1,6.6-3.1,9.8c-2,6.7-8.3,11.1-15.2,10.6c-8.9-0.6-17.9-1.5-26.9-2.7
		c-4.3-0.6-7.2-4.7-6.3-9c1.2-5.2,2.5-10.5,4.1-16c8.6-3.6-1.7,19.4,19.3,20.3C177.2,418.1,187.2,411.2,194.9,404.6L194.9,404.6z"/>
	<path class="st6" d="M85.7,384.1c-1.4,6.1-2.6,12-3.6,17.7c-0.6,3.8,1.7,7.4,5.4,8.4c7.8,2.1,16,4,24.2,5.7
		c7.9,1.7,15.7-3.3,17.6-11.2c1.3-5.7,2.9-11.7,4.6-17.7c1.2-4.2-1.5-8.6-5.8-9.4c-7.3-1.3-17.9-3.3-25.3-4.6
		C95,371.5,87.5,376.4,85.7,384.1L85.7,384.1z"/>
	<path class="st6" d="M71.5,375.2c-1.4,5.5-2.5,10.8-3.5,16c-1.3,6.7-8.3,10.7-14.7,8.4c-8.7-3.1-17.4-6.6-25.7-10.3
		c-3.2-1.4-4.9-4.9-4.2-8.3c0.6-2.6,1.2-5.3,1.8-7.9c1.8-7.7,9.4-12.5,17.1-11.1c33.9,6.2,8.8,1.6,23.3,4.3
		C69.8,366.9,72.5,371,71.5,375.2L71.5,375.2z"/>
	<path class="st6" d="M222.4,338.4c-2.9,6-5.7,11.9-8.4,17.7c-2.8,6.2-9.4,9.7-16.1,8.5c-2.6-0.5-5.5-1-8.5-1.5
		c-6.7-1.2-14-2.4-19.6-3.4c-5-0.9-7.5-5.4-5.6-10.2c2.4-5.9,5-11.9,7.8-18c2.8-6.1,9.3-9.6,15.9-8.5c5,0.8,10.8,1.8,16.5,2.7
		c0,0,0,0,0,0c4.4,0.7,8.8,1.4,12.5,2C222.3,328.7,224.8,333.5,222.4,338.4z"/>
	<path class="st6" d="M90.8,316.6c-2.2,5.4-4.2,10.7-6.1,15.9c-2.5,6.8-9.4,10.7-16.5,9.5l-24-4.2c-4.7-0.8-7.3-5.2-5.7-9.8
		c1.8-5.3,3.8-10.7,5.8-16.1c2.5-6.6,9.3-10.5,16.3-9.4c0.8,0.1,1.7,0.3,2.6,0.4c7.2,1.2,15.7,2.5,22,3.6c0.8,0.1,1.5,0.3,2.2,0.7
		C90.9,308.8,92.4,312.6,90.8,316.6L90.8,316.6z"/>
	<path class="st6" d="M156.2,327.5c-2.5,5.7-4.9,11.3-7.2,16.8c-2.3,5.5-7.6,9-13.4,9.2c-1,0-2,0-3-0.2c-8.7-1.5-14.2-2.5-17.7-3.1
		c0,0,0,0,0,0c0,0,0,0-0.1,0c0,0,0,0,0,0s0,0,0,0l0,0c0,0,0,0,0,0l0,0l0,0l0,0c0,0,0,0,0,0c0,0,0,0-0.1,0c0,0,0,0,0,0c0,0,0,0,0,0
		c0,0,0,0-0.1,0c0,0-0.1,0-0.1,0c0,0,0,0,0,0c0,0-0.1,0-0.1,0c-0.1,0-0.2,0-0.2,0c-0.1,0-0.1,0-0.1,0c-0.1,0-0.2,0-0.3-0.1
		c-0.1,0-0.1,0-0.2,0l0,0c-0.1,0-0.1,0-0.2,0c0,0,0,0,0,0l0,0c0,0-0.1,0-0.1,0c-0.1,0-0.1,0-0.2,0c0,0-0.1,0-0.1,0c0,0,0,0,0.1,0
		c-0.1,0-0.1,0-0.2,0c0,0-0.1,0-0.1,0c0,0,0,0,0,0c0,0,0,0-0.1,0c0,0-0.1,0-0.1,0c0,0-0.1,0-0.1,0c0,0-0.1,0-0.2,0c0,0,0,0-0.1,0
		c0,0,0,0,0,0c-0.1,0-0.1,0-0.2,0c0,0,0,0,0,0c0,0-0.1,0-0.1,0c0,0,0,0,0,0c-0.1,0-0.2,0-0.3,0c0,0,0,0,0,0c0,0-0.1,0-0.1,0
		c-0.1,0-0.2,0-0.3-0.1c0,0,0.1,0,0.1,0c-0.1,0-0.2,0-0.3,0c0,0,0,0,0,0c0,0-0.1,0-0.1,0c0,0-0.1,0-0.1,0c0,0-0.1,0-0.1,0
		c0,0,0,0,0,0c-0.1,0-0.1,0-0.2,0c0,0,0,0-0.1,0v0c0,0-0.1,0-0.1,0c0,0,0,0,0,0c0,0,0,0,0,0c0,0,0,0-0.1,0c0,0,0,0,0,0l0,0
		c0,0,0,0,0,0c0,0,0,0,0,0c0,0,0,0,0,0c0,0,0,0,0,0c0,0,0,0,0,0c0,0,0,0,0,0c0,0,0,0,0,0s0,0,0,0c-1.3-0.2-2.8-0.5-4.7-0.8
		c-4.8-0.8-7.4-5.3-5.7-9.9c2.1-5.6,4.3-11.3,6.6-17.1c2.6-6.4,9.3-10.1,16.1-9c1.8,0.3,3.7,0.6,5.8,0.9c7.6,1.2,16.1,2.6,22.5,3.6
		C155.8,318,158.3,322.6,156.2,327.5L156.2,327.5z"/>
	<path class="st6" d="M134.3,261.6c-3.1,5.8-6,11.5-8.8,17.2c-2.5,5,0,9.8,5.5,10.6c19.9,3,27,4.1,29.8,4.6c6.2,1,12.4-2.1,15.4-7.7
		c3-5.7,6.2-11.5,9.5-17.3c2.9-5.2,0.5-10.1-5.5-10.9c-9.2-1.3-21.6-3-30.7-4.3C143.4,253,137.3,256.1,134.3,261.6z"/>
	<path class="st7" d="M117.3,259.1c-0.1,0.2-0.2,0.4-0.3,0.5c-2.7,5.3-5.4,10.6-7.9,15.8c-2.8,5.9-9.2,9.2-15.6,8.2
		c-13.4-2.1-21.2-3.3-25.9-4c-5.3-0.8-7.9-5.5-5.6-10.4c1.9-4.2,3.9-8.5,5.9-12.8c0.6-1.2,1.1-2.3,1.7-3.5c2.8-5.8,9.1-9.2,15.5-8.3
		c8,1.1,18.7,2.6,26.7,3.7C117.4,249.2,120,254,117.3,259.1L117.3,259.1z"/>
	<path class="st6" d="M203.4,270.6c-3.5,6.1-6.9,12.2-10.2,18.3c-2.8,5.1-0.3,10,5.4,10.9l30.5,4.7c6.1,0.9,12.1-2,15.2-7.3
		c3.4-6,7-12.1,10.7-18.2c3.2-5.3,0.8-10.3-5.3-11.2l-31.4-4.4C212.4,262.5,206.5,265.4,203.4,270.6L203.4,270.6z"/>
	<path class="st4" d="M255.1,279c-3.7,6.1-7.3,12.2-10.7,18.2c-3.1,5.3-9.1,8.3-15.2,7.3l-30.5-4.7c-2.1-0.3-3.7-1.1-4.8-2.3
		c2.2-1.3,6.2-2,13-1.9c23.4,0.6,45.3-15.3,39.8-21.1c-5.5-5.8-24.1-0.1-32-1.2c-5.6-0.8-5.1-6.7,1.1-10.1c0,0,0,0,0,0
		c0.9,0,1.8,0,2.7,0.1l31.4,4.4C255.9,268.6,258.3,273.7,255.1,279L255.1,279z"/>
	<path class="st4" d="M185.7,269c-3.3,5.8-6.4,11.6-9.5,17.3c-3,5.6-9.1,8.7-15.4,7.7c-1.3-0.2-3.7-0.6-8-1.2
		c2.2-0.2,4.4-0.6,6.6-1.1c18.7-4.6-3.1-17.9,8.9-22.7c6.7-2.7,7.7-7.8,2.4-12.3c3.3,0.5,6.6,0.9,9.5,1.3
		C186.2,258.8,188.6,263.8,185.7,269L185.7,269z"/>
	<path class="st4" d="M117,259.7c-2.7,5.3-5.4,10.6-7.9,15.8c-2.8,5.9-9.2,9.2-15.6,8.2c-13.4-2.1-21.2-3.3-25.9-4
		c-5.3-0.8-7.9-5.5-5.6-10.4c1.9-4.2,3.9-8.5,5.9-12.8c3.4,2.9-1.3,19.5,16.5,20.3C97.2,277.3,109.1,267.1,117,259.7z"/>
	<path class="st4" d="M156.2,327.5c-2.5,5.7-4.9,11.3-7.2,16.8c-2.3,5.5-7.6,9-13.4,9.2c12.8-11,18.5-27.4,9.6-28.9
		c-13.3-2.3-21.4,8.4-28.3,2.7c-6.4-5.3,2.2-14,11.2-13.8c7.6,1.2,16.1,2.6,22.5,3.6C155.8,318,158.3,322.6,156.2,327.5L156.2,327.5
		z"/>
	<path class="st4" d="M222.4,338.4c-2.9,6-5.7,11.9-8.4,17.7c-2.8,6.2-9.4,9.7-16.1,8.5c-2.6-0.5-5.5-1-8.5-1.5
		c4.6-0.4,9.1-1.8,12.6-4.7c10.9-9.1,6-17.3,0.3-21.7c-3.6-2.7-2.7-7.9,2.1-11c0,0,0,0,0,0c4.4,0.7,8.8,1.4,12.5,2
		C222.3,328.7,224.8,333.5,222.4,338.4z"/>
	<path class="st4" d="M133.9,386.9c-1.8,6.1-3.3,12-4.6,17.7c-1.3,5.8-5.9,10-11.3,11.1c-1.6-4.7-4.6-9.5,1.8-12
		c13.6-5.4,3.6-20.8-33.7-21c2.3-6.9,9.4-11.2,16.8-9.9c7.5,1.4,18.1,3.3,25.3,4.6C132.5,378.3,135.2,382.7,133.9,386.9z"/>
	<path class="st4" d="M90.8,316.6c-2.2,5.4-4.2,10.7-6.1,15.9c-2.5,6.8-9.4,10.7-16.5,9.5l-16.9-3c7.1,0.7,14.9,0.7,21.7-1
		c18.7-4.6-3.1-17.9,8.9-22.7c4.7-1.9,6.6-5,5.5-8.2C90.9,308.9,92.4,312.7,90.8,316.6L90.8,316.6z"/>
	<path class="st3" d="M177.6,426.5c-0.4,0-0.8,0-1.2,0c-8.9-0.6-17.9-1.5-27-2.7c-2.5-0.3-4.7-1.7-6.2-3.7c-1.4-2-1.9-4.6-1.4-7
		c1.3-6,2.9-12.2,4.8-18.6c2.4-8.1,10.4-13.1,18.7-11.6l26.1,4.8c2.6,0.5,4.8,2,6.1,4.3c1.3,2.3,1.6,5,0.7,7.4
		c-1.8,5.2-3.5,10.5-5,15.5C191.1,421.8,184.8,426.5,177.6,426.5L177.6,426.5z M149.6,395.2c-1.8,6.3-3.4,12.5-4.8,18.4
		c-0.4,1.6,0,3.3,0.9,4.7c1,1.4,2.4,2.3,4.1,2.5c9,1.2,18,2.1,26.8,2.7c6.2,0.4,11.9-3.5,13.7-9.5c1.5-5.1,3.2-10.3,5.1-15.6
		c0.6-1.6,0.4-3.5-0.5-5c-0.9-1.5-2.3-2.5-4.1-2.8l-26.1-4.8C158,384.5,151.5,388.6,149.6,395.2L149.6,395.2z"/>
	<path class="st3" d="M114.8,417.7c-1.1,0-2.3-0.1-3.4-0.3c-8.3-1.7-16.4-3.7-24.3-5.7c-4.5-1.2-7.3-5.5-6.5-10.1
		c0.9-5.6,2.1-11.6,3.6-17.8c0.1-0.5,0.2-1,0.4-1.4c2.5-7.6,10.5-12.3,18.5-10.9l25.3,4.6c2.5,0.5,4.7,1.9,6,4.1
		c1.3,2.2,1.7,4.8,1,7.2v0c-1.8,6.1-3.3,12-4.6,17.7c-1.4,6.1-6.3,10.9-12.5,12.3C117.1,417.5,116,417.7,114.8,417.7L114.8,417.7z
		 M100.1,374.2c-5.6,0-10.9,3.6-12.7,9.1c-0.1,0.4-0.2,0.8-0.3,1.2c-1.4,6.1-2.6,12-3.5,17.6c-0.5,3,1.4,5.9,4.3,6.7
		c7.8,2.1,15.9,4,24.1,5.7c1.9,0.4,3.8,0.4,5.6,0c5-1.1,9-5,10.2-10c1.3-5.7,2.9-11.7,4.7-17.8c0.5-1.6,0.2-3.4-0.7-4.8
		c-0.9-1.4-2.3-2.4-4-2.7l-25.3-4.6C101.7,374.2,100.9,374.2,100.1,374.2L100.1,374.2z M133.9,386.9L133.9,386.9L133.9,386.9z"/>
	<path class="st3" d="M57,401.7c-0.2,0-0.4,0-0.5,0c0,0-0.1,0-0.1,0c-1.2-0.1-2.4-0.3-3.6-0.7c-2.3-0.8-4.5-1.6-6.7-2.5
		c-6.7-2.5-13.1-5.2-19.1-7.9c-3.8-1.7-5.9-5.9-5-10c0.5-2.5,1.1-5.1,1.8-8c0.7-3,2.3-5.7,4.5-7.9c3.8-3.7,9.2-5.3,14.4-4.4
		c12.1,2.2,16.7,3,18.3,3.3c0,0,0.1,0,0.1,0c0,0,0,0,0.1,0c0,0,0,0,0,0c0,0,0.1,0,0.1,0c0,0,0.1,0,0.1,0c0,0,0.1,0,0.1,0
		c0,0,0,0,0.1,0l0.5,0.1c0.8,0.1,2,0.4,3.9,0.7c2.5,0.5,4.5,1.9,5.9,3.9c1.3,2.1,1.8,4.6,1.2,7c-1.4,5.5-2.5,10.8-3.5,15.9
		c-1,5.4-5.3,9.5-10.7,10.2l-0.7,0.1c0,0-0.1,0-0.1,0C57.6,401.7,57.3,401.7,57,401.7z M56.5,398.7
		C56.5,398.7,56.6,398.7,56.5,398.7c0.4,0,0.8,0,1.3,0c0,0,0.1,0,0.1,0l0.6-0.1c4-0.6,7.3-3.7,8.1-7.8c1-5.1,2.1-10.5,3.5-16
		c0,0,0,0,0,0c0.4-1.6,0.1-3.3-0.8-4.6c-0.9-1.4-2.3-2.3-3.9-2.6c-1.9-0.3-3.1-0.6-3.9-0.7l-0.5-0.1c0,0-0.1,0-0.1,0
		c0,0-0.1,0-0.1,0c0,0-0.1,0-0.1,0c0,0,0,0,0,0c0,0-0.1,0-0.1,0c0,0,0,0-0.1,0c0,0-0.1,0-0.1,0c-1.5-0.3-6.1-1.1-18.3-3.3
		c-4.2-0.8-8.6,0.6-11.7,3.6c-1.8,1.8-3.1,4-3.7,6.4c-0.7,2.9-1.3,5.5-1.8,7.9c-0.6,2.7,0.8,5.5,3.3,6.6c5.9,2.7,12.2,5.3,18.9,7.8
		c2.2,0.8,4.4,1.7,6.7,2.5C54.7,398.5,55.6,398.7,56.5,398.7C56.5,398.7,56.5,398.7,56.5,398.7L56.5,398.7z M61.4,363.8
		C61.4,363.8,61.4,363.8,61.4,363.8C61.4,363.8,61.4,363.8,61.4,363.8C61.4,363.8,61.4,363.8,61.4,363.8L61.4,363.8z"/>
	<path class="st3" d="M200.4,366.4c-0.9,0-1.9-0.1-2.8-0.2l-28.1-4.9c-2.9-0.5-5.2-2.1-6.5-4.4s-1.4-5.1-0.3-7.8
		c2.4-5.9,5.1-12,7.8-18c3-6.7,10.2-10.5,17.5-9.4l29,4.7c3.1,0.5,5.5,2.1,6.8,4.6s1.2,5.4-0.2,8.2c-2.9,5.9-5.7,11.9-8.4,17.7
		C212.7,362.7,206.8,366.4,200.4,366.4L200.4,366.4z M173.3,332.3c-2.7,6-5.4,12.1-7.8,17.9c-0.8,1.9-0.7,3.7,0.1,5.2
		s2.4,2.5,4.4,2.9l28.1,4.9c6,1,12-2.1,14.5-7.7c2.6-5.8,5.5-11.8,8.4-17.7c1-2,1-3.9,0.2-5.5c-0.8-1.6-2.5-2.6-4.6-3l-29-4.7
		C181.7,323.7,175.8,326.8,173.3,332.3L173.3,332.3z"/>
	<path class="st3" d="M70.8,343.8c-0.9,0-1.9-0.1-2.8-0.2l-24-4.2c-2.7-0.5-4.9-2-6.3-4.2c-1.3-2.2-1.5-4.9-0.6-7.5
		c1.8-5.2,3.7-10.6,5.8-16.2c2.7-7.2,10.3-11.6,17.9-10.4l24.6,4c1,0.2,1.9,0.4,2.8,0.9c4.3,2,6,6.7,4.1,11.3v0
		c-2.2,5.4-4.2,10.7-6.1,15.8C83.7,339.6,77.6,343.8,70.8,343.8L70.8,343.8z M58.2,303.9c-5.5,0-10.5,3.4-12.5,8.6
		c-2.1,5.5-4,10.9-5.8,16.1c-0.6,1.8-0.5,3.6,0.4,5c0.9,1.5,2.3,2.4,4.2,2.8l24,4.2c6.4,1.1,12.6-2.5,14.8-8.5
		c1.9-5.2,4-10.5,6.1-15.9c1.3-3.1,0.2-6.1-2.6-7.5c-0.6-0.3-1.2-0.5-1.9-0.6l-24.6-4C59.6,303.9,58.9,303.9,58.2,303.9L58.2,303.9z
		 M90.8,316.6L90.8,316.6L90.8,316.6z"/>
	<path class="st3" d="M135.2,355c-0.9,0-1.9-0.1-2.8-0.2l-2.2-0.4c-7.4-1.3-12.3-2.1-15.5-2.7c0,0,0,0,0,0c-0.1,0-0.1,0-0.2,0
		c0,0,0,0,0,0c0,0-0.1,0-0.1,0c0,0-0.1,0-0.1,0c0,0,0,0,0,0c0,0,0,0-0.1,0c0,0,0,0,0,0c-0.1,0-0.1,0-0.2,0c-0.1,0-0.1,0-0.3,0
		c0,0-0.1,0-0.1,0l-0.3,0c0,0-0.1,0-0.1,0c-0.1,0-0.2,0-0.3,0c0,0,0,0-0.1,0c0,0-0.1,0-0.1,0l-0.1,0c-0.1,0-0.1,0-0.2,0
		c0,0-0.1,0-0.1,0v0c0,0-0.1,0-0.1,0c0,0,0,0,0,0c-0.1,0-0.1,0-0.2,0l0,0c-0.1,0-0.1,0-0.2,0c0,0,0,0-0.1,0v0c0,0,0,0-0.1,0
		c0,0,0,0-0.1,0c-0.1,0-0.1,0-0.2,0l-0.2,0c0,0,0,0,0,0c-0.1,0-0.2,0-0.2,0l-0.1,0c0,0,0,0,0,0c0,0-0.1,0-0.1,0c-0.1,0-0.2,0-0.2,0
		c0,0,0,0,0,0l-0.2,0c0,0,0,0,0,0c-0.1,0-0.2,0-0.2,0c-0.1,0-0.1,0-0.2,0c0,0-0.1,0-0.1,0c0,0,0,0,0,0c0,0-0.1,0-0.1,0c0,0,0,0,0,0
		c0,0-0.1,0-0.1,0c0,0,0,0,0,0L105,350c-4-0.7-6.9-3.6-7.4-7.4c-0.2-1.5,0-3,0.5-4.5c1.5-4.1,3.2-8.4,4.9-12.7
		c0.6-1.4,1.2-2.9,1.8-4.4c2.9-7.1,10.2-11.2,17.8-9.9l5.2,0.8c7.7,1.2,16.5,2.7,23.1,3.7c3,0.5,5.4,2.1,6.7,4.4
		c1.3,2.4,1.3,5.2,0.1,8c-2.5,5.7-4.9,11.4-7.2,16.8C147.8,351,141.7,355,135.2,355L135.2,355z M115.2,348.7
		c3.1,0.6,8.1,1.4,15.4,2.7l2.2,0.4c6.1,1.1,12.3-2.3,14.7-8.1c2.2-5.5,4.6-11.1,7.2-16.9c0,0,0,0,0,0c0.9-1.9,0.9-3.8,0-5.3
		c-0.8-1.5-2.4-2.6-4.5-2.9c-6.6-1.1-15.4-2.5-23.1-3.7l-5.2-0.8c-6.2-1-12.1,2.3-14.5,8.1c-0.6,1.5-1.2,2.9-1.7,4.3
		c-1.7,4.3-3.3,8.6-4.8,12.7c-0.4,1-0.5,2.1-0.4,3.1c0.3,2.5,2.2,4.4,4.9,4.8l4.7,0.8v0c0,0,0,0,0,0c0,0,0.1,0,0.1,0c0,0,0,0,0,0
		c0,0,0,0,0,0c0,0,0,0,0,0c0,0,0,0,0,0c0,0,0,0,0,0c0,0,0,0,0,0c0,0,0,0,0,0c0,0,0,0,0,0c0,0,0,0,0,0c0.1,0,0.1,0,0.2,0
		c0,0,0.1,0,0.1,0c0.1,0,0.1,0,0.2,0l0.1,0l0,0c0.1,0,0.1,0,0.1,0c0,0,0,0,0.1,0c0,0,0,0,0,0l0.3,0.1c0,0,0.1,0,0.1,0
		c0,0,0.1,0,0.1,0l0.2,0c0,0,0,0,0,0l0,0c0,0,0,0,0,0c0,0,0,0,0.1,0c0.1,0,0.2,0,0.2,0c0,0,0.1,0,0.1,0c0,0,0.1,0,0.1,0c0,0,0,0,0,0
		c0.1,0,0.1,0,0.2,0c0,0,0,0,0,0v0c0.1,0,0.2,0,0.2,0c0,0,0.1,0,0.1,0c0,0,0.1,0,0.1,0c0.1,0,0.1,0,0.2,0c0.1,0,0.1,0,0.2,0
		c0,0,0,0,0,0c0,0,0.1,0,0.1,0l0.3,0c0.1,0,0.1,0,0.2,0l0.2,0c0,0,0.1,0,0.1,0c0,0,0,0,0.1,0l0.2,0h0c0,0,0.1,0,0.1,0c0,0,0,0,0,0
		c0,0,0,0,0,0C115.1,348.7,115.1,348.7,115.2,348.7C115.2,348.7,115.2,348.7,115.2,348.7L115.2,348.7z M112,351.2
		C112,351.2,112,351.2,112,351.2C112,351.2,112,351.2,112,351.2z M115.5,348.8c0.1,0.1,0.3,0.1,0.4,0.2
		C115.7,349,115.6,348.9,115.5,348.8z"/>
	<path class="st3" d="M163.1,295.7c-0.8,0-1.7-0.1-2.5-0.2c-1.1-0.2-2.8-0.4-5.6-0.9l-24.2-3.7c-3.2-0.5-5.6-2.1-6.9-4.6
		c-1.3-2.5-1.2-5.4,0.2-8.3c2.8-5.6,5.7-11.4,8.8-17.3c3.2-6.1,10-9.6,16.8-8.6l30.7,4.3c3.4,0.5,5.9,2.1,7.2,4.7
		c1.3,2.5,1,5.6-0.6,8.5c-3.2,5.7-6.4,11.5-9.4,17.3C174.7,292.4,169.1,295.7,163.1,295.7L163.1,295.7z M147.5,255
		c-4.9,0-9.5,2.7-11.9,7.2c-3.1,5.8-6,11.7-8.8,17.2c-1,2-1.1,4-0.3,5.5c0.8,1.6,2.5,2.6,4.7,3l24.2,3.7c2.8,0.4,4.5,0.7,5.6,0.9
		c5.6,0.9,11.2-1.9,13.8-6.9c3.1-5.8,6.3-11.7,9.5-17.4c1.2-2.1,1.4-4.1,0.6-5.7c-0.8-1.6-2.5-2.7-4.9-3l-30.7-4.3
		C148.8,255.1,148.1,255,147.5,255L147.5,255z M185.7,269L185.7,269L185.7,269z"/>
	<path class="st3" d="M95.8,285.4c-0.8,0-1.7-0.1-2.5-0.2l-25.8-4c-3.1-0.5-5.4-2-6.7-4.4c-1.3-2.4-1.3-5.3,0-8.1
		c2.5-5.4,5-10.9,7.6-16.4c3.1-6.5,10-10.2,17-9.2l26.7,3.7c3.2,0.5,5.7,2.1,7,4.6c1.3,2.5,1.2,5.4-0.3,8.4
		c-2.8,5.4-5.6,10.9-8.2,16.4C107.7,281.9,102,285.4,95.8,285.4z M83,246c-5.1,0-9.8,2.9-12,7.6c-2.6,5.4-5.2,10.9-7.6,16.3
		c-0.9,1.9-0.9,3.9-0.1,5.4c0.8,1.5,2.5,2.6,4.6,2.9l25.8,4c5.8,0.9,11.5-2.1,14.1-7.4c2.6-5.4,5.4-11,8.2-16.4c1-2,1.2-4,0.3-5.6
		c-0.8-1.6-2.5-2.7-4.8-3l-26.7-3.7C84.3,246,83.6,246,83,246L83,246z"/>
	<path class="st3" d="M231.5,306.2c-0.8,0-1.7-0.1-2.5-0.2l-30.5-4.7c-2.3-0.4-4.3-1.3-5.7-2.8c-2.5-2.6-2.8-6.6-0.8-10.3
		c3.3-6,6.7-12.2,10.2-18.3c2.8-4.9,7.8-7.9,13.4-8.2c0.1,0,0.1,0,0.2,0c1,0,1.9,0,2.9,0.1l31.4,4.4c3.5,0.5,6.1,2.2,7.3,4.8
		c1.2,2.6,0.9,5.7-0.9,8.7c-3.7,6-7.3,12.2-10.7,18.2C242.7,303.1,237.3,306.2,231.5,306.2L231.5,306.2z M215.7,264.7
		c-4.6,0.2-8.7,2.7-11,6.7c-3.5,6.1-6.9,12.2-10.2,18.2c-1.4,2.6-1.3,5.1,0.4,6.8c0.9,1,2.3,1.6,4,1.9l30.5,4.7
		c5.5,0.8,10.9-1.8,13.6-6.6c3.5-6,7.1-12.2,10.7-18.2c1.3-2.1,1.6-4.2,0.8-5.8c-0.8-1.7-2.6-2.8-5-3.1l-31.4-4.4
		C217.4,264.7,216.5,264.7,215.7,264.7C215.7,264.7,215.7,264.7,215.7,264.7L215.7,264.7z"/>
	<path class="st2" d="M555.7,88.8L555.7,88.8C546.5,66.8,529,52.5,508.2,41c-2.4,1.7-4.8,3.4-7.2,5.2
		c-17.2,12.7-35.1,27.6-53.3,44.5c12.3-10.3,39.1-25.2,54.2-20c16.1,5.5,12.9,25.7,8.6,36.4c-15.1,38,8,29.1,5.1,70.8
		c-0.8,11.1-1.8,25.8-9,39.7c-16.2,31.2-1.1,24,3.1,18.6c12.6-16.3,22.8-30.8,29.2-40.9C558.5,164,569.7,122.5,555.7,88.8
		L555.7,88.8z"/>
	<path class="st2" d="M501.9,242.4c-0.8,0-1.5-0.2-2.2-0.6c-3.8-2.4-2-10.3,5.6-25c7.1-13.6,8.1-28.3,8.8-39.1
		c1.3-18.5-2.5-26.7-5.9-33.9c-4.2-9-7.5-16,0.9-37.4c3-7.7,5-18.6,1.5-26.3c-1.8-3.9-4.9-6.6-9.2-8.1c-14-4.8-39.8,8.9-52.7,19.8
		c-0.6,0.5-1.6,0.5-2.1-0.2c-0.5-0.6-0.5-1.5,0.1-2.1c18.1-16.8,36.1-31.8,53.5-44.6c2.4-1.8,4.8-3.5,7.2-5.2
		c0.5-0.3,1.1-0.4,1.6-0.1c25.1,14,40,29,48.1,48.6h0c15,35.9,1,79.2-17,107.7c-6.7,10.5-17.1,25.1-29.3,41
		C509.1,239.3,505.1,242.4,501.9,242.4L501.9,242.4z M494.7,68c2.7,0,5.3,0.4,7.6,1.2c5.1,1.8,8.8,5,10.9,9.7
		c3.9,8.6,1.9,20.5-1.4,28.7c-8,20.2-5.1,26.4-1,35c3.4,7.2,7.5,16.1,6.2,35.3c-0.8,11-1.8,26.1-9.2,40.2c-9.7,18.8-6.7,21-6.6,21
		c1.1,0.7,5.1-1.3,7.2-4.1c12.2-15.8,22.5-30.3,29.1-40.8c17.6-27.9,31.2-70.1,16.7-105c0,0,0,0,0,0c-7.8-18.8-22-33.2-46-46.7
		c-2.1,1.5-4.3,3.1-6.4,4.6c-12.3,9.1-25,19.2-37.8,30.4C473.8,72.5,485.1,68,494.7,68L494.7,68z"/>
	<path class="st2" d="M362,392.9c-0.9,5.5-1.6,8.9-3.4,16.7c-36.3,37.7-73.4,73.4-107,102.2c13.2-11.6,18-53.5,25.8-99.2
		c1.3-7.8,5-27.8,7-37.1c9.1-42.3,51.8-25.9,46.9,5.3c-1.5,9.4-3.2,21.5-5.2,33.1c-3.4,20.2,6.8,21.7,10.1,3
		c0.6-3.2,3.4-17.4,5.7-30C345.3,369.4,366.4,366.8,362,392.9L362,392.9z"/>
	<path class="st2" d="M251.6,513.3c-0.4,0-0.8-0.2-1.1-0.5c-0.5-0.6-0.5-1.6,0.1-2.1c10.7-9.5,15.9-41,21.9-77.4
		c1.1-6.8,2.3-13.8,3.5-20.9c1.3-7.4,5-27.5,7-37.1c2.1-9.8,6.2-17.3,11.8-21.9c5-4,11.2-5.6,17.4-4.5c12.2,2.3,23.3,14.9,20.6,32.2
		c-0.5,3.4-1.1,7.2-1.7,11.1c-1,6.8-2.2,14.6-3.4,22c-1.7,10.5,0.4,14.2,1.4,14.4c0.9,0.2,4.1-2.4,5.8-11.9c0.2-1.3,0.9-4.6,1.7-8.9
		c1.1-5.9,2.7-13.8,4-21.1c1.9-10.4,9.4-15.6,15.3-14.6c5.2,0.9,10,6.9,7.6,21c-1,5.6-1.7,9.1-3.5,16.8c-0.1,0.3-0.2,0.5-0.4,0.7
		c-38.5,39.9-75.5,75.3-107.1,102.3C252.2,513.2,251.9,513.3,251.6,513.3L251.6,513.3z M308.2,351.6c-8.8,0-18.5,6.3-22.4,24.3
		c-2,9.5-5.7,29.7-7,37c-1.2,7.1-2.4,14.1-3.5,20.9c-4.7,28.7-8.9,54.4-15.9,69.2c29.4-25.8,62.9-58.1,97.7-94.1
		c1.7-7.3,2.4-10.8,3.3-16.2c1.3-7.4,0.7-16.5-5.2-17.5c-4.5-0.8-10.3,3.9-11.8,12.2c-1.4,7.3-2.9,15.2-4,21.1
		c-0.8,4.3-1.5,7.6-1.7,8.9c-1.7,9.4-5.3,15-9.2,14.3c-4.1-0.7-5.6-7.5-3.9-17.8c1.2-7.4,2.4-15.1,3.4-22c0.6-4,1.2-7.7,1.7-11.2
		c2.4-15.5-7.3-26.8-18.2-28.8C310.5,351.7,309.4,351.6,308.2,351.6L308.2,351.6z M358.5,409.6L358.5,409.6L358.5,409.6z"/>
</g>
<g transform="translate(166.15384615384613 380.7692307692307) rotate(0.0 909.2307692307692 729.2307692307692)  scale(2.3016082341494988 2.302755229628784)">
	<path class="st4" d="M534.5,378.7c19.5-26.2,4.1-83.8-15.2-118.1l11.7-3.3C545.2,290.1,565.8,361.4,534.5,378.7z"/>
	
		<ellipse transform="matrix(0.4636 -0.886 0.886 0.4636 -429.9613 413.2376)" class="st2" cx="126.3" cy="561.7" rx="29.9" ry="140"/>
	<path class="st2" d="M236,633.3c-25.8,0-77.2-19.2-124.2-43.7c-33.2-17.4-63-36.5-83.9-53.8C12.7,523.2-4.3,506.1,1,496.2
		c9.1-17.4,78.3,5.5,140,37.7c61.6,32.2,120,76,110.8,93.4C249.6,631.5,244,633.3,236,633.3L236,633.3z M16.6,493.1
		c-7,0-11.5,1.5-13,4.4c-3.2,6.2,6.5,19.6,26.2,35.9c20.7,17.2,50.4,36.2,83.4,53.5c73.4,38.4,129.6,51.2,135.9,39l1.3,0.7l-1.3-0.7
		c6.4-12.2-36.1-51-109.6-89.4C84,507.5,38.3,493.1,16.6,493.1L16.6,493.1z"/>
	<path class="st3" d="M467.6,450.3c-2.7,0-5.3-0.5-7.9-1.4c-7-2.6-12.2-8.7-14.9-17.5c-3.1-9.7-3-22.1,0.2-36.7
		c3.5-16.2,4.8-29.9,5.6-40c1.5-20.7-3.9-37.2-15.4-46.4c-11.8-9.5-29.7-11-51.5-4.3c-0.5,0.1-1,0-1.4-0.3s-0.6-0.8-0.5-1.3
		l4.5-47.2c0.1-0.8,0.8-1.4,1.6-1.4c0.2,0,16,0.8,58.7-1.6c0.1,0,0.3,0,0.4,0c36.3,7.4,60,23.5,70.2,47.9
		c8.4,19.9,5.7,39.9,4.3,50.6l-0.2,1.5c-2.7,21.4-8.7,51.7-21.4,74.6C491.6,441.6,479.2,450.3,467.6,450.3L467.6,450.3z
		 M408.3,296.9c11.4,0,21.2,3,28.7,9.1c12.3,9.8,18.1,27.2,16.5,48.9c-0.8,10.2-2.1,24-5.6,40.4c-6.8,31.2,2.2,46.7,12.9,50.7
		c9.9,3.8,25.5-1.1,36.4-20.5c12.5-22.4,18.4-52.3,21.1-73.5l0.2-1.6c1.4-10.5,3.9-30-4.1-49.1c-9.8-23.4-32.7-38.9-67.9-46.1
		c-35.6,2-52.6,1.8-57.4,1.7l-4.2,43.5C393.3,298.1,401.1,296.9,408.3,296.9L408.3,296.9z"/>
	<path class="st8" d="M540.5,283.4c7.6,23.8,17.1,63.7,4.2,85c-6.5,10.8-17.1,15.4-27.6,11.4c-0.8,0.2-1.5,0.4-2.3,0.5
		c-3.5,15.9-8.8,32.2-16.4,45.8c-10.2,18.2-25.9,25.6-37.9,21.3c-10.9,11.1-23.5,21.8-36.7,28.8c-18.1,9.7-35,6.1-40.5-5.3
		c-17.4,13-37.7,20.7-59.9,30.9c0,0,0,0-0.1,0c-46.8,21.6-82.9,49.4-116.8,103.5C191.2,616.7,78.8,562.4,50,530.3c0,0,0,0,0,0
		c-3.3-3.7-5.2-6.8-5.3-9.1c48.1-128,109.6-252.1,227.5-310.8c123.9-61.7,173.3-52,243,1.6c27.9,21.4,33.3,26.9,37.4,35.4
		C559.8,262.1,555.7,277.4,540.5,283.4L540.5,283.4z"/>
	<path class="st2" d="M323.4,502C288,518.3,248,541.2,207.9,603.3l0,0c-0.5,0.7-0.9,1.4-1.4,2.2c-2.7,2-9,1.8-17.9-0.2
		c6.8-3.1,10.9-7.5,13.6-12.6c8.1-15.3,4.5-37.1,27.7-49.5c11.9-6.4,11.4-12.8,5.8-18.6c-5.2-5.3-3.5-9.2,4-8.5
		C271.4,519,303.3,510.4,323.4,502L323.4,502z"/>
	<path class="st2" d="M200.3,608.3c-3.2,0-7.2-0.5-12-1.6c-0.6-0.1-1.1-0.7-1.2-1.3s0.3-1.3,0.9-1.5c5.9-2.6,10-6.4,12.9-11.9
		c2.5-4.7,3.8-10,5.3-15.6c3.1-12.1,6.6-25.8,23.1-34.6c5.4-2.9,8.3-5.8,8.8-8.8c0.3-2.3-0.8-4.8-3.4-7.4c-4.1-4.2-3.7-6.9-3-8.2
		c0.7-1.6,2.8-3.3,8.2-2.8c38,3.5,73.1-9.8,83-13.9c0.8-0.3,1.6,0,2,0.8c0.3,0.7,0,1.6-0.7,2c-34.3,15.8-74.3,38-114.8,100.7
		c0,0,0,0,0,0c-0.5,0.7-0.9,1.4-1.4,2.1c-0.1,0.2-0.2,0.3-0.4,0.4C205.9,607.8,203.5,608.3,200.3,608.3z M193.1,604.6
		c8.2,1.4,11.3,0.5,12.4-0.2c0.4-0.6,0.8-1.3,1.2-1.9c0,0,0,0,0,0c33-51.1,65.6-75.5,95.1-91.5c-16.2,4.5-38.7,8.7-62.3,6.5
		c-3.3-0.3-4.9,0.4-5.2,1.1c-0.3,0.7,0.1,2.4,2.5,4.8c3.3,3.4,4.7,6.7,4.2,10c-0.6,4-4,7.6-10.3,11c-15.3,8.2-18.5,20.7-21.6,32.7
		c-1.5,5.8-2.9,11.2-5.5,16.2C201,598.2,197.6,601.8,193.1,604.6L193.1,604.6z"/>
	<path class="st4" d="M460.6,447.6c-10.9,11.1-23.5,21.8-36.8,28.8c-20.1,10.8-38.7,5.1-42-9.4c13.9,15.8,45.8-0.2,71.1-24.2
		c1.4,1.4,3,2.6,4.7,3.5C458.6,446.8,459.6,447.2,460.6,447.6L460.6,447.6z"/>
	<path class="st6" d="M415.9,335.9c-0.4-0.2-0.8-0.5-1.2-0.7C415.2,335.4,415.6,335.7,415.9,335.9z"/>
	<path class="st6" d="M418.2,337.3c-0.7-0.5-1.4-0.9-2.1-1.3C417.2,336.6,418,337.1,418.2,337.3z"/>
	<path class="st3" d="M383.3,472.6c-0.6,0-1.1-0.3-1.4-0.8c-5.7-11.8,0.6-28.6,16.9-44.9c10.5-10.4,18-20.1,23.5-27.3
		c9.8-13,14-26,11.9-37.5c-1.6-9.4-7.3-17.3-16.8-23.5c-0.7-0.5-0.9-1.4-0.4-2.1s1.4-0.9,2.1-0.4c10.3,6.7,16.4,15.3,18.2,25.5
		c2.2,12.3-2.2,26.1-12.5,39.8c-5.5,7.3-13.2,17-23.7,27.6c-15.4,15.4-21.5,30.9-16.3,41.5c0.4,0.7,0.1,1.6-0.7,2
		C383.8,472.5,383.5,472.6,383.3,472.6L383.3,472.6z"/>
	<path class="st4" d="M515.1,379c-3.6,16.3-8.8,33.2-16.7,47.2c-11,19.8-28.5,26.7-40.7,20c27.8,2.4,42.3-38.1,47.8-74.7
		C508.6,375,511.9,377.4,515.1,379z"/>
	<path class="st2" d="M540.5,283.4c3,9.5,5.8,19.6,7.7,29.9c-29.5-13.5-70.3-31.8-101.8-44c-9.6-3.7-8.3-17.6,1.7-19.6
		c0.9-0.1,26.6-6.7,56.7,3.1l49.9,16.2C552.7,275.4,547.8,280.6,540.5,283.4z"/>
	<path class="st2" d="M548.2,314.9c-0.2,0-0.4,0-0.6-0.1c-43.7-20-76.9-34.4-101.7-44c-5-1.9-7.9-6.6-7.5-11.9
		c0.5-5.3,4.2-9.5,9.4-10.5c0.1,0,0.1,0,0.2,0c0,0,0.2,0,0.5-0.1c10.7-2.2,32.4-4.6,56.8,3.3l49.9,16.2c0.4,0.1,0.7,0.4,0.9,0.8
		c0.2,0.4,0.2,0.8,0.1,1.2c-2.2,6.4-7.1,11.6-13.9,14.6c3.2,10.1,5.6,19.8,7.3,28.8c0.1,0.6-0.1,1.1-0.6,1.5
		C548.9,314.8,548.6,314.9,548.2,314.9L548.2,314.9z M448.4,251.3c-4.8,0.9-6.8,4.8-7,7.8c-0.3,3,1,7.1,5.5,8.9
		c24.3,9.4,56.8,23.4,99.2,42.8c-1.7-8.4-4.1-17.5-7.1-26.9c-0.2-0.8,0.1-1.6,0.9-1.8c6.1-2.4,10.6-6.5,12.9-11.9l-48.4-15.7
		c-23.7-7.7-44.8-5.3-55.3-3.2C448.8,251.2,448.6,251.3,448.4,251.3L448.4,251.3z"/>
	<path class="st3" d="M543.6,366.4c-0.9,0-1.8-0.3-2.5-0.7c-5.8-3.6-9.1-10.7-9.9-20.9c-0.8-10.8-1.4-18.6,3-23.6
		c2.8-3.2,7.5-4.9,14.6-5.2c0.8,0,1.4,0.5,1.6,1.2c0.4,2.1,0.7,4.2,1,6.7c0.7,5.1,1.1,10.1,1.2,14.8c0,0.4,0,0.9,0,1.3
		c0,8.6-1.5,16.7-4.5,23.3c-0.6,1.4-1.7,2.4-3.1,2.8C544.5,366.3,544.1,366.4,543.6,366.4L543.6,366.4z M547.7,319.1
		c-5.5,0.4-9.1,1.8-11.2,4.1c-3.6,4-3,11.3-2.3,21.3c0.7,9.3,3.5,15.5,8.5,18.6c0.6,0.4,1.1,0.3,1.4,0.2c0.6-0.2,1-0.6,1.3-1.2
		c2.7-6.3,4.2-14,4.2-22.2c0-0.4,0-0.8,0-1.2c-0.1-4.7-0.5-9.5-1.1-14.5c0,0,0,0,0,0C548.2,322.4,548,320.7,547.7,319.1L547.7,319.1
		z"/>
	<path class="st3" d="M524.6,382.8c-1,0-2-0.1-3-0.2c-6.7-0.9-23.3-6.8-32.6-41.1c-4.1-14.9-9-26.9-13.3-37.5l-0.2-0.5
		c-4.8-11.7-13.3-18.7-26.1-21.2c-0.8-0.2-1.3-1-1.2-1.8c0.2-0.8,1-1.3,1.8-1.2c13.6,2.7,23.2,10.5,28.3,23l0.2,0.5
		c4.4,10.7,9.3,22.8,13.5,37.9c8.9,32.6,24.1,38.1,30.2,38.9c8.2,1.1,16.2-3.3,21.4-12c15.1-25-1.4-76.8-9.2-97.9
		c-0.3-0.8,0.1-1.6,0.9-1.9c0.8-0.3,1.6,0.1,1.9,0.9c7.9,21.5,24.7,74.4,9,100.5C540.8,377.9,533,382.8,524.6,382.8L524.6,382.8z"/>
	<path class="st2" d="M475.5,299.9c-13-18.8-34-12.7-50.3-9.4s-29.2,1.3-4.4-7.4C439.8,276.3,463.8,274.2,475.5,299.9z"/>
	<path class="st2" d="M475.5,301.4c-0.5,0-0.9-0.2-1.2-0.6c-11.5-16.6-29.2-12.9-44.9-9.6c-1.3,0.3-2.6,0.5-3.8,0.8
		c-4.4,0.9-18.8,3.4-20-1c-0.5-1.8,0.2-4.2,14.8-9.3c27.3-9.6,46.9-3.5,56.6,17.7c0.3,0.7,0.1,1.5-0.6,1.9
		C476,301.3,475.8,301.4,475.5,301.4L475.5,301.4z M408.9,290.1c1.9,0.5,7.5,0.6,16.1-1.1c1.2-0.2,2.5-0.5,3.8-0.8
		c12.2-2.5,26.6-5.5,38.4,1.6c-10-10.7-25.4-12.5-45.8-5.3C412.6,287.5,409.8,289.3,408.9,290.1L408.9,290.1z"/>
	<path class="st3" d="M460.6,449.1c-0.2,0-0.3,0-0.5-0.1c-12.1-4.3-22.4-20.8-15.1-54.3c3.5-16.2,4.8-29.9,5.6-40
		c1.3-17.8-2.4-32.3-10.9-42c-6.7-7.7-16-11.9-27.7-12.7c-0.8-0.1-1.5-0.8-1.4-1.6c0.1-0.8,0.8-1.5,1.6-1.4
		c12.5,0.8,22.5,5.4,29.8,13.7c9,10.3,13,25.6,11.6,44.2c-0.8,10.2-2.1,24-5.6,40.4c-6.9,31.5,2.3,46.9,13.2,50.8
		c0.8,0.3,1.2,1.1,0.9,1.9C461.8,448.7,461.2,449.1,460.6,449.1L460.6,449.1z"/>
	<path class="st2" d="M436.8,307.8c-9-7.9-26.9-13.5-35.4-4.2c-5.3,5.9,6,1.7,15,1C423.4,304.1,428.7,303.1,436.8,307.8z"/>
	<path class="st2" d="M436.8,309.3c-0.3,0-0.5-0.1-0.7-0.2c-7-4-11.6-3.6-17.5-3.2c-0.6,0.1-1.3,0.1-1.9,0.2
		c-2.7,0.2-5.7,0.7-8.3,1.2c-5.4,1-8.4,1.5-9.5-0.4c-0.9-1.7,0.8-3.5,1.5-4.3c9-9.9,27.9-4.3,37.5,4.1c0.6,0.5,0.7,1.4,0.2,2
		C437.8,309.1,437.3,309.3,436.8,309.3L436.8,309.3z M413.7,300.3c-4.4,0-8.4,1.2-11.2,4.3c-0.2,0.2-0.4,0.4-0.5,0.6
		c1.4-0.1,3.8-0.5,5.7-0.8c2.7-0.5,5.7-1,8.6-1.2c0.7,0,1.3-0.1,1.9-0.1c2.4-0.2,4.6-0.4,6.9-0.3
		C421.5,301.2,417.5,300.3,413.7,300.3L413.7,300.3z"/>
	<path class="st8" d="M272.2,210.3c123.9-61.7,173.3-52,243,1.6c8.2,6.3,16.6,13.1,25.5,20.6c5.4,4.6,9.4,9.7,11.9,14.9
		c13.2,27.2-12.2,54.1-64.8,28.1c-60.5-29.9-81.6-34.5-81.6-34.5L272.2,210.3z"/>
	<path class="st4" d="M555.6,266.5c-4.9-17.7-40.7-48.7-60.4-61.7c-67.2-44.5-127.2-26.3-179-5.7c-51.6,20.6-96.7,43.2-157.6,129.4
		c-52.1,73.9-70.6,145.6-71,197c-0.1,13.3,1,25.2,3,35.4c0,0-0.1-0.1-0.1-0.1c-8-5.2-15.6-10.4-22.5-15.5
		c-6.8-5.1-12.9-10.2-18-15.1c0,0,0,0,0,0c-3.3-3.7-5.2-6.8-5.3-9.1c0.3-0.9,0.7-1.8,1.1-2.8c53.1-138.7,113.7-251.9,226.4-308.1
		c123.9-61.7,173.3-52,243,1.6c8.2,6.3,16.6,13.1,25.5,20.6c5.4,4.5,9.4,9.7,11.9,14.9C555.9,254,556.8,260.6,555.6,266.5
		L555.6,266.5z"/>
	<g>
		<path class="st3" d="M526,287.5c-17.1,0-35-8.8-47.8-15.1c-1.7-0.9-3.4-1.7-4.9-2.4c-0.7-0.4-1.1-1.3-0.7-2s1.3-1.1,2-0.7
			c1.5,0.7,3.2,1.6,5,2.4c16.3,8,40.9,20.1,60.6,12.3c0.8-0.3,1.6,0.1,1.9,0.8s-0.1,1.6-0.8,1.9C536.3,286.7,531.2,287.5,526,287.5
			L526,287.5z"/>
		<path class="st3" d="M547,249.7c-12.4,0-27.6-10.2-34.1-16.9c-5.1-5.2-4.8-12.6,1.1-21.8c0.2-0.4,0.6-0.6,1-0.7
			c0.4-0.1,0.8,0,1.2,0.3c7.6,5.8,15.9,12.6,25.5,20.6c5.4,4.5,9.6,9.7,12.3,15.4c0.2,0.4,0.2,0.8,0,1.2s-0.5,0.7-0.9,0.8
			C551.3,249.4,549.2,249.7,547,249.7z M515.7,214.1c-4.2,7.3-4.4,12.8-0.6,16.7c6.6,6.8,23.8,18.1,35.4,15.6
			c-2.5-4.7-6.1-9-10.7-12.8C530.8,226,522.9,219.6,515.7,214.1L515.7,214.1z"/>
		<path class="st3" d="M481.2,436.5c-1.6,0-3.2-0.3-4.7-0.9c-7-2.7-14.6-9.5-10.4-26.2c2.3-9.1,3.9-15.8,9.1-18.7
			c4-2.2,9.6-2,18.2,0.8c6.9,2.2,11.1,5,12.8,8.7c2.1,4.5,0.1,9.4-1.7,13.6c-0.6,1.4-1.1,2.7-1.5,4c-2.3,7.3-7.8,13.7-14.3,16.8
			C486.1,435.9,483.6,436.5,481.2,436.5L481.2,436.5z M481.7,392.3c-2,0-3.7,0.4-5,1.1c-4.1,2.3-5.6,8.3-7.7,16.8
			c-2.9,11.7,0,19.3,8.6,22.6c3.6,1.4,7.3,0.3,9.7-0.8c5.7-2.7,10.6-8.6,12.7-15c0.4-1.4,1.1-2.8,1.6-4.2c1.7-4.1,3.3-7.9,1.8-11.2
			c-1.3-2.9-4.9-5.2-10.9-7.1C488,393,484.5,392.3,481.7,392.3z"/>
		<path class="st3" d="M200,608.4c-18.6,0-58.4-18.6-67.4-22.9c-37.6-18.1-70.5-39.4-83.8-54.2c0,0,0,0,0-0.1
			c-3.7-4.1-5.5-7.4-5.6-10c0-0.2,0-0.4,0.1-0.6c20-53.2,48-121.9,87.7-181.7c40.1-60.3,86-102.8,140.5-129.9
			c62-30.9,105.9-44,142.5-42.6c33.2,1.3,62.8,14.1,102.1,44.3c7.7,5.9,16.1,12.7,25.5,20.6c5.4,4.5,9.6,9.7,12.3,15.4
			c3.3,6.8,4.3,13.7,3,20c0,0,0,0.1,0,0.1c-1.7,7.8-6.8,14-14.6,17.5c4.5,14.2,7.5,27.6,9,39.6c1,7.4,1.3,14.5,1.2,20.9
			c-0.3,9.3-2.5,17.8-6.5,24.5c-6.8,11.3-18.2,16.1-29,12.2c-0.3,0.1-0.7,0.2-1,0.2c-4.1,18-9.6,33.2-16.3,45.3
			c-9.7,17.4-25.5,26.4-38.8,22.3c-12.6,12.7-24.9,22.3-36.5,28.5c-10.5,5.6-21.5,7.2-30.1,4.4c-5.1-1.7-9.1-4.7-11.6-8.9
			c-13.6,9.9-29,16.7-45.2,23.9c-4.4,1.9-8.9,4-13.5,6.1c0,0-0.1,0-0.1,0v0c-51.6,23.8-85.3,53.6-116.2,102.9
			c-0.1,0.2-0.2,0.3-0.4,0.4C205.8,607.9,203.2,608.4,200,608.4L200,608.4z M51.1,529.3c13.1,14.5,45.6,35.5,82.8,53.4
			c36.1,17.4,64.7,26,71.5,21.6c31.2-49.7,65.2-79.7,117.3-103.8c0,0,0.1,0,0.1,0c4.6-2.1,9.2-4.1,13.6-6.1
			c16.7-7.4,32.4-14.4,46-24.6c0.4-0.3,0.8-0.4,1.3-0.3s0.8,0.4,1,0.8c2.1,4.2,5.8,7.3,10.7,8.9c7.9,2.6,18,1,27.8-4.2
			c11.5-6.1,23.8-15.8,36.4-28.6c0.4-0.4,1-0.6,1.6-0.4c12.1,4.3,26.9-4.2,36.1-20.6c6.7-12,12.2-27.3,16.2-45.4
			c0.1-0.6,0.6-1,1.2-1.1c0.7-0.1,1.4-0.3,2.2-0.5c0.3-0.1,0.6-0.1,0.9,0c9.7,3.7,19.6-0.5,25.8-10.8c3.7-6.2,5.9-14.2,6.1-23
			c0,0,0,0,0,0c0.2-6.3-0.2-13.1-1.1-20.4c-1.6-12.2-4.7-25.8-9.3-40.4c-0.2-0.8,0.1-1.6,0.9-1.9c7.5-3,12.5-8.6,14.1-15.8
			c0,0,0-0.1,0-0.1c1.2-5.7,0.3-11.9-2.8-18.2c-2.6-5.3-6.4-10.1-11.5-14.4c-9.5-7.9-17.8-14.6-25.4-20.5
			c-67.8-52-116.3-63.7-241.5-1.4c-54,26.9-99.6,69.1-139.3,128.9C94.1,400,66.2,468.3,46.2,521.3C46.4,522.7,47.4,525.2,51.1,529.3
			L51.1,529.3C51.1,529.3,51.1,529.3,51.1,529.3L51.1,529.3z"/>
		<path class="st3" d="M415,478.3c-0.9,0-1.8-0.1-2.7-0.2c-4.2-0.5-7.5-2.3-9.6-5.2c-4-5.5-6.4-14.3,4.8-24.8
			c6.1-5.8,10.6-10,16-9.6c4.1,0.3,8.2,3.1,13.4,9.4c4.1,5,5.9,9.2,5.4,12.8c-0.6,4.5-4.5,7.1-7.9,9.5c-1.1,0.8-2.2,1.5-3.1,2.2
			C426.7,476.1,420.7,478.3,415,478.3L415,478.3z M422.9,441.4c-3.9,0-7.9,3.7-13.3,8.8c-7.7,7.3-9.2,14.3-4.4,20.9
			c2,2.8,5.2,3.7,7.6,4c5.5,0.7,12-1.3,16.6-5.1c1-0.8,2.2-1.6,3.3-2.4c3.2-2.2,6.2-4.3,6.7-7.4c0.4-2.7-1.2-6.2-4.7-10.5
			c-4.5-5.5-8.1-8.1-11.3-8.3C423.2,441.4,423.1,441.4,422.9,441.4z"/>
	</g>
	<path class="st6" d="M786.8,192.3L684,375.1c-3.7,6.6-12,8.9-18.6,5.2L362.5,209.8c-6.6-3.7-8.9-12-5.2-18.6L460.1,8.5
		c3.7-6.6,12-8.9,18.6-5.2l302.8,170.4C788.2,177.4,790.5,185.8,786.8,192.3z"/>
	<path class="st4" d="M696.5,352.8c-12.9-43.1-30.4-90.4-52.1-139.8c-12.3-28.1-26-56.8-41-85.9c-0.6-1.2-1.2-2.3-1.8-3.5
		c-13.4-25.8-27.2-50.7-41.1-74.4l221.2,124.5c6.6,3.7,8.9,12,5.2,18.6l-15.2,27l-27.9,49.6L696.5,352.8z"/>
	<path class="st3" d="M672,383.5c-2.6,0-5.1-0.7-7.4-2L361.8,211.1c-3.5-2-6.1-5.2-7.2-9.1c-1.1-3.9-0.6-8,1.4-11.5L458.8,7.7
		c2-3.5,5.2-6.1,9.1-7.2c3.9-1.1,8-0.6,11.5,1.4l302.8,170.4c3.5,2,6.1,5.2,7.2,9.1s0.6,8-1.4,11.5l-1.3-0.7l1.3,0.7L685.3,375.8
		c-2,3.5-5.2,6.1-9.1,7.2C674.8,383.4,673.4,383.5,672,383.5L672,383.5z M472.1,3c-1.1,0-2.2,0.2-3.3,0.5c-3.1,0.9-5.7,2.9-7.3,5.8
		L358.6,191.9c-1.6,2.8-2,6.1-1.1,9.3s2.9,5.7,5.8,7.3L666.1,379c2.8,1.6,6.1,2,9.3,1.1c3.1-0.9,5.7-2.9,7.3-5.8l102.8-182.7
		c1.6-2.8,2-6.1,1.1-9.3s-2.9-5.7-5.8-7.3L478,4.6C476.2,3.5,474.1,3,472.1,3L472.1,3z"/>
	<path class="st2" d="M445,35.5l326.7,183.9l-27.9,49.6L417.1,85L445,35.5z"/>
	<path class="st3" d="M743.7,270.4c-0.2,0-0.5-0.1-0.7-0.2L416.3,86.3c-0.3-0.2-0.6-0.5-0.7-0.9s-0.1-0.8,0.1-1.1l27.9-49.6
		c0.4-0.7,1.3-1,2-0.6L772.4,218c0.3,0.2,0.6,0.5,0.7,0.9c0.1,0.4,0.1,0.8-0.1,1.1L745,269.6C744.8,270.1,744.3,270.4,743.7,270.4
		L743.7,270.4z M419.1,84.4l324.1,182.4l26.4-47L445.5,37.5L419.1,84.4z"/>
	<path class="st6" d="M743.7,268.9L644.4,213c-12.3-28.1-26-56.8-41-85.9c-0.6-1.2-1.2-2.3-1.8-3.5l170.1,95.7L743.7,268.9z"/>
	<path class="st3" d="M743.7,270.4c-0.2,0-0.5-0.1-0.7-0.2l-99.4-55.9c-0.3-0.2-0.5-0.4-0.6-0.7c-12.5-28.4-26.3-57.3-41-85.8
		c-0.6-1.2-1.2-2.3-1.8-3.5c-0.3-0.6-0.2-1.3,0.3-1.8s1.2-0.6,1.8-0.2L772.4,218c0.7,0.4,1,1.3,0.6,2l-27.9,49.6
		C744.8,270.1,744.3,270.4,743.7,270.4L743.7,270.4z M645.6,211.9l97.6,54.9l26.4-47l-164.4-92.5
		C619.7,155.5,633.2,183.9,645.6,211.9z"/>
	<path class="st3" d="M608.5,261.1c-1.9,0-3.8-0.5-5.6-1.5L407.2,149.5c-2.7-1.5-4.6-4-5.4-6.9c-0.8-3-0.5-6.1,1.1-8.7l7-12.5
		c1.5-2.7,4-4.6,6.9-5.4c3-0.8,6.1-0.5,8.7,1.1l195.7,110.1c5.5,3.1,7.5,10.1,4.4,15.7l-7,12.5C616.5,259,612.6,261.1,608.5,261.1
		L608.5,261.1z M604.4,257c4.1,2.3,9.3,0.8,11.6-3.2l7-12.5c2.3-4.1,0.8-9.3-3.2-11.6L424,119.6c-2-1.1-4.3-1.4-6.5-0.8
		c-2.2,0.6-4,2-5.1,4l-7,12.5c-1.1,2-1.4,4.3-0.8,6.5c0.6,2.2,2,4,4,5.1L604.4,257z"/>
	<path class="st3" d="M698.4,311.7c-2,0-3.9-0.5-5.6-1.5l-51-28.7c-2.7-1.5-4.6-4-5.4-6.9c-0.8-3-0.5-6.1,1.1-8.7l7-12.5
		c1.5-2.7,4-4.6,6.9-5.4c3-0.8,6.1-0.5,8.7,1.1l51,28.7c5.5,3.1,7.5,10.1,4.4,15.7l-7,12.5c-1.5,2.7-4,4.6-6.9,5.4
		C700.4,311.5,699.4,311.7,698.4,311.7L698.4,311.7z M654.4,250.5c-0.8,0-1.5,0.1-2.3,0.3c-2.2,0.6-4,2-5.1,4l-7,12.5
		c-1.1,2-1.4,4.3-0.8,6.5c0.6,2.2,2,4,4,5.1l51,28.7c2,1.1,4.3,1.4,6.5,0.8c2.2-0.6,4-2,5.1-4l7-12.5c2.3-4.1,0.8-9.3-3.2-11.6
		l-51-28.7C657.3,250.9,655.9,250.5,654.4,250.5L654.4,250.5z"/>
	<path class="st8" d="M489.2,258.5c-59.6,43.8-98.4,19.4-119.1,100.7c-20.7,81.3-91,99.1-125.1,103.6l0.1-13.2l1.1-175.7l0.1-21.9
		c62.9-32.3,133.1-44.4,184.4-52.3c5.4-0.8,10.5-1.6,15.4-2.4c16.9-2.6,30.8-5.2,42.1-5c5.7,0.1,10.7,1,15.1,2.9
		c5.8,2.6,10.1,6.5,12.6,11.2c0.8,1.6,1.5,3.3,1.9,5C520.6,224.1,512.8,241.1,489.2,258.5L489.2,258.5z"/>
	<path class="st2" d="M385.7,307.6c10.2-3.9,29.6-13.9,41-17.8c-19,9.5-46.5,29.8-56.6,69.4c-20.7,81.2-91,99.1-125.1,103.6
		c-17.2,2.3-21.6-10.3-1.8-9.4c3.7,0.1,9.7,2.4,21.6-2.5c24-9.8,11.8-25.4,57.5-39.1c35.3-10.5,47.3-36.5,44.6-67.2
		C365.2,325,345.3,323,385.7,307.6L385.7,307.6z"/>
	<path class="st2" d="M241,464.6c-5.4,0-9.7-1.5-11.6-4.2c-1-1.4-1.1-3-0.3-4.4c1.6-2.9,6.8-4.4,14.2-4.1c0.7,0,1.5,0.1,2.4,0.2
		c3.7,0.5,9.2,1.2,18.5-2.6c9.4-3.8,12.9-8.5,17-13.8c6.1-8,13-17,40.6-25.3c39.8-11.9,45.6-42.2,43.5-65.6c-0.5-5.3-2.3-9.2-4-12.6
		c-1.8-3.8-3.4-7.1-1.9-10.6c1.9-4.7,9.1-9,25.7-15.3c4.5-1.7,10.9-4.7,17.6-7.8c8.4-3.9,17-7.9,23.4-10.1c0.7-0.3,1.6,0.1,1.9,0.8
		s0,1.6-0.7,1.9c-20.1,10.1-46,30.1-55.8,68.4c-9.1,35.7-28.7,63.1-58.2,81.5c-19.3,12-42.2,19.8-68.2,23.2
		C243.8,464.5,242.4,464.6,241,464.6L241,464.6z M241.5,454.8c-6.4,0-9.1,1.6-9.7,2.6c-0.2,0.3-0.3,0.7,0.1,1.3
		c1.1,1.6,5.4,3.6,12.9,2.6c25.5-3.4,48.1-11.1,67-22.8c18.2-11.3,32.5-26.1,42.8-44.3c-7,8-17.3,14.7-31.9,19
		c-26.7,8-33.3,16.6-39.1,24.3c-4.2,5.5-8.1,10.6-18.3,14.8c-10.1,4.1-16.1,3.3-20,2.8c-0.8-0.1-1.5-0.2-2.2-0.2
		C242.6,454.8,242,454.8,241.5,454.8L241.5,454.8z M386.3,309c-15.3,5.8-22.4,9.9-23.9,13.6c-0.9,2.3,0.2,4.8,1.9,8.2
		c1.6,3.5,3.7,7.8,4.2,13.6c0.4,4.7,0.5,9.7,0.2,14.8c0-0.1,0.1-0.3,0.1-0.4c7.4-28.9,23.7-47.7,40.1-59.8c-1.6,0.7-3.1,1.4-4.7,2.2
		C397.3,304.3,390.9,307.3,386.3,309L386.3,309z"/>
	<path class="st4" d="M515.9,206.5c-12.3-15.8-75.8-3.5-109,2.6c-34.2,6.3-75.3,19.9-96.5,27.1c-36,12.3-52.6,31.7-64.1,37.7
		c-3,1.5-5.6,2.2-8.1,1.6c-10-2.2-9.4-16,8.2-23.5c62.9-32.3,133.1-44.4,184.4-52.3c5.4-0.8,10.5-1.6,15.4-2.4
		c16.9-2.6,30.8-5.2,42.1-5c5.7,0.1,10.7,1,15.1,2.9C509.1,197.9,513.4,201.8,515.9,206.5L515.9,206.5z"/>
	<path class="st3" d="M245,464.3c-0.7,0-1.4-0.5-1.5-1.3c-0.1-0.8,0.5-1.6,1.3-1.7c25.5-3.4,48.1-11,67-22.8
		c28.8-17.9,48-44.7,56.9-79.7c13-50.9,32.3-60.8,62.8-72.5c0.1,0,0.1-0.1,0.2-0.1c20.9-7.9,37.2-14.6,56.7-29
		c19.4-14.3,29.7-29.9,28.4-42.9c-0.8-7.7-5.8-14-14-17.7c-3.6-1.6-8-2.5-13.3-2.8c-9.6-0.4-22,1.6-35,3.7c-2.6,0.4-5.3,0.9-8.1,1.3
		l-6.1,0.9c-50.4,7.7-126.6,19.4-193.2,53.6c-0.7,0.4-1.6,0.1-2-0.6s-0.1-1.6,0.6-2c67-34.4,143.5-46.1,194.2-53.9l6.1-0.9
		c2.7-0.4,5.4-0.8,8-1.3c13.2-2.1,25.7-4.1,35.6-3.7c5.7,0.2,10.4,1.2,14.4,3c9.2,4.2,14.8,11.3,15.8,20.2
		c0.9,8.3-1.8,25.2-29.6,45.6c-19.7,14.5-36.2,21.3-57.2,29.3c-0.1,0-0.1,0.1-0.2,0.1c-26.7,10.3-47.8,18.4-61.1,70.5
		c-20.2,79.3-87.8,99.6-126.4,104.7C245.2,464.3,245.1,464.3,245,464.3L245,464.3z"/>
	<path class="st3" d="M452.3,228c-5.1,0-8.7-1-11.3-3.1c-4-3.4-4.3-8.8-4.5-14.1c-0.2-3.9-0.4-7.9-2-11.1c-0.2-0.4-0.2-0.9,0-1.4
		s0.6-0.7,1.1-0.8c5.2-0.8,10-1.6,14.4-2.3c17.7-2.9,29.4-4.8,39.4-4.3c0.8,0,1.4,0.6,1.4,1.4c1.4,14.7-7.9,32-31.4,35.2
		C456.9,227.8,454.5,228,452.3,228z M438.1,200.2c1.2,3.3,1.3,6.9,1.5,10.4c0.2,4.8,0.4,9.4,3.4,11.9c2.8,2.4,8.1,3,16.1,1.9
		c20.9-2.8,29.5-17.6,28.9-30.6c-9.4-0.2-20.7,1.6-37.4,4.4C446.7,198.9,442.6,199.5,438.1,200.2L438.1,200.2z"/>
	<path class="st3" d="M395.9,227.8c-0.6,0-1.1-0.3-1.4-0.9c-2.9-6.7-3.4-15.5-1.1-21.3c0.3-0.8,1.2-1.2,1.9-0.9s1.2,1.2,0.9,1.9
		c-2,5-1.5,13,1.1,19c0.3,0.8,0,1.6-0.8,2C396.3,227.8,396.1,227.8,395.9,227.8z"/>
	<path class="st3" d="M387.1,233.7c-0.6,0-1.1-0.3-1.4-0.9c-3.3-7.6-4.5-17.3-3.1-25.3c0.1-0.8,0.9-1.4,1.7-1.2
		c0.8,0.1,1.4,0.9,1.2,1.7c-1.3,7.3-0.1,16.6,2.9,23.6c0.3,0.8,0,1.6-0.8,2C387.5,233.6,387.3,233.7,387.1,233.7L387.1,233.7z"/>
	<path class="st2" d="M428.9,346.8c-5.2-7.2-7.8-22.6-13.8-21.8c-5.2,0.7-3.2,8.4,3,12.2C422.8,340.1,428.9,346.8,428.9,346.8
		L428.9,346.8z"/>
	<path class="st2" d="M428.9,348.3c-0.4,0-0.8-0.2-1.1-0.5c-0.1-0.1-6-6.6-10.4-9.3c-4.5-2.8-7.4-7.6-6.6-11.3
		c0.4-2.1,1.9-3.4,4.1-3.7c4.9-0.6,7.5,5.7,10.2,12.4c1.5,3.6,3.1,7.4,4.9,10c0.5,0.6,0.4,1.5-0.3,2
		C429.6,348.2,429.2,348.3,428.9,348.3L428.9,348.3z M415.5,326.5c-0.1,0-0.1,0-0.2,0c-1.2,0.2-1.5,0.8-1.6,1.3
		c-0.4,2.1,1.6,5.9,5.2,8.1c1.4,0.8,2.9,2,4.3,3.3c-0.3-0.7-0.6-1.4-0.9-2.1C420.3,332.1,418,326.5,415.5,326.5L415.5,326.5z"/>
</g>
</svg>
